<svg width="310" height="310" viewBox="0 0 310 310" fill="none" xmlns="http://www.w3.org/2000/svg">
<path d="M147.651 1.92236C152.217 -0.640785 157.783 -0.640785 162.349 1.92236L188.281 16.4702C190.473 17.7017 192.937 18.3625 195.44 18.3925L225.166 18.763C230.402 18.8231 235.218 21.6065 237.892 26.112L253.08 51.6733C254.362 53.836 256.164 55.6382 258.327 56.9198L283.888 72.1084C288.384 74.7817 291.167 79.5976 291.237 84.834L291.607 114.56C291.638 117.074 292.298 119.537 293.53 121.719L308.078 147.651C310.641 152.217 310.641 157.783 308.078 162.349L293.53 188.281C292.298 190.473 291.638 192.936 291.607 195.44L291.237 225.166C291.167 230.402 288.384 235.218 283.888 237.892L258.327 253.08C256.174 254.362 254.362 256.164 253.08 258.327L237.892 283.888C235.218 288.383 230.392 291.167 225.166 291.237L195.44 291.607C192.927 291.637 190.463 292.298 188.281 293.53L162.349 308.078C157.783 310.641 152.217 310.641 147.651 308.078L121.719 293.53C119.527 292.298 117.064 291.637 114.56 291.607L84.834 291.237C79.5976 291.167 74.7817 288.383 72.1084 283.888L56.9198 258.327C55.6382 256.174 53.836 254.362 51.6733 253.08L26.112 237.892C21.6165 235.218 18.8331 230.392 18.763 225.166L18.3925 195.44C18.3625 192.926 17.7017 190.463 16.4702 188.281L1.92236 162.349C-0.640786 157.783 -0.640786 152.217 1.92236 147.651L16.4702 121.719C17.7017 119.527 18.3625 117.063 18.3925 114.56L18.763 84.834C18.8231 79.5976 21.6065 74.7817 26.112 72.1084L51.6733 56.9198C53.836 55.6382 55.6382 53.836 56.9198 51.6733L72.1084 26.112C74.7817 21.6165 79.5976 18.8331 84.834 18.763L114.56 18.3925C117.074 18.3625 119.537 17.7017 121.719 16.4702L147.651 1.92236Z" fill="#227DF5" style="fill:#227DF5;fill:color(display-p3 0.1333 0.4919 0.9608);fill-opacity:1;"/>
<path d="M155 300C152.474 300 149.958 299.373 147.7 298.1L124.03 284.823C121.862 283.61 119.405 282.944 116.919 282.914L89.7776 282.576C84.6159 282.516 79.7725 279.712 77.1369 275.276L63.2729 251.934C61.9999 249.796 60.1998 247.996 58.0615 246.723L34.7195 232.859C30.2838 230.224 27.4891 225.38 27.4195 220.219L27.0813 193.078C27.0515 190.592 26.3951 188.135 25.1718 185.967L11.8946 162.297C9.36846 157.792 9.36846 152.203 11.8946 147.698L25.1718 124.028C26.3852 121.86 27.0515 119.403 27.0813 116.917L27.4195 89.7762C27.4792 84.6146 30.2838 79.7713 34.7195 77.1357L58.0615 63.272C60.1998 61.999 61.9999 60.1989 63.2729 58.0607L77.1369 34.719C79.7725 30.2834 84.6159 27.4888 89.7776 27.4192L116.919 27.0811C119.405 27.0512 121.862 26.3948 124.03 25.1716L147.7 11.8946C152.205 9.36847 157.795 9.36847 162.3 11.8946L185.97 25.1716C188.138 26.3849 190.595 27.0512 193.081 27.0811L220.222 27.4192C225.384 27.4789 230.228 30.2834 232.863 34.719L246.727 58.0607C248 60.1989 249.8 61.999 251.939 63.272L275.281 77.1357C279.716 79.7713 282.511 84.6146 282.58 89.7762L282.919 116.917C282.949 119.403 283.605 121.86 284.828 124.028L298.105 147.698C300.632 152.203 300.632 157.792 298.105 162.297L284.828 185.967C283.615 188.135 282.958 190.592 282.919 193.078L282.58 220.219C282.521 225.38 279.716 230.224 275.281 232.859L251.939 246.723C249.8 247.996 248 249.796 246.727 251.934L232.863 275.276C230.228 279.712 225.384 282.506 220.222 282.576L193.081 282.914C190.595 282.944 188.138 283.6 185.97 284.823L162.3 298.1C160.052 299.363 157.526 300 155 300ZM155 12.004C152.812 12.004 150.624 12.551 148.675 13.645L125.004 26.9219C122.548 28.3043 119.763 29.0502 116.939 29.0801L89.7975 29.4182C85.322 29.4779 81.125 31.8946 78.8376 35.7434L64.9736 59.085C63.5315 61.5117 61.4927 63.5505 59.0759 64.9826L35.7339 78.8463C31.885 81.1338 29.4683 85.3307 29.4086 89.8061L29.0704 116.947C29.0406 119.761 28.2848 122.556 26.9123 125.012L13.6351 148.682C11.4471 152.581 11.4471 157.434 13.6351 161.333L26.9123 185.003C28.2947 187.459 29.0406 190.254 29.0704 193.068L29.4086 220.209C29.4683 224.684 31.885 228.881 35.7339 231.169L59.0759 245.032C61.5026 246.474 63.5414 248.513 64.9736 250.93L78.8376 274.272C81.125 278.12 85.322 280.537 89.7975 280.597L116.939 280.935C119.753 280.965 122.538 281.721 125.004 283.093L148.675 296.37C152.573 298.558 157.427 298.558 161.325 296.37L184.996 283.093C187.452 281.711 190.247 280.965 193.061 280.935L220.202 280.597C224.678 280.537 228.875 278.12 231.162 274.272L245.026 250.93C246.469 248.503 248.507 246.464 250.924 245.032L274.266 231.169C278.115 228.881 280.532 224.684 280.591 220.209L280.93 193.068C280.969 190.254 281.715 187.459 283.088 185.003L296.365 161.333C298.553 157.434 298.553 152.581 296.365 148.682L283.088 125.012C281.705 122.556 280.959 119.771 280.93 116.947L280.591 89.8061C280.532 85.3307 278.115 81.1338 274.266 78.8463L250.924 64.9826C248.497 63.5405 246.459 61.5017 245.026 59.085L231.162 35.7434C228.875 31.8946 224.678 29.4779 220.202 29.4182L193.061 29.0801C190.247 29.0403 187.462 28.2944 184.996 26.9219L161.325 13.645C159.376 12.551 157.188 12.004 155 12.004Z" fill="white" style="fill:white;fill-opacity:1;"/>
<path d="M177.276 99.6776L191.134 96.5392H191.144C194.638 95.7497 197.776 98.6512 196.829 101.8L192.21 117.146C191.588 119.209 189.762 120.808 187.423 121.064C175.5 122.357 164.179 118.834 155 112.014C145.821 118.834 134.5 122.357 122.577 121.064C120.238 120.808 118.412 119.199 117.79 117.146L113.171 101.8C112.224 98.6512 115.362 95.7497 118.856 96.5392L132.714 99.6776C134.855 100.161 137.116 99.5888 138.675 98.1775L151.664 86.4034C153.51 84.7355 156.49 84.7355 158.326 86.4034L171.315 98.1775C172.874 99.5987 175.135 100.161 177.276 99.6776Z" fill="white" style="fill:white;fill-opacity:1;"/>
<path d="M156.441 124.39C161.426 127.144 170.644 131.536 183.82 131.2C186.051 131.141 187.828 133.016 187.245 134.96L182.064 150.959C180.929 154.739 176.378 156.367 172.815 154.146L157.655 144.702C156.056 143.705 153.934 143.705 152.325 144.702L137.55 154.146C133.987 156.367 129.072 154.739 127.937 150.959L122.745 134.96C122.163 133.016 123.939 131.141 126.17 131.2C139.346 131.536 148.555 127.144 153.549 124.39C154.487 123.867 155.523 123.877 156.441 124.39Z" fill="white" style="fill:white;fill-opacity:1;"/>
<path d="M148.91 59.5801L146.42 59.76L146.02 54.2301L138.9 43.52L141.67 43.3201L147.07 51.3501L151.23 42.63L154.09 42.42L148.51 54.01L148.92 59.5901L148.91 59.5801Z" fill="white" style="fill:white;fill-opacity:1;"/>
<path d="M133.22 61.6001L135.55 60.9401L135.56 60.9301L130.98 44.8201L128.89 45.41L126.21 59.3501L116.62 48.9L114.51 49.5001L119.09 65.6101L121.42 64.9501L118.39 54.3L126.76 63.4401L127.9 63.1101L130.19 50.9501L133.22 61.6001Z" fill="white" style="fill:white;fill-opacity:1;"/>
<path d="M104.12 72.98L94.5503 70.66L93.8198 71.12L97.5601 77.09L95.4502 78.42L86.5601 64.23L88.6699 62.9L92.52 69.04L93.0898 68.6801L95.0303 58.91L97.6602 57.26L95.5103 68.53L106.99 71.1801L104.13 72.98H104.12Z" fill="white" style="fill:white;fill-opacity:1;"/>
<path d="M88.8799 83.53L90.4497 82.1101L79.1997 69.7001L77.3296 71.3901L85.5396 80.4501L70.3496 77.7201L68.7798 79.1401L80.0298 91.55L81.8799 89.8701L73.8096 80.9601L88.8799 83.53Z" fill="white" style="fill:white;fill-opacity:1;"/>
<path fill-rule="evenodd" clip-rule="evenodd" d="M75.2202 96.9601L71.2002 95.77L66.52 101.76L68.6499 105.37L66.9902 107.5L58.02 91.77L59.4502 89.9301L76.8799 94.8201L75.2202 96.9501V96.9601ZM61.3198 92.88L65.2002 99.49L68.6699 95.04L61.3198 92.88Z" fill="white" style="fill:white;fill-opacity:1;"/>
<path fill-rule="evenodd" clip-rule="evenodd" d="M63.6499 113.11L55.1201 114.78L54.0298 116.76L59.8799 119.97L58.6802 122.16L44 114.09L47.54 107.65C49.0898 104.83 51.8999 103.93 54.5498 105.38C57.0698 106.76 57.8398 109.42 56.5601 112.1L65.1499 110.38L63.6602 113.1L63.6499 113.11ZM54.2402 111.35C55.0698 109.84 54.7002 108.33 53.3398 107.58C51.96 106.82 50.4902 107.32 49.6602 108.83L47.3198 113.08L51.8999 115.6L54.2402 111.35Z" fill="white" style="fill:white;fill-opacity:1;"/>
<path fill-rule="evenodd" clip-rule="evenodd" d="M184.08 54.64C185.04 49.86 182.48 45.78 177.27 44.73V44.74L171.92 43.66L168.62 60.0801L173.97 61.15C179.18 62.2001 183.12 59.42 184.08 54.64ZM181.6 54.15C180.92 57.5601 178.17 59.53 174.44 58.78L174.43 58.77L171.53 58.1901L173.88 46.53L176.78 47.11C180.51 47.86 182.29 50.74 181.6 54.15Z" fill="white" style="fill:white;fill-opacity:1;"/>
<path d="M198.43 68.88L187.63 64.5701L193.84 49.01L204.62 53.3101L203.72 55.5601L195.25 52.1801L193.5 56.5701L201.32 59.6901L200.43 61.92L192.61 58.8L190.84 63.24L199.33 66.63L198.43 68.88Z" fill="white" style="fill:white;fill-opacity:1;"/>
<path d="M213.7 77.7301L215.5 78.8501L224.37 64.65L222.23 63.3201L215.75 73.6801L214.24 58.3201L212.44 57.2001L203.57 71.4L205.69 72.7201L212.06 62.53L213.7 77.7301Z" fill="white" style="fill:white;fill-opacity:1;"/>
<path d="M234.95 76.51L225.4 87.1899L223.52 85.51L233.07 74.83L228.99 71.1799L230.61 69.37L240.67 78.37L239.05 80.1799L234.95 76.51Z" fill="white" style="fill:white;fill-opacity:1;"/>
<path d="M245.45 83.64L232.91 94.74L234.56 96.61L247.1 85.51L245.45 83.64Z" fill="white" style="fill:white;fill-opacity:1;"/>
<path d="M255.47 103.84L253.59 102.11C254.88 100.86 255.03 99.03 253.96 97.5C252.9 95.99 251.33 95.61 250.12 96.46C249.16 97.13 249.01 98.01 249.54 99.29L250.84 102.5C251.73 104.73 251.54 106.9 249.39 108.41C246.81 110.22 243.82 109.38 241.76 106.44C239.86 103.73 239.7 100.48 242.13 98.3L244.15 100.13C242.6 101.67 242.64 103.55 243.84 105.27C245.04 106.99 246.6 107.35 247.85 106.47C248.89 105.74 249.03 104.88 248.42 103.4L247.08 100.18C246.36 98.3199 246.11 96.0499 248.55 94.34C250.97 92.65 253.9 93.36 255.89 96.2C257.71 98.7999 257.5 101.73 255.47 103.84Z" fill="white" style="fill:white;fill-opacity:1;"/>
<path d="M251.16 121.66L263.94 115.19L266.43 120.09L268.59 118.99L262.49 106.95L260.33 108.05L262.8 112.94L250.02 119.41L251.16 121.66Z" fill="white" style="fill:white;fill-opacity:1;"/>
<path d="M134.922 272.19V271.254C135.194 271.038 135.51 270.798 135.87 270.534C136.23 270.27 136.594 269.982 136.962 269.67C137.338 269.358 137.686 269.026 138.006 268.674C138.326 268.322 138.582 267.954 138.774 267.57C138.974 267.178 139.074 266.778 139.074 266.37C139.074 265.93 138.954 265.574 138.714 265.302C138.474 265.022 138.114 264.882 137.634 264.882C137.274 264.882 136.974 264.966 136.734 265.134C136.502 265.302 136.33 265.53 136.218 265.818C136.106 266.106 136.046 266.426 136.038 266.778L134.886 266.694C134.886 266.302 134.946 265.93 135.066 265.578C135.186 265.226 135.362 264.914 135.594 264.642C135.834 264.362 136.126 264.142 136.47 263.982C136.822 263.822 137.222 263.742 137.67 263.742C138.182 263.742 138.626 263.85 139.002 264.066C139.386 264.282 139.686 264.582 139.902 264.966C140.118 265.35 140.226 265.802 140.226 266.322C140.226 266.762 140.146 267.186 139.986 267.594C139.834 268.002 139.618 268.394 139.338 268.77C139.058 269.138 138.734 269.486 138.366 269.814C137.998 270.142 137.602 270.454 137.178 270.75C136.754 271.038 136.314 271.302 135.858 271.542L136.17 271.098H140.562V272.19H134.922Z" fill="white" style="fill:white;fill-opacity:1;"/>
<path d="M149.269 272.286C148.781 272.286 148.369 272.198 148.033 272.022C147.705 271.846 147.433 271.61 147.217 271.314C147.009 271.01 146.849 270.674 146.737 270.306C146.633 269.93 146.561 269.542 146.521 269.142C146.481 268.734 146.461 268.346 146.461 267.978C146.461 267.61 146.477 267.23 146.509 266.838C146.549 266.438 146.621 266.054 146.725 265.686C146.837 265.31 146.997 264.974 147.205 264.678C147.413 264.382 147.681 264.146 148.009 263.97C148.345 263.794 148.753 263.706 149.233 263.706C149.705 263.706 150.105 263.794 150.433 263.97C150.761 264.138 151.029 264.366 151.237 264.654C151.453 264.942 151.617 265.27 151.729 265.638C151.841 266.006 151.917 266.394 151.957 266.802C152.005 267.202 152.029 267.594 152.029 267.978C152.029 268.378 152.005 268.782 151.957 269.19C151.917 269.598 151.837 269.986 151.717 270.354C151.605 270.722 151.445 271.054 151.237 271.35C151.029 271.638 150.765 271.866 150.445 272.034C150.125 272.202 149.733 272.286 149.269 272.286ZM149.269 271.158C149.669 271.158 149.981 271.018 150.205 270.738C150.437 270.458 150.601 270.082 150.697 269.61C150.793 269.138 150.841 268.61 150.841 268.026C150.841 267.41 150.789 266.866 150.685 266.394C150.589 265.914 150.425 265.534 150.193 265.254C149.961 264.974 149.641 264.834 149.233 264.834C148.913 264.834 148.649 264.918 148.441 265.086C148.241 265.254 148.085 265.486 147.973 265.782C147.861 266.078 147.781 266.418 147.733 266.802C147.685 267.178 147.661 267.582 147.661 268.014C147.661 268.43 147.685 268.826 147.733 269.202C147.781 269.578 147.861 269.914 147.973 270.21C148.093 270.498 148.257 270.73 148.465 270.906C148.673 271.074 148.941 271.158 149.269 271.158Z" fill="white" style="fill:white;fill-opacity:1;"/>
<path d="M157.952 272.19V271.254C158.224 271.038 158.54 270.798 158.9 270.534C159.26 270.27 159.624 269.982 159.992 269.67C160.368 269.358 160.716 269.026 161.036 268.674C161.356 268.322 161.612 267.954 161.804 267.57C162.004 267.178 162.104 266.778 162.104 266.37C162.104 265.93 161.984 265.574 161.744 265.302C161.504 265.022 161.144 264.882 160.664 264.882C160.304 264.882 160.004 264.966 159.764 265.134C159.532 265.302 159.36 265.53 159.248 265.818C159.136 266.106 159.076 266.426 159.068 266.778L157.916 266.694C157.916 266.302 157.976 265.93 158.096 265.578C158.216 265.226 158.392 264.914 158.624 264.642C158.864 264.362 159.156 264.142 159.5 263.982C159.852 263.822 160.252 263.742 160.7 263.742C161.212 263.742 161.656 263.85 162.032 264.066C162.416 264.282 162.716 264.582 162.932 264.966C163.148 265.35 163.256 265.802 163.256 266.322C163.256 266.762 163.176 267.186 163.016 267.594C162.864 268.002 162.648 268.394 162.368 268.77C162.088 269.138 161.764 269.486 161.396 269.814C161.028 270.142 160.632 270.454 160.208 270.75C159.784 271.038 159.344 271.302 158.888 271.542L159.2 271.098H163.592V272.19H157.952Z" fill="white" style="fill:white;fill-opacity:1;"/>
<path d="M172.251 272.298C171.747 272.298 171.283 272.19 170.859 271.974C170.443 271.758 170.099 271.466 169.827 271.098C169.555 270.722 169.379 270.298 169.299 269.826L170.451 269.622C170.499 269.894 170.595 270.15 170.739 270.39C170.891 270.63 171.091 270.822 171.339 270.966C171.595 271.102 171.891 271.17 172.227 271.17C172.611 271.17 172.931 271.082 173.187 270.906C173.451 270.722 173.651 270.49 173.787 270.21C173.923 269.922 173.991 269.618 173.991 269.298C173.991 268.994 173.927 268.714 173.799 268.458C173.671 268.202 173.479 267.998 173.223 267.846C172.975 267.686 172.663 267.606 172.287 267.606C171.943 267.606 171.635 267.686 171.363 267.846C171.099 267.998 170.875 268.21 170.691 268.482L169.551 268.182L170.343 263.826H174.855V264.918H170.775L171.399 264.426L170.835 267.522L170.487 267.438C170.799 267.078 171.123 266.834 171.459 266.706C171.803 266.57 172.135 266.502 172.455 266.502C172.999 266.502 173.479 266.63 173.895 266.886C174.319 267.142 174.647 267.482 174.879 267.906C175.111 268.33 175.227 268.794 175.227 269.298C175.227 269.698 175.155 270.078 175.011 270.438C174.867 270.798 174.659 271.118 174.387 271.398C174.123 271.678 173.807 271.898 173.439 272.058C173.079 272.218 172.683 272.298 172.251 272.298Z" fill="white" style="fill:white;fill-opacity:1;"/>
<path d="M41 147.61L42.8887 152.721L48 154.61L42.8887 156.499L41 161.61L39.1113 156.499L34 154.61L39.1113 152.721L41 147.61Z" fill="white" style="fill:white;fill-opacity:1;"/>
<path d="M269 147.61L270.889 152.721L276 154.61L270.889 156.499L269 161.61L267.111 156.499L262 154.61L267.111 152.721L269 147.61Z" fill="white" style="fill:white;fill-opacity:1;"/>
<path fill-rule="evenodd" clip-rule="evenodd" d="M265 178H45V177H265V178Z" fill="white" style="fill:white;fill-opacity:1;"/>
<path d="M49.4851 215V197.575H55.4351C57.1351 197.575 58.4684 197.967 59.4351 198.75C60.4184 199.517 60.9101 200.583 60.9101 201.95C60.9101 202.783 60.7351 203.517 60.3851 204.15C60.0351 204.767 59.5434 205.258 58.9101 205.625C59.8768 205.942 60.6018 206.467 61.0851 207.2C61.5684 207.933 61.8101 208.85 61.8101 209.95C61.8101 211.533 61.3101 212.775 60.3101 213.675C59.3268 214.558 57.9434 215 56.1601 215H49.4851ZM52.3851 212.35H55.9351C57.9351 212.35 58.9351 211.508 58.9351 209.825C58.9351 209.025 58.6934 208.408 58.2101 207.975C57.7434 207.525 57.0851 207.3 56.2351 207.3H52.3851V212.35ZM52.3851 204.7H55.6351C56.3684 204.7 56.9518 204.5 57.3851 204.1C57.8184 203.683 58.0351 203.117 58.0351 202.4C58.0351 201.717 57.8018 201.183 57.3351 200.8C56.8851 200.417 56.2518 200.225 55.4351 200.225H52.3851V204.7ZM64.2701 215V202.675H67.0451V215H64.2701ZM64.1451 200.65V197.575H67.1701V200.65H64.1451ZM75.5765 215.225C74.4098 215.225 73.3598 214.95 72.4265 214.4C71.4932 213.85 70.7598 213.092 70.2265 212.125C69.7098 211.158 69.4515 210.058 69.4515 208.825C69.4515 207.592 69.7098 206.492 70.2265 205.525C70.7598 204.558 71.4848 203.808 72.4015 203.275C73.3348 202.725 74.3932 202.45 75.5765 202.45C76.7765 202.45 77.8265 202.725 78.7265 203.275C79.6432 203.808 80.3682 204.558 80.9015 205.525C81.4348 206.492 81.7015 207.592 81.7015 208.825C81.7015 210.058 81.4348 211.158 80.9015 212.125C80.3848 213.092 79.6598 213.85 78.7265 214.4C77.8098 214.95 76.7598 215.225 75.5765 215.225ZM75.6015 212.775C76.2848 212.775 76.8765 212.617 77.3765 212.3C77.8765 211.983 78.2598 211.525 78.5265 210.925C78.7932 210.325 78.9265 209.625 78.9265 208.825C78.9265 208.008 78.7932 207.308 78.5265 206.725C78.2598 206.125 77.8765 205.667 77.3765 205.35C76.8765 205.033 76.2848 204.875 75.6015 204.875C74.8848 204.875 74.2765 205.042 73.7765 205.375C73.2765 205.692 72.8932 206.142 72.6265 206.725C72.3598 207.308 72.2265 208.008 72.2265 208.825C72.2265 209.625 72.3598 210.325 72.6265 210.925C72.8932 211.525 73.2765 211.983 73.7765 212.3C74.2765 212.617 74.8848 212.775 75.6015 212.775ZM86.857 215.225C86.057 215.225 85.3903 214.983 84.857 214.5C84.3236 214 84.057 213.208 84.057 212.125V197.575H86.832V211.575C86.832 211.958 86.9153 212.242 87.082 212.425C87.2653 212.592 87.4986 212.675 87.782 212.675C87.932 212.675 88.082 212.658 88.232 212.625C88.3986 212.592 88.5653 212.55 88.732 212.5V214.85C88.4153 214.983 88.0903 215.075 87.757 215.125C87.4236 215.192 87.1236 215.225 86.857 215.225ZM96.2679 215.225C95.1012 215.225 94.0512 214.95 93.1179 214.4C92.1846 213.85 91.4512 213.092 90.9179 212.125C90.4012 211.158 90.1429 210.058 90.1429 208.825C90.1429 207.592 90.4012 206.492 90.9179 205.525C91.4512 204.558 92.1762 203.808 93.0929 203.275C94.0262 202.725 95.0846 202.45 96.2679 202.45C97.4679 202.45 98.5179 202.725 99.4179 203.275C100.335 203.808 101.06 204.558 101.593 205.525C102.126 206.492 102.393 207.592 102.393 208.825C102.393 210.058 102.126 211.158 101.593 212.125C101.076 213.092 100.351 213.85 99.4179 214.4C98.5012 214.95 97.4512 215.225 96.2679 215.225ZM96.2929 212.775C96.9762 212.775 97.5679 212.617 98.0679 212.3C98.5679 211.983 98.9512 211.525 99.2179 210.925C99.4846 210.325 99.6179 209.625 99.6179 208.825C99.6179 208.008 99.4846 207.308 99.2179 206.725C98.9512 206.125 98.5679 205.667 98.0679 205.35C97.5679 205.033 96.9762 204.875 96.2929 204.875C95.5762 204.875 94.9679 205.042 94.4679 205.375C93.9679 205.692 93.5846 206.142 93.3179 206.725C93.0512 207.308 92.9179 208.008 92.9179 208.825C92.9179 209.625 93.0512 210.325 93.3179 210.925C93.5846 211.525 93.9679 211.983 94.4679 212.3C94.9679 212.617 95.5762 212.775 96.2929 212.775ZM109.948 220.35C108.132 220.35 106.698 220.017 105.648 219.35C104.598 218.7 104.073 217.808 104.073 216.675C104.073 216.575 104.073 216.458 104.073 216.325C104.09 216.192 104.115 216.058 104.148 215.925L107.498 213.75L108.248 214.475L106.623 216.5C106.607 216.55 106.598 216.592 106.598 216.625C106.598 216.675 106.598 216.725 106.598 216.775C106.598 217.292 106.907 217.683 107.523 217.95C108.157 218.233 108.965 218.375 109.948 218.375C110.782 218.375 111.448 218.258 111.948 218.025C112.448 217.808 112.698 217.475 112.698 217.025C112.698 216.775 112.623 216.567 112.473 216.4C112.323 216.25 112.098 216.125 111.798 216.025C111.498 215.925 111.123 215.833 110.673 215.75C110.24 215.683 109.723 215.617 109.123 215.55C108.373 215.433 107.632 215.267 106.898 215.05C106.182 214.833 105.582 214.508 105.098 214.075C104.632 213.642 104.398 213.067 104.398 212.35C104.398 211.717 104.615 211.142 105.048 210.625C105.482 210.092 106.057 209.658 106.773 209.325L108.198 210.425C107.732 210.525 107.382 210.7 107.148 210.95C106.915 211.183 106.798 211.467 106.798 211.8C106.798 212.083 106.907 212.317 107.123 212.5C107.34 212.667 107.648 212.8 108.048 212.9C108.465 212.983 108.957 213.067 109.523 213.15C110.373 213.25 111.157 213.367 111.873 213.5C112.59 213.633 113.215 213.825 113.748 214.075C114.282 214.308 114.69 214.633 114.973 215.05C115.273 215.467 115.423 216.008 115.423 216.675C115.423 217.858 114.94 218.767 113.973 219.4C113.023 220.033 111.682 220.35 109.948 220.35ZM109.673 211.425C108.673 211.425 107.79 211.233 107.023 210.85C106.257 210.467 105.657 209.942 105.223 209.275C104.807 208.592 104.598 207.825 104.598 206.975C104.598 206.058 104.823 205.267 105.273 204.6C105.723 203.917 106.323 203.392 107.073 203.025C107.84 202.642 108.673 202.45 109.573 202.45C110.473 202.45 111.298 202.642 112.048 203.025C112.798 203.392 113.398 203.925 113.848 204.625C114.315 205.308 114.548 206.125 114.548 207.075C114.548 207.942 114.34 208.708 113.923 209.375C113.523 210.025 112.957 210.533 112.223 210.9C111.49 211.25 110.64 211.425 109.673 211.425ZM109.623 209.2C110.34 209.2 110.882 208.983 111.248 208.55C111.615 208.1 111.798 207.567 111.798 206.95C111.798 206.283 111.598 205.75 111.198 205.35C110.798 204.933 110.273 204.725 109.623 204.725C108.94 204.725 108.39 204.933 107.973 205.35C107.573 205.75 107.373 206.275 107.373 206.925C107.373 207.558 107.565 208.1 107.948 208.55C108.332 208.983 108.89 209.2 109.623 209.2ZM113.748 205.175L111.723 203.875L114.498 201.625L115.923 203.35L113.748 205.175ZM117.537 215V202.675H120.312V215H117.537ZM117.412 200.65V197.575H120.437V200.65H117.412ZM128.618 215.225C127.651 215.225 126.793 215.058 126.043 214.725C125.31 214.375 124.693 213.9 124.193 213.3C123.71 212.683 123.343 211.992 123.093 211.225C122.843 210.458 122.718 209.658 122.718 208.825C122.718 207.992 122.843 207.192 123.093 206.425C123.343 205.658 123.71 204.975 124.193 204.375C124.693 203.775 125.31 203.308 126.043 202.975C126.793 202.625 127.651 202.45 128.618 202.45C129.835 202.45 130.893 202.742 131.793 203.325C132.71 203.908 133.385 204.808 133.818 206.025L131.368 206.975C131.168 206.342 130.843 205.833 130.393 205.45C129.943 205.05 129.351 204.85 128.618 204.85C127.885 204.85 127.285 205.042 126.818 205.425C126.368 205.808 126.035 206.3 125.818 206.9C125.601 207.5 125.493 208.142 125.493 208.825C125.493 209.508 125.601 210.158 125.818 210.775C126.035 211.375 126.368 211.867 126.818 212.25C127.285 212.617 127.885 212.8 128.618 212.8C129.351 212.8 129.943 212.608 130.393 212.225C130.843 211.842 131.168 211.333 131.368 210.7L133.818 211.65C133.385 212.85 132.71 213.75 131.793 214.35C130.893 214.933 129.835 215.225 128.618 215.225ZM144.03 215L143.83 212.925V207.225C143.83 206.425 143.589 205.825 143.105 205.425C142.622 205.008 141.947 204.8 141.08 204.8C140.414 204.8 139.755 204.933 139.105 205.2C138.472 205.45 137.889 205.842 137.355 206.375L135.805 204.55C136.605 203.8 137.455 203.267 138.355 202.95C139.255 202.617 140.239 202.45 141.305 202.45C142.972 202.45 144.264 202.875 145.18 203.725C146.114 204.558 146.58 205.725 146.58 207.225V215H144.03ZM140.205 215.225C139.289 215.225 138.472 215.058 137.755 214.725C137.055 214.392 136.505 213.925 136.105 213.325C135.722 212.725 135.53 212.025 135.53 211.225C135.53 210.542 135.672 209.95 135.955 209.45C136.255 208.95 136.639 208.558 137.105 208.275C137.505 208.025 137.972 207.85 138.505 207.75C139.039 207.633 139.597 207.575 140.18 207.575H144.055V209.65H140.58C140.28 209.65 139.98 209.683 139.68 209.75C139.38 209.8 139.114 209.9 138.88 210.05C138.714 210.183 138.572 210.35 138.455 210.55C138.355 210.75 138.305 210.983 138.305 211.25C138.305 211.783 138.505 212.208 138.905 212.525C139.322 212.825 139.872 212.975 140.555 212.975C141.155 212.975 141.697 212.842 142.18 212.575C142.68 212.308 143.08 211.942 143.38 211.475C143.68 211.008 143.83 210.483 143.83 209.9L144.68 211.275C144.48 212.142 144.164 212.875 143.73 213.475C143.297 214.058 142.78 214.5 142.18 214.8C141.58 215.083 140.922 215.225 140.205 215.225ZM152.154 215.225C151.354 215.225 150.687 214.983 150.154 214.5C149.621 214 149.354 213.208 149.354 212.125V197.575H152.129V211.575C152.129 211.958 152.212 212.242 152.379 212.425C152.562 212.592 152.796 212.675 153.079 212.675C153.229 212.675 153.379 212.658 153.529 212.625C153.696 212.592 153.862 212.55 154.029 212.5V214.85C153.712 214.983 153.387 215.075 153.054 215.125C152.721 215.192 152.421 215.225 152.154 215.225ZM162.409 215V197.575H167.409C170.276 197.575 172.501 198.35 174.084 199.9C175.667 201.433 176.459 203.608 176.459 206.425C176.459 209.192 175.676 211.317 174.109 212.8C172.559 214.267 170.317 215 167.384 215H162.409ZM165.309 212.35H167.109C168.459 212.35 169.617 212.167 170.584 211.8C171.551 211.417 172.284 210.783 172.784 209.9C173.284 209.017 173.534 207.825 173.534 206.325C173.534 204.825 173.284 203.633 172.784 202.75C172.301 201.85 171.592 201.208 170.659 200.825C169.742 200.425 168.642 200.225 167.359 200.225H165.309V212.35ZM184.303 215.225C183.27 215.225 182.37 215.058 181.603 214.725C180.853 214.392 180.237 213.925 179.753 213.325C179.27 212.725 178.912 212.05 178.678 211.3C178.445 210.533 178.328 209.742 178.328 208.925C178.328 208.108 178.437 207.317 178.653 206.55C178.887 205.767 179.237 205.067 179.703 204.45C180.17 203.833 180.77 203.35 181.503 203C182.237 202.633 183.103 202.45 184.103 202.45C185.053 202.45 185.878 202.617 186.578 202.95C187.295 203.267 187.887 203.717 188.353 204.3C188.82 204.867 189.162 205.517 189.378 206.25C189.612 206.983 189.728 207.767 189.728 208.6C189.728 208.717 189.72 208.883 189.703 209.1C189.703 209.317 189.687 209.533 189.653 209.75H181.103C181.17 210.733 181.503 211.483 182.103 212C182.703 212.517 183.47 212.775 184.403 212.775C185.087 212.775 185.712 212.667 186.278 212.45C186.845 212.233 187.362 211.892 187.828 211.425L189.353 213.275C188.837 213.742 188.32 214.117 187.803 214.4C187.287 214.683 186.745 214.892 186.178 215.025C185.628 215.158 185.003 215.225 184.303 215.225ZM187.003 208.35C187.037 208.217 187.053 208.083 187.053 207.95C187.07 207.817 187.078 207.683 187.078 207.55C187.078 207.183 187.012 206.833 186.878 206.5C186.762 206.167 186.578 205.875 186.328 205.625C186.078 205.358 185.77 205.15 185.403 205C185.037 204.833 184.62 204.75 184.153 204.75C183.503 204.75 182.953 204.892 182.503 205.175C182.07 205.458 181.728 205.825 181.478 206.275C181.245 206.708 181.103 207.183 181.053 207.7H187.903L187.003 208.35ZM192.179 215V202.675H194.954V205.4L194.454 205.525C194.67 204.808 194.987 204.225 195.404 203.775C195.82 203.325 196.304 202.992 196.854 202.775C197.42 202.558 198.012 202.45 198.629 202.45C200.012 202.45 201.087 202.85 201.854 203.65C202.637 204.433 203.029 205.558 203.029 207.025V215H200.254V208.05C200.254 206.95 200.054 206.142 199.654 205.625C199.254 205.108 198.637 204.85 197.804 204.85C197.187 204.85 196.662 205 196.229 205.3C195.812 205.583 195.495 206.033 195.279 206.65C195.062 207.267 194.954 208.05 194.954 209V215H192.179ZM210.369 215.225C209.752 215.225 209.169 215.108 208.619 214.875C208.085 214.625 207.66 214.233 207.344 213.7C207.027 213.15 206.869 212.433 206.869 211.55V199.675L209.669 198.125V210.775C209.669 211.475 209.769 212.017 209.969 212.4C210.185 212.767 210.569 212.95 211.119 212.95C211.285 212.95 211.477 212.933 211.694 212.9C211.927 212.85 212.169 212.792 212.419 212.725V214.875C212.085 214.992 211.744 215.075 211.394 215.125C211.06 215.192 210.719 215.225 210.369 215.225ZM204.519 204.825V202.675H212.419V204.825H204.519ZM214.627 215V202.675H217.402V215H214.627ZM214.502 200.65V197.575H217.527V200.65H214.502ZM224.584 215.225C223.701 215.225 222.917 215.1 222.234 214.85C221.551 214.583 220.976 214.25 220.509 213.85C220.042 213.45 219.659 213.05 219.359 212.65L221.259 211C221.576 211.517 222.009 211.975 222.559 212.375C223.126 212.775 223.809 212.975 224.609 212.975C225.276 212.975 225.801 212.833 226.184 212.55C226.584 212.267 226.784 211.917 226.784 211.5C226.784 211.133 226.659 210.85 226.409 210.65C226.159 210.433 225.834 210.25 225.434 210.1C225.034 209.95 224.592 209.817 224.109 209.7C223.642 209.583 223.167 209.442 222.684 209.275C222.201 209.092 221.751 208.867 221.334 208.6C220.934 208.333 220.609 207.992 220.359 207.575C220.109 207.158 219.984 206.642 219.984 206.025C219.984 204.942 220.401 204.075 221.234 203.425C222.067 202.775 223.159 202.45 224.509 202.45C225.476 202.45 226.359 202.642 227.159 203.025C227.959 203.408 228.584 203.983 229.034 204.75L227.309 206.075C226.976 205.575 226.559 205.2 226.059 204.95C225.559 204.7 225.017 204.575 224.434 204.575C223.901 204.575 223.451 204.683 223.084 204.9C222.734 205.117 222.559 205.4 222.559 205.75C222.559 206.017 222.642 206.233 222.809 206.4C222.976 206.567 223.234 206.717 223.584 206.85C223.934 206.983 224.376 207.117 224.909 207.25C225.409 207.367 225.926 207.508 226.459 207.675C226.992 207.842 227.484 208.067 227.934 208.35C228.401 208.617 228.776 208.983 229.059 209.45C229.359 209.9 229.509 210.483 229.509 211.2C229.509 212 229.301 212.708 228.884 213.325C228.484 213.925 227.909 214.392 227.159 214.725C226.426 215.058 225.567 215.225 224.584 215.225ZM236.376 215.225C235.76 215.225 235.176 215.108 234.626 214.875C234.093 214.625 233.668 214.233 233.351 213.7C233.035 213.15 232.876 212.433 232.876 211.55V199.675L235.676 198.125V210.775C235.676 211.475 235.776 212.017 235.976 212.4C236.193 212.767 236.576 212.95 237.126 212.95C237.293 212.95 237.485 212.933 237.701 212.9C237.935 212.85 238.176 212.792 238.426 212.725V214.875C238.093 214.992 237.751 215.075 237.401 215.125C237.068 215.192 236.726 215.225 236.376 215.225ZM230.526 204.825V202.675H238.426V204.825H230.526ZM240.66 215V202.675H243.46V206L242.935 206.075C243.019 205.358 243.26 204.733 243.66 204.2C244.06 203.65 244.544 203.225 245.11 202.925C245.694 202.608 246.269 202.45 246.835 202.45C247.235 202.45 247.619 202.5 247.985 202.6C248.352 202.7 248.735 202.867 249.135 203.1L247.785 205.6C247.602 205.483 247.36 205.392 247.06 205.325C246.777 205.242 246.502 205.2 246.235 205.2C245.885 205.2 245.535 205.267 245.185 205.4C244.852 205.533 244.552 205.742 244.285 206.025C244.019 206.292 243.819 206.642 243.685 207.075C243.602 207.308 243.535 207.617 243.485 208C243.452 208.367 243.435 208.883 243.435 209.55V215H240.66ZM251.983 220.075L254.433 214.175L249.733 202.675H252.783L255.908 211.4L259.083 202.675H262.083L254.983 220.075H251.983ZM119.777 245L126.677 227.575H128.877L135.752 245H132.602L127.777 231.8L122.952 245H119.777ZM124.077 241.35L124.977 238.775H130.552L131.502 241.35H124.077ZM138.859 245L135.109 232.675H138.059L140.259 240.75L142.759 232.675H145.134L147.634 240.7L149.859 232.675H152.809L149.034 245H146.534L143.959 236.6L141.384 245H138.859ZM162.683 245L162.483 242.925V237.225C162.483 236.425 162.241 235.825 161.758 235.425C161.275 235.008 160.6 234.8 159.733 234.8C159.066 234.8 158.408 234.933 157.758 235.2C157.125 235.45 156.541 235.842 156.008 236.375L154.458 234.55C155.258 233.8 156.108 233.267 157.008 232.95C157.908 232.617 158.891 232.45 159.958 232.45C161.625 232.45 162.916 232.875 163.833 233.725C164.766 234.558 165.233 235.725 165.233 237.225V245H162.683ZM158.858 245.225C157.941 245.225 157.125 245.058 156.408 244.725C155.708 244.392 155.158 243.925 154.758 243.325C154.375 242.725 154.183 242.025 154.183 241.225C154.183 240.542 154.325 239.95 154.608 239.45C154.908 238.95 155.291 238.558 155.758 238.275C156.158 238.025 156.625 237.85 157.158 237.75C157.691 237.633 158.25 237.575 158.833 237.575H162.708V239.65H159.233C158.933 239.65 158.633 239.683 158.333 239.75C158.033 239.8 157.766 239.9 157.533 240.05C157.366 240.183 157.225 240.35 157.108 240.55C157.008 240.75 156.958 240.983 156.958 241.25C156.958 241.783 157.158 242.208 157.558 242.525C157.975 242.825 158.525 242.975 159.208 242.975C159.808 242.975 160.35 242.842 160.833 242.575C161.333 242.308 161.733 241.942 162.033 241.475C162.333 241.008 162.483 240.483 162.483 239.9L163.333 241.275C163.133 242.142 162.816 242.875 162.383 243.475C161.95 244.058 161.433 244.5 160.833 244.8C160.233 245.083 159.575 245.225 158.858 245.225ZM168.082 245V232.675H170.882V236L170.357 236.075C170.44 235.358 170.682 234.733 171.082 234.2C171.482 233.65 171.965 233.225 172.532 232.925C173.115 232.608 173.69 232.45 174.257 232.45C174.657 232.45 175.04 232.5 175.407 232.6C175.773 232.7 176.157 232.867 176.557 233.1L175.207 235.6C175.023 235.483 174.782 235.392 174.482 235.325C174.198 235.242 173.923 235.2 173.657 235.2C173.307 235.2 172.957 235.267 172.607 235.4C172.273 235.533 171.973 235.742 171.707 236.025C171.44 236.292 171.24 236.642 171.107 237.075C171.023 237.308 170.957 237.617 170.907 238C170.873 238.367 170.857 238.883 170.857 239.55V245H168.082ZM182.446 245.225C181.346 245.225 180.388 244.95 179.571 244.4C178.771 243.833 178.154 243.067 177.721 242.1C177.288 241.133 177.071 240.042 177.071 238.825C177.071 237.492 177.304 236.35 177.771 235.4C178.254 234.45 178.904 233.725 179.721 233.225C180.538 232.708 181.446 232.45 182.446 232.45C183.146 232.45 183.788 232.592 184.371 232.875C184.971 233.158 185.471 233.575 185.871 234.125C186.288 234.658 186.579 235.317 186.746 236.1L186.096 236.125V227.575H188.871V245H186.096V241.575L186.846 241.4C186.629 242.3 186.296 243.033 185.846 243.6C185.413 244.15 184.904 244.558 184.321 244.825C183.738 245.092 183.113 245.225 182.446 245.225ZM183.121 242.675C183.771 242.675 184.338 242.517 184.821 242.2C185.304 241.883 185.679 241.433 185.946 240.85C186.213 240.267 186.346 239.592 186.346 238.825C186.346 238.058 186.213 237.392 185.946 236.825C185.679 236.242 185.304 235.792 184.821 235.475C184.338 235.142 183.771 234.975 183.121 234.975C182.471 234.975 181.896 235.133 181.396 235.45C180.913 235.767 180.529 236.217 180.246 236.8C179.979 237.383 179.846 238.058 179.846 238.825C179.846 239.592 179.979 240.267 180.246 240.85C180.529 241.433 180.913 241.883 181.396 242.2C181.896 242.517 182.471 242.675 183.121 242.675Z" fill="white" style="fill:white;fill-opacity:1;"/>
</svg>
