<svg width="310" height="310" viewBox="0 0 310 310" fill="none" xmlns="http://www.w3.org/2000/svg">
<path d="M147.651 1.92236C152.217 -0.640785 157.783 -0.640785 162.349 1.92236L188.281 16.4702C190.474 17.7017 192.937 18.3625 195.44 18.3925L225.166 18.763C230.402 18.8231 235.218 21.6065 237.892 26.112L253.08 51.6733C254.362 53.836 256.164 55.6382 258.327 56.9198L283.888 72.1084C288.384 74.7817 291.167 79.5976 291.237 84.834L291.608 114.56C291.638 117.074 292.298 119.537 293.53 121.719L308.078 147.651C310.641 152.217 310.641 157.783 308.078 162.349L293.53 188.281C292.298 190.473 291.638 192.936 291.608 195.44L291.237 225.166C291.167 230.402 288.384 235.218 283.888 237.892L258.327 253.08C256.174 254.362 254.362 256.164 253.08 258.327L237.892 283.888C235.218 288.383 230.392 291.167 225.166 291.237L195.44 291.607C192.927 291.637 190.464 292.298 188.281 293.53L162.349 308.078C157.783 310.641 152.217 310.641 147.651 308.078L121.719 293.53C119.527 292.298 117.064 291.637 114.56 291.607L84.834 291.237C79.5976 291.167 74.7817 288.383 72.1084 283.888L56.9198 258.327C55.6382 256.174 53.836 254.362 51.6734 253.08L26.112 237.892C21.6165 235.218 18.8331 230.392 18.763 225.166L18.3926 195.44C18.3625 192.926 17.7017 190.463 16.4702 188.281L1.92239 162.349C-0.640755 157.783 -0.640755 152.217 1.92239 147.651L16.4702 121.719C17.7017 119.527 18.3625 117.063 18.3926 114.56L18.763 84.834C18.8231 79.5976 21.6065 74.7817 26.112 72.1084L51.6734 56.9198C53.836 55.6382 55.6382 53.836 56.9198 51.6733L72.1084 26.112C74.7817 21.6165 79.5976 18.8331 84.834 18.763L114.56 18.3925C117.074 18.3625 119.537 17.7017 121.719 16.4702L147.651 1.92236Z" fill="#227DF5" style="fill:#227DF5;fill:color(display-p3 0.1333 0.4919 0.9608);fill-opacity:1;"/>
<path d="M155 300C152.474 300 149.958 299.373 147.7 298.1L124.03 284.823C121.862 283.61 119.405 282.944 116.919 282.914L89.7776 282.576C84.6159 282.516 79.7725 279.712 77.1369 275.276L63.2729 251.934C61.9999 249.796 60.1998 247.996 58.0615 246.723L34.7195 232.859C30.2838 230.224 27.4891 225.38 27.4195 220.219L27.0813 193.078C27.0515 190.592 26.3951 188.135 25.1718 185.967L11.8946 162.297C9.36846 157.792 9.36846 152.203 11.8946 147.698L25.1718 124.028C26.3852 121.86 27.0515 119.403 27.0813 116.917L27.4195 89.7762C27.4792 84.6146 30.2838 79.7713 34.7195 77.1357L58.0615 63.272C60.1998 61.999 61.9999 60.1989 63.2729 58.0607L77.1369 34.719C79.7725 30.2834 84.6159 27.4888 89.7776 27.4192L116.919 27.0811C119.405 27.0512 121.862 26.3948 124.03 25.1716L147.7 11.8946C152.205 9.36847 157.795 9.36847 162.3 11.8946L185.97 25.1716C188.138 26.3849 190.595 27.0512 193.081 27.0811L220.222 27.4192C225.384 27.4789 230.228 30.2834 232.863 34.719L246.727 58.0607C248 60.1989 249.8 61.999 251.939 63.272L275.281 77.1357C279.716 79.7713 282.511 84.6146 282.58 89.7762L282.919 116.917C282.948 119.403 283.605 121.86 284.828 124.028L298.105 147.698C300.632 152.203 300.632 157.792 298.105 162.297L284.828 185.967C283.615 188.135 282.958 190.592 282.919 193.078L282.58 220.219C282.521 225.38 279.716 230.224 275.281 232.859L251.939 246.723C249.8 247.996 248 249.796 246.727 251.934L232.863 275.276C230.228 279.712 225.384 282.506 220.222 282.576L193.081 282.914C190.595 282.944 188.138 283.6 185.97 284.823L162.3 298.1C160.052 299.363 157.526 300 155 300ZM155 12.004C152.812 12.004 150.624 12.551 148.675 13.645L125.004 26.9219C122.548 28.3043 119.763 29.0502 116.939 29.0801L89.7975 29.4182C85.322 29.4779 81.125 31.8946 78.8376 35.7434L64.9736 59.085C63.5315 61.5117 61.4927 63.5505 59.0759 64.9826L35.7339 78.8463C31.885 81.1338 29.4683 85.3307 29.4086 89.8061L29.0704 116.947C29.0406 119.761 28.2848 122.556 26.9123 125.012L13.6351 148.682C11.4471 152.581 11.4471 157.434 13.6351 161.333L26.9123 185.003C28.2947 187.459 29.0406 190.254 29.0704 193.068L29.4086 220.209C29.4683 224.684 31.885 228.881 35.7339 231.169L59.0759 245.032C61.5026 246.474 63.5414 248.513 64.9736 250.93L78.8376 274.272C81.125 278.12 85.322 280.537 89.7975 280.597L116.939 280.935C119.753 280.965 122.538 281.721 125.004 283.093L148.675 296.37C152.573 298.558 157.427 298.558 161.325 296.37L184.996 283.093C187.452 281.711 190.247 280.965 193.061 280.935L220.202 280.597C224.678 280.537 228.875 278.12 231.162 274.272L245.026 250.93C246.469 248.503 248.507 246.464 250.924 245.032L274.266 231.169C278.115 228.881 280.532 224.684 280.591 220.209L280.93 193.068C280.969 190.254 281.715 187.459 283.088 185.003L296.365 161.333C298.553 157.434 298.553 152.581 296.365 148.682L283.088 125.012C281.705 122.556 280.959 119.771 280.93 116.947L280.591 89.8061C280.532 85.3307 278.115 81.1338 274.266 78.8463L250.924 64.9826C248.497 63.5405 246.459 61.5017 245.026 59.085L231.162 35.7434C228.875 31.8946 224.678 29.4779 220.202 29.4182L193.061 29.0801C190.247 29.0403 187.462 28.2944 184.996 26.9219L161.325 13.645C159.376 12.551 157.188 12.004 155 12.004Z" fill="white" style="fill:white;fill-opacity:1;"/>
<path d="M177.277 99.6776L191.134 96.5392H191.144C194.638 95.7497 197.776 98.6512 196.829 101.8L192.21 117.146C191.588 119.209 189.762 120.808 187.423 121.064C175.5 122.357 164.179 118.834 155 112.014C145.821 118.834 134.5 122.357 122.577 121.064C120.238 120.808 118.412 119.199 117.79 117.146L113.171 101.8C112.224 98.6512 115.362 95.7497 118.856 96.5392L132.714 99.6776C134.855 100.161 137.116 99.5888 138.675 98.1775L151.664 86.4034C153.51 84.7355 156.49 84.7355 158.326 86.4034L171.315 98.1775C172.874 99.5987 175.135 100.161 177.277 99.6776Z" fill="white" style="fill:white;fill-opacity:1;"/>
<path d="M156.441 124.39C161.426 127.144 170.644 131.536 183.82 131.2C186.051 131.141 187.828 133.016 187.245 134.96L182.064 150.959C180.929 154.739 176.378 156.367 172.815 154.146L157.655 144.702C156.056 143.705 153.934 143.705 152.325 144.702L137.55 154.146C133.987 156.367 129.072 154.739 127.937 150.959L122.745 134.96C122.163 133.016 123.939 131.141 126.17 131.2C139.346 131.536 148.555 127.144 153.549 124.39C154.487 123.867 155.523 123.877 156.441 124.39Z" fill="white" style="fill:white;fill-opacity:1;"/>
<path d="M148.91 59.5801L146.42 59.76L146.02 54.2301L138.9 43.52L141.67 43.3201L147.07 51.3501L151.23 42.63L154.09 42.42L148.51 54.01L148.92 59.5901L148.91 59.5801Z" fill="white" style="fill:white;fill-opacity:1;"/>
<path d="M133.22 61.6001L135.55 60.9401L135.56 60.9301L130.98 44.8201L128.89 45.41L126.21 59.3501L116.62 48.9L114.51 49.5001L119.09 65.6101L121.42 64.9501L118.39 54.3L126.76 63.4401L127.9 63.1101L130.19 50.9501L133.22 61.6001Z" fill="white" style="fill:white;fill-opacity:1;"/>
<path d="M104.12 72.98L94.5503 70.66L93.8198 71.12L97.5601 77.09L95.4502 78.42L86.5601 64.23L88.6699 62.9L92.52 69.04L93.0898 68.6801L95.0303 58.91L97.6602 57.26L95.5103 68.53L106.99 71.1801L104.13 72.98H104.12Z" fill="white" style="fill:white;fill-opacity:1;"/>
<path d="M88.8799 83.53L90.4497 82.1101L79.1997 69.7001L77.3296 71.3901L85.5396 80.4501L70.3496 77.7201L68.7798 79.1401L80.0298 91.55L81.8799 89.8701L73.8096 80.9601L88.8799 83.53Z" fill="white" style="fill:white;fill-opacity:1;"/>
<path fill-rule="evenodd" clip-rule="evenodd" d="M75.2202 96.9601L71.2002 95.77L66.52 101.76L68.6499 105.37L66.9902 107.5L58.02 91.77L59.4502 89.9301L76.8799 94.8201L75.2202 96.9501V96.9601ZM61.3198 92.88L65.2002 99.49L68.6699 95.04L61.3198 92.88Z" fill="white" style="fill:white;fill-opacity:1;"/>
<path fill-rule="evenodd" clip-rule="evenodd" d="M63.6499 113.11L55.1201 114.78L54.0298 116.76L59.8799 119.97L58.6802 122.16L44 114.09L47.54 107.65C49.0898 104.83 51.8999 103.93 54.5498 105.38C57.0698 106.76 57.8398 109.42 56.5601 112.1L65.1499 110.38L63.6602 113.1L63.6499 113.11ZM54.2402 111.35C55.0698 109.84 54.7002 108.33 53.3398 107.58C51.96 106.82 50.4902 107.32 49.6602 108.83L47.3198 113.08L51.8999 115.6L54.2402 111.35Z" fill="white" style="fill:white;fill-opacity:1;"/>
<path fill-rule="evenodd" clip-rule="evenodd" d="M184.08 54.64C185.04 49.86 182.48 45.78 177.27 44.73V44.74L171.92 43.66L168.62 60.0801L173.97 61.15C179.18 62.2001 183.12 59.42 184.08 54.64ZM181.6 54.15C180.92 57.5601 178.17 59.53 174.44 58.78L174.43 58.77L171.53 58.1901L173.88 46.53L176.78 47.11C180.51 47.86 182.29 50.74 181.6 54.15Z" fill="white" style="fill:white;fill-opacity:1;"/>
<path d="M198.43 68.88L187.63 64.5701L193.84 49.01L204.62 53.3101L203.72 55.5601L195.25 52.1801L193.5 56.5701L201.32 59.6901L200.43 61.92L192.61 58.8L190.84 63.24L199.33 66.63L198.43 68.88Z" fill="white" style="fill:white;fill-opacity:1;"/>
<path d="M213.7 77.7301L215.5 78.8501L224.37 64.65L222.23 63.3201L215.75 73.6801L214.24 58.3201L212.44 57.2001L203.57 71.4L205.69 72.7201L212.06 62.53L213.7 77.7301Z" fill="white" style="fill:white;fill-opacity:1;"/>
<path d="M234.95 76.51L225.4 87.1899L223.52 85.51L233.07 74.83L228.99 71.1799L230.61 69.37L240.67 78.37L239.05 80.1799L234.95 76.51Z" fill="white" style="fill:white;fill-opacity:1;"/>
<path d="M245.45 83.64L232.91 94.74L234.56 96.61L247.1 85.51L245.45 83.64Z" fill="white" style="fill:white;fill-opacity:1;"/>
<path d="M255.47 103.84L253.59 102.11C254.88 100.86 255.03 99.03 253.96 97.5C252.9 95.99 251.33 95.61 250.12 96.46C249.16 97.13 249.01 98.01 249.54 99.29L250.84 102.5C251.73 104.73 251.54 106.9 249.39 108.41C246.81 110.22 243.82 109.38 241.76 106.44C239.86 103.73 239.7 100.48 242.13 98.3L244.15 100.13C242.6 101.67 242.64 103.55 243.84 105.27C245.04 106.99 246.6 107.35 247.85 106.47C248.89 105.74 249.03 104.88 248.42 103.4L247.08 100.18C246.36 98.3199 246.11 96.0499 248.55 94.34C250.97 92.65 253.9 93.36 255.89 96.2C257.71 98.7999 257.5 101.73 255.47 103.84Z" fill="white" style="fill:white;fill-opacity:1;"/>
<path d="M251.16 121.66L263.94 115.19L266.43 120.09L268.59 118.99L262.49 106.95L260.33 108.05L262.8 112.94L250.02 119.41L251.16 121.66Z" fill="white" style="fill:white;fill-opacity:1;"/>
<path d="M134.922 272.19V271.254C135.194 271.038 135.51 270.798 135.87 270.534C136.23 270.27 136.594 269.982 136.962 269.67C137.338 269.358 137.686 269.026 138.006 268.674C138.326 268.322 138.582 267.954 138.774 267.57C138.974 267.178 139.074 266.778 139.074 266.37C139.074 265.93 138.954 265.574 138.714 265.302C138.474 265.022 138.114 264.882 137.634 264.882C137.274 264.882 136.974 264.966 136.734 265.134C136.502 265.302 136.33 265.53 136.218 265.818C136.106 266.106 136.046 266.426 136.038 266.778L134.886 266.694C134.886 266.302 134.946 265.93 135.066 265.578C135.186 265.226 135.362 264.914 135.594 264.642C135.834 264.362 136.126 264.142 136.47 263.982C136.822 263.822 137.222 263.742 137.67 263.742C138.182 263.742 138.626 263.85 139.002 264.066C139.386 264.282 139.686 264.582 139.902 264.966C140.118 265.35 140.226 265.802 140.226 266.322C140.226 266.762 140.146 267.186 139.986 267.594C139.834 268.002 139.618 268.394 139.338 268.77C139.058 269.138 138.734 269.486 138.366 269.814C137.998 270.142 137.602 270.454 137.178 270.75C136.754 271.038 136.314 271.302 135.858 271.542L136.17 271.098H140.562V272.19H134.922Z" fill="white" style="fill:white;fill-opacity:1;"/>
<path d="M149.269 272.286C148.781 272.286 148.369 272.198 148.033 272.022C147.705 271.846 147.433 271.61 147.217 271.314C147.009 271.01 146.849 270.674 146.737 270.306C146.633 269.93 146.561 269.542 146.521 269.142C146.481 268.734 146.461 268.346 146.461 267.978C146.461 267.61 146.477 267.23 146.509 266.838C146.549 266.438 146.621 266.054 146.725 265.686C146.837 265.31 146.997 264.974 147.205 264.678C147.413 264.382 147.681 264.146 148.009 263.97C148.345 263.794 148.753 263.706 149.233 263.706C149.705 263.706 150.105 263.794 150.433 263.97C150.761 264.138 151.029 264.366 151.237 264.654C151.453 264.942 151.617 265.27 151.729 265.638C151.841 266.006 151.917 266.394 151.957 266.802C152.005 267.202 152.029 267.594 152.029 267.978C152.029 268.378 152.005 268.782 151.957 269.19C151.917 269.598 151.837 269.986 151.717 270.354C151.605 270.722 151.445 271.054 151.237 271.35C151.029 271.638 150.765 271.866 150.445 272.034C150.125 272.202 149.733 272.286 149.269 272.286ZM149.269 271.158C149.669 271.158 149.981 271.018 150.205 270.738C150.437 270.458 150.601 270.082 150.697 269.61C150.793 269.138 150.841 268.61 150.841 268.026C150.841 267.41 150.789 266.866 150.685 266.394C150.589 265.914 150.425 265.534 150.193 265.254C149.961 264.974 149.641 264.834 149.233 264.834C148.913 264.834 148.649 264.918 148.441 265.086C148.241 265.254 148.085 265.486 147.973 265.782C147.861 266.078 147.781 266.418 147.733 266.802C147.685 267.178 147.661 267.582 147.661 268.014C147.661 268.43 147.685 268.826 147.733 269.202C147.781 269.578 147.861 269.914 147.973 270.21C148.093 270.498 148.257 270.73 148.465 270.906C148.673 271.074 148.941 271.158 149.269 271.158Z" fill="white" style="fill:white;fill-opacity:1;"/>
<path d="M157.952 272.19V271.254C158.224 271.038 158.54 270.798 158.9 270.534C159.26 270.27 159.624 269.982 159.992 269.67C160.368 269.358 160.716 269.026 161.036 268.674C161.356 268.322 161.612 267.954 161.804 267.57C162.004 267.178 162.104 266.778 162.104 266.37C162.104 265.93 161.984 265.574 161.744 265.302C161.504 265.022 161.144 264.882 160.664 264.882C160.304 264.882 160.004 264.966 159.764 265.134C159.532 265.302 159.36 265.53 159.248 265.818C159.136 266.106 159.076 266.426 159.068 266.778L157.916 266.694C157.916 266.302 157.976 265.93 158.096 265.578C158.216 265.226 158.392 264.914 158.624 264.642C158.864 264.362 159.156 264.142 159.5 263.982C159.852 263.822 160.252 263.742 160.7 263.742C161.212 263.742 161.656 263.85 162.032 264.066C162.416 264.282 162.716 264.582 162.932 264.966C163.148 265.35 163.256 265.802 163.256 266.322C163.256 266.762 163.176 267.186 163.016 267.594C162.864 268.002 162.648 268.394 162.368 268.77C162.088 269.138 161.764 269.486 161.396 269.814C161.028 270.142 160.632 270.454 160.208 270.75C159.784 271.038 159.344 271.302 158.888 271.542L159.2 271.098H163.592V272.19H157.952Z" fill="white" style="fill:white;fill-opacity:1;"/>
<path d="M172.251 272.298C171.747 272.298 171.283 272.19 170.859 271.974C170.443 271.758 170.099 271.466 169.827 271.098C169.555 270.722 169.379 270.298 169.299 269.826L170.451 269.622C170.499 269.894 170.595 270.15 170.739 270.39C170.891 270.63 171.091 270.822 171.339 270.966C171.595 271.102 171.891 271.17 172.227 271.17C172.611 271.17 172.931 271.082 173.187 270.906C173.451 270.722 173.651 270.49 173.787 270.21C173.923 269.922 173.991 269.618 173.991 269.298C173.991 268.994 173.927 268.714 173.799 268.458C173.671 268.202 173.479 267.998 173.223 267.846C172.975 267.686 172.663 267.606 172.287 267.606C171.943 267.606 171.635 267.686 171.363 267.846C171.099 267.998 170.875 268.21 170.691 268.482L169.551 268.182L170.343 263.826H174.855V264.918H170.775L171.399 264.426L170.835 267.522L170.487 267.438C170.799 267.078 171.123 266.834 171.459 266.706C171.803 266.57 172.135 266.502 172.455 266.502C172.999 266.502 173.479 266.63 173.895 266.886C174.319 267.142 174.647 267.482 174.879 267.906C175.111 268.33 175.227 268.794 175.227 269.298C175.227 269.698 175.155 270.078 175.011 270.438C174.867 270.798 174.659 271.118 174.387 271.398C174.123 271.678 173.807 271.898 173.439 272.058C173.079 272.218 172.683 272.298 172.251 272.298Z" fill="white" style="fill:white;fill-opacity:1;"/>
<path d="M41 147.61L42.8887 152.721L48 154.61L42.8887 156.499L41 161.61L39.1113 156.499L34 154.61L39.1113 152.721L41 147.61Z" fill="white" style="fill:white;fill-opacity:1;"/>
<path d="M269 147.61L270.889 152.721L276 154.61L270.889 156.499L269 161.61L267.111 156.499L262 154.61L267.111 152.721L269 147.61Z" fill="white" style="fill:white;fill-opacity:1;"/>
<path fill-rule="evenodd" clip-rule="evenodd" d="M265 178H45V177H265V178Z" fill="white" style="fill:white;fill-opacity:1;"/>
<path d="M58.0998 211.35C56.4664 211.35 55.0331 210.975 53.7998 210.225C52.5664 209.475 51.5998 208.417 50.8998 207.05C50.2164 205.683 49.8748 204.092 49.8748 202.275C49.8748 200.458 50.2164 198.875 50.8998 197.525C51.5998 196.158 52.5664 195.1 53.7998 194.35C55.0331 193.6 56.4664 193.225 58.0998 193.225C59.9164 193.225 61.4831 193.675 62.7998 194.575C64.1331 195.475 65.0914 196.725 65.6748 198.325L62.9748 199.3C62.5748 198.25 61.9581 197.433 61.1248 196.85C60.2914 196.267 59.2831 195.975 58.0998 195.975C57.0164 195.975 56.0748 196.233 55.2748 196.75C54.4748 197.267 53.8498 197.992 53.3998 198.925C52.9664 199.858 52.7498 200.975 52.7498 202.275C52.7498 203.575 52.9664 204.7 53.3998 205.65C53.8498 206.583 54.4748 207.308 55.2748 207.825C56.0748 208.342 57.0164 208.6 58.0998 208.6C59.2831 208.6 60.2914 208.308 61.1248 207.725C61.9581 207.125 62.5748 206.308 62.9748 205.275L65.6748 206.25C65.0914 207.817 64.1331 209.058 62.7998 209.975C61.4831 210.892 59.9164 211.35 58.0998 211.35ZM73.425 211.225C72.2583 211.225 71.2083 210.95 70.275 210.4C69.3416 209.85 68.6083 209.092 68.075 208.125C67.5583 207.158 67.3 206.058 67.3 204.825C67.3 203.592 67.5583 202.492 68.075 201.525C68.6083 200.558 69.3333 199.808 70.25 199.275C71.1833 198.725 72.2416 198.45 73.425 198.45C74.625 198.45 75.675 198.725 76.575 199.275C77.4916 199.808 78.2166 200.558 78.75 201.525C79.2833 202.492 79.55 203.592 79.55 204.825C79.55 206.058 79.2833 207.158 78.75 208.125C78.2333 209.092 77.5083 209.85 76.575 210.4C75.6583 210.95 74.6083 211.225 73.425 211.225ZM73.45 208.775C74.1333 208.775 74.725 208.617 75.225 208.3C75.725 207.983 76.1083 207.525 76.375 206.925C76.6416 206.325 76.775 205.625 76.775 204.825C76.775 204.008 76.6416 203.308 76.375 202.725C76.1083 202.125 75.725 201.667 75.225 201.35C74.725 201.033 74.1333 200.875 73.45 200.875C72.7333 200.875 72.125 201.042 71.625 201.375C71.125 201.692 70.7416 202.142 70.475 202.725C70.2083 203.308 70.075 204.008 70.075 204.825C70.075 205.625 70.2083 206.325 70.475 206.925C70.7416 207.525 71.125 207.983 71.625 208.3C72.125 208.617 72.7333 208.775 73.45 208.775ZM86.1804 211.225C85.2971 211.225 84.5138 211.1 83.8304 210.85C83.1471 210.583 82.5721 210.25 82.1054 209.85C81.6388 209.45 81.2554 209.05 80.9554 208.65L82.8554 207C83.1721 207.517 83.6054 207.975 84.1554 208.375C84.7221 208.775 85.4054 208.975 86.2054 208.975C86.8721 208.975 87.3971 208.833 87.7804 208.55C88.1804 208.267 88.3804 207.917 88.3804 207.5C88.3804 207.133 88.2554 206.85 88.0054 206.65C87.7554 206.433 87.4304 206.25 87.0304 206.1C86.6304 205.95 86.1888 205.817 85.7054 205.7C85.2388 205.583 84.7638 205.442 84.2804 205.275C83.7971 205.092 83.3471 204.867 82.9304 204.6C82.5304 204.333 82.2054 203.992 81.9554 203.575C81.7054 203.158 81.5804 202.642 81.5804 202.025C81.5804 200.942 81.9971 200.075 82.8304 199.425C83.6638 198.775 84.7554 198.45 86.1054 198.45C87.0721 198.45 87.9554 198.642 88.7554 199.025C89.5554 199.408 90.1804 199.983 90.6304 200.75L88.9054 202.075C88.5721 201.575 88.1554 201.2 87.6554 200.95C87.1554 200.7 86.6138 200.575 86.0304 200.575C85.4971 200.575 85.0471 200.683 84.6804 200.9C84.3304 201.117 84.1554 201.4 84.1554 201.75C84.1554 202.017 84.2388 202.233 84.4054 202.4C84.5721 202.567 84.8304 202.717 85.1804 202.85C85.5304 202.983 85.9721 203.117 86.5054 203.25C87.0054 203.367 87.5221 203.508 88.0554 203.675C88.5888 203.842 89.0804 204.067 89.5304 204.35C89.9971 204.617 90.3721 204.983 90.6554 205.45C90.9554 205.9 91.1054 206.483 91.1054 207.2C91.1054 208 90.8971 208.708 90.4804 209.325C90.0804 209.925 89.5054 210.392 88.7554 210.725C88.0221 211.058 87.1638 211.225 86.1804 211.225ZM93.498 211V198.675H96.273V201.875L95.673 202.225C95.823 201.508 96.0314 200.908 96.298 200.425C96.5814 199.942 96.9064 199.558 97.273 199.275C97.6397 198.975 98.0314 198.767 98.448 198.65C98.8814 198.517 99.3147 198.45 99.748 198.45C100.415 198.45 101.04 198.583 101.623 198.85C102.206 199.1 102.698 199.517 103.098 200.1C103.515 200.667 103.798 201.442 103.948 202.425L102.323 202.875C102.573 201.808 102.923 200.958 103.373 200.325C103.823 199.675 104.348 199.2 104.948 198.9C105.565 198.6 106.231 198.45 106.948 198.45C107.998 198.45 108.84 198.683 109.473 199.15C110.123 199.6 110.598 200.2 110.898 200.95C111.198 201.683 111.348 202.475 111.348 203.325V211H108.573V204C108.573 203.317 108.49 202.742 108.323 202.275C108.173 201.808 107.931 201.458 107.598 201.225C107.265 200.975 106.84 200.85 106.323 200.85C105.773 200.85 105.315 200.992 104.948 201.275C104.581 201.542 104.298 201.958 104.098 202.525C103.915 203.092 103.823 203.792 103.823 204.625V211H101.048V203.875C101.048 202.858 100.856 202.1 100.473 201.6C100.09 201.1 99.548 200.85 98.848 200.85C98.298 200.85 97.8314 200.992 97.448 201.275C97.0647 201.558 96.773 201.983 96.573 202.55C96.373 203.1 96.273 203.792 96.273 204.625V211H93.498ZM119.595 211.225C118.562 211.225 117.662 211.058 116.895 210.725C116.145 210.392 115.529 209.925 115.045 209.325C114.562 208.725 114.204 208.05 113.97 207.3C113.737 206.533 113.62 205.742 113.62 204.925C113.62 204.108 113.729 203.317 113.945 202.55C114.179 201.767 114.529 201.067 114.995 200.45C115.462 199.833 116.062 199.35 116.795 199C117.529 198.633 118.395 198.45 119.395 198.45C120.345 198.45 121.17 198.617 121.87 198.95C122.587 199.267 123.179 199.717 123.645 200.3C124.112 200.867 124.454 201.517 124.67 202.25C124.904 202.983 125.02 203.767 125.02 204.6C125.02 204.717 125.012 204.883 124.995 205.1C124.995 205.317 124.979 205.533 124.945 205.75H116.395C116.462 206.733 116.795 207.483 117.395 208C117.995 208.517 118.762 208.775 119.695 208.775C120.379 208.775 121.004 208.667 121.57 208.45C122.137 208.233 122.654 207.892 123.12 207.425L124.645 209.275C124.129 209.742 123.612 210.117 123.095 210.4C122.579 210.683 122.037 210.892 121.47 211.025C120.92 211.158 120.295 211.225 119.595 211.225ZM122.295 204.35C122.329 204.217 122.345 204.083 122.345 203.95C122.362 203.817 122.37 203.683 122.37 203.55C122.37 203.183 122.304 202.833 122.17 202.5C122.054 202.167 121.87 201.875 121.62 201.625C121.37 201.358 121.062 201.15 120.695 201C120.329 200.833 119.912 200.75 119.445 200.75C118.795 200.75 118.245 200.892 117.795 201.175C117.362 201.458 117.02 201.825 116.77 202.275C116.537 202.708 116.395 203.183 116.345 203.7H123.195L122.295 204.35ZM131.872 211.225C131.256 211.225 130.672 211.108 130.122 210.875C129.589 210.625 129.164 210.233 128.847 209.7C128.531 209.15 128.372 208.433 128.372 207.55V195.675L131.172 194.125V206.775C131.172 207.475 131.272 208.017 131.472 208.4C131.689 208.767 132.072 208.95 132.622 208.95C132.789 208.95 132.981 208.933 133.197 208.9C133.431 208.85 133.672 208.792 133.922 208.725V210.875C133.589 210.992 133.247 211.075 132.897 211.125C132.564 211.192 132.222 211.225 131.872 211.225ZM126.022 200.825V198.675H133.922V200.825H126.022ZM136.131 211V198.675H138.906V211H136.131ZM136.006 196.65V193.575H139.031V196.65H136.006ZM147.213 211.225C146.246 211.225 145.388 211.058 144.638 210.725C143.904 210.375 143.288 209.9 142.788 209.3C142.304 208.683 141.938 207.992 141.688 207.225C141.438 206.458 141.313 205.658 141.313 204.825C141.313 203.992 141.438 203.192 141.688 202.425C141.938 201.658 142.304 200.975 142.788 200.375C143.288 199.775 143.904 199.308 144.638 198.975C145.388 198.625 146.246 198.45 147.213 198.45C148.429 198.45 149.488 198.742 150.388 199.325C151.304 199.908 151.979 200.808 152.413 202.025L149.963 202.975C149.763 202.342 149.438 201.833 148.988 201.45C148.538 201.05 147.946 200.85 147.213 200.85C146.479 200.85 145.879 201.042 145.413 201.425C144.963 201.808 144.629 202.3 144.413 202.9C144.196 203.5 144.088 204.142 144.088 204.825C144.088 205.508 144.196 206.158 144.413 206.775C144.629 207.375 144.963 207.867 145.413 208.25C145.879 208.617 146.479 208.8 147.213 208.8C147.946 208.8 148.538 208.608 148.988 208.225C149.438 207.842 149.763 207.333 149.963 206.7L152.413 207.65C151.979 208.85 151.304 209.75 150.388 210.35C149.488 210.933 148.429 211.225 147.213 211.225ZM161.069 211V193.575H166.069C168.936 193.575 171.161 194.35 172.744 195.9C174.327 197.433 175.119 199.608 175.119 202.425C175.119 205.192 174.336 207.317 172.769 208.8C171.219 210.267 168.977 211 166.044 211H161.069ZM163.969 208.35H165.769C167.119 208.35 168.277 208.167 169.244 207.8C170.211 207.417 170.944 206.783 171.444 205.9C171.944 205.017 172.194 203.825 172.194 202.325C172.194 200.825 171.944 199.633 171.444 198.75C170.961 197.85 170.252 197.208 169.319 196.825C168.402 196.425 167.302 196.225 166.019 196.225H163.969V208.35ZM182.963 211.225C181.93 211.225 181.03 211.058 180.263 210.725C179.513 210.392 178.897 209.925 178.413 209.325C177.93 208.725 177.572 208.05 177.338 207.3C177.105 206.533 176.988 205.742 176.988 204.925C176.988 204.108 177.097 203.317 177.313 202.55C177.547 201.767 177.897 201.067 178.363 200.45C178.83 199.833 179.43 199.35 180.163 199C180.897 198.633 181.763 198.45 182.763 198.45C183.713 198.45 184.538 198.617 185.238 198.95C185.955 199.267 186.547 199.717 187.013 200.3C187.48 200.867 187.822 201.517 188.038 202.25C188.272 202.983 188.388 203.767 188.388 204.6C188.388 204.717 188.38 204.883 188.363 205.1C188.363 205.317 188.347 205.533 188.313 205.75H179.763C179.83 206.733 180.163 207.483 180.763 208C181.363 208.517 182.13 208.775 183.063 208.775C183.747 208.775 184.372 208.667 184.938 208.45C185.505 208.233 186.022 207.892 186.488 207.425L188.013 209.275C187.497 209.742 186.98 210.117 186.463 210.4C185.947 210.683 185.405 210.892 184.838 211.025C184.288 211.158 183.663 211.225 182.963 211.225ZM185.663 204.35C185.697 204.217 185.713 204.083 185.713 203.95C185.73 203.817 185.738 203.683 185.738 203.55C185.738 203.183 185.672 202.833 185.538 202.5C185.422 202.167 185.238 201.875 184.988 201.625C184.738 201.358 184.43 201.15 184.063 201C183.697 200.833 183.28 200.75 182.813 200.75C182.163 200.75 181.613 200.892 181.163 201.175C180.73 201.458 180.388 201.825 180.138 202.275C179.905 202.708 179.763 203.183 179.713 203.7H186.563L185.663 204.35ZM190.839 211V198.675H193.614V201.4L193.114 201.525C193.331 200.808 193.647 200.225 194.064 199.775C194.481 199.325 194.964 198.992 195.514 198.775C196.081 198.558 196.672 198.45 197.289 198.45C198.672 198.45 199.747 198.85 200.514 199.65C201.297 200.433 201.689 201.558 201.689 203.025V211H198.914V204.05C198.914 202.95 198.714 202.142 198.314 201.625C197.914 201.108 197.297 200.85 196.464 200.85C195.847 200.85 195.322 201 194.889 201.3C194.472 201.583 194.156 202.033 193.939 202.65C193.722 203.267 193.614 204.05 193.614 205V211H190.839ZM209.029 211.225C208.412 211.225 207.829 211.108 207.279 210.875C206.745 210.625 206.32 210.233 206.004 209.7C205.687 209.15 205.529 208.433 205.529 207.55V195.675L208.329 194.125V206.775C208.329 207.475 208.429 208.017 208.629 208.4C208.845 208.767 209.229 208.95 209.779 208.95C209.945 208.95 210.137 208.933 210.354 208.9C210.587 208.85 210.829 208.792 211.079 208.725V210.875C210.745 210.992 210.404 211.075 210.054 211.125C209.72 211.192 209.379 211.225 209.029 211.225ZM203.179 200.825V198.675H211.079V200.825H203.179ZM213.287 211V198.675H216.062V211H213.287ZM213.162 196.65V193.575H216.187V196.65H213.162ZM223.244 211.225C222.361 211.225 221.577 211.1 220.894 210.85C220.211 210.583 219.636 210.25 219.169 209.85C218.702 209.45 218.319 209.05 218.019 208.65L219.919 207C220.236 207.517 220.669 207.975 221.219 208.375C221.786 208.775 222.469 208.975 223.269 208.975C223.936 208.975 224.461 208.833 224.844 208.55C225.244 208.267 225.444 207.917 225.444 207.5C225.444 207.133 225.319 206.85 225.069 206.65C224.819 206.433 224.494 206.25 224.094 206.1C223.694 205.95 223.252 205.817 222.769 205.7C222.302 205.583 221.827 205.442 221.344 205.275C220.861 205.092 220.411 204.867 219.994 204.6C219.594 204.333 219.269 203.992 219.019 203.575C218.769 203.158 218.644 202.642 218.644 202.025C218.644 200.942 219.061 200.075 219.894 199.425C220.727 198.775 221.819 198.45 223.169 198.45C224.136 198.45 225.019 198.642 225.819 199.025C226.619 199.408 227.244 199.983 227.694 200.75L225.969 202.075C225.636 201.575 225.219 201.2 224.719 200.95C224.219 200.7 223.677 200.575 223.094 200.575C222.561 200.575 222.111 200.683 221.744 200.9C221.394 201.117 221.219 201.4 221.219 201.75C221.219 202.017 221.302 202.233 221.469 202.4C221.636 202.567 221.894 202.717 222.244 202.85C222.594 202.983 223.036 203.117 223.569 203.25C224.069 203.367 224.586 203.508 225.119 203.675C225.652 203.842 226.144 204.067 226.594 204.35C227.061 204.617 227.436 204.983 227.719 205.45C228.019 205.9 228.169 206.483 228.169 207.2C228.169 208 227.961 208.708 227.544 209.325C227.144 209.925 226.569 210.392 225.819 210.725C225.086 211.058 224.227 211.225 223.244 211.225ZM235.036 211.225C234.42 211.225 233.836 211.108 233.286 210.875C232.753 210.625 232.328 210.233 232.011 209.7C231.695 209.15 231.536 208.433 231.536 207.55V195.675L234.336 194.125V206.775C234.336 207.475 234.436 208.017 234.636 208.4C234.853 208.767 235.236 208.95 235.786 208.95C235.953 208.95 236.145 208.933 236.361 208.9C236.595 208.85 236.836 208.792 237.086 208.725V210.875C236.753 210.992 236.411 211.075 236.061 211.125C235.728 211.192 235.386 211.225 235.036 211.225ZM229.186 200.825V198.675H237.086V200.825H229.186ZM239.32 211V198.675H242.12V202L241.595 202.075C241.679 201.358 241.92 200.733 242.32 200.2C242.72 199.65 243.204 199.225 243.77 198.925C244.354 198.608 244.929 198.45 245.495 198.45C245.895 198.45 246.279 198.5 246.645 198.6C247.012 198.7 247.395 198.867 247.795 199.1L246.445 201.6C246.262 201.483 246.02 201.392 245.72 201.325C245.437 201.242 245.162 201.2 244.895 201.2C244.545 201.2 244.195 201.267 243.845 201.4C243.512 201.533 243.212 201.742 242.945 202.025C242.679 202.292 242.479 202.642 242.345 203.075C242.262 203.308 242.195 203.617 242.145 204C242.112 204.367 242.095 204.883 242.095 205.55V211H239.32ZM250.643 216.075L253.093 210.175L248.393 198.675H251.443L254.568 207.4L257.743 198.675H260.743L253.643 216.075H250.643ZM119.776 241L126.676 223.575H128.876L135.751 241H132.601L127.776 227.8L122.951 241H119.776ZM124.076 237.35L124.976 234.775H130.551L131.501 237.35H124.076ZM138.859 241L135.109 228.675H138.059L140.259 236.75L142.759 228.675H145.134L147.634 236.7L149.859 228.675H152.809L149.034 241H146.534L143.959 232.6L141.384 241H138.859ZM162.683 241L162.483 238.925V233.225C162.483 232.425 162.241 231.825 161.758 231.425C161.275 231.008 160.6 230.8 159.733 230.8C159.066 230.8 158.408 230.933 157.758 231.2C157.125 231.45 156.541 231.842 156.008 232.375L154.458 230.55C155.258 229.8 156.108 229.267 157.008 228.95C157.908 228.617 158.891 228.45 159.958 228.45C161.625 228.45 162.916 228.875 163.833 229.725C164.766 230.558 165.233 231.725 165.233 233.225V241H162.683ZM158.858 241.225C157.941 241.225 157.125 241.058 156.408 240.725C155.708 240.392 155.158 239.925 154.758 239.325C154.375 238.725 154.183 238.025 154.183 237.225C154.183 236.542 154.325 235.95 154.608 235.45C154.908 234.95 155.291 234.558 155.758 234.275C156.158 234.025 156.625 233.85 157.158 233.75C157.691 233.633 158.25 233.575 158.833 233.575H162.708V235.65H159.233C158.933 235.65 158.633 235.683 158.333 235.75C158.033 235.8 157.766 235.9 157.533 236.05C157.366 236.183 157.225 236.35 157.108 236.55C157.008 236.75 156.958 236.983 156.958 237.25C156.958 237.783 157.158 238.208 157.558 238.525C157.975 238.825 158.525 238.975 159.208 238.975C159.808 238.975 160.35 238.842 160.833 238.575C161.333 238.308 161.733 237.942 162.033 237.475C162.333 237.008 162.483 236.483 162.483 235.9L163.333 237.275C163.133 238.142 162.816 238.875 162.383 239.475C161.95 240.058 161.433 240.5 160.833 240.8C160.233 241.083 159.575 241.225 158.858 241.225ZM168.082 241V228.675H170.882V232L170.357 232.075C170.44 231.358 170.682 230.733 171.082 230.2C171.482 229.65 171.965 229.225 172.532 228.925C173.115 228.608 173.69 228.45 174.257 228.45C174.657 228.45 175.04 228.5 175.407 228.6C175.773 228.7 176.157 228.867 176.557 229.1L175.207 231.6C175.023 231.483 174.782 231.392 174.482 231.325C174.198 231.242 173.923 231.2 173.657 231.2C173.307 231.2 172.957 231.267 172.607 231.4C172.273 231.533 171.973 231.742 171.707 232.025C171.44 232.292 171.24 232.642 171.107 233.075C171.023 233.308 170.957 233.617 170.907 234C170.873 234.367 170.857 234.883 170.857 235.55V241H168.082ZM182.446 241.225C181.346 241.225 180.388 240.95 179.571 240.4C178.771 239.833 178.154 239.067 177.721 238.1C177.288 237.133 177.071 236.042 177.071 234.825C177.071 233.492 177.304 232.35 177.771 231.4C178.254 230.45 178.904 229.725 179.721 229.225C180.538 228.708 181.446 228.45 182.446 228.45C183.146 228.45 183.788 228.592 184.371 228.875C184.971 229.158 185.471 229.575 185.871 230.125C186.288 230.658 186.579 231.317 186.746 232.1L186.096 232.125V223.575H188.871V241H186.096V237.575L186.846 237.4C186.629 238.3 186.296 239.033 185.846 239.6C185.413 240.15 184.904 240.558 184.321 240.825C183.738 241.092 183.113 241.225 182.446 241.225ZM183.121 238.675C183.771 238.675 184.338 238.517 184.821 238.2C185.304 237.883 185.679 237.433 185.946 236.85C186.213 236.267 186.346 235.592 186.346 234.825C186.346 234.058 186.213 233.392 185.946 232.825C185.679 232.242 185.304 231.792 184.821 231.475C184.338 231.142 183.771 230.975 183.121 230.975C182.471 230.975 181.896 231.133 181.396 231.45C180.913 231.767 180.529 232.217 180.246 232.8C179.979 233.383 179.846 234.058 179.846 234.825C179.846 235.592 179.979 236.267 180.246 236.85C180.529 237.433 180.913 237.883 181.396 238.2C181.896 238.517 182.471 238.675 183.121 238.675Z" fill="white" style="fill:white;fill-opacity:1;"/>
</svg>
