<svg width="310" height="310" viewBox="0 0 310 310" fill="none" xmlns="http://www.w3.org/2000/svg">
<path d="M147.651 1.92236C152.217 -0.640785 157.783 -0.640785 162.349 1.92236L188.281 16.4702C190.473 17.7017 192.937 18.3625 195.44 18.3925L225.166 18.763C230.402 18.8231 235.218 21.6065 237.892 26.112L253.08 51.6733C254.362 53.836 256.164 55.6382 258.327 56.9198L283.888 72.1084C288.384 74.7817 291.167 79.5976 291.237 84.834L291.607 114.56C291.638 117.074 292.298 119.537 293.53 121.719L308.078 147.651C310.641 152.217 310.641 157.783 308.078 162.349L293.53 188.281C292.298 190.473 291.638 192.936 291.607 195.44L291.237 225.166C291.167 230.402 288.384 235.218 283.888 237.892L258.327 253.08C256.174 254.362 254.362 256.164 253.08 258.327L237.892 283.888C235.218 288.383 230.392 291.167 225.166 291.237L195.44 291.607C192.927 291.637 190.463 292.298 188.281 293.53L162.349 308.078C157.783 310.641 152.217 310.641 147.651 308.078L121.719 293.53C119.527 292.298 117.064 291.637 114.56 291.607L84.834 291.237C79.5976 291.167 74.7817 288.383 72.1084 283.888L56.9198 258.327C55.6382 256.174 53.836 254.362 51.6733 253.08L26.112 237.892C21.6165 235.218 18.8331 230.392 18.763 225.166L18.3925 195.44C18.3625 192.926 17.7017 190.463 16.4702 188.281L1.92236 162.349C-0.640786 157.783 -0.640786 152.217 1.92236 147.651L16.4702 121.719C17.7017 119.527 18.3625 117.063 18.3925 114.56L18.763 84.834C18.8231 79.5976 21.6065 74.7817 26.112 72.1084L51.6733 56.9198C53.836 55.6382 55.6382 53.836 56.9198 51.6733L72.1084 26.112C74.7817 21.6165 79.5976 18.8331 84.834 18.763L114.56 18.3925C117.074 18.3625 119.537 17.7017 121.719 16.4702L147.651 1.92236Z" fill="#227DF5" style="fill:#227DF5;fill:color(display-p3 0.1333 0.4919 0.9608);fill-opacity:1;"/>
<path d="M155 300C152.474 300 149.958 299.373 147.7 298.1L124.03 284.823C121.862 283.61 119.405 282.944 116.919 282.914L89.7776 282.576C84.6159 282.516 79.7725 279.712 77.1369 275.276L63.2729 251.934C61.9999 249.796 60.1998 247.996 58.0615 246.723L34.7195 232.859C30.2838 230.224 27.4891 225.38 27.4195 220.219L27.0813 193.078C27.0515 190.592 26.3951 188.135 25.1718 185.967L11.8946 162.297C9.36846 157.792 9.36846 152.203 11.8946 147.698L25.1718 124.028C26.3852 121.86 27.0515 119.403 27.0813 116.917L27.4195 89.7762C27.4792 84.6146 30.2838 79.7713 34.7195 77.1357L58.0615 63.272C60.1998 61.999 61.9999 60.1989 63.2729 58.0607L77.1369 34.719C79.7725 30.2834 84.6159 27.4888 89.7776 27.4192L116.919 27.0811C119.405 27.0512 121.862 26.3948 124.03 25.1716L147.7 11.8946C152.205 9.36847 157.795 9.36847 162.3 11.8946L185.97 25.1716C188.138 26.3849 190.595 27.0512 193.081 27.0811L220.222 27.4192C225.384 27.4789 230.228 30.2834 232.863 34.719L246.727 58.0607C248 60.1989 249.8 61.999 251.939 63.272L275.281 77.1357C279.716 79.7713 282.511 84.6146 282.58 89.7762L282.919 116.917C282.949 119.403 283.605 121.86 284.828 124.028L298.105 147.698C300.632 152.203 300.632 157.792 298.105 162.297L284.828 185.967C283.615 188.135 282.958 190.592 282.919 193.078L282.58 220.219C282.521 225.38 279.716 230.224 275.281 232.859L251.939 246.723C249.8 247.996 248 249.796 246.727 251.934L232.863 275.276C230.228 279.712 225.384 282.506 220.222 282.576L193.081 282.914C190.595 282.944 188.138 283.6 185.97 284.823L162.3 298.1C160.052 299.363 157.526 300 155 300ZM155 12.004C152.812 12.004 150.624 12.551 148.675 13.645L125.004 26.9219C122.548 28.3043 119.763 29.0502 116.939 29.0801L89.7975 29.4182C85.322 29.4779 81.125 31.8946 78.8376 35.7434L64.9736 59.085C63.5315 61.5117 61.4927 63.5505 59.0759 64.9826L35.7339 78.8463C31.885 81.1338 29.4683 85.3307 29.4086 89.8061L29.0704 116.947C29.0406 119.761 28.2848 122.556 26.9123 125.012L13.6351 148.682C11.4471 152.581 11.4471 157.434 13.6351 161.333L26.9123 185.003C28.2947 187.459 29.0406 190.254 29.0704 193.068L29.4086 220.209C29.4683 224.684 31.885 228.881 35.7339 231.169L59.0759 245.032C61.5026 246.474 63.5414 248.513 64.9736 250.93L78.8376 274.272C81.125 278.12 85.322 280.537 89.7975 280.597L116.939 280.935C119.753 280.965 122.538 281.721 125.004 283.093L148.675 296.37C152.573 298.558 157.427 298.558 161.325 296.37L184.996 283.093C187.452 281.711 190.247 280.965 193.061 280.935L220.202 280.597C224.678 280.537 228.875 278.12 231.162 274.272L245.026 250.93C246.469 248.503 248.507 246.464 250.924 245.032L274.266 231.169C278.115 228.881 280.532 224.684 280.591 220.209L280.93 193.068C280.969 190.254 281.715 187.459 283.088 185.003L296.365 161.333C298.553 157.434 298.553 152.581 296.365 148.682L283.088 125.012C281.705 122.556 280.959 119.771 280.93 116.947L280.591 89.8061C280.532 85.3307 278.115 81.1338 274.266 78.8463L250.924 64.9826C248.497 63.5405 246.459 61.5017 245.026 59.085L231.162 35.7434C228.875 31.8946 224.678 29.4779 220.202 29.4182L193.061 29.0801C190.247 29.0403 187.462 28.2944 184.996 26.9219L161.325 13.645C159.376 12.551 157.188 12.004 155 12.004Z" fill="white" style="fill:white;fill-opacity:1;"/>
<path d="M177.276 99.6776L191.134 96.5392H191.144C194.638 95.7497 197.776 98.6512 196.829 101.8L192.21 117.146C191.588 119.209 189.762 120.808 187.423 121.064C175.5 122.357 164.179 118.834 155 112.014C145.821 118.834 134.5 122.357 122.577 121.064C120.238 120.808 118.412 119.199 117.79 117.146L113.171 101.8C112.224 98.6512 115.362 95.7497 118.856 96.5392L132.714 99.6776C134.855 100.161 137.116 99.5888 138.675 98.1775L151.664 86.4034C153.51 84.7355 156.49 84.7355 158.326 86.4034L171.315 98.1775C172.874 99.5987 175.135 100.161 177.276 99.6776Z" fill="white" style="fill:white;fill-opacity:1;"/>
<path d="M156.441 124.39C161.426 127.144 170.644 131.536 183.82 131.2C186.051 131.141 187.828 133.016 187.245 134.96L182.064 150.959C180.929 154.739 176.378 156.367 172.815 154.146L157.655 144.702C156.056 143.705 153.934 143.705 152.325 144.702L137.55 154.146C133.987 156.367 129.072 154.739 127.937 150.959L122.745 134.96C122.163 133.016 123.939 131.141 126.17 131.2C139.346 131.536 148.555 127.144 153.549 124.39C154.487 123.867 155.523 123.877 156.441 124.39Z" fill="white" style="fill:white;fill-opacity:1;"/>
<path d="M148.91 59.5801L146.42 59.76L146.02 54.2301L138.9 43.52L141.67 43.3201L147.07 51.3501L151.23 42.63L154.09 42.42L148.51 54.01L148.92 59.5901L148.91 59.5801Z" fill="white" style="fill:white;fill-opacity:1;"/>
<path d="M133.22 61.6001L135.55 60.9401L135.56 60.9301L130.98 44.8201L128.89 45.41L126.21 59.3501L116.62 48.9L114.51 49.5001L119.09 65.6101L121.42 64.9501L118.39 54.3L126.76 63.4401L127.9 63.1101L130.19 50.9501L133.22 61.6001Z" fill="white" style="fill:white;fill-opacity:1;"/>
<path d="M104.12 72.98L94.5503 70.66L93.8198 71.12L97.5601 77.09L95.4502 78.42L86.5601 64.23L88.6699 62.9L92.52 69.04L93.0898 68.6801L95.0303 58.91L97.6602 57.26L95.5103 68.53L106.99 71.1801L104.13 72.98H104.12Z" fill="white" style="fill:white;fill-opacity:1;"/>
<path d="M88.8799 83.53L90.4497 82.1101L79.1997 69.7001L77.3296 71.3901L85.5396 80.4501L70.3496 77.7201L68.7798 79.1401L80.0298 91.55L81.8799 89.8701L73.8096 80.9601L88.8799 83.53Z" fill="white" style="fill:white;fill-opacity:1;"/>
<path fill-rule="evenodd" clip-rule="evenodd" d="M75.2202 96.9601L71.2002 95.77L66.52 101.76L68.6499 105.37L66.9902 107.5L58.02 91.77L59.4502 89.9301L76.8799 94.8201L75.2202 96.9501V96.9601ZM61.3198 92.88L65.2002 99.49L68.6699 95.04L61.3198 92.88Z" fill="white" style="fill:white;fill-opacity:1;"/>
<path fill-rule="evenodd" clip-rule="evenodd" d="M63.6499 113.11L55.1201 114.78L54.0298 116.76L59.8799 119.97L58.6802 122.16L44 114.09L47.54 107.65C49.0898 104.83 51.8999 103.93 54.5498 105.38C57.0698 106.76 57.8398 109.42 56.5601 112.1L65.1499 110.38L63.6602 113.1L63.6499 113.11ZM54.2402 111.35C55.0698 109.84 54.7002 108.33 53.3398 107.58C51.96 106.82 50.4902 107.32 49.6602 108.83L47.3198 113.08L51.8999 115.6L54.2402 111.35Z" fill="white" style="fill:white;fill-opacity:1;"/>
<path fill-rule="evenodd" clip-rule="evenodd" d="M184.08 54.64C185.04 49.86 182.48 45.78 177.27 44.73V44.74L171.92 43.66L168.62 60.0801L173.97 61.15C179.18 62.2001 183.12 59.42 184.08 54.64ZM181.6 54.15C180.92 57.5601 178.17 59.53 174.44 58.78L174.43 58.77L171.53 58.1901L173.88 46.53L176.78 47.11C180.51 47.86 182.29 50.74 181.6 54.15Z" fill="white" style="fill:white;fill-opacity:1;"/>
<path d="M198.43 68.88L187.63 64.5701L193.84 49.01L204.62 53.3101L203.72 55.5601L195.25 52.1801L193.5 56.5701L201.32 59.6901L200.43 61.92L192.61 58.8L190.84 63.24L199.33 66.63L198.43 68.88Z" fill="white" style="fill:white;fill-opacity:1;"/>
<path d="M213.7 77.7301L215.5 78.8501L224.37 64.65L222.23 63.3201L215.75 73.6801L214.24 58.3201L212.44 57.2001L203.57 71.4L205.69 72.7201L212.06 62.53L213.7 77.7301Z" fill="white" style="fill:white;fill-opacity:1;"/>
<path d="M234.95 76.51L225.4 87.1899L223.52 85.51L233.07 74.83L228.99 71.1799L230.61 69.37L240.67 78.37L239.05 80.1799L234.95 76.51Z" fill="white" style="fill:white;fill-opacity:1;"/>
<path d="M245.45 83.64L232.91 94.74L234.56 96.61L247.1 85.51L245.45 83.64Z" fill="white" style="fill:white;fill-opacity:1;"/>
<path d="M255.47 103.84L253.59 102.11C254.88 100.86 255.03 99.03 253.96 97.5C252.9 95.99 251.33 95.61 250.12 96.46C249.16 97.13 249.01 98.01 249.54 99.29L250.84 102.5C251.73 104.73 251.54 106.9 249.39 108.41C246.81 110.22 243.82 109.38 241.76 106.44C239.86 103.73 239.7 100.48 242.13 98.3L244.15 100.13C242.6 101.67 242.64 103.55 243.84 105.27C245.04 106.99 246.6 107.35 247.85 106.47C248.89 105.74 249.03 104.88 248.42 103.4L247.08 100.18C246.36 98.3199 246.11 96.0499 248.55 94.34C250.97 92.65 253.9 93.36 255.89 96.2C257.71 98.7999 257.5 101.73 255.47 103.84Z" fill="white" style="fill:white;fill-opacity:1;"/>
<path d="M251.16 121.66L263.94 115.19L266.43 120.09L268.59 118.99L262.49 106.95L260.33 108.05L262.8 112.94L250.02 119.41L251.16 121.66Z" fill="white" style="fill:white;fill-opacity:1;"/>
<path d="M134.922 272.19V271.254C135.194 271.038 135.51 270.798 135.87 270.534C136.23 270.27 136.594 269.982 136.962 269.67C137.338 269.358 137.686 269.026 138.006 268.674C138.326 268.322 138.582 267.954 138.774 267.57C138.974 267.178 139.074 266.778 139.074 266.37C139.074 265.93 138.954 265.574 138.714 265.302C138.474 265.022 138.114 264.882 137.634 264.882C137.274 264.882 136.974 264.966 136.734 265.134C136.502 265.302 136.33 265.53 136.218 265.818C136.106 266.106 136.046 266.426 136.038 266.778L134.886 266.694C134.886 266.302 134.946 265.93 135.066 265.578C135.186 265.226 135.362 264.914 135.594 264.642C135.834 264.362 136.126 264.142 136.47 263.982C136.822 263.822 137.222 263.742 137.67 263.742C138.182 263.742 138.626 263.85 139.002 264.066C139.386 264.282 139.686 264.582 139.902 264.966C140.118 265.35 140.226 265.802 140.226 266.322C140.226 266.762 140.146 267.186 139.986 267.594C139.834 268.002 139.618 268.394 139.338 268.77C139.058 269.138 138.734 269.486 138.366 269.814C137.998 270.142 137.602 270.454 137.178 270.75C136.754 271.038 136.314 271.302 135.858 271.542L136.17 271.098H140.562V272.19H134.922Z" fill="white" style="fill:white;fill-opacity:1;"/>
<path d="M149.269 272.286C148.781 272.286 148.369 272.198 148.033 272.022C147.705 271.846 147.433 271.61 147.217 271.314C147.009 271.01 146.849 270.674 146.737 270.306C146.633 269.93 146.561 269.542 146.521 269.142C146.481 268.734 146.461 268.346 146.461 267.978C146.461 267.61 146.477 267.23 146.509 266.838C146.549 266.438 146.621 266.054 146.725 265.686C146.837 265.31 146.997 264.974 147.205 264.678C147.413 264.382 147.681 264.146 148.009 263.97C148.345 263.794 148.753 263.706 149.233 263.706C149.705 263.706 150.105 263.794 150.433 263.97C150.761 264.138 151.029 264.366 151.237 264.654C151.453 264.942 151.617 265.27 151.729 265.638C151.841 266.006 151.917 266.394 151.957 266.802C152.005 267.202 152.029 267.594 152.029 267.978C152.029 268.378 152.005 268.782 151.957 269.19C151.917 269.598 151.837 269.986 151.717 270.354C151.605 270.722 151.445 271.054 151.237 271.35C151.029 271.638 150.765 271.866 150.445 272.034C150.125 272.202 149.733 272.286 149.269 272.286ZM149.269 271.158C149.669 271.158 149.981 271.018 150.205 270.738C150.437 270.458 150.601 270.082 150.697 269.61C150.793 269.138 150.841 268.61 150.841 268.026C150.841 267.41 150.789 266.866 150.685 266.394C150.589 265.914 150.425 265.534 150.193 265.254C149.961 264.974 149.641 264.834 149.233 264.834C148.913 264.834 148.649 264.918 148.441 265.086C148.241 265.254 148.085 265.486 147.973 265.782C147.861 266.078 147.781 266.418 147.733 266.802C147.685 267.178 147.661 267.582 147.661 268.014C147.661 268.43 147.685 268.826 147.733 269.202C147.781 269.578 147.861 269.914 147.973 270.21C148.093 270.498 148.257 270.73 148.465 270.906C148.673 271.074 148.941 271.158 149.269 271.158Z" fill="white" style="fill:white;fill-opacity:1;"/>
<path d="M157.952 272.19V271.254C158.224 271.038 158.54 270.798 158.9 270.534C159.26 270.27 159.624 269.982 159.992 269.67C160.368 269.358 160.716 269.026 161.036 268.674C161.356 268.322 161.612 267.954 161.804 267.57C162.004 267.178 162.104 266.778 162.104 266.37C162.104 265.93 161.984 265.574 161.744 265.302C161.504 265.022 161.144 264.882 160.664 264.882C160.304 264.882 160.004 264.966 159.764 265.134C159.532 265.302 159.36 265.53 159.248 265.818C159.136 266.106 159.076 266.426 159.068 266.778L157.916 266.694C157.916 266.302 157.976 265.93 158.096 265.578C158.216 265.226 158.392 264.914 158.624 264.642C158.864 264.362 159.156 264.142 159.5 263.982C159.852 263.822 160.252 263.742 160.7 263.742C161.212 263.742 161.656 263.85 162.032 264.066C162.416 264.282 162.716 264.582 162.932 264.966C163.148 265.35 163.256 265.802 163.256 266.322C163.256 266.762 163.176 267.186 163.016 267.594C162.864 268.002 162.648 268.394 162.368 268.77C162.088 269.138 161.764 269.486 161.396 269.814C161.028 270.142 160.632 270.454 160.208 270.75C159.784 271.038 159.344 271.302 158.888 271.542L159.2 271.098H163.592V272.19H157.952Z" fill="white" style="fill:white;fill-opacity:1;"/>
<path d="M172.251 272.298C171.747 272.298 171.283 272.19 170.859 271.974C170.443 271.758 170.099 271.466 169.827 271.098C169.555 270.722 169.379 270.298 169.299 269.826L170.451 269.622C170.499 269.894 170.595 270.15 170.739 270.39C170.891 270.63 171.091 270.822 171.339 270.966C171.595 271.102 171.891 271.17 172.227 271.17C172.611 271.17 172.931 271.082 173.187 270.906C173.451 270.722 173.651 270.49 173.787 270.21C173.923 269.922 173.991 269.618 173.991 269.298C173.991 268.994 173.927 268.714 173.799 268.458C173.671 268.202 173.479 267.998 173.223 267.846C172.975 267.686 172.663 267.606 172.287 267.606C171.943 267.606 171.635 267.686 171.363 267.846C171.099 267.998 170.875 268.21 170.691 268.482L169.551 268.182L170.343 263.826H174.855V264.918H170.775L171.399 264.426L170.835 267.522L170.487 267.438C170.799 267.078 171.123 266.834 171.459 266.706C171.803 266.57 172.135 266.502 172.455 266.502C172.999 266.502 173.479 266.63 173.895 266.886C174.319 267.142 174.647 267.482 174.879 267.906C175.111 268.33 175.227 268.794 175.227 269.298C175.227 269.698 175.155 270.078 175.011 270.438C174.867 270.798 174.659 271.118 174.387 271.398C174.123 271.678 173.807 271.898 173.439 272.058C173.079 272.218 172.683 272.298 172.251 272.298Z" fill="white" style="fill:white;fill-opacity:1;"/>
<path d="M41 147.61L42.8887 152.721L48 154.61L42.8887 156.499L41 161.61L39.1113 156.499L34 154.61L39.1113 152.721L41 147.61Z" fill="white" style="fill:white;fill-opacity:1;"/>
<path d="M269 147.61L270.889 152.721L276 154.61L270.889 156.499L269 161.61L267.111 156.499L262 154.61L267.111 152.721L269 147.61Z" fill="white" style="fill:white;fill-opacity:1;"/>
<path fill-rule="evenodd" clip-rule="evenodd" d="M265 178H45V177H265V178Z" fill="white" style="fill:white;fill-opacity:1;"/>
<path d="M67.9216 230V212.575H72.9216C75.7883 212.575 78.0133 213.35 79.5966 214.9C81.1799 216.433 81.9716 218.608 81.9716 221.425C81.9716 224.192 81.1883 226.317 79.6216 227.8C78.0716 229.267 75.8299 230 72.8966 230H67.9216ZM70.8216 227.35H72.6216C73.9716 227.35 75.1299 227.167 76.0966 226.8C77.0633 226.417 77.7966 225.783 78.2966 224.9C78.7966 224.017 79.0466 222.825 79.0466 221.325C79.0466 219.825 78.7966 218.633 78.2966 217.75C77.8133 216.85 77.1049 216.208 76.1716 215.825C75.2549 215.425 74.1549 215.225 72.8716 215.225H70.8216V227.35ZM89.8161 230.225C88.7828 230.225 87.8828 230.058 87.1161 229.725C86.3661 229.392 85.7495 228.925 85.2661 228.325C84.7828 227.725 84.4245 227.05 84.1911 226.3C83.9578 225.533 83.8411 224.742 83.8411 223.925C83.8411 223.108 83.9495 222.317 84.1661 221.55C84.3995 220.767 84.7495 220.067 85.2161 219.45C85.6828 218.833 86.2828 218.35 87.0161 218C87.7495 217.633 88.6161 217.45 89.6161 217.45C90.5661 217.45 91.3911 217.617 92.0911 217.95C92.8078 218.267 93.3995 218.717 93.8661 219.3C94.3328 219.867 94.6745 220.517 94.8911 221.25C95.1245 221.983 95.2411 222.767 95.2411 223.6C95.2411 223.717 95.2328 223.883 95.2161 224.1C95.2161 224.317 95.1995 224.533 95.1661 224.75H86.6161C86.6828 225.733 87.0161 226.483 87.6161 227C88.2161 227.517 88.9828 227.775 89.9161 227.775C90.5995 227.775 91.2245 227.667 91.7911 227.45C92.3578 227.233 92.8745 226.892 93.3411 226.425L94.8661 228.275C94.3495 228.742 93.8328 229.117 93.3161 229.4C92.7995 229.683 92.2578 229.892 91.6911 230.025C91.1411 230.158 90.5161 230.225 89.8161 230.225ZM92.5161 223.35C92.5495 223.217 92.5661 223.083 92.5661 222.95C92.5828 222.817 92.5911 222.683 92.5911 222.55C92.5911 222.183 92.5245 221.833 92.3911 221.5C92.2745 221.167 92.0911 220.875 91.8411 220.625C91.5911 220.358 91.2828 220.15 90.9161 220C90.5495 219.833 90.1328 219.75 89.6661 219.75C89.0161 219.75 88.4661 219.892 88.0161 220.175C87.5828 220.458 87.2411 220.825 86.9911 221.275C86.7578 221.708 86.6161 222.183 86.5661 222.7H93.4161L92.5161 223.35ZM97.6915 230V217.675H100.467V220.4L99.9665 220.525C100.183 219.808 100.5 219.225 100.917 218.775C101.333 218.325 101.817 217.992 102.367 217.775C102.933 217.558 103.525 217.45 104.142 217.45C105.525 217.45 106.6 217.85 107.367 218.65C108.15 219.433 108.542 220.558 108.542 222.025V230H105.767V223.05C105.767 221.95 105.567 221.142 105.167 220.625C104.767 220.108 104.15 219.85 103.317 219.85C102.7 219.85 102.175 220 101.742 220.3C101.325 220.583 101.008 221.033 100.792 221.65C100.575 222.267 100.467 223.05 100.467 224V230H97.6915ZM115.881 230.225C115.265 230.225 114.681 230.108 114.131 229.875C113.598 229.625 113.173 229.233 112.856 228.7C112.54 228.15 112.381 227.433 112.381 226.55V214.675L115.181 213.125V225.775C115.181 226.475 115.281 227.017 115.481 227.4C115.698 227.767 116.081 227.95 116.631 227.95C116.798 227.95 116.99 227.933 117.206 227.9C117.44 227.85 117.681 227.792 117.931 227.725V229.875C117.598 229.992 117.256 230.075 116.906 230.125C116.573 230.192 116.231 230.225 115.881 230.225ZM110.031 219.825V217.675H117.931V219.825H110.031ZM124.44 230.225C123.474 230.225 122.657 230.033 121.99 229.65C121.34 229.267 120.849 228.717 120.515 228C120.182 227.283 120.015 226.417 120.015 225.4V217.675H122.79V224.65C122.79 225.3 122.865 225.867 123.015 226.35C123.182 226.817 123.44 227.175 123.79 227.425C124.157 227.675 124.649 227.8 125.265 227.8C125.982 227.8 126.54 227.617 126.94 227.25C127.357 226.867 127.649 226.317 127.815 225.6C127.999 224.867 128.09 223.992 128.09 222.975V217.675H130.865V230H128.09V227.35L128.565 227.525C128.182 228.458 127.624 229.142 126.89 229.575C126.174 230.008 125.357 230.225 124.44 230.225ZM133.88 230V217.675H136.68V221L136.155 221.075C136.238 220.358 136.48 219.733 136.88 219.2C137.28 218.65 137.763 218.225 138.33 217.925C138.913 217.608 139.488 217.45 140.055 217.45C140.455 217.45 140.838 217.5 141.205 217.6C141.572 217.7 141.955 217.867 142.355 218.1L141.005 220.6C140.822 220.483 140.58 220.392 140.28 220.325C139.997 220.242 139.722 220.2 139.455 220.2C139.105 220.2 138.755 220.267 138.405 220.4C138.072 220.533 137.772 220.742 137.505 221.025C137.238 221.292 137.038 221.642 136.905 222.075C136.822 222.308 136.755 222.617 136.705 223C136.672 223.367 136.655 223.883 136.655 224.55V230H133.88ZM148.844 230.225C147.811 230.225 146.911 230.058 146.144 229.725C145.394 229.392 144.778 228.925 144.294 228.325C143.811 227.725 143.453 227.05 143.219 226.3C142.986 225.533 142.869 224.742 142.869 223.925C142.869 223.108 142.978 222.317 143.194 221.55C143.428 220.767 143.778 220.067 144.244 219.45C144.711 218.833 145.311 218.35 146.044 218C146.778 217.633 147.644 217.45 148.644 217.45C149.594 217.45 150.419 217.617 151.119 217.95C151.836 218.267 152.428 218.717 152.894 219.3C153.361 219.867 153.703 220.517 153.919 221.25C154.153 221.983 154.269 222.767 154.269 223.6C154.269 223.717 154.261 223.883 154.244 224.1C154.244 224.317 154.228 224.533 154.194 224.75H145.644C145.711 225.733 146.044 226.483 146.644 227C147.244 227.517 148.011 227.775 148.944 227.775C149.628 227.775 150.253 227.667 150.819 227.45C151.386 227.233 151.903 226.892 152.369 226.425L153.894 228.275C153.378 228.742 152.861 229.117 152.344 229.4C151.828 229.683 151.286 229.892 150.719 230.025C150.169 230.158 149.544 230.225 148.844 230.225ZM151.544 223.35C151.578 223.217 151.594 223.083 151.594 222.95C151.611 222.817 151.619 222.683 151.619 222.55C151.619 222.183 151.553 221.833 151.419 221.5C151.303 221.167 151.119 220.875 150.869 220.625C150.619 220.358 150.311 220.15 149.944 220C149.578 219.833 149.161 219.75 148.694 219.75C148.044 219.75 147.494 219.892 147.044 220.175C146.611 220.458 146.269 220.825 146.019 221.275C145.786 221.708 145.644 222.183 145.594 222.7H152.444L151.544 223.35ZM160.92 230.225C160.037 230.225 159.253 230.1 158.57 229.85C157.887 229.583 157.312 229.25 156.845 228.85C156.378 228.45 155.995 228.05 155.695 227.65L157.595 226C157.912 226.517 158.345 226.975 158.895 227.375C159.462 227.775 160.145 227.975 160.945 227.975C161.612 227.975 162.137 227.833 162.52 227.55C162.92 227.267 163.12 226.917 163.12 226.5C163.12 226.133 162.995 225.85 162.745 225.65C162.495 225.433 162.17 225.25 161.77 225.1C161.37 224.95 160.928 224.817 160.445 224.7C159.978 224.583 159.503 224.442 159.02 224.275C158.537 224.092 158.087 223.867 157.67 223.6C157.27 223.333 156.945 222.992 156.695 222.575C156.445 222.158 156.32 221.642 156.32 221.025C156.32 219.942 156.737 219.075 157.57 218.425C158.403 217.775 159.495 217.45 160.845 217.45C161.812 217.45 162.695 217.642 163.495 218.025C164.295 218.408 164.92 218.983 165.37 219.75L163.645 221.075C163.312 220.575 162.895 220.2 162.395 219.95C161.895 219.7 161.353 219.575 160.77 219.575C160.237 219.575 159.787 219.683 159.42 219.9C159.07 220.117 158.895 220.4 158.895 220.75C158.895 221.017 158.978 221.233 159.145 221.4C159.312 221.567 159.57 221.717 159.92 221.85C160.27 221.983 160.712 222.117 161.245 222.25C161.745 222.367 162.262 222.508 162.795 222.675C163.328 222.842 163.82 223.067 164.27 223.35C164.737 223.617 165.112 223.983 165.395 224.45C165.695 224.9 165.845 225.483 165.845 226.2C165.845 227 165.637 227.708 165.22 228.325C164.82 228.925 164.245 229.392 163.495 229.725C162.762 230.058 161.903 230.225 160.92 230.225ZM173.132 230L180.032 212.575H182.232L189.107 230H185.957L181.132 216.8L176.307 230H173.132ZM177.432 226.35L178.332 223.775H183.907L184.857 226.35H177.432ZM192.214 230L188.464 217.675H191.414L193.614 225.75L196.114 217.675H198.489L200.989 225.7L203.214 217.675H206.164L202.389 230H199.889L197.314 221.6L194.739 230H192.214ZM216.038 230L215.838 227.925V222.225C215.838 221.425 215.596 220.825 215.113 220.425C214.63 220.008 213.955 219.8 213.088 219.8C212.421 219.8 211.763 219.933 211.113 220.2C210.48 220.45 209.896 220.842 209.363 221.375L207.813 219.55C208.613 218.8 209.463 218.267 210.363 217.95C211.263 217.617 212.246 217.45 213.313 217.45C214.98 217.45 216.271 217.875 217.188 218.725C218.121 219.558 218.588 220.725 218.588 222.225V230H216.038ZM212.213 230.225C211.296 230.225 210.48 230.058 209.763 229.725C209.063 229.392 208.513 228.925 208.113 228.325C207.73 227.725 207.538 227.025 207.538 226.225C207.538 225.542 207.68 224.95 207.963 224.45C208.263 223.95 208.646 223.558 209.113 223.275C209.513 223.025 209.98 222.85 210.513 222.75C211.046 222.633 211.605 222.575 212.188 222.575H216.063V224.65H212.588C212.288 224.65 211.988 224.683 211.688 224.75C211.388 224.8 211.121 224.9 210.888 225.05C210.721 225.183 210.58 225.35 210.463 225.55C210.363 225.75 210.313 225.983 210.313 226.25C210.313 226.783 210.513 227.208 210.913 227.525C211.33 227.825 211.88 227.975 212.563 227.975C213.163 227.975 213.705 227.842 214.188 227.575C214.688 227.308 215.088 226.942 215.388 226.475C215.688 226.008 215.838 225.483 215.838 224.9L216.688 226.275C216.488 227.142 216.171 227.875 215.738 228.475C215.305 229.058 214.788 229.5 214.188 229.8C213.588 230.083 212.93 230.225 212.213 230.225ZM221.437 230V217.675H224.237V221L223.712 221.075C223.795 220.358 224.037 219.733 224.437 219.2C224.837 218.65 225.32 218.225 225.887 217.925C226.47 217.608 227.045 217.45 227.612 217.45C228.012 217.45 228.395 217.5 228.762 217.6C229.128 217.7 229.512 217.867 229.912 218.1L228.562 220.6C228.378 220.483 228.137 220.392 227.837 220.325C227.553 220.242 227.278 220.2 227.012 220.2C226.662 220.2 226.312 220.267 225.962 220.4C225.628 220.533 225.328 220.742 225.062 221.025C224.795 221.292 224.595 221.642 224.462 222.075C224.378 222.308 224.312 222.617 224.262 223C224.228 223.367 224.212 223.883 224.212 224.55V230H221.437ZM235.801 230.225C234.701 230.225 233.743 229.95 232.926 229.4C232.126 228.833 231.509 228.067 231.076 227.1C230.643 226.133 230.426 225.042 230.426 223.825C230.426 222.492 230.659 221.35 231.126 220.4C231.609 219.45 232.259 218.725 233.076 218.225C233.893 217.708 234.801 217.45 235.801 217.45C236.501 217.45 237.143 217.592 237.726 217.875C238.326 218.158 238.826 218.575 239.226 219.125C239.643 219.658 239.934 220.317 240.101 221.1L239.451 221.125V212.575H242.226V230H239.451V226.575L240.201 226.4C239.984 227.3 239.651 228.033 239.201 228.6C238.768 229.15 238.259 229.558 237.676 229.825C237.093 230.092 236.468 230.225 235.801 230.225ZM236.476 227.675C237.126 227.675 237.693 227.517 238.176 227.2C238.659 226.883 239.034 226.433 239.301 225.85C239.568 225.267 239.701 224.592 239.701 223.825C239.701 223.058 239.568 222.392 239.301 221.825C239.034 221.242 238.659 220.792 238.176 220.475C237.693 220.142 237.126 219.975 236.476 219.975C235.826 219.975 235.251 220.133 234.751 220.45C234.268 220.767 233.884 221.217 233.601 221.8C233.334 222.383 233.201 223.058 233.201 223.825C233.201 224.592 233.334 225.267 233.601 225.85C233.884 226.433 234.268 226.883 234.751 227.2C235.251 227.517 235.826 227.675 236.476 227.675Z" fill="white" style="fill:white;fill-opacity:1;"/>
</svg>
