<svg width="310" height="310" viewBox="0 0 310 310" fill="none" xmlns="http://www.w3.org/2000/svg">
<path d="M147.651 1.92236C152.217 -0.640785 157.783 -0.640785 162.349 1.92236L188.281 16.4702C190.473 17.7017 192.937 18.3625 195.44 18.3925L225.166 18.763C230.402 18.8231 235.218 21.6065 237.892 26.112L253.08 51.6733C254.362 53.836 256.164 55.6382 258.327 56.9198L283.888 72.1084C288.384 74.7817 291.167 79.5976 291.237 84.834L291.607 114.56C291.638 117.074 292.298 119.537 293.53 121.719L308.078 147.651C310.641 152.217 310.641 157.783 308.078 162.349L293.53 188.281C292.298 190.473 291.638 192.936 291.607 195.44L291.237 225.166C291.167 230.402 288.384 235.218 283.888 237.892L258.327 253.08C256.174 254.362 254.362 256.164 253.08 258.327L237.892 283.888C235.218 288.383 230.392 291.167 225.166 291.237L195.44 291.607C192.927 291.637 190.463 292.298 188.281 293.53L162.349 308.078C157.783 310.641 152.217 310.641 147.651 308.078L121.719 293.53C119.527 292.298 117.064 291.637 114.56 291.607L84.834 291.237C79.5976 291.167 74.7817 288.383 72.1084 283.888L56.9198 258.327C55.6382 256.174 53.836 254.362 51.6733 253.08L26.112 237.892C21.6165 235.218 18.8331 230.392 18.763 225.166L18.3925 195.44C18.3625 192.926 17.7017 190.463 16.4702 188.281L1.92236 162.349C-0.640786 157.783 -0.640786 152.217 1.92236 147.651L16.4702 121.719C17.7017 119.527 18.3625 117.063 18.3925 114.56L18.763 84.834C18.8231 79.5976 21.6065 74.7817 26.112 72.1084L51.6733 56.9198C53.836 55.6382 55.6382 53.836 56.9198 51.6733L72.1084 26.112C74.7817 21.6165 79.5976 18.8331 84.834 18.763L114.56 18.3925C117.074 18.3625 119.537 17.7017 121.719 16.4702L147.651 1.92236Z" fill="#227DF5" style="fill:#227DF5;fill:color(display-p3 0.1333 0.4919 0.9608);fill-opacity:1;"/>
<path d="M155 300C152.474 300 149.958 299.373 147.7 298.1L124.03 284.823C121.862 283.61 119.405 282.944 116.919 282.914L89.7776 282.576C84.6159 282.516 79.7725 279.712 77.1369 275.276L63.2729 251.934C61.9999 249.796 60.1998 247.996 58.0615 246.723L34.7195 232.859C30.2838 230.224 27.4891 225.38 27.4195 220.219L27.0813 193.078C27.0515 190.592 26.3951 188.135 25.1718 185.967L11.8946 162.297C9.36846 157.792 9.36846 152.203 11.8946 147.698L25.1718 124.028C26.3852 121.86 27.0515 119.403 27.0813 116.917L27.4195 89.7762C27.4792 84.6146 30.2838 79.7713 34.7195 77.1357L58.0615 63.272C60.1998 61.999 61.9999 60.1989 63.2729 58.0607L77.1369 34.719C79.7725 30.2834 84.6159 27.4888 89.7776 27.4192L116.919 27.0811C119.405 27.0512 121.862 26.3948 124.03 25.1716L147.7 11.8946C152.205 9.36847 157.795 9.36847 162.3 11.8946L185.97 25.1716C188.138 26.3849 190.595 27.0512 193.081 27.0811L220.222 27.4192C225.384 27.4789 230.228 30.2834 232.863 34.719L246.727 58.0607C248 60.1989 249.8 61.999 251.939 63.272L275.281 77.1357C279.716 79.7713 282.511 84.6146 282.58 89.7762L282.919 116.917C282.949 119.403 283.605 121.86 284.828 124.028L298.105 147.698C300.632 152.203 300.632 157.792 298.105 162.297L284.828 185.967C283.615 188.135 282.958 190.592 282.919 193.078L282.58 220.219C282.521 225.38 279.716 230.224 275.281 232.859L251.939 246.723C249.8 247.996 248 249.796 246.727 251.934L232.863 275.276C230.228 279.712 225.384 282.506 220.222 282.576L193.081 282.914C190.595 282.944 188.138 283.6 185.97 284.823L162.3 298.1C160.052 299.363 157.526 300 155 300ZM155 12.004C152.812 12.004 150.624 12.551 148.675 13.645L125.004 26.9219C122.548 28.3043 119.763 29.0502 116.939 29.0801L89.7975 29.4182C85.322 29.4779 81.125 31.8946 78.8376 35.7434L64.9736 59.085C63.5315 61.5117 61.4927 63.5505 59.0759 64.9826L35.7339 78.8463C31.885 81.1338 29.4683 85.3307 29.4086 89.8061L29.0704 116.947C29.0406 119.761 28.2848 122.556 26.9123 125.012L13.6351 148.682C11.4471 152.581 11.4471 157.434 13.6351 161.333L26.9123 185.003C28.2947 187.459 29.0406 190.254 29.0704 193.068L29.4086 220.209C29.4683 224.684 31.885 228.881 35.7339 231.169L59.0759 245.032C61.5026 246.474 63.5414 248.513 64.9736 250.93L78.8376 274.272C81.125 278.12 85.322 280.537 89.7975 280.597L116.939 280.935C119.753 280.965 122.538 281.721 125.004 283.093L148.675 296.37C152.573 298.558 157.427 298.558 161.325 296.37L184.996 283.093C187.452 281.711 190.247 280.965 193.061 280.935L220.202 280.597C224.678 280.537 228.875 278.12 231.162 274.272L245.026 250.93C246.469 248.503 248.507 246.464 250.924 245.032L274.266 231.169C278.115 228.881 280.532 224.684 280.591 220.209L280.93 193.068C280.969 190.254 281.715 187.459 283.088 185.003L296.365 161.333C298.553 157.434 298.553 152.581 296.365 148.682L283.088 125.012C281.705 122.556 280.959 119.771 280.93 116.947L280.591 89.8061C280.532 85.3307 278.115 81.1338 274.266 78.8463L250.924 64.9826C248.497 63.5405 246.459 61.5017 245.026 59.085L231.162 35.7434C228.875 31.8946 224.678 29.4779 220.202 29.4182L193.061 29.0801C190.247 29.0403 187.462 28.2944 184.996 26.9219L161.325 13.645C159.376 12.551 157.188 12.004 155 12.004Z" fill="white" style="fill:white;fill-opacity:1;"/>
<path d="M177.276 99.6776L191.134 96.5392H191.144C194.638 95.7497 197.776 98.6512 196.829 101.8L192.21 117.146C191.588 119.209 189.762 120.808 187.423 121.064C175.5 122.357 164.179 118.834 155 112.014C145.821 118.834 134.5 122.357 122.577 121.064C120.238 120.808 118.412 119.199 117.79 117.146L113.171 101.8C112.224 98.6512 115.362 95.7497 118.856 96.5392L132.714 99.6776C134.855 100.161 137.116 99.5888 138.675 98.1775L151.664 86.4034C153.51 84.7355 156.49 84.7355 158.326 86.4034L171.315 98.1775C172.874 99.5987 175.135 100.161 177.276 99.6776Z" fill="white" style="fill:white;fill-opacity:1;"/>
<path d="M156.441 124.39C161.426 127.144 170.644 131.536 183.82 131.2C186.051 131.141 187.828 133.016 187.245 134.96L182.064 150.959C180.929 154.739 176.378 156.367 172.815 154.146L157.655 144.702C156.056 143.705 153.934 143.705 152.325 144.702L137.55 154.146C133.987 156.367 129.072 154.739 127.937 150.959L122.745 134.96C122.163 133.016 123.939 131.141 126.17 131.2C139.346 131.536 148.555 127.144 153.549 124.39C154.487 123.867 155.523 123.877 156.441 124.39Z" fill="white" style="fill:white;fill-opacity:1;"/>
<path d="M148.91 59.5801L146.42 59.76L146.02 54.2301L138.9 43.52L141.67 43.3201L147.07 51.3501L151.23 42.63L154.09 42.42L148.51 54.01L148.92 59.5901L148.91 59.5801Z" fill="white" style="fill:white;fill-opacity:1;"/>
<path d="M133.22 61.6001L135.55 60.9401L135.56 60.9301L130.98 44.8201L128.89 45.41L126.21 59.3501L116.62 48.9L114.51 49.5001L119.09 65.6101L121.42 64.9501L118.39 54.3L126.76 63.4401L127.9 63.1101L130.19 50.9501L133.22 61.6001Z" fill="white" style="fill:white;fill-opacity:1;"/>
<path d="M104.12 72.98L94.5503 70.66L93.8198 71.12L97.5601 77.09L95.4502 78.42L86.5601 64.23L88.6699 62.9L92.52 69.04L93.0898 68.6801L95.0303 58.91L97.6602 57.26L95.5103 68.53L106.99 71.1801L104.13 72.98H104.12Z" fill="white" style="fill:white;fill-opacity:1;"/>
<path d="M88.8799 83.53L90.4497 82.1101L79.1997 69.7001L77.3296 71.3901L85.5396 80.4501L70.3496 77.7201L68.7798 79.1401L80.0298 91.55L81.8799 89.8701L73.8096 80.9601L88.8799 83.53Z" fill="white" style="fill:white;fill-opacity:1;"/>
<path fill-rule="evenodd" clip-rule="evenodd" d="M75.2202 96.9601L71.2002 95.77L66.52 101.76L68.6499 105.37L66.9902 107.5L58.02 91.77L59.4502 89.9301L76.8799 94.8201L75.2202 96.9501V96.9601ZM61.3198 92.88L65.2002 99.49L68.6699 95.04L61.3198 92.88Z" fill="white" style="fill:white;fill-opacity:1;"/>
<path fill-rule="evenodd" clip-rule="evenodd" d="M63.6499 113.11L55.1201 114.78L54.0298 116.76L59.8799 119.97L58.6802 122.16L44 114.09L47.54 107.65C49.0898 104.83 51.8999 103.93 54.5498 105.38C57.0698 106.76 57.8398 109.42 56.5601 112.1L65.1499 110.38L63.6602 113.1L63.6499 113.11ZM54.2402 111.35C55.0698 109.84 54.7002 108.33 53.3398 107.58C51.96 106.82 50.4902 107.32 49.6602 108.83L47.3198 113.08L51.8999 115.6L54.2402 111.35Z" fill="white" style="fill:white;fill-opacity:1;"/>
<path fill-rule="evenodd" clip-rule="evenodd" d="M184.08 54.64C185.04 49.86 182.48 45.78 177.27 44.73V44.74L171.92 43.66L168.62 60.0801L173.97 61.15C179.18 62.2001 183.12 59.42 184.08 54.64ZM181.6 54.15C180.92 57.5601 178.17 59.53 174.44 58.78L174.43 58.77L171.53 58.1901L173.88 46.53L176.78 47.11C180.51 47.86 182.29 50.74 181.6 54.15Z" fill="white" style="fill:white;fill-opacity:1;"/>
<path d="M198.43 68.88L187.63 64.5701L193.84 49.01L204.62 53.3101L203.72 55.5601L195.25 52.1801L193.5 56.5701L201.32 59.6901L200.43 61.92L192.61 58.8L190.84 63.24L199.33 66.63L198.43 68.88Z" fill="white" style="fill:white;fill-opacity:1;"/>
<path d="M213.7 77.7301L215.5 78.8501L224.37 64.65L222.23 63.3201L215.75 73.6801L214.24 58.3201L212.44 57.2001L203.57 71.4L205.69 72.7201L212.06 62.53L213.7 77.7301Z" fill="white" style="fill:white;fill-opacity:1;"/>
<path d="M234.95 76.51L225.4 87.1899L223.52 85.51L233.07 74.83L228.99 71.1799L230.61 69.37L240.67 78.37L239.05 80.1799L234.95 76.51Z" fill="white" style="fill:white;fill-opacity:1;"/>
<path d="M245.45 83.64L232.91 94.74L234.56 96.61L247.1 85.51L245.45 83.64Z" fill="white" style="fill:white;fill-opacity:1;"/>
<path d="M255.47 103.84L253.59 102.11C254.88 100.86 255.03 99.03 253.96 97.5C252.9 95.99 251.33 95.61 250.12 96.46C249.16 97.13 249.01 98.01 249.54 99.29L250.84 102.5C251.73 104.73 251.54 106.9 249.39 108.41C246.81 110.22 243.82 109.38 241.76 106.44C239.86 103.73 239.7 100.48 242.13 98.3L244.15 100.13C242.6 101.67 242.64 103.55 243.84 105.27C245.04 106.99 246.6 107.35 247.85 106.47C248.89 105.74 249.03 104.88 248.42 103.4L247.08 100.18C246.36 98.3199 246.11 96.0499 248.55 94.34C250.97 92.65 253.9 93.36 255.89 96.2C257.71 98.7999 257.5 101.73 255.47 103.84Z" fill="white" style="fill:white;fill-opacity:1;"/>
<path d="M251.16 121.66L263.94 115.19L266.43 120.09L268.59 118.99L262.49 106.95L260.33 108.05L262.8 112.94L250.02 119.41L251.16 121.66Z" fill="white" style="fill:white;fill-opacity:1;"/>
<path d="M134.922 272.19V271.254C135.194 271.038 135.51 270.798 135.87 270.534C136.23 270.27 136.594 269.982 136.962 269.67C137.338 269.358 137.686 269.026 138.006 268.674C138.326 268.322 138.582 267.954 138.774 267.57C138.974 267.178 139.074 266.778 139.074 266.37C139.074 265.93 138.954 265.574 138.714 265.302C138.474 265.022 138.114 264.882 137.634 264.882C137.274 264.882 136.974 264.966 136.734 265.134C136.502 265.302 136.33 265.53 136.218 265.818C136.106 266.106 136.046 266.426 136.038 266.778L134.886 266.694C134.886 266.302 134.946 265.93 135.066 265.578C135.186 265.226 135.362 264.914 135.594 264.642C135.834 264.362 136.126 264.142 136.47 263.982C136.822 263.822 137.222 263.742 137.67 263.742C138.182 263.742 138.626 263.85 139.002 264.066C139.386 264.282 139.686 264.582 139.902 264.966C140.118 265.35 140.226 265.802 140.226 266.322C140.226 266.762 140.146 267.186 139.986 267.594C139.834 268.002 139.618 268.394 139.338 268.77C139.058 269.138 138.734 269.486 138.366 269.814C137.998 270.142 137.602 270.454 137.178 270.75C136.754 271.038 136.314 271.302 135.858 271.542L136.17 271.098H140.562V272.19H134.922Z" fill="white" style="fill:white;fill-opacity:1;"/>
<path d="M149.269 272.286C148.781 272.286 148.369 272.198 148.033 272.022C147.705 271.846 147.433 271.61 147.217 271.314C147.009 271.01 146.849 270.674 146.737 270.306C146.633 269.93 146.561 269.542 146.521 269.142C146.481 268.734 146.461 268.346 146.461 267.978C146.461 267.61 146.477 267.23 146.509 266.838C146.549 266.438 146.621 266.054 146.725 265.686C146.837 265.31 146.997 264.974 147.205 264.678C147.413 264.382 147.681 264.146 148.009 263.97C148.345 263.794 148.753 263.706 149.233 263.706C149.705 263.706 150.105 263.794 150.433 263.97C150.761 264.138 151.029 264.366 151.237 264.654C151.453 264.942 151.617 265.27 151.729 265.638C151.841 266.006 151.917 266.394 151.957 266.802C152.005 267.202 152.029 267.594 152.029 267.978C152.029 268.378 152.005 268.782 151.957 269.19C151.917 269.598 151.837 269.986 151.717 270.354C151.605 270.722 151.445 271.054 151.237 271.35C151.029 271.638 150.765 271.866 150.445 272.034C150.125 272.202 149.733 272.286 149.269 272.286ZM149.269 271.158C149.669 271.158 149.981 271.018 150.205 270.738C150.437 270.458 150.601 270.082 150.697 269.61C150.793 269.138 150.841 268.61 150.841 268.026C150.841 267.41 150.789 266.866 150.685 266.394C150.589 265.914 150.425 265.534 150.193 265.254C149.961 264.974 149.641 264.834 149.233 264.834C148.913 264.834 148.649 264.918 148.441 265.086C148.241 265.254 148.085 265.486 147.973 265.782C147.861 266.078 147.781 266.418 147.733 266.802C147.685 267.178 147.661 267.582 147.661 268.014C147.661 268.43 147.685 268.826 147.733 269.202C147.781 269.578 147.861 269.914 147.973 270.21C148.093 270.498 148.257 270.73 148.465 270.906C148.673 271.074 148.941 271.158 149.269 271.158Z" fill="white" style="fill:white;fill-opacity:1;"/>
<path d="M157.952 272.19V271.254C158.224 271.038 158.54 270.798 158.9 270.534C159.26 270.27 159.624 269.982 159.992 269.67C160.368 269.358 160.716 269.026 161.036 268.674C161.356 268.322 161.612 267.954 161.804 267.57C162.004 267.178 162.104 266.778 162.104 266.37C162.104 265.93 161.984 265.574 161.744 265.302C161.504 265.022 161.144 264.882 160.664 264.882C160.304 264.882 160.004 264.966 159.764 265.134C159.532 265.302 159.36 265.53 159.248 265.818C159.136 266.106 159.076 266.426 159.068 266.778L157.916 266.694C157.916 266.302 157.976 265.93 158.096 265.578C158.216 265.226 158.392 264.914 158.624 264.642C158.864 264.362 159.156 264.142 159.5 263.982C159.852 263.822 160.252 263.742 160.7 263.742C161.212 263.742 161.656 263.85 162.032 264.066C162.416 264.282 162.716 264.582 162.932 264.966C163.148 265.35 163.256 265.802 163.256 266.322C163.256 266.762 163.176 267.186 163.016 267.594C162.864 268.002 162.648 268.394 162.368 268.77C162.088 269.138 161.764 269.486 161.396 269.814C161.028 270.142 160.632 270.454 160.208 270.75C159.784 271.038 159.344 271.302 158.888 271.542L159.2 271.098H163.592V272.19H157.952Z" fill="white" style="fill:white;fill-opacity:1;"/>
<path d="M172.251 272.298C171.747 272.298 171.283 272.19 170.859 271.974C170.443 271.758 170.099 271.466 169.827 271.098C169.555 270.722 169.379 270.298 169.299 269.826L170.451 269.622C170.499 269.894 170.595 270.15 170.739 270.39C170.891 270.63 171.091 270.822 171.339 270.966C171.595 271.102 171.891 271.17 172.227 271.17C172.611 271.17 172.931 271.082 173.187 270.906C173.451 270.722 173.651 270.49 173.787 270.21C173.923 269.922 173.991 269.618 173.991 269.298C173.991 268.994 173.927 268.714 173.799 268.458C173.671 268.202 173.479 267.998 173.223 267.846C172.975 267.686 172.663 267.606 172.287 267.606C171.943 267.606 171.635 267.686 171.363 267.846C171.099 267.998 170.875 268.21 170.691 268.482L169.551 268.182L170.343 263.826H174.855V264.918H170.775L171.399 264.426L170.835 267.522L170.487 267.438C170.799 267.078 171.123 266.834 171.459 266.706C171.803 266.57 172.135 266.502 172.455 266.502C172.999 266.502 173.479 266.63 173.895 266.886C174.319 267.142 174.647 267.482 174.879 267.906C175.111 268.33 175.227 268.794 175.227 269.298C175.227 269.698 175.155 270.078 175.011 270.438C174.867 270.798 174.659 271.118 174.387 271.398C174.123 271.678 173.807 271.898 173.439 272.058C173.079 272.218 172.683 272.298 172.251 272.298Z" fill="white" style="fill:white;fill-opacity:1;"/>
<path d="M41 147.61L42.8887 152.721L48 154.61L42.8887 156.499L41 161.61L39.1113 156.499L34 154.61L39.1113 152.721L41 147.61Z" fill="white" style="fill:white;fill-opacity:1;"/>
<path d="M269 147.61L270.889 152.721L276 154.61L270.889 156.499L269 161.61L267.111 156.499L262 154.61L267.111 152.721L269 147.61Z" fill="white" style="fill:white;fill-opacity:1;"/>
<path fill-rule="evenodd" clip-rule="evenodd" d="M265 178H45V177H265V178Z" fill="white" style="fill:white;fill-opacity:1;"/>
<path d="M50.3464 215L43.3464 197.575H46.5464L51.8714 211.475H50.9964L56.2464 197.575H59.4464L52.4964 215H50.3464ZM64.7634 215.225C63.7301 215.225 62.8301 215.058 62.0634 214.725C61.3134 214.392 60.6967 213.925 60.2134 213.325C59.7301 212.725 59.3717 212.05 59.1384 211.3C58.9051 210.533 58.7884 209.742 58.7884 208.925C58.7884 208.108 58.8967 207.317 59.1134 206.55C59.3467 205.767 59.6967 205.067 60.1634 204.45C60.6301 203.833 61.2301 203.35 61.9634 203C62.6967 202.633 63.5634 202.45 64.5634 202.45C65.5134 202.45 66.3384 202.617 67.0384 202.95C67.7551 203.267 68.3467 203.717 68.8134 204.3C69.2801 204.867 69.6217 205.517 69.8384 206.25C70.0717 206.983 70.1884 207.767 70.1884 208.6C70.1884 208.717 70.1801 208.883 70.1634 209.1C70.1634 209.317 70.1467 209.533 70.1134 209.75H61.5634C61.6301 210.733 61.9634 211.483 62.5634 212C63.1634 212.517 63.9301 212.775 64.8634 212.775C65.5467 212.775 66.1717 212.667 66.7384 212.45C67.3051 212.233 67.8217 211.892 68.2884 211.425L69.8134 213.275C69.2967 213.742 68.7801 214.117 68.2634 214.4C67.7467 214.683 67.2051 214.892 66.6384 215.025C66.0884 215.158 65.4634 215.225 64.7634 215.225ZM67.4634 208.35C67.4967 208.217 67.5134 208.083 67.5134 207.95C67.5301 207.817 67.5384 207.683 67.5384 207.55C67.5384 207.183 67.4717 206.833 67.3384 206.5C67.2217 206.167 67.0384 205.875 66.7884 205.625C66.5384 205.358 66.2301 205.15 65.8634 205C65.4967 204.833 65.0801 204.75 64.6134 204.75C63.9634 204.75 63.4134 204.892 62.9634 205.175C62.5301 205.458 62.1884 205.825 61.9384 206.275C61.7051 206.708 61.5634 207.183 61.5134 207.7H68.3634L67.4634 208.35ZM77.0406 215.225C76.4239 215.225 75.8406 215.108 75.2906 214.875C74.7572 214.625 74.3322 214.233 74.0156 213.7C73.6989 213.15 73.5406 212.433 73.5406 211.55V199.675L76.3406 198.125V210.775C76.3406 211.475 76.4406 212.017 76.6406 212.4C76.8572 212.767 77.2406 212.95 77.7906 212.95C77.9572 212.95 78.1489 212.933 78.3656 212.9C78.5989 212.85 78.8406 212.792 79.0906 212.725V214.875C78.7572 214.992 78.4156 215.075 78.0656 215.125C77.7322 215.192 77.3906 215.225 77.0406 215.225ZM71.1906 204.825V202.675H79.0906V204.825H71.1906ZM86.4802 215.225C85.4469 215.225 84.5469 215.058 83.7802 214.725C83.0302 214.392 82.4135 213.925 81.9302 213.325C81.4469 212.725 81.0885 212.05 80.8552 211.3C80.6219 210.533 80.5052 209.742 80.5052 208.925C80.5052 208.108 80.6135 207.317 80.8302 206.55C81.0635 205.767 81.4135 205.067 81.8802 204.45C82.3469 203.833 82.9469 203.35 83.6802 203C84.4135 202.633 85.2802 202.45 86.2802 202.45C87.2302 202.45 88.0552 202.617 88.7552 202.95C89.4719 203.267 90.0635 203.717 90.5302 204.3C90.9969 204.867 91.3385 205.517 91.5552 206.25C91.7885 206.983 91.9052 207.767 91.9052 208.6C91.9052 208.717 91.8969 208.883 91.8802 209.1C91.8802 209.317 91.8635 209.533 91.8302 209.75H83.2802C83.3469 210.733 83.6802 211.483 84.2802 212C84.8802 212.517 85.6469 212.775 86.5802 212.775C87.2635 212.775 87.8885 212.667 88.4552 212.45C89.0219 212.233 89.5385 211.892 90.0052 211.425L91.5302 213.275C91.0135 213.742 90.4969 214.117 89.9802 214.4C89.4635 214.683 88.9219 214.892 88.3552 215.025C87.8052 215.158 87.1802 215.225 86.4802 215.225ZM89.1802 208.35C89.2135 208.217 89.2302 208.083 89.2302 207.95C89.2469 207.817 89.2552 207.683 89.2552 207.55C89.2552 207.183 89.1885 206.833 89.0552 206.5C88.9385 206.167 88.7552 205.875 88.5052 205.625C88.2552 205.358 87.9469 205.15 87.5802 205C87.2135 204.833 86.7969 204.75 86.3302 204.75C85.6802 204.75 85.1302 204.892 84.6802 205.175C84.2469 205.458 83.9052 205.825 83.6552 206.275C83.4219 206.708 83.2802 207.183 83.2302 207.7H90.0802L89.1802 208.35ZM94.3556 215V202.675H97.1556V206L96.6306 206.075C96.7139 205.358 96.9556 204.733 97.3556 204.2C97.7556 203.65 98.2389 203.225 98.8056 202.925C99.3889 202.608 99.9639 202.45 100.531 202.45C100.931 202.45 101.314 202.5 101.681 202.6C102.047 202.7 102.431 202.867 102.831 203.1L101.481 205.6C101.297 205.483 101.056 205.392 100.756 205.325C100.472 205.242 100.197 205.2 99.9306 205.2C99.5806 205.2 99.2306 205.267 98.8806 205.4C98.5473 205.533 98.2473 205.742 97.9806 206.025C97.7139 206.292 97.5139 206.642 97.3806 207.075C97.2973 207.308 97.2306 207.617 97.1806 208C97.1473 208.367 97.1306 208.883 97.1306 209.55V215H94.3556ZM104.579 215V202.675H107.354V215H104.579ZM104.454 200.65V197.575H107.479V200.65H104.454ZM110.335 215V202.675H113.11V205.4L112.61 205.525C112.827 204.808 113.143 204.225 113.56 203.775C113.977 203.325 114.46 202.992 115.01 202.775C115.577 202.558 116.168 202.45 116.785 202.45C118.168 202.45 119.243 202.85 120.01 203.65C120.793 204.433 121.185 205.558 121.185 207.025V215H118.41V208.05C118.41 206.95 118.21 206.142 117.81 205.625C117.41 205.108 116.793 204.85 115.96 204.85C115.343 204.85 114.818 205 114.385 205.3C113.968 205.583 113.652 206.033 113.435 206.65C113.218 207.267 113.11 208.05 113.11 209V215H110.335ZM132 215L131.8 212.925V207.225C131.8 206.425 131.558 205.825 131.075 205.425C130.592 205.008 129.917 204.8 129.05 204.8C128.383 204.8 127.725 204.933 127.075 205.2C126.442 205.45 125.858 205.842 125.325 206.375L123.775 204.55C124.575 203.8 125.425 203.267 126.325 202.95C127.225 202.617 128.208 202.45 129.275 202.45C130.942 202.45 132.233 202.875 133.15 203.725C134.083 204.558 134.55 205.725 134.55 207.225V215H132ZM128.175 215.225C127.258 215.225 126.442 215.058 125.725 214.725C125.025 214.392 124.475 213.925 124.075 213.325C123.692 212.725 123.5 212.025 123.5 211.225C123.5 210.542 123.642 209.95 123.925 209.45C124.225 208.95 124.608 208.558 125.075 208.275C125.475 208.025 125.942 207.85 126.475 207.75C127.008 207.633 127.567 207.575 128.15 207.575H132.025V209.65H128.55C128.25 209.65 127.95 209.683 127.65 209.75C127.35 209.8 127.083 209.9 126.85 210.05C126.683 210.183 126.542 210.35 126.425 210.55C126.325 210.75 126.275 210.983 126.275 211.25C126.275 211.783 126.475 212.208 126.875 212.525C127.292 212.825 127.842 212.975 128.525 212.975C129.125 212.975 129.667 212.842 130.15 212.575C130.65 212.308 131.05 211.942 131.35 211.475C131.65 211.008 131.8 210.483 131.8 209.9L132.65 211.275C132.45 212.142 132.133 212.875 131.7 213.475C131.267 214.058 130.75 214.5 130.15 214.8C129.55 215.083 128.892 215.225 128.175 215.225ZM137.399 215V202.675H140.199V206L139.674 206.075C139.757 205.358 139.999 204.733 140.399 204.2C140.799 203.65 141.282 203.225 141.849 202.925C142.432 202.608 143.007 202.45 143.574 202.45C143.974 202.45 144.357 202.5 144.724 202.6C145.09 202.7 145.474 202.867 145.874 203.1L144.524 205.6C144.34 205.483 144.099 205.392 143.799 205.325C143.515 205.242 143.24 205.2 142.974 205.2C142.624 205.2 142.274 205.267 141.924 205.4C141.59 205.533 141.29 205.742 141.024 206.025C140.757 206.292 140.557 206.642 140.424 207.075C140.34 207.308 140.274 207.617 140.224 208C140.19 208.367 140.174 208.883 140.174 209.55V215H137.399ZM148.722 220.075L151.172 214.175L146.472 202.675H149.522L152.647 211.4L155.822 202.675H158.822L151.722 220.075H148.722ZM167.048 215V197.575H172.048C174.914 197.575 177.139 198.35 178.723 199.9C180.306 201.433 181.098 203.608 181.098 206.425C181.098 209.192 180.314 211.317 178.748 212.8C177.198 214.267 174.956 215 172.023 215H167.048ZM169.948 212.35H171.748C173.098 212.35 174.256 212.167 175.223 211.8C176.189 211.417 176.923 210.783 177.423 209.9C177.923 209.017 178.173 207.825 178.173 206.325C178.173 204.825 177.923 203.633 177.423 202.75C176.939 201.85 176.231 201.208 175.298 200.825C174.381 200.425 173.281 200.225 171.998 200.225H169.948V212.35ZM188.942 215.225C187.909 215.225 187.009 215.058 186.242 214.725C185.492 214.392 184.875 213.925 184.392 213.325C183.909 212.725 183.55 212.05 183.317 211.3C183.084 210.533 182.967 209.742 182.967 208.925C182.967 208.108 183.075 207.317 183.292 206.55C183.525 205.767 183.875 205.067 184.342 204.45C184.809 203.833 185.409 203.35 186.142 203C186.875 202.633 187.742 202.45 188.742 202.45C189.692 202.45 190.517 202.617 191.217 202.95C191.934 203.267 192.525 203.717 192.992 204.3C193.459 204.867 193.8 205.517 194.017 206.25C194.25 206.983 194.367 207.767 194.367 208.6C194.367 208.717 194.359 208.883 194.342 209.1C194.342 209.317 194.325 209.533 194.292 209.75H185.742C185.809 210.733 186.142 211.483 186.742 212C187.342 212.517 188.109 212.775 189.042 212.775C189.725 212.775 190.35 212.667 190.917 212.45C191.484 212.233 192 211.892 192.467 211.425L193.992 213.275C193.475 213.742 192.959 214.117 192.442 214.4C191.925 214.683 191.384 214.892 190.817 215.025C190.267 215.158 189.642 215.225 188.942 215.225ZM191.642 208.35C191.675 208.217 191.692 208.083 191.692 207.95C191.709 207.817 191.717 207.683 191.717 207.55C191.717 207.183 191.65 206.833 191.517 206.5C191.4 206.167 191.217 205.875 190.967 205.625C190.717 205.358 190.409 205.15 190.042 205C189.675 204.833 189.259 204.75 188.792 204.75C188.142 204.75 187.592 204.892 187.142 205.175C186.709 205.458 186.367 205.825 186.117 206.275C185.884 206.708 185.742 207.183 185.692 207.7H192.542L191.642 208.35ZM196.818 215V202.675H199.593V205.4L199.093 205.525C199.309 204.808 199.626 204.225 200.043 203.775C200.459 203.325 200.943 202.992 201.493 202.775C202.059 202.558 202.651 202.45 203.268 202.45C204.651 202.45 205.726 202.85 206.493 203.65C207.276 204.433 207.668 205.558 207.668 207.025V215H204.893V208.05C204.893 206.95 204.693 206.142 204.293 205.625C203.893 205.108 203.276 204.85 202.443 204.85C201.826 204.85 201.301 205 200.868 205.3C200.451 205.583 200.134 206.033 199.918 206.65C199.701 207.267 199.593 208.05 199.593 209V215H196.818ZM215.007 215.225C214.391 215.225 213.807 215.108 213.257 214.875C212.724 214.625 212.299 214.233 211.982 213.7C211.666 213.15 211.507 212.433 211.507 211.55V199.675L214.307 198.125V210.775C214.307 211.475 214.407 212.017 214.607 212.4C214.824 212.767 215.207 212.95 215.757 212.95C215.924 212.95 216.116 212.933 216.332 212.9C216.566 212.85 216.807 212.792 217.057 212.725V214.875C216.724 214.992 216.382 215.075 216.032 215.125C215.699 215.192 215.357 215.225 215.007 215.225ZM209.157 204.825V202.675H217.057V204.825H209.157ZM219.266 215V202.675H222.041V215H219.266ZM219.141 200.65V197.575H222.166V200.65H219.141ZM229.223 215.225C228.339 215.225 227.556 215.1 226.873 214.85C226.189 214.583 225.614 214.25 225.148 213.85C224.681 213.45 224.298 213.05 223.998 212.65L225.898 211C226.214 211.517 226.648 211.975 227.198 212.375C227.764 212.775 228.448 212.975 229.248 212.975C229.914 212.975 230.439 212.833 230.823 212.55C231.223 212.267 231.423 211.917 231.423 211.5C231.423 211.133 231.298 210.85 231.048 210.65C230.798 210.433 230.473 210.25 230.073 210.1C229.673 209.95 229.231 209.817 228.748 209.7C228.281 209.583 227.806 209.442 227.323 209.275C226.839 209.092 226.389 208.867 225.973 208.6C225.573 208.333 225.248 207.992 224.998 207.575C224.748 207.158 224.623 206.642 224.623 206.025C224.623 204.942 225.039 204.075 225.873 203.425C226.706 202.775 227.798 202.45 229.148 202.45C230.114 202.45 230.998 202.642 231.798 203.025C232.598 203.408 233.223 203.983 233.673 204.75L231.948 206.075C231.614 205.575 231.198 205.2 230.698 204.95C230.198 204.7 229.656 204.575 229.073 204.575C228.539 204.575 228.089 204.683 227.723 204.9C227.373 205.117 227.198 205.4 227.198 205.75C227.198 206.017 227.281 206.233 227.448 206.4C227.614 206.567 227.873 206.717 228.223 206.85C228.573 206.983 229.014 207.117 229.548 207.25C230.048 207.367 230.564 207.508 231.098 207.675C231.631 207.842 232.123 208.067 232.573 208.35C233.039 208.617 233.414 208.983 233.698 209.45C233.998 209.9 234.148 210.483 234.148 211.2C234.148 212 233.939 212.708 233.523 213.325C233.123 213.925 232.548 214.392 231.798 214.725C231.064 215.058 230.206 215.225 229.223 215.225ZM241.015 215.225C240.398 215.225 239.815 215.108 239.265 214.875C238.732 214.625 238.307 214.233 237.99 213.7C237.673 213.15 237.515 212.433 237.515 211.55V199.675L240.315 198.125V210.775C240.315 211.475 240.415 212.017 240.615 212.4C240.832 212.767 241.215 212.95 241.765 212.95C241.932 212.95 242.123 212.933 242.34 212.9C242.573 212.85 242.815 212.792 243.065 212.725V214.875C242.732 214.992 242.39 215.075 242.04 215.125C241.707 215.192 241.365 215.225 241.015 215.225ZM235.165 204.825V202.675H243.065V204.825H235.165ZM245.299 215V202.675H248.099V206L247.574 206.075C247.657 205.358 247.899 204.733 248.299 204.2C248.699 203.65 249.182 203.225 249.749 202.925C250.332 202.608 250.907 202.45 251.474 202.45C251.874 202.45 252.257 202.5 252.624 202.6C252.991 202.7 253.374 202.867 253.774 203.1L252.424 205.6C252.241 205.483 251.999 205.392 251.699 205.325C251.416 205.242 251.141 205.2 250.874 205.2C250.524 205.2 250.174 205.267 249.824 205.4C249.491 205.533 249.191 205.742 248.924 206.025C248.657 206.292 248.457 206.642 248.324 207.075C248.241 207.308 248.174 207.617 248.124 208C248.091 208.367 248.074 208.883 248.074 209.55V215H245.299ZM256.622 220.075L259.072 214.175L254.372 202.675H257.422L260.547 211.4L263.722 202.675H266.722L259.622 220.075H256.622ZM119.777 245L126.677 227.575H128.877L135.752 245H132.602L127.777 231.8L122.952 245H119.777ZM124.077 241.35L124.977 238.775H130.552L131.502 241.35H124.077ZM138.859 245L135.109 232.675H138.059L140.259 240.75L142.759 232.675H145.134L147.634 240.7L149.859 232.675H152.809L149.034 245H146.534L143.959 236.6L141.384 245H138.859ZM162.683 245L162.483 242.925V237.225C162.483 236.425 162.241 235.825 161.758 235.425C161.275 235.008 160.6 234.8 159.733 234.8C159.066 234.8 158.408 234.933 157.758 235.2C157.125 235.45 156.541 235.842 156.008 236.375L154.458 234.55C155.258 233.8 156.108 233.267 157.008 232.95C157.908 232.617 158.891 232.45 159.958 232.45C161.625 232.45 162.916 232.875 163.833 233.725C164.766 234.558 165.233 235.725 165.233 237.225V245H162.683ZM158.858 245.225C157.941 245.225 157.125 245.058 156.408 244.725C155.708 244.392 155.158 243.925 154.758 243.325C154.375 242.725 154.183 242.025 154.183 241.225C154.183 240.542 154.325 239.95 154.608 239.45C154.908 238.95 155.291 238.558 155.758 238.275C156.158 238.025 156.625 237.85 157.158 237.75C157.691 237.633 158.25 237.575 158.833 237.575H162.708V239.65H159.233C158.933 239.65 158.633 239.683 158.333 239.75C158.033 239.8 157.766 239.9 157.533 240.05C157.366 240.183 157.225 240.35 157.108 240.55C157.008 240.75 156.958 240.983 156.958 241.25C156.958 241.783 157.158 242.208 157.558 242.525C157.975 242.825 158.525 242.975 159.208 242.975C159.808 242.975 160.35 242.842 160.833 242.575C161.333 242.308 161.733 241.942 162.033 241.475C162.333 241.008 162.483 240.483 162.483 239.9L163.333 241.275C163.133 242.142 162.816 242.875 162.383 243.475C161.95 244.058 161.433 244.5 160.833 244.8C160.233 245.083 159.575 245.225 158.858 245.225ZM168.082 245V232.675H170.882V236L170.357 236.075C170.44 235.358 170.682 234.733 171.082 234.2C171.482 233.65 171.965 233.225 172.532 232.925C173.115 232.608 173.69 232.45 174.257 232.45C174.657 232.45 175.04 232.5 175.407 232.6C175.773 232.7 176.157 232.867 176.557 233.1L175.207 235.6C175.023 235.483 174.782 235.392 174.482 235.325C174.198 235.242 173.923 235.2 173.657 235.2C173.307 235.2 172.957 235.267 172.607 235.4C172.273 235.533 171.973 235.742 171.707 236.025C171.44 236.292 171.24 236.642 171.107 237.075C171.023 237.308 170.957 237.617 170.907 238C170.873 238.367 170.857 238.883 170.857 239.55V245H168.082ZM182.446 245.225C181.346 245.225 180.388 244.95 179.571 244.4C178.771 243.833 178.154 243.067 177.721 242.1C177.288 241.133 177.071 240.042 177.071 238.825C177.071 237.492 177.304 236.35 177.771 235.4C178.254 234.45 178.904 233.725 179.721 233.225C180.538 232.708 181.446 232.45 182.446 232.45C183.146 232.45 183.788 232.592 184.371 232.875C184.971 233.158 185.471 233.575 185.871 234.125C186.288 234.658 186.579 235.317 186.746 236.1L186.096 236.125V227.575H188.871V245H186.096V241.575L186.846 241.4C186.629 242.3 186.296 243.033 185.846 243.6C185.413 244.15 184.904 244.558 184.321 244.825C183.738 245.092 183.113 245.225 182.446 245.225ZM183.121 242.675C183.771 242.675 184.338 242.517 184.821 242.2C185.304 241.883 185.679 241.433 185.946 240.85C186.213 240.267 186.346 239.592 186.346 238.825C186.346 238.058 186.213 237.392 185.946 236.825C185.679 236.242 185.304 235.792 184.821 235.475C184.338 235.142 183.771 234.975 183.121 234.975C182.471 234.975 181.896 235.133 181.396 235.45C180.913 235.767 180.529 236.217 180.246 236.8C179.979 237.383 179.846 238.058 179.846 238.825C179.846 239.592 179.979 240.267 180.246 240.85C180.529 241.433 180.913 241.883 181.396 242.2C181.896 242.517 182.471 242.675 183.121 242.675Z" fill="white" style="fill:white;fill-opacity:1;"/>
</svg>
