<svg width="310" height="310" viewBox="0 0 310 310" fill="none" xmlns="http://www.w3.org/2000/svg">
<path d="M147.651 1.92236C152.217 -0.640785 157.783 -0.640785 162.349 1.92236L188.281 16.4702C190.473 17.7017 192.937 18.3625 195.44 18.3925L225.166 18.763C230.402 18.8231 235.218 21.6065 237.892 26.112L253.08 51.6733C254.362 53.836 256.164 55.6382 258.327 56.9198L283.888 72.1084C288.384 74.7817 291.167 79.5976 291.237 84.834L291.607 114.56C291.638 117.074 292.298 119.537 293.53 121.719L308.078 147.651C310.641 152.217 310.641 157.783 308.078 162.349L293.53 188.281C292.298 190.473 291.638 192.936 291.607 195.44L291.237 225.166C291.167 230.402 288.384 235.218 283.888 237.892L258.327 253.08C256.174 254.362 254.362 256.164 253.08 258.327L237.892 283.888C235.218 288.383 230.392 291.167 225.166 291.237L195.44 291.607C192.927 291.637 190.463 292.298 188.281 293.53L162.349 308.078C157.783 310.641 152.217 310.641 147.651 308.078L121.719 293.53C119.527 292.298 117.064 291.637 114.56 291.607L84.834 291.237C79.5976 291.167 74.7817 288.383 72.1084 283.888L56.9198 258.327C55.6382 256.174 53.836 254.362 51.6733 253.08L26.112 237.892C21.6165 235.218 18.8331 230.392 18.763 225.166L18.3925 195.44C18.3625 192.926 17.7017 190.463 16.4702 188.281L1.92236 162.349C-0.640786 157.783 -0.640786 152.217 1.92236 147.651L16.4702 121.719C17.7017 119.527 18.3625 117.063 18.3925 114.56L18.763 84.834C18.8231 79.5976 21.6065 74.7817 26.112 72.1084L51.6733 56.9198C53.836 55.6382 55.6382 53.836 56.9198 51.6733L72.1084 26.112C74.7817 21.6165 79.5976 18.8331 84.834 18.763L114.56 18.3925C117.074 18.3625 119.537 17.7017 121.719 16.4702L147.651 1.92236Z" fill="#227DF5" style="fill:#227DF5;fill:color(display-p3 0.1333 0.4919 0.9608);fill-opacity:1;"/>
<path d="M155 300C152.474 300 149.958 299.373 147.7 298.1L124.03 284.823C121.862 283.61 119.405 282.944 116.919 282.914L89.7776 282.576C84.6159 282.516 79.7725 279.712 77.1369 275.276L63.2729 251.934C61.9999 249.796 60.1998 247.996 58.0615 246.723L34.7195 232.859C30.2838 230.224 27.4891 225.38 27.4195 220.219L27.0813 193.078C27.0515 190.592 26.3951 188.135 25.1718 185.967L11.8946 162.297C9.36846 157.792 9.36846 152.203 11.8946 147.698L25.1718 124.028C26.3852 121.86 27.0515 119.403 27.0813 116.917L27.4195 89.7762C27.4792 84.6146 30.2838 79.7713 34.7195 77.1357L58.0615 63.272C60.1998 61.999 61.9999 60.1989 63.2729 58.0607L77.1369 34.719C79.7725 30.2834 84.6159 27.4888 89.7776 27.4192L116.919 27.0811C119.405 27.0512 121.862 26.3948 124.03 25.1716L147.7 11.8946C152.205 9.36847 157.795 9.36847 162.3 11.8946L185.97 25.1716C188.138 26.3849 190.595 27.0512 193.081 27.0811L220.222 27.4192C225.384 27.4789 230.228 30.2834 232.863 34.719L246.727 58.0607C248 60.1989 249.8 61.999 251.939 63.272L275.281 77.1357C279.716 79.7713 282.511 84.6146 282.58 89.7762L282.919 116.917C282.949 119.403 283.605 121.86 284.828 124.028L298.105 147.698C300.632 152.203 300.632 157.792 298.105 162.297L284.828 185.967C283.615 188.135 282.958 190.592 282.919 193.078L282.58 220.219C282.521 225.38 279.716 230.224 275.281 232.859L251.939 246.723C249.8 247.996 248 249.796 246.727 251.934L232.863 275.276C230.228 279.712 225.384 282.506 220.222 282.576L193.081 282.914C190.595 282.944 188.138 283.6 185.97 284.823L162.3 298.1C160.052 299.363 157.526 300 155 300ZM155 12.004C152.812 12.004 150.624 12.551 148.675 13.645L125.004 26.9219C122.548 28.3043 119.763 29.0502 116.939 29.0801L89.7975 29.4182C85.322 29.4779 81.125 31.8946 78.8376 35.7434L64.9736 59.085C63.5315 61.5117 61.4927 63.5505 59.0759 64.9826L35.7339 78.8463C31.885 81.1338 29.4683 85.3307 29.4086 89.8061L29.0704 116.947C29.0406 119.761 28.2848 122.556 26.9123 125.012L13.6351 148.682C11.4471 152.581 11.4471 157.434 13.6351 161.333L26.9123 185.003C28.2947 187.459 29.0406 190.254 29.0704 193.068L29.4086 220.209C29.4683 224.684 31.885 228.881 35.7339 231.169L59.0759 245.032C61.5026 246.474 63.5414 248.513 64.9736 250.93L78.8376 274.272C81.125 278.12 85.322 280.537 89.7975 280.597L116.939 280.935C119.753 280.965 122.538 281.721 125.004 283.093L148.675 296.37C152.573 298.558 157.427 298.558 161.325 296.37L184.996 283.093C187.452 281.711 190.247 280.965 193.061 280.935L220.202 280.597C224.678 280.537 228.875 278.12 231.162 274.272L245.026 250.93C246.469 248.503 248.507 246.464 250.924 245.032L274.266 231.169C278.115 228.881 280.532 224.684 280.591 220.209L280.93 193.068C280.969 190.254 281.715 187.459 283.088 185.003L296.365 161.333C298.553 157.434 298.553 152.581 296.365 148.682L283.088 125.012C281.705 122.556 280.959 119.771 280.93 116.947L280.591 89.8061C280.532 85.3307 278.115 81.1338 274.266 78.8463L250.924 64.9826C248.497 63.5405 246.459 61.5017 245.026 59.085L231.162 35.7434C228.875 31.8946 224.678 29.4779 220.202 29.4182L193.061 29.0801C190.247 29.0403 187.462 28.2944 184.996 26.9219L161.325 13.645C159.376 12.551 157.188 12.004 155 12.004Z" fill="white" style="fill:white;fill-opacity:1;"/>
<path d="M177.276 99.6776L191.134 96.5392H191.144C194.638 95.7497 197.776 98.6512 196.829 101.8L192.21 117.146C191.588 119.209 189.762 120.808 187.423 121.064C175.5 122.357 164.179 118.834 155 112.014C145.821 118.834 134.5 122.357 122.577 121.064C120.238 120.808 118.412 119.199 117.79 117.146L113.171 101.8C112.224 98.6512 115.362 95.7497 118.856 96.5392L132.714 99.6776C134.855 100.161 137.116 99.5888 138.675 98.1775L151.664 86.4034C153.51 84.7355 156.49 84.7355 158.326 86.4034L171.315 98.1775C172.874 99.5987 175.135 100.161 177.276 99.6776Z" fill="white" style="fill:white;fill-opacity:1;"/>
<path d="M156.441 124.39C161.426 127.144 170.644 131.536 183.82 131.2C186.051 131.141 187.828 133.016 187.245 134.96L182.064 150.959C180.929 154.739 176.378 156.367 172.815 154.146L157.655 144.702C156.056 143.705 153.934 143.705 152.325 144.702L137.55 154.146C133.987 156.367 129.072 154.739 127.937 150.959L122.745 134.96C122.163 133.016 123.939 131.141 126.17 131.2C139.346 131.536 148.555 127.144 153.549 124.39C154.487 123.867 155.523 123.877 156.441 124.39Z" fill="white" style="fill:white;fill-opacity:1;"/>
<path d="M148.91 59.5801L146.42 59.76L146.02 54.2301L138.9 43.52L141.67 43.3201L147.07 51.3501L151.23 42.63L154.09 42.42L148.51 54.01L148.92 59.5901L148.91 59.5801Z" fill="white" style="fill:white;fill-opacity:1;"/>
<path d="M133.22 61.6001L135.55 60.9401L135.56 60.9301L130.98 44.8201L128.89 45.41L126.21 59.3501L116.62 48.9L114.51 49.5001L119.09 65.6101L121.42 64.9501L118.39 54.3L126.76 63.4401L127.9 63.1101L130.19 50.9501L133.22 61.6001Z" fill="white" style="fill:white;fill-opacity:1;"/>
<path d="M104.12 72.98L94.5503 70.66L93.8198 71.12L97.5601 77.09L95.4502 78.42L86.5601 64.23L88.6699 62.9L92.52 69.04L93.0898 68.6801L95.0303 58.91L97.6602 57.26L95.5103 68.53L106.99 71.1801L104.13 72.98H104.12Z" fill="white" style="fill:white;fill-opacity:1;"/>
<path d="M88.8799 83.53L90.4497 82.1101L79.1997 69.7001L77.3296 71.3901L85.5396 80.4501L70.3496 77.7201L68.7798 79.1401L80.0298 91.55L81.8799 89.8701L73.8096 80.9601L88.8799 83.53Z" fill="white" style="fill:white;fill-opacity:1;"/>
<path fill-rule="evenodd" clip-rule="evenodd" d="M75.2202 96.9601L71.2002 95.77L66.52 101.76L68.6499 105.37L66.9902 107.5L58.02 91.77L59.4502 89.9301L76.8799 94.8201L75.2202 96.9501V96.9601ZM61.3198 92.88L65.2002 99.49L68.6699 95.04L61.3198 92.88Z" fill="white" style="fill:white;fill-opacity:1;"/>
<path fill-rule="evenodd" clip-rule="evenodd" d="M63.6499 113.11L55.1201 114.78L54.0298 116.76L59.8799 119.97L58.6802 122.16L44 114.09L47.54 107.65C49.0898 104.83 51.8999 103.93 54.5498 105.38C57.0698 106.76 57.8398 109.42 56.5601 112.1L65.1499 110.38L63.6602 113.1L63.6499 113.11ZM54.2402 111.35C55.0698 109.84 54.7002 108.33 53.3398 107.58C51.96 106.82 50.4902 107.32 49.6602 108.83L47.3198 113.08L51.8999 115.6L54.2402 111.35Z" fill="white" style="fill:white;fill-opacity:1;"/>
<path fill-rule="evenodd" clip-rule="evenodd" d="M184.08 54.64C185.04 49.86 182.48 45.78 177.27 44.73V44.74L171.92 43.66L168.62 60.0801L173.97 61.15C179.18 62.2001 183.12 59.42 184.08 54.64ZM181.6 54.15C180.92 57.5601 178.17 59.53 174.44 58.78L174.43 58.77L171.53 58.1901L173.88 46.53L176.78 47.11C180.51 47.86 182.29 50.74 181.6 54.15Z" fill="white" style="fill:white;fill-opacity:1;"/>
<path d="M198.43 68.88L187.63 64.5701L193.84 49.01L204.62 53.3101L203.72 55.5601L195.25 52.1801L193.5 56.5701L201.32 59.6901L200.43 61.92L192.61 58.8L190.84 63.24L199.33 66.63L198.43 68.88Z" fill="white" style="fill:white;fill-opacity:1;"/>
<path d="M213.7 77.7301L215.5 78.8501L224.37 64.65L222.23 63.3201L215.75 73.6801L214.24 58.3201L212.44 57.2001L203.57 71.4L205.69 72.7201L212.06 62.53L213.7 77.7301Z" fill="white" style="fill:white;fill-opacity:1;"/>
<path d="M234.95 76.51L225.4 87.1899L223.52 85.51L233.07 74.83L228.99 71.1799L230.61 69.37L240.67 78.37L239.05 80.1799L234.95 76.51Z" fill="white" style="fill:white;fill-opacity:1;"/>
<path d="M245.45 83.64L232.91 94.74L234.56 96.61L247.1 85.51L245.45 83.64Z" fill="white" style="fill:white;fill-opacity:1;"/>
<path d="M255.47 103.84L253.59 102.11C254.88 100.86 255.03 99.03 253.96 97.5C252.9 95.99 251.33 95.61 250.12 96.46C249.16 97.13 249.01 98.01 249.54 99.29L250.84 102.5C251.73 104.73 251.54 106.9 249.39 108.41C246.81 110.22 243.82 109.38 241.76 106.44C239.86 103.73 239.7 100.48 242.13 98.3L244.15 100.13C242.6 101.67 242.64 103.55 243.84 105.27C245.04 106.99 246.6 107.35 247.85 106.47C248.89 105.74 249.03 104.88 248.42 103.4L247.08 100.18C246.36 98.3199 246.11 96.0499 248.55 94.34C250.97 92.65 253.9 93.36 255.89 96.2C257.71 98.7999 257.5 101.73 255.47 103.84Z" fill="white" style="fill:white;fill-opacity:1;"/>
<path d="M251.16 121.66L263.94 115.19L266.43 120.09L268.59 118.99L262.49 106.95L260.33 108.05L262.8 112.94L250.02 119.41L251.16 121.66Z" fill="white" style="fill:white;fill-opacity:1;"/>
<path d="M134.922 272.19V271.254C135.194 271.038 135.51 270.798 135.87 270.534C136.23 270.27 136.594 269.982 136.962 269.67C137.338 269.358 137.686 269.026 138.006 268.674C138.326 268.322 138.582 267.954 138.774 267.57C138.974 267.178 139.074 266.778 139.074 266.37C139.074 265.93 138.954 265.574 138.714 265.302C138.474 265.022 138.114 264.882 137.634 264.882C137.274 264.882 136.974 264.966 136.734 265.134C136.502 265.302 136.33 265.53 136.218 265.818C136.106 266.106 136.046 266.426 136.038 266.778L134.886 266.694C134.886 266.302 134.946 265.93 135.066 265.578C135.186 265.226 135.362 264.914 135.594 264.642C135.834 264.362 136.126 264.142 136.47 263.982C136.822 263.822 137.222 263.742 137.67 263.742C138.182 263.742 138.626 263.85 139.002 264.066C139.386 264.282 139.686 264.582 139.902 264.966C140.118 265.35 140.226 265.802 140.226 266.322C140.226 266.762 140.146 267.186 139.986 267.594C139.834 268.002 139.618 268.394 139.338 268.77C139.058 269.138 138.734 269.486 138.366 269.814C137.998 270.142 137.602 270.454 137.178 270.75C136.754 271.038 136.314 271.302 135.858 271.542L136.17 271.098H140.562V272.19H134.922Z" fill="white" style="fill:white;fill-opacity:1;"/>
<path d="M149.269 272.286C148.781 272.286 148.369 272.198 148.033 272.022C147.705 271.846 147.433 271.61 147.217 271.314C147.009 271.01 146.849 270.674 146.737 270.306C146.633 269.93 146.561 269.542 146.521 269.142C146.481 268.734 146.461 268.346 146.461 267.978C146.461 267.61 146.477 267.23 146.509 266.838C146.549 266.438 146.621 266.054 146.725 265.686C146.837 265.31 146.997 264.974 147.205 264.678C147.413 264.382 147.681 264.146 148.009 263.97C148.345 263.794 148.753 263.706 149.233 263.706C149.705 263.706 150.105 263.794 150.433 263.97C150.761 264.138 151.029 264.366 151.237 264.654C151.453 264.942 151.617 265.27 151.729 265.638C151.841 266.006 151.917 266.394 151.957 266.802C152.005 267.202 152.029 267.594 152.029 267.978C152.029 268.378 152.005 268.782 151.957 269.19C151.917 269.598 151.837 269.986 151.717 270.354C151.605 270.722 151.445 271.054 151.237 271.35C151.029 271.638 150.765 271.866 150.445 272.034C150.125 272.202 149.733 272.286 149.269 272.286ZM149.269 271.158C149.669 271.158 149.981 271.018 150.205 270.738C150.437 270.458 150.601 270.082 150.697 269.61C150.793 269.138 150.841 268.61 150.841 268.026C150.841 267.41 150.789 266.866 150.685 266.394C150.589 265.914 150.425 265.534 150.193 265.254C149.961 264.974 149.641 264.834 149.233 264.834C148.913 264.834 148.649 264.918 148.441 265.086C148.241 265.254 148.085 265.486 147.973 265.782C147.861 266.078 147.781 266.418 147.733 266.802C147.685 267.178 147.661 267.582 147.661 268.014C147.661 268.43 147.685 268.826 147.733 269.202C147.781 269.578 147.861 269.914 147.973 270.21C148.093 270.498 148.257 270.73 148.465 270.906C148.673 271.074 148.941 271.158 149.269 271.158Z" fill="white" style="fill:white;fill-opacity:1;"/>
<path d="M157.952 272.19V271.254C158.224 271.038 158.54 270.798 158.9 270.534C159.26 270.27 159.624 269.982 159.992 269.67C160.368 269.358 160.716 269.026 161.036 268.674C161.356 268.322 161.612 267.954 161.804 267.57C162.004 267.178 162.104 266.778 162.104 266.37C162.104 265.93 161.984 265.574 161.744 265.302C161.504 265.022 161.144 264.882 160.664 264.882C160.304 264.882 160.004 264.966 159.764 265.134C159.532 265.302 159.36 265.53 159.248 265.818C159.136 266.106 159.076 266.426 159.068 266.778L157.916 266.694C157.916 266.302 157.976 265.93 158.096 265.578C158.216 265.226 158.392 264.914 158.624 264.642C158.864 264.362 159.156 264.142 159.5 263.982C159.852 263.822 160.252 263.742 160.7 263.742C161.212 263.742 161.656 263.85 162.032 264.066C162.416 264.282 162.716 264.582 162.932 264.966C163.148 265.35 163.256 265.802 163.256 266.322C163.256 266.762 163.176 267.186 163.016 267.594C162.864 268.002 162.648 268.394 162.368 268.77C162.088 269.138 161.764 269.486 161.396 269.814C161.028 270.142 160.632 270.454 160.208 270.75C159.784 271.038 159.344 271.302 158.888 271.542L159.2 271.098H163.592V272.19H157.952Z" fill="white" style="fill:white;fill-opacity:1;"/>
<path d="M172.251 272.298C171.747 272.298 171.283 272.19 170.859 271.974C170.443 271.758 170.099 271.466 169.827 271.098C169.555 270.722 169.379 270.298 169.299 269.826L170.451 269.622C170.499 269.894 170.595 270.15 170.739 270.39C170.891 270.63 171.091 270.822 171.339 270.966C171.595 271.102 171.891 271.17 172.227 271.17C172.611 271.17 172.931 271.082 173.187 270.906C173.451 270.722 173.651 270.49 173.787 270.21C173.923 269.922 173.991 269.618 173.991 269.298C173.991 268.994 173.927 268.714 173.799 268.458C173.671 268.202 173.479 267.998 173.223 267.846C172.975 267.686 172.663 267.606 172.287 267.606C171.943 267.606 171.635 267.686 171.363 267.846C171.099 267.998 170.875 268.21 170.691 268.482L169.551 268.182L170.343 263.826H174.855V264.918H170.775L171.399 264.426L170.835 267.522L170.487 267.438C170.799 267.078 171.123 266.834 171.459 266.706C171.803 266.57 172.135 266.502 172.455 266.502C172.999 266.502 173.479 266.63 173.895 266.886C174.319 267.142 174.647 267.482 174.879 267.906C175.111 268.33 175.227 268.794 175.227 269.298C175.227 269.698 175.155 270.078 175.011 270.438C174.867 270.798 174.659 271.118 174.387 271.398C174.123 271.678 173.807 271.898 173.439 272.058C173.079 272.218 172.683 272.298 172.251 272.298Z" fill="white" style="fill:white;fill-opacity:1;"/>
<path d="M41 147.61L42.8887 152.721L48 154.61L42.8887 156.499L41 161.61L39.1113 156.499L34 154.61L39.1113 152.721L41 147.61Z" fill="white" style="fill:white;fill-opacity:1;"/>
<path d="M269 147.61L270.889 152.721L276 154.61L270.889 156.499L269 161.61L267.111 156.499L262 154.61L267.111 152.721L269 147.61Z" fill="white" style="fill:white;fill-opacity:1;"/>
<path fill-rule="evenodd" clip-rule="evenodd" d="M265 178H45V177H265V178Z" fill="white" style="fill:white;fill-opacity:1;"/>
<path d="M69.966 215V197.575H74.966C77.8327 197.575 80.0577 198.35 81.641 199.9C83.2244 201.433 84.016 203.608 84.016 206.425C84.016 209.192 83.2327 211.317 81.666 212.8C80.116 214.267 77.8744 215 74.941 215H69.966ZM72.866 212.35H74.666C76.016 212.35 77.1744 212.167 78.141 211.8C79.1077 211.417 79.841 210.783 80.341 209.9C80.841 209.017 81.091 207.825 81.091 206.325C81.091 204.825 80.841 203.633 80.341 202.75C79.8577 201.85 79.1494 201.208 78.216 200.825C77.2994 200.425 76.1994 200.225 74.916 200.225H72.866V212.35ZM91.8606 215.225C90.8272 215.225 89.9272 215.058 89.1606 214.725C88.4106 214.392 87.7939 213.925 87.3106 213.325C86.8272 212.725 86.4689 212.05 86.2356 211.3C86.0022 210.533 85.8856 209.742 85.8856 208.925C85.8856 208.108 85.9939 207.317 86.2106 206.55C86.4439 205.767 86.7939 205.067 87.2606 204.45C87.7272 203.833 88.3272 203.35 89.0606 203C89.7939 202.633 90.6606 202.45 91.6606 202.45C92.6106 202.45 93.4356 202.617 94.1356 202.95C94.8522 203.267 95.4439 203.717 95.9106 204.3C96.3772 204.867 96.7189 205.517 96.9356 206.25C97.1689 206.983 97.2856 207.767 97.2856 208.6C97.2856 208.717 97.2772 208.883 97.2606 209.1C97.2606 209.317 97.2439 209.533 97.2106 209.75H88.6606C88.7272 210.733 89.0606 211.483 89.6606 212C90.2606 212.517 91.0272 212.775 91.9606 212.775C92.6439 212.775 93.2689 212.667 93.8356 212.45C94.4022 212.233 94.9189 211.892 95.3856 211.425L96.9106 213.275C96.3939 213.742 95.8772 214.117 95.3606 214.4C94.8439 214.683 94.3022 214.892 93.7356 215.025C93.1856 215.158 92.5606 215.225 91.8606 215.225ZM94.5606 208.35C94.5939 208.217 94.6106 208.083 94.6106 207.95C94.6272 207.817 94.6356 207.683 94.6356 207.55C94.6356 207.183 94.5689 206.833 94.4356 206.5C94.3189 206.167 94.1356 205.875 93.8856 205.625C93.6356 205.358 93.3272 205.15 92.9606 205C92.5939 204.833 92.1772 204.75 91.7106 204.75C91.0606 204.75 90.5106 204.892 90.0606 205.175C89.6272 205.458 89.2856 205.825 89.0356 206.275C88.8022 206.708 88.6606 207.183 88.6106 207.7H95.4606L94.5606 208.35ZM99.736 215V202.675H102.511V205.4L102.011 205.525C102.228 204.808 102.544 204.225 102.961 203.775C103.378 203.325 103.861 202.992 104.411 202.775C104.978 202.558 105.569 202.45 106.186 202.45C107.569 202.45 108.644 202.85 109.411 203.65C110.194 204.433 110.586 205.558 110.586 207.025V215H107.811V208.05C107.811 206.95 107.611 206.142 107.211 205.625C106.811 205.108 106.194 204.85 105.361 204.85C104.744 204.85 104.219 205 103.786 205.3C103.369 205.583 103.053 206.033 102.836 206.65C102.619 207.267 102.511 208.05 102.511 209V215H99.736ZM117.926 215.225C117.309 215.225 116.726 215.108 116.176 214.875C115.642 214.625 115.217 214.233 114.901 213.7C114.584 213.15 114.426 212.433 114.426 211.55V199.675L117.226 198.125V210.775C117.226 211.475 117.326 212.017 117.526 212.4C117.742 212.767 118.126 212.95 118.676 212.95C118.842 212.95 119.034 212.933 119.251 212.9C119.484 212.85 119.726 212.792 119.976 212.725V214.875C119.642 214.992 119.301 215.075 118.951 215.125C118.617 215.192 118.276 215.225 117.926 215.225ZM112.076 204.825V202.675H119.976V204.825H112.076ZM130.16 215L129.96 212.925V207.225C129.96 206.425 129.718 205.825 129.235 205.425C128.751 205.008 128.076 204.8 127.21 204.8C126.543 204.8 125.885 204.933 125.235 205.2C124.601 205.45 124.018 205.842 123.485 206.375L121.935 204.55C122.735 203.8 123.585 203.267 124.485 202.95C125.385 202.617 126.368 202.45 127.435 202.45C129.101 202.45 130.393 202.875 131.31 203.725C132.243 204.558 132.71 205.725 132.71 207.225V215H130.16ZM126.335 215.225C125.418 215.225 124.601 215.058 123.885 214.725C123.185 214.392 122.635 213.925 122.235 213.325C121.851 212.725 121.66 212.025 121.66 211.225C121.66 210.542 121.801 209.95 122.085 209.45C122.385 208.95 122.768 208.558 123.235 208.275C123.635 208.025 124.101 207.85 124.635 207.75C125.168 207.633 125.726 207.575 126.31 207.575H130.185V209.65H126.71C126.41 209.65 126.11 209.683 125.81 209.75C125.51 209.8 125.243 209.9 125.01 210.05C124.843 210.183 124.701 210.35 124.585 210.55C124.485 210.75 124.435 210.983 124.435 211.25C124.435 211.783 124.635 212.208 125.035 212.525C125.451 212.825 126.001 212.975 126.685 212.975C127.285 212.975 127.826 212.842 128.31 212.575C128.81 212.308 129.21 211.942 129.51 211.475C129.81 211.008 129.96 210.483 129.96 209.9L130.81 211.275C130.61 212.142 130.293 212.875 129.86 213.475C129.426 214.058 128.91 214.5 128.31 214.8C127.71 215.083 127.051 215.225 126.335 215.225ZM138.283 215.225C137.483 215.225 136.817 214.983 136.283 214.5C135.75 214 135.483 213.208 135.483 212.125V197.575H138.258V211.575C138.258 211.958 138.342 212.242 138.508 212.425C138.692 212.592 138.925 212.675 139.208 212.675C139.358 212.675 139.508 212.658 139.658 212.625C139.825 212.592 139.992 212.55 140.158 212.5V214.85C139.842 214.983 139.517 215.075 139.183 215.125C138.85 215.192 138.55 215.225 138.283 215.225ZM148.538 215V197.575H151.438V215H148.538ZM154.584 215V202.675H157.359V205.875L156.759 206.225C156.909 205.508 157.117 204.908 157.384 204.425C157.667 203.942 157.992 203.558 158.359 203.275C158.725 202.975 159.117 202.767 159.534 202.65C159.967 202.517 160.4 202.45 160.834 202.45C161.5 202.45 162.125 202.583 162.709 202.85C163.292 203.1 163.784 203.517 164.184 204.1C164.6 204.667 164.884 205.442 165.034 206.425L163.409 206.875C163.659 205.808 164.009 204.958 164.459 204.325C164.909 203.675 165.434 203.2 166.034 202.9C166.65 202.6 167.317 202.45 168.034 202.45C169.084 202.45 169.925 202.683 170.559 203.15C171.209 203.6 171.684 204.2 171.984 204.95C172.284 205.683 172.434 206.475 172.434 207.325V215H169.659V208C169.659 207.317 169.575 206.742 169.409 206.275C169.259 205.808 169.017 205.458 168.684 205.225C168.35 204.975 167.925 204.85 167.409 204.85C166.859 204.85 166.4 204.992 166.034 205.275C165.667 205.542 165.384 205.958 165.184 206.525C165 207.092 164.909 207.792 164.909 208.625V215H162.134V207.875C162.134 206.858 161.942 206.1 161.559 205.6C161.175 205.1 160.634 204.85 159.934 204.85C159.384 204.85 158.917 204.992 158.534 205.275C158.15 205.558 157.859 205.983 157.659 206.55C157.459 207.1 157.359 207.792 157.359 208.625V215H154.584ZM175.281 220.1V202.675H178.031V206.1L177.331 206.125C177.548 205.225 177.864 204.508 178.281 203.975C178.714 203.442 179.223 203.058 179.806 202.825C180.406 202.575 181.039 202.45 181.706 202.45C182.806 202.45 183.756 202.733 184.556 203.3C185.356 203.85 185.973 204.608 186.406 205.575C186.856 206.542 187.081 207.633 187.081 208.85C187.081 210.167 186.839 211.308 186.356 212.275C185.873 213.225 185.223 213.958 184.406 214.475C183.606 214.975 182.706 215.225 181.706 215.225C181.006 215.225 180.356 215.092 179.756 214.825C179.173 214.558 178.673 214.158 178.256 213.625C177.856 213.092 177.573 212.442 177.406 211.675L178.031 211.55V220.1H175.281ZM181.031 212.7C181.681 212.7 182.248 212.542 182.731 212.225C183.231 211.908 183.614 211.458 183.881 210.875C184.148 210.292 184.281 209.617 184.281 208.85C184.281 208.083 184.148 207.408 183.881 206.825C183.614 206.242 183.231 205.792 182.731 205.475C182.248 205.158 181.681 205 181.031 205C180.381 205 179.806 205.158 179.306 205.475C178.823 205.792 178.448 206.242 178.181 206.825C177.914 207.408 177.781 208.083 177.781 208.85C177.781 209.617 177.914 210.292 178.181 210.875C178.448 211.442 178.823 211.892 179.306 212.225C179.806 212.542 180.381 212.7 181.031 212.7ZM192.233 215.225C191.433 215.225 190.767 214.983 190.233 214.5C189.7 214 189.433 213.208 189.433 212.125V197.575H192.208V211.575C192.208 211.958 192.292 212.242 192.458 212.425C192.642 212.592 192.875 212.675 193.158 212.675C193.308 212.675 193.458 212.658 193.608 212.625C193.775 212.592 193.942 212.55 194.108 212.5V214.85C193.792 214.983 193.467 215.075 193.133 215.125C192.8 215.192 192.5 215.225 192.233 215.225ZM204.044 215L203.844 212.925V207.225C203.844 206.425 203.603 205.825 203.119 205.425C202.636 205.008 201.961 204.8 201.094 204.8C200.428 204.8 199.769 204.933 199.119 205.2C198.486 205.45 197.903 205.842 197.369 206.375L195.819 204.55C196.619 203.8 197.469 203.267 198.369 202.95C199.269 202.617 200.253 202.45 201.319 202.45C202.986 202.45 204.278 202.875 205.194 203.725C206.128 204.558 206.594 205.725 206.594 207.225V215H204.044ZM200.219 215.225C199.303 215.225 198.486 215.058 197.769 214.725C197.069 214.392 196.519 213.925 196.119 213.325C195.736 212.725 195.544 212.025 195.544 211.225C195.544 210.542 195.686 209.95 195.969 209.45C196.269 208.95 196.653 208.558 197.119 208.275C197.519 208.025 197.986 207.85 198.519 207.75C199.053 207.633 199.611 207.575 200.194 207.575H204.069V209.65H200.594C200.294 209.65 199.994 209.683 199.694 209.75C199.394 209.8 199.128 209.9 198.894 210.05C198.728 210.183 198.586 210.35 198.469 210.55C198.369 210.75 198.319 210.983 198.319 211.25C198.319 211.783 198.519 212.208 198.919 212.525C199.336 212.825 199.886 212.975 200.569 212.975C201.169 212.975 201.711 212.842 202.194 212.575C202.694 212.308 203.094 211.942 203.394 211.475C203.694 211.008 203.844 210.483 203.844 209.9L204.694 211.275C204.494 212.142 204.178 212.875 203.744 213.475C203.311 214.058 202.794 214.5 202.194 214.8C201.594 215.083 200.936 215.225 200.219 215.225ZM209.443 215V202.675H212.218V205.4L211.718 205.525C211.935 204.808 212.251 204.225 212.668 203.775C213.085 203.325 213.568 202.992 214.118 202.775C214.685 202.558 215.276 202.45 215.893 202.45C217.276 202.45 218.351 202.85 219.118 203.65C219.901 204.433 220.293 205.558 220.293 207.025V215H217.518V208.05C217.518 206.95 217.318 206.142 216.918 205.625C216.518 205.108 215.901 204.85 215.068 204.85C214.451 204.85 213.926 205 213.493 205.3C213.076 205.583 212.76 206.033 212.543 206.65C212.326 207.267 212.218 208.05 212.218 209V215H209.443ZM227.633 215.225C227.016 215.225 226.433 215.108 225.883 214.875C225.35 214.625 224.925 214.233 224.608 213.7C224.291 213.15 224.133 212.433 224.133 211.55V199.675L226.933 198.125V210.775C226.933 211.475 227.033 212.017 227.233 212.4C227.45 212.767 227.833 212.95 228.383 212.95C228.55 212.95 228.741 212.933 228.958 212.9C229.191 212.85 229.433 212.792 229.683 212.725V214.875C229.35 214.992 229.008 215.075 228.658 215.125C228.325 215.192 227.983 215.225 227.633 215.225ZM221.783 204.825V202.675H229.683V204.825H221.783ZM236.117 215.225C235.233 215.225 234.45 215.1 233.767 214.85C233.083 214.583 232.508 214.25 232.042 213.85C231.575 213.45 231.192 213.05 230.892 212.65L232.792 211C233.108 211.517 233.542 211.975 234.092 212.375C234.658 212.775 235.342 212.975 236.142 212.975C236.808 212.975 237.333 212.833 237.717 212.55C238.117 212.267 238.317 211.917 238.317 211.5C238.317 211.133 238.192 210.85 237.942 210.65C237.692 210.433 237.367 210.25 236.967 210.1C236.567 209.95 236.125 209.817 235.642 209.7C235.175 209.583 234.7 209.442 234.217 209.275C233.733 209.092 233.283 208.867 232.867 208.6C232.467 208.333 232.142 207.992 231.892 207.575C231.642 207.158 231.517 206.642 231.517 206.025C231.517 204.942 231.933 204.075 232.767 203.425C233.6 202.775 234.692 202.45 236.042 202.45C237.008 202.45 237.892 202.642 238.692 203.025C239.492 203.408 240.117 203.983 240.567 204.75L238.842 206.075C238.508 205.575 238.092 205.2 237.592 204.95C237.092 204.7 236.55 204.575 235.967 204.575C235.433 204.575 234.983 204.683 234.617 204.9C234.267 205.117 234.092 205.4 234.092 205.75C234.092 206.017 234.175 206.233 234.342 206.4C234.508 206.567 234.767 206.717 235.117 206.85C235.467 206.983 235.908 207.117 236.442 207.25C236.942 207.367 237.458 207.508 237.992 207.675C238.525 207.842 239.017 208.067 239.467 208.35C239.933 208.617 240.308 208.983 240.592 209.45C240.892 209.9 241.042 210.483 241.042 211.2C241.042 212 240.833 212.708 240.417 213.325C240.017 213.925 239.442 214.392 238.692 214.725C237.958 215.058 237.1 215.225 236.117 215.225ZM119.777 245L126.677 227.575H128.877L135.752 245H132.602L127.777 231.8L122.952 245H119.777ZM124.077 241.35L124.977 238.775H130.552L131.502 241.35H124.077ZM138.859 245L135.109 232.675H138.059L140.259 240.75L142.759 232.675H145.134L147.634 240.7L149.859 232.675H152.809L149.034 245H146.534L143.959 236.6L141.384 245H138.859ZM162.683 245L162.483 242.925V237.225C162.483 236.425 162.241 235.825 161.758 235.425C161.275 235.008 160.6 234.8 159.733 234.8C159.066 234.8 158.408 234.933 157.758 235.2C157.125 235.45 156.541 235.842 156.008 236.375L154.458 234.55C155.258 233.8 156.108 233.267 157.008 232.95C157.908 232.617 158.891 232.45 159.958 232.45C161.625 232.45 162.916 232.875 163.833 233.725C164.766 234.558 165.233 235.725 165.233 237.225V245H162.683ZM158.858 245.225C157.941 245.225 157.125 245.058 156.408 244.725C155.708 244.392 155.158 243.925 154.758 243.325C154.375 242.725 154.183 242.025 154.183 241.225C154.183 240.542 154.325 239.95 154.608 239.45C154.908 238.95 155.291 238.558 155.758 238.275C156.158 238.025 156.625 237.85 157.158 237.75C157.691 237.633 158.25 237.575 158.833 237.575H162.708V239.65H159.233C158.933 239.65 158.633 239.683 158.333 239.75C158.033 239.8 157.766 239.9 157.533 240.05C157.366 240.183 157.225 240.35 157.108 240.55C157.008 240.75 156.958 240.983 156.958 241.25C156.958 241.783 157.158 242.208 157.558 242.525C157.975 242.825 158.525 242.975 159.208 242.975C159.808 242.975 160.35 242.842 160.833 242.575C161.333 242.308 161.733 241.942 162.033 241.475C162.333 241.008 162.483 240.483 162.483 239.9L163.333 241.275C163.133 242.142 162.816 242.875 162.383 243.475C161.95 244.058 161.433 244.5 160.833 244.8C160.233 245.083 159.575 245.225 158.858 245.225ZM168.082 245V232.675H170.882V236L170.357 236.075C170.44 235.358 170.682 234.733 171.082 234.2C171.482 233.65 171.965 233.225 172.532 232.925C173.115 232.608 173.69 232.45 174.257 232.45C174.657 232.45 175.04 232.5 175.407 232.6C175.773 232.7 176.157 232.867 176.557 233.1L175.207 235.6C175.023 235.483 174.782 235.392 174.482 235.325C174.198 235.242 173.923 235.2 173.657 235.2C173.307 235.2 172.957 235.267 172.607 235.4C172.273 235.533 171.973 235.742 171.707 236.025C171.44 236.292 171.24 236.642 171.107 237.075C171.023 237.308 170.957 237.617 170.907 238C170.873 238.367 170.857 238.883 170.857 239.55V245H168.082ZM182.446 245.225C181.346 245.225 180.388 244.95 179.571 244.4C178.771 243.833 178.154 243.067 177.721 242.1C177.288 241.133 177.071 240.042 177.071 238.825C177.071 237.492 177.304 236.35 177.771 235.4C178.254 234.45 178.904 233.725 179.721 233.225C180.538 232.708 181.446 232.45 182.446 232.45C183.146 232.45 183.788 232.592 184.371 232.875C184.971 233.158 185.471 233.575 185.871 234.125C186.288 234.658 186.579 235.317 186.746 236.1L186.096 236.125V227.575H188.871V245H186.096V241.575L186.846 241.4C186.629 242.3 186.296 243.033 185.846 243.6C185.413 244.15 184.904 244.558 184.321 244.825C183.738 245.092 183.113 245.225 182.446 245.225ZM183.121 242.675C183.771 242.675 184.338 242.517 184.821 242.2C185.304 241.883 185.679 241.433 185.946 240.85C186.213 240.267 186.346 239.592 186.346 238.825C186.346 238.058 186.213 237.392 185.946 236.825C185.679 236.242 185.304 235.792 184.821 235.475C184.338 235.142 183.771 234.975 183.121 234.975C182.471 234.975 181.896 235.133 181.396 235.45C180.913 235.767 180.529 236.217 180.246 236.8C179.979 237.383 179.846 238.058 179.846 238.825C179.846 239.592 179.979 240.267 180.246 240.85C180.529 241.433 180.913 241.883 181.396 242.2C181.896 242.517 182.471 242.675 183.121 242.675Z" fill="white" style="fill:white;fill-opacity:1;"/>
</svg>
