<svg width="310" height="310" viewBox="0 0 310 310" fill="none" xmlns="http://www.w3.org/2000/svg">
<path d="M147.651 1.92236C152.217 -0.640785 157.783 -0.640785 162.349 1.92236L188.281 16.4702C190.473 17.7017 192.937 18.3625 195.44 18.3925L225.166 18.763C230.402 18.8231 235.218 21.6065 237.892 26.112L253.08 51.6733C254.362 53.836 256.164 55.6382 258.327 56.9198L283.888 72.1084C288.384 74.7817 291.167 79.5976 291.237 84.834L291.607 114.56C291.638 117.074 292.298 119.537 293.53 121.719L308.078 147.651C310.641 152.217 310.641 157.783 308.078 162.349L293.53 188.281C292.298 190.473 291.638 192.936 291.607 195.44L291.237 225.166C291.167 230.402 288.384 235.218 283.888 237.892L258.327 253.08C256.174 254.362 254.362 256.164 253.08 258.327L237.892 283.888C235.218 288.383 230.392 291.167 225.166 291.237L195.44 291.607C192.927 291.637 190.463 292.298 188.281 293.53L162.349 308.078C157.783 310.641 152.217 310.641 147.651 308.078L121.719 293.53C119.527 292.298 117.064 291.637 114.56 291.607L84.834 291.237C79.5976 291.167 74.7817 288.383 72.1084 283.888L56.9198 258.327C55.6382 256.174 53.836 254.362 51.6733 253.08L26.112 237.892C21.6165 235.218 18.8331 230.392 18.763 225.166L18.3925 195.44C18.3625 192.926 17.7017 190.463 16.4702 188.281L1.92236 162.349C-0.640786 157.783 -0.640786 152.217 1.92236 147.651L16.4702 121.719C17.7017 119.527 18.3625 117.063 18.3925 114.56L18.763 84.834C18.8231 79.5976 21.6065 74.7817 26.112 72.1084L51.6733 56.9198C53.836 55.6382 55.6382 53.836 56.9198 51.6733L72.1084 26.112C74.7817 21.6165 79.5976 18.8331 84.834 18.763L114.56 18.3925C117.074 18.3625 119.537 17.7017 121.719 16.4702L147.651 1.92236Z" fill="#227DF5" style="fill:#227DF5;fill:color(display-p3 0.1333 0.4919 0.9608);fill-opacity:1;"/>
<path d="M155 300C152.474 300 149.958 299.373 147.7 298.1L124.03 284.823C121.862 283.61 119.405 282.944 116.919 282.914L89.7776 282.576C84.6159 282.516 79.7725 279.712 77.1369 275.276L63.2729 251.934C61.9999 249.796 60.1998 247.996 58.0615 246.723L34.7195 232.859C30.2838 230.224 27.4891 225.38 27.4195 220.219L27.0813 193.078C27.0515 190.592 26.3951 188.135 25.1718 185.967L11.8946 162.297C9.36846 157.792 9.36846 152.203 11.8946 147.698L25.1718 124.028C26.3852 121.86 27.0515 119.403 27.0813 116.917L27.4195 89.7762C27.4792 84.6146 30.2838 79.7713 34.7195 77.1357L58.0615 63.272C60.1998 61.999 61.9999 60.1989 63.2729 58.0607L77.1369 34.719C79.7725 30.2834 84.6159 27.4888 89.7776 27.4192L116.919 27.0811C119.405 27.0512 121.862 26.3948 124.03 25.1716L147.7 11.8946C152.205 9.36847 157.795 9.36847 162.3 11.8946L185.97 25.1716C188.138 26.3849 190.595 27.0512 193.081 27.0811L220.222 27.4192C225.384 27.4789 230.228 30.2834 232.863 34.719L246.727 58.0607C248 60.1989 249.8 61.999 251.939 63.272L275.281 77.1357C279.716 79.7713 282.511 84.6146 282.58 89.7762L282.919 116.917C282.949 119.403 283.605 121.86 284.828 124.028L298.105 147.698C300.632 152.203 300.632 157.792 298.105 162.297L284.828 185.967C283.615 188.135 282.958 190.592 282.919 193.078L282.58 220.219C282.521 225.38 279.716 230.224 275.281 232.859L251.939 246.723C249.8 247.996 248 249.796 246.727 251.934L232.863 275.276C230.228 279.712 225.384 282.506 220.222 282.576L193.081 282.914C190.595 282.944 188.138 283.6 185.97 284.823L162.3 298.1C160.052 299.363 157.526 300 155 300ZM155 12.004C152.812 12.004 150.624 12.551 148.675 13.645L125.004 26.9219C122.548 28.3043 119.763 29.0502 116.939 29.0801L89.7975 29.4182C85.322 29.4779 81.125 31.8946 78.8376 35.7434L64.9736 59.085C63.5315 61.5117 61.4927 63.5505 59.0759 64.9826L35.7339 78.8463C31.885 81.1338 29.4683 85.3307 29.4086 89.8061L29.0704 116.947C29.0406 119.761 28.2848 122.556 26.9123 125.012L13.6351 148.682C11.4471 152.581 11.4471 157.434 13.6351 161.333L26.9123 185.003C28.2947 187.459 29.0406 190.254 29.0704 193.068L29.4086 220.209C29.4683 224.684 31.885 228.881 35.7339 231.169L59.0759 245.032C61.5026 246.474 63.5414 248.513 64.9736 250.93L78.8376 274.272C81.125 278.12 85.322 280.537 89.7975 280.597L116.939 280.935C119.753 280.965 122.538 281.721 125.004 283.093L148.675 296.37C152.573 298.558 157.427 298.558 161.325 296.37L184.996 283.093C187.452 281.711 190.247 280.965 193.061 280.935L220.202 280.597C224.678 280.537 228.875 278.12 231.162 274.272L245.026 250.93C246.469 248.503 248.507 246.464 250.924 245.032L274.266 231.169C278.115 228.881 280.532 224.684 280.591 220.209L280.93 193.068C280.969 190.254 281.715 187.459 283.088 185.003L296.365 161.333C298.553 157.434 298.553 152.581 296.365 148.682L283.088 125.012C281.705 122.556 280.959 119.771 280.93 116.947L280.591 89.8061C280.532 85.3307 278.115 81.1338 274.266 78.8463L250.924 64.9826C248.497 63.5405 246.459 61.5017 245.026 59.085L231.162 35.7434C228.875 31.8946 224.678 29.4779 220.202 29.4182L193.061 29.0801C190.247 29.0403 187.462 28.2944 184.996 26.9219L161.325 13.645C159.376 12.551 157.188 12.004 155 12.004Z" fill="white" style="fill:white;fill-opacity:1;"/>
<path d="M177.276 99.6776L191.134 96.5392H191.144C194.638 95.7497 197.776 98.6512 196.829 101.8L192.21 117.146C191.588 119.209 189.762 120.808 187.423 121.064C175.5 122.357 164.179 118.834 155 112.014C145.821 118.834 134.5 122.357 122.577 121.064C120.238 120.808 118.412 119.199 117.79 117.146L113.171 101.8C112.224 98.6512 115.362 95.7497 118.856 96.5392L132.714 99.6776C134.855 100.161 137.116 99.5888 138.675 98.1775L151.664 86.4034C153.51 84.7355 156.49 84.7355 158.326 86.4034L171.315 98.1775C172.874 99.5987 175.135 100.161 177.276 99.6776Z" fill="white" style="fill:white;fill-opacity:1;"/>
<path d="M156.441 124.39C161.426 127.144 170.644 131.536 183.82 131.2C186.051 131.141 187.828 133.016 187.245 134.96L182.064 150.959C180.929 154.739 176.378 156.367 172.815 154.146L157.655 144.702C156.056 143.705 153.934 143.705 152.325 144.702L137.55 154.146C133.987 156.367 129.072 154.739 127.937 150.959L122.745 134.96C122.163 133.016 123.939 131.141 126.17 131.2C139.346 131.536 148.555 127.144 153.549 124.39C154.487 123.867 155.523 123.877 156.441 124.39Z" fill="white" style="fill:white;fill-opacity:1;"/>
<path d="M148.91 59.5801L146.42 59.76L146.02 54.2301L138.9 43.52L141.67 43.3201L147.07 51.3501L151.23 42.63L154.09 42.42L148.51 54.01L148.92 59.5901L148.91 59.5801Z" fill="white" style="fill:white;fill-opacity:1;"/>
<path d="M133.22 61.6001L135.55 60.9401L135.56 60.9301L130.98 44.8201L128.89 45.41L126.21 59.3501L116.62 48.9L114.51 49.5001L119.09 65.6101L121.42 64.9501L118.39 54.3L126.76 63.4401L127.9 63.1101L130.19 50.9501L133.22 61.6001Z" fill="white" style="fill:white;fill-opacity:1;"/>
<path d="M104.12 72.98L94.5503 70.66L93.8198 71.12L97.5601 77.09L95.4502 78.42L86.5601 64.23L88.6699 62.9L92.52 69.04L93.0898 68.6801L95.0303 58.91L97.6602 57.26L95.5103 68.53L106.99 71.1801L104.13 72.98H104.12Z" fill="white" style="fill:white;fill-opacity:1;"/>
<path d="M88.8799 83.53L90.4497 82.1101L79.1997 69.7001L77.3296 71.3901L85.5396 80.4501L70.3496 77.7201L68.7798 79.1401L80.0298 91.55L81.8799 89.8701L73.8096 80.9601L88.8799 83.53Z" fill="white" style="fill:white;fill-opacity:1;"/>
<path fill-rule="evenodd" clip-rule="evenodd" d="M75.2202 96.9601L71.2002 95.77L66.52 101.76L68.6499 105.37L66.9902 107.5L58.02 91.77L59.4502 89.9301L76.8799 94.8201L75.2202 96.9501V96.9601ZM61.3198 92.88L65.2002 99.49L68.6699 95.04L61.3198 92.88Z" fill="white" style="fill:white;fill-opacity:1;"/>
<path fill-rule="evenodd" clip-rule="evenodd" d="M63.6499 113.11L55.1201 114.78L54.0298 116.76L59.8799 119.97L58.6802 122.16L44 114.09L47.54 107.65C49.0898 104.83 51.8999 103.93 54.5498 105.38C57.0698 106.76 57.8398 109.42 56.5601 112.1L65.1499 110.38L63.6602 113.1L63.6499 113.11ZM54.2402 111.35C55.0698 109.84 54.7002 108.33 53.3398 107.58C51.96 106.82 50.4902 107.32 49.6602 108.83L47.3198 113.08L51.8999 115.6L54.2402 111.35Z" fill="white" style="fill:white;fill-opacity:1;"/>
<path fill-rule="evenodd" clip-rule="evenodd" d="M184.08 54.64C185.04 49.86 182.48 45.78 177.27 44.73V44.74L171.92 43.66L168.62 60.0801L173.97 61.15C179.18 62.2001 183.12 59.42 184.08 54.64ZM181.6 54.15C180.92 57.5601 178.17 59.53 174.44 58.78L174.43 58.77L171.53 58.1901L173.88 46.53L176.78 47.11C180.51 47.86 182.29 50.74 181.6 54.15Z" fill="white" style="fill:white;fill-opacity:1;"/>
<path d="M198.43 68.88L187.63 64.5701L193.84 49.01L204.62 53.3101L203.72 55.5601L195.25 52.1801L193.5 56.5701L201.32 59.6901L200.43 61.92L192.61 58.8L190.84 63.24L199.33 66.63L198.43 68.88Z" fill="white" style="fill:white;fill-opacity:1;"/>
<path d="M213.7 77.7301L215.5 78.8501L224.37 64.65L222.23 63.3201L215.75 73.6801L214.24 58.3201L212.44 57.2001L203.57 71.4L205.69 72.7201L212.06 62.53L213.7 77.7301Z" fill="white" style="fill:white;fill-opacity:1;"/>
<path d="M234.95 76.51L225.4 87.1899L223.52 85.51L233.07 74.83L228.99 71.1799L230.61 69.37L240.67 78.37L239.05 80.1799L234.95 76.51Z" fill="white" style="fill:white;fill-opacity:1;"/>
<path d="M245.45 83.64L232.91 94.74L234.56 96.61L247.1 85.51L245.45 83.64Z" fill="white" style="fill:white;fill-opacity:1;"/>
<path d="M255.47 103.84L253.59 102.11C254.88 100.86 255.03 99.03 253.96 97.5C252.9 95.99 251.33 95.61 250.12 96.46C249.16 97.13 249.01 98.01 249.54 99.29L250.84 102.5C251.73 104.73 251.54 106.9 249.39 108.41C246.81 110.22 243.82 109.38 241.76 106.44C239.86 103.73 239.7 100.48 242.13 98.3L244.15 100.13C242.6 101.67 242.64 103.55 243.84 105.27C245.04 106.99 246.6 107.35 247.85 106.47C248.89 105.74 249.03 104.88 248.42 103.4L247.08 100.18C246.36 98.3199 246.11 96.0499 248.55 94.34C250.97 92.65 253.9 93.36 255.89 96.2C257.71 98.7999 257.5 101.73 255.47 103.84Z" fill="white" style="fill:white;fill-opacity:1;"/>
<path d="M251.16 121.66L263.94 115.19L266.43 120.09L268.59 118.99L262.49 106.95L260.33 108.05L262.8 112.94L250.02 119.41L251.16 121.66Z" fill="white" style="fill:white;fill-opacity:1;"/>
<path d="M134.922 272.19V271.254C135.194 271.038 135.51 270.798 135.87 270.534C136.23 270.27 136.594 269.982 136.962 269.67C137.338 269.358 137.686 269.026 138.006 268.674C138.326 268.322 138.582 267.954 138.774 267.57C138.974 267.178 139.074 266.778 139.074 266.37C139.074 265.93 138.954 265.574 138.714 265.302C138.474 265.022 138.114 264.882 137.634 264.882C137.274 264.882 136.974 264.966 136.734 265.134C136.502 265.302 136.33 265.53 136.218 265.818C136.106 266.106 136.046 266.426 136.038 266.778L134.886 266.694C134.886 266.302 134.946 265.93 135.066 265.578C135.186 265.226 135.362 264.914 135.594 264.642C135.834 264.362 136.126 264.142 136.47 263.982C136.822 263.822 137.222 263.742 137.67 263.742C138.182 263.742 138.626 263.85 139.002 264.066C139.386 264.282 139.686 264.582 139.902 264.966C140.118 265.35 140.226 265.802 140.226 266.322C140.226 266.762 140.146 267.186 139.986 267.594C139.834 268.002 139.618 268.394 139.338 268.77C139.058 269.138 138.734 269.486 138.366 269.814C137.998 270.142 137.602 270.454 137.178 270.75C136.754 271.038 136.314 271.302 135.858 271.542L136.17 271.098H140.562V272.19H134.922Z" fill="white" style="fill:white;fill-opacity:1;"/>
<path d="M149.269 272.286C148.781 272.286 148.369 272.198 148.033 272.022C147.705 271.846 147.433 271.61 147.217 271.314C147.009 271.01 146.849 270.674 146.737 270.306C146.633 269.93 146.561 269.542 146.521 269.142C146.481 268.734 146.461 268.346 146.461 267.978C146.461 267.61 146.477 267.23 146.509 266.838C146.549 266.438 146.621 266.054 146.725 265.686C146.837 265.31 146.997 264.974 147.205 264.678C147.413 264.382 147.681 264.146 148.009 263.97C148.345 263.794 148.753 263.706 149.233 263.706C149.705 263.706 150.105 263.794 150.433 263.97C150.761 264.138 151.029 264.366 151.237 264.654C151.453 264.942 151.617 265.27 151.729 265.638C151.841 266.006 151.917 266.394 151.957 266.802C152.005 267.202 152.029 267.594 152.029 267.978C152.029 268.378 152.005 268.782 151.957 269.19C151.917 269.598 151.837 269.986 151.717 270.354C151.605 270.722 151.445 271.054 151.237 271.35C151.029 271.638 150.765 271.866 150.445 272.034C150.125 272.202 149.733 272.286 149.269 272.286ZM149.269 271.158C149.669 271.158 149.981 271.018 150.205 270.738C150.437 270.458 150.601 270.082 150.697 269.61C150.793 269.138 150.841 268.61 150.841 268.026C150.841 267.41 150.789 266.866 150.685 266.394C150.589 265.914 150.425 265.534 150.193 265.254C149.961 264.974 149.641 264.834 149.233 264.834C148.913 264.834 148.649 264.918 148.441 265.086C148.241 265.254 148.085 265.486 147.973 265.782C147.861 266.078 147.781 266.418 147.733 266.802C147.685 267.178 147.661 267.582 147.661 268.014C147.661 268.43 147.685 268.826 147.733 269.202C147.781 269.578 147.861 269.914 147.973 270.21C148.093 270.498 148.257 270.73 148.465 270.906C148.673 271.074 148.941 271.158 149.269 271.158Z" fill="white" style="fill:white;fill-opacity:1;"/>
<path d="M157.952 272.19V271.254C158.224 271.038 158.54 270.798 158.9 270.534C159.26 270.27 159.624 269.982 159.992 269.67C160.368 269.358 160.716 269.026 161.036 268.674C161.356 268.322 161.612 267.954 161.804 267.57C162.004 267.178 162.104 266.778 162.104 266.37C162.104 265.93 161.984 265.574 161.744 265.302C161.504 265.022 161.144 264.882 160.664 264.882C160.304 264.882 160.004 264.966 159.764 265.134C159.532 265.302 159.36 265.53 159.248 265.818C159.136 266.106 159.076 266.426 159.068 266.778L157.916 266.694C157.916 266.302 157.976 265.93 158.096 265.578C158.216 265.226 158.392 264.914 158.624 264.642C158.864 264.362 159.156 264.142 159.5 263.982C159.852 263.822 160.252 263.742 160.7 263.742C161.212 263.742 161.656 263.85 162.032 264.066C162.416 264.282 162.716 264.582 162.932 264.966C163.148 265.35 163.256 265.802 163.256 266.322C163.256 266.762 163.176 267.186 163.016 267.594C162.864 268.002 162.648 268.394 162.368 268.77C162.088 269.138 161.764 269.486 161.396 269.814C161.028 270.142 160.632 270.454 160.208 270.75C159.784 271.038 159.344 271.302 158.888 271.542L159.2 271.098H163.592V272.19H157.952Z" fill="white" style="fill:white;fill-opacity:1;"/>
<path d="M172.251 272.298C171.747 272.298 171.283 272.19 170.859 271.974C170.443 271.758 170.099 271.466 169.827 271.098C169.555 270.722 169.379 270.298 169.299 269.826L170.451 269.622C170.499 269.894 170.595 270.15 170.739 270.39C170.891 270.63 171.091 270.822 171.339 270.966C171.595 271.102 171.891 271.17 172.227 271.17C172.611 271.17 172.931 271.082 173.187 270.906C173.451 270.722 173.651 270.49 173.787 270.21C173.923 269.922 173.991 269.618 173.991 269.298C173.991 268.994 173.927 268.714 173.799 268.458C173.671 268.202 173.479 267.998 173.223 267.846C172.975 267.686 172.663 267.606 172.287 267.606C171.943 267.606 171.635 267.686 171.363 267.846C171.099 267.998 170.875 268.21 170.691 268.482L169.551 268.182L170.343 263.826H174.855V264.918H170.775L171.399 264.426L170.835 267.522L170.487 267.438C170.799 267.078 171.123 266.834 171.459 266.706C171.803 266.57 172.135 266.502 172.455 266.502C172.999 266.502 173.479 266.63 173.895 266.886C174.319 267.142 174.647 267.482 174.879 267.906C175.111 268.33 175.227 268.794 175.227 269.298C175.227 269.698 175.155 270.078 175.011 270.438C174.867 270.798 174.659 271.118 174.387 271.398C174.123 271.678 173.807 271.898 173.439 272.058C173.079 272.218 172.683 272.298 172.251 272.298Z" fill="white" style="fill:white;fill-opacity:1;"/>
<path d="M41 147.61L42.8887 152.721L48 154.61L42.8887 156.499L41 161.61L39.1113 156.499L34 154.61L39.1113 152.721L41 147.61Z" fill="white" style="fill:white;fill-opacity:1;"/>
<path d="M269 147.61L270.889 152.721L276 154.61L270.889 156.499L269 161.61L267.111 156.499L262 154.61L267.111 152.721L269 147.61Z" fill="white" style="fill:white;fill-opacity:1;"/>
<path fill-rule="evenodd" clip-rule="evenodd" d="M265 178H45V177H265V178Z" fill="white" style="fill:white;fill-opacity:1;"/>
<path d="M68.0554 215V197.575H73.0554C75.9221 197.575 78.1471 198.35 79.7304 199.9C81.3137 201.433 82.1054 203.608 82.1054 206.425C82.1054 209.192 81.3221 211.317 79.7554 212.8C78.2054 214.267 75.9637 215 73.0304 215H68.0554ZM70.9554 212.35H72.7554C74.1054 212.35 75.2637 212.167 76.2304 211.8C77.1971 211.417 77.9304 210.783 78.4304 209.9C78.9304 209.017 79.1804 207.825 79.1804 206.325C79.1804 204.825 78.9304 203.633 78.4304 202.75C77.9471 201.85 77.2387 201.208 76.3054 200.825C75.3887 200.425 74.2887 200.225 73.0054 200.225H70.9554V212.35ZM84.5249 215V202.675H87.2999V215H84.5249ZM84.3999 200.65V197.575H87.4249V200.65H84.3999ZM95.4064 220.35C93.5897 220.35 92.1564 220.017 91.1064 219.35C90.0564 218.7 89.5314 217.808 89.5314 216.675C89.5314 216.575 89.5314 216.458 89.5314 216.325C89.548 216.192 89.573 216.058 89.6064 215.925L92.9564 213.75L93.7064 214.475L92.0814 216.5C92.0647 216.55 92.0564 216.592 92.0564 216.625C92.0564 216.675 92.0564 216.725 92.0564 216.775C92.0564 217.292 92.3647 217.683 92.9814 217.95C93.6147 218.233 94.423 218.375 95.4064 218.375C96.2397 218.375 96.9064 218.258 97.4064 218.025C97.9064 217.808 98.1564 217.475 98.1564 217.025C98.1564 216.775 98.0814 216.567 97.9314 216.4C97.7814 216.25 97.5564 216.125 97.2564 216.025C96.9564 215.925 96.5814 215.833 96.1314 215.75C95.698 215.683 95.1814 215.617 94.5814 215.55C93.8314 215.433 93.0897 215.267 92.3564 215.05C91.6397 214.833 91.0397 214.508 90.5564 214.075C90.0897 213.642 89.8564 213.067 89.8564 212.35C89.8564 211.717 90.073 211.142 90.5064 210.625C90.9397 210.092 91.5147 209.658 92.2314 209.325L93.6564 210.425C93.1897 210.525 92.8397 210.7 92.6064 210.95C92.373 211.183 92.2564 211.467 92.2564 211.8C92.2564 212.083 92.3647 212.317 92.5814 212.5C92.798 212.667 93.1064 212.8 93.5064 212.9C93.923 212.983 94.4147 213.067 94.9814 213.15C95.8314 213.25 96.6147 213.367 97.3314 213.5C98.048 213.633 98.673 213.825 99.2064 214.075C99.7397 214.308 100.148 214.633 100.431 215.05C100.731 215.467 100.881 216.008 100.881 216.675C100.881 217.858 100.398 218.767 99.4314 219.4C98.4814 220.033 97.1397 220.35 95.4064 220.35ZM95.1314 211.425C94.1314 211.425 93.248 211.233 92.4814 210.85C91.7147 210.467 91.1147 209.942 90.6814 209.275C90.2647 208.592 90.0564 207.825 90.0564 206.975C90.0564 206.058 90.2814 205.267 90.7314 204.6C91.1814 203.917 91.7814 203.392 92.5314 203.025C93.298 202.642 94.1314 202.45 95.0314 202.45C95.9314 202.45 96.7564 202.642 97.5064 203.025C98.2564 203.392 98.8564 203.925 99.3064 204.625C99.773 205.308 100.006 206.125 100.006 207.075C100.006 207.942 99.798 208.708 99.3814 209.375C98.9814 210.025 98.4147 210.533 97.6814 210.9C96.948 211.25 96.098 211.425 95.1314 211.425ZM95.0814 209.2C95.798 209.2 96.3397 208.983 96.7064 208.55C97.073 208.1 97.2564 207.567 97.2564 206.95C97.2564 206.283 97.0564 205.75 96.6564 205.35C96.2564 204.933 95.7314 204.725 95.0814 204.725C94.398 204.725 93.848 204.933 93.4314 205.35C93.0314 205.75 92.8314 206.275 92.8314 206.925C92.8314 207.558 93.023 208.1 93.4064 208.55C93.7897 208.983 94.348 209.2 95.0814 209.2ZM99.2064 205.175L97.1814 203.875L99.9564 201.625L101.381 203.35L99.2064 205.175ZM102.995 215V202.675H105.77V215H102.995ZM102.87 200.65V197.575H105.895V200.65H102.87ZM113.226 215.225C112.609 215.225 112.026 215.108 111.476 214.875C110.943 214.625 110.518 214.233 110.201 213.7C109.884 213.15 109.726 212.433 109.726 211.55V199.675L112.526 198.125V210.775C112.526 211.475 112.626 212.017 112.826 212.4C113.043 212.767 113.426 212.95 113.976 212.95C114.143 212.95 114.334 212.933 114.551 212.9C114.784 212.85 115.026 212.792 115.276 212.725V214.875C114.943 214.992 114.601 215.075 114.251 215.125C113.918 215.192 113.576 215.225 113.226 215.225ZM107.376 204.825V202.675H115.276V204.825H107.376ZM125.46 215L125.26 212.925V207.225C125.26 206.425 125.018 205.825 124.535 205.425C124.052 205.008 123.377 204.8 122.51 204.8C121.843 204.8 121.185 204.933 120.535 205.2C119.902 205.45 119.318 205.842 118.785 206.375L117.235 204.55C118.035 203.8 118.885 203.267 119.785 202.95C120.685 202.617 121.668 202.45 122.735 202.45C124.402 202.45 125.693 202.875 126.61 203.725C127.543 204.558 128.01 205.725 128.01 207.225V215H125.46ZM121.635 215.225C120.718 215.225 119.902 215.058 119.185 214.725C118.485 214.392 117.935 213.925 117.535 213.325C117.152 212.725 116.96 212.025 116.96 211.225C116.96 210.542 117.102 209.95 117.385 209.45C117.685 208.95 118.068 208.558 118.535 208.275C118.935 208.025 119.402 207.85 119.935 207.75C120.468 207.633 121.027 207.575 121.61 207.575H125.485V209.65H122.01C121.71 209.65 121.41 209.683 121.11 209.75C120.81 209.8 120.543 209.9 120.31 210.05C120.143 210.183 120.002 210.35 119.885 210.55C119.785 210.75 119.735 210.983 119.735 211.25C119.735 211.783 119.935 212.208 120.335 212.525C120.752 212.825 121.302 212.975 121.985 212.975C122.585 212.975 123.127 212.842 123.61 212.575C124.11 212.308 124.51 211.942 124.81 211.475C125.11 211.008 125.26 210.483 125.26 209.9L126.11 211.275C125.91 212.142 125.593 212.875 125.16 213.475C124.727 214.058 124.21 214.5 123.61 214.8C123.01 215.083 122.352 215.225 121.635 215.225ZM133.584 215.225C132.784 215.225 132.117 214.983 131.584 214.5C131.05 214 130.784 213.208 130.784 212.125V197.575H133.559V211.575C133.559 211.958 133.642 212.242 133.809 212.425C133.992 212.592 134.225 212.675 134.509 212.675C134.659 212.675 134.809 212.658 134.959 212.625C135.125 212.592 135.292 212.55 135.459 212.5V214.85C135.142 214.983 134.817 215.075 134.484 215.125C134.15 215.192 133.85 215.225 133.584 215.225ZM143.839 215V197.575H148.839C151.705 197.575 153.93 198.35 155.514 199.9C157.097 201.433 157.889 203.608 157.889 206.425C157.889 209.192 157.105 211.317 155.539 212.8C153.989 214.267 151.747 215 148.814 215H143.839ZM146.739 212.35H148.539C149.889 212.35 151.047 212.167 152.014 211.8C152.98 211.417 153.714 210.783 154.214 209.9C154.714 209.017 154.964 207.825 154.964 206.325C154.964 204.825 154.714 203.633 154.214 202.75C153.73 201.85 153.022 201.208 152.089 200.825C151.172 200.425 150.072 200.225 148.789 200.225H146.739V212.35ZM165.733 215.225C164.7 215.225 163.8 215.058 163.033 214.725C162.283 214.392 161.666 213.925 161.183 213.325C160.7 212.725 160.341 212.05 160.108 211.3C159.875 210.533 159.758 209.742 159.758 208.925C159.758 208.108 159.866 207.317 160.083 206.55C160.316 205.767 160.666 205.067 161.133 204.45C161.6 203.833 162.2 203.35 162.933 203C163.666 202.633 164.533 202.45 165.533 202.45C166.483 202.45 167.308 202.617 168.008 202.95C168.725 203.267 169.316 203.717 169.783 204.3C170.25 204.867 170.591 205.517 170.808 206.25C171.041 206.983 171.158 207.767 171.158 208.6C171.158 208.717 171.15 208.883 171.133 209.1C171.133 209.317 171.116 209.533 171.083 209.75H162.533C162.6 210.733 162.933 211.483 163.533 212C164.133 212.517 164.9 212.775 165.833 212.775C166.516 212.775 167.141 212.667 167.708 212.45C168.275 212.233 168.791 211.892 169.258 211.425L170.783 213.275C170.266 213.742 169.75 214.117 169.233 214.4C168.716 214.683 168.175 214.892 167.608 215.025C167.058 215.158 166.433 215.225 165.733 215.225ZM168.433 208.35C168.466 208.217 168.483 208.083 168.483 207.95C168.5 207.817 168.508 207.683 168.508 207.55C168.508 207.183 168.441 206.833 168.308 206.5C168.191 206.167 168.008 205.875 167.758 205.625C167.508 205.358 167.2 205.15 166.833 205C166.466 204.833 166.05 204.75 165.583 204.75C164.933 204.75 164.383 204.892 163.933 205.175C163.5 205.458 163.158 205.825 162.908 206.275C162.675 206.708 162.533 207.183 162.483 207.7H169.333L168.433 208.35ZM173.609 215V202.675H176.384V205.4L175.884 205.525C176.1 204.808 176.417 204.225 176.834 203.775C177.25 203.325 177.734 202.992 178.284 202.775C178.85 202.558 179.442 202.45 180.059 202.45C181.442 202.45 182.517 202.85 183.284 203.65C184.067 204.433 184.459 205.558 184.459 207.025V215H181.684V208.05C181.684 206.95 181.484 206.142 181.084 205.625C180.684 205.108 180.067 204.85 179.234 204.85C178.617 204.85 178.092 205 177.659 205.3C177.242 205.583 176.925 206.033 176.709 206.65C176.492 207.267 176.384 208.05 176.384 209V215H173.609ZM191.798 215.225C191.182 215.225 190.598 215.108 190.048 214.875C189.515 214.625 189.09 214.233 188.773 213.7C188.457 213.15 188.298 212.433 188.298 211.55V199.675L191.098 198.125V210.775C191.098 211.475 191.198 212.017 191.398 212.4C191.615 212.767 191.998 212.95 192.548 212.95C192.715 212.95 192.907 212.933 193.123 212.9C193.357 212.85 193.598 212.792 193.848 212.725V214.875C193.515 214.992 193.173 215.075 192.823 215.125C192.49 215.192 192.148 215.225 191.798 215.225ZM185.948 204.825V202.675H193.848V204.825H185.948ZM196.057 215V202.675H198.832V215H196.057ZM195.932 200.65V197.575H198.957V200.65H195.932ZM206.014 215.225C205.13 215.225 204.347 215.1 203.664 214.85C202.98 214.583 202.405 214.25 201.939 213.85C201.472 213.45 201.089 213.05 200.789 212.65L202.689 211C203.005 211.517 203.439 211.975 203.989 212.375C204.555 212.775 205.239 212.975 206.039 212.975C206.705 212.975 207.23 212.833 207.614 212.55C208.014 212.267 208.214 211.917 208.214 211.5C208.214 211.133 208.089 210.85 207.839 210.65C207.589 210.433 207.264 210.25 206.864 210.1C206.464 209.95 206.022 209.817 205.539 209.7C205.072 209.583 204.597 209.442 204.114 209.275C203.63 209.092 203.18 208.867 202.764 208.6C202.364 208.333 202.039 207.992 201.789 207.575C201.539 207.158 201.414 206.642 201.414 206.025C201.414 204.942 201.83 204.075 202.664 203.425C203.497 202.775 204.589 202.45 205.939 202.45C206.905 202.45 207.789 202.642 208.589 203.025C209.389 203.408 210.014 203.983 210.464 204.75L208.739 206.075C208.405 205.575 207.989 205.2 207.489 204.95C206.989 204.7 206.447 204.575 205.864 204.575C205.33 204.575 204.88 204.683 204.514 204.9C204.164 205.117 203.989 205.4 203.989 205.75C203.989 206.017 204.072 206.233 204.239 206.4C204.405 206.567 204.664 206.717 205.014 206.85C205.364 206.983 205.805 207.117 206.339 207.25C206.839 207.367 207.355 207.508 207.889 207.675C208.422 207.842 208.914 208.067 209.364 208.35C209.83 208.617 210.205 208.983 210.489 209.45C210.789 209.9 210.939 210.483 210.939 211.2C210.939 212 210.73 212.708 210.314 213.325C209.914 213.925 209.339 214.392 208.589 214.725C207.855 215.058 206.997 215.225 206.014 215.225ZM217.806 215.225C217.19 215.225 216.606 215.108 216.056 214.875C215.523 214.625 215.098 214.233 214.781 213.7C214.465 213.15 214.306 212.433 214.306 211.55V199.675L217.106 198.125V210.775C217.106 211.475 217.206 212.017 217.406 212.4C217.623 212.767 218.006 212.95 218.556 212.95C218.723 212.95 218.915 212.933 219.131 212.9C219.365 212.85 219.606 212.792 219.856 212.725V214.875C219.523 214.992 219.181 215.075 218.831 215.125C218.498 215.192 218.156 215.225 217.806 215.225ZM211.956 204.825V202.675H219.856V204.825H211.956ZM222.09 215V202.675H224.89V206L224.365 206.075C224.448 205.358 224.69 204.733 225.09 204.2C225.49 203.65 225.973 203.225 226.54 202.925C227.123 202.608 227.698 202.45 228.265 202.45C228.665 202.45 229.048 202.5 229.415 202.6C229.782 202.7 230.165 202.867 230.565 203.1L229.215 205.6C229.032 205.483 228.79 205.392 228.49 205.325C228.207 205.242 227.932 205.2 227.665 205.2C227.315 205.2 226.965 205.267 226.615 205.4C226.282 205.533 225.982 205.742 225.715 206.025C225.448 206.292 225.248 206.642 225.115 207.075C225.032 207.308 224.965 207.617 224.915 208C224.882 208.367 224.865 208.883 224.865 209.55V215H222.09ZM233.413 220.075L235.863 214.175L231.163 202.675H234.213L237.338 211.4L240.513 202.675H243.513L236.413 220.075H233.413ZM119.777 245L126.677 227.575H128.877L135.752 245H132.602L127.777 231.8L122.952 245H119.777ZM124.077 241.35L124.977 238.775H130.552L131.502 241.35H124.077ZM138.859 245L135.109 232.675H138.059L140.259 240.75L142.759 232.675H145.134L147.634 240.7L149.859 232.675H152.809L149.034 245H146.534L143.959 236.6L141.384 245H138.859ZM162.683 245L162.483 242.925V237.225C162.483 236.425 162.241 235.825 161.758 235.425C161.275 235.008 160.6 234.8 159.733 234.8C159.066 234.8 158.408 234.933 157.758 235.2C157.125 235.45 156.541 235.842 156.008 236.375L154.458 234.55C155.258 233.8 156.108 233.267 157.008 232.95C157.908 232.617 158.891 232.45 159.958 232.45C161.625 232.45 162.916 232.875 163.833 233.725C164.766 234.558 165.233 235.725 165.233 237.225V245H162.683ZM158.858 245.225C157.941 245.225 157.125 245.058 156.408 244.725C155.708 244.392 155.158 243.925 154.758 243.325C154.375 242.725 154.183 242.025 154.183 241.225C154.183 240.542 154.325 239.95 154.608 239.45C154.908 238.95 155.291 238.558 155.758 238.275C156.158 238.025 156.625 237.85 157.158 237.75C157.691 237.633 158.25 237.575 158.833 237.575H162.708V239.65H159.233C158.933 239.65 158.633 239.683 158.333 239.75C158.033 239.8 157.766 239.9 157.533 240.05C157.366 240.183 157.225 240.35 157.108 240.55C157.008 240.75 156.958 240.983 156.958 241.25C156.958 241.783 157.158 242.208 157.558 242.525C157.975 242.825 158.525 242.975 159.208 242.975C159.808 242.975 160.35 242.842 160.833 242.575C161.333 242.308 161.733 241.942 162.033 241.475C162.333 241.008 162.483 240.483 162.483 239.9L163.333 241.275C163.133 242.142 162.816 242.875 162.383 243.475C161.95 244.058 161.433 244.5 160.833 244.8C160.233 245.083 159.575 245.225 158.858 245.225ZM168.082 245V232.675H170.882V236L170.357 236.075C170.44 235.358 170.682 234.733 171.082 234.2C171.482 233.65 171.965 233.225 172.532 232.925C173.115 232.608 173.69 232.45 174.257 232.45C174.657 232.45 175.04 232.5 175.407 232.6C175.773 232.7 176.157 232.867 176.557 233.1L175.207 235.6C175.023 235.483 174.782 235.392 174.482 235.325C174.198 235.242 173.923 235.2 173.657 235.2C173.307 235.2 172.957 235.267 172.607 235.4C172.273 235.533 171.973 235.742 171.707 236.025C171.44 236.292 171.24 236.642 171.107 237.075C171.023 237.308 170.957 237.617 170.907 238C170.873 238.367 170.857 238.883 170.857 239.55V245H168.082ZM182.446 245.225C181.346 245.225 180.388 244.95 179.571 244.4C178.771 243.833 178.154 243.067 177.721 242.1C177.288 241.133 177.071 240.042 177.071 238.825C177.071 237.492 177.304 236.35 177.771 235.4C178.254 234.45 178.904 233.725 179.721 233.225C180.538 232.708 181.446 232.45 182.446 232.45C183.146 232.45 183.788 232.592 184.371 232.875C184.971 233.158 185.471 233.575 185.871 234.125C186.288 234.658 186.579 235.317 186.746 236.1L186.096 236.125V227.575H188.871V245H186.096V241.575L186.846 241.4C186.629 242.3 186.296 243.033 185.846 243.6C185.413 244.15 184.904 244.558 184.321 244.825C183.738 245.092 183.113 245.225 182.446 245.225ZM183.121 242.675C183.771 242.675 184.338 242.517 184.821 242.2C185.304 241.883 185.679 241.433 185.946 240.85C186.213 240.267 186.346 239.592 186.346 238.825C186.346 238.058 186.213 237.392 185.946 236.825C185.679 236.242 185.304 235.792 184.821 235.475C184.338 235.142 183.771 234.975 183.121 234.975C182.471 234.975 181.896 235.133 181.396 235.45C180.913 235.767 180.529 236.217 180.246 236.8C179.979 237.383 179.846 238.058 179.846 238.825C179.846 239.592 179.979 240.267 180.246 240.85C180.529 241.433 180.913 241.883 181.396 242.2C181.896 242.517 182.471 242.675 183.121 242.675Z" fill="white" style="fill:white;fill-opacity:1;"/>
</svg>
