<svg width="310" height="310" viewBox="0 0 310 310" fill="none" xmlns="http://www.w3.org/2000/svg">
<path d="M147.651 1.92236C152.217 -0.640785 157.783 -0.640785 162.349 1.92236L188.281 16.4702C190.473 17.7017 192.937 18.3625 195.44 18.3925L225.166 18.763C230.402 18.8231 235.218 21.6065 237.892 26.112L253.08 51.6733C254.362 53.836 256.164 55.6382 258.327 56.9198L283.888 72.1084C288.384 74.7817 291.167 79.5976 291.237 84.834L291.607 114.56C291.638 117.074 292.298 119.537 293.53 121.719L308.078 147.651C310.641 152.217 310.641 157.783 308.078 162.349L293.53 188.281C292.298 190.473 291.638 192.936 291.607 195.44L291.237 225.166C291.167 230.402 288.384 235.218 283.888 237.892L258.327 253.08C256.174 254.362 254.362 256.164 253.08 258.327L237.892 283.888C235.218 288.383 230.392 291.167 225.166 291.237L195.44 291.607C192.927 291.637 190.463 292.298 188.281 293.53L162.349 308.078C157.783 310.641 152.217 310.641 147.651 308.078L121.719 293.53C119.527 292.298 117.064 291.637 114.56 291.607L84.834 291.237C79.5976 291.167 74.7817 288.383 72.1084 283.888L56.9198 258.327C55.6382 256.174 53.836 254.362 51.6733 253.08L26.112 237.892C21.6165 235.218 18.8331 230.392 18.763 225.166L18.3925 195.44C18.3625 192.926 17.7017 190.463 16.4702 188.281L1.92236 162.349C-0.640786 157.783 -0.640786 152.217 1.92236 147.651L16.4702 121.719C17.7017 119.527 18.3625 117.063 18.3925 114.56L18.763 84.834C18.8231 79.5976 21.6065 74.7817 26.112 72.1084L51.6733 56.9198C53.836 55.6382 55.6382 53.836 56.9198 51.6733L72.1084 26.112C74.7817 21.6165 79.5976 18.8331 84.834 18.763L114.56 18.3925C117.074 18.3625 119.537 17.7017 121.719 16.4702L147.651 1.92236Z" fill="#227DF5" style="fill:#227DF5;fill:color(display-p3 0.1333 0.4919 0.9608);fill-opacity:1;"/>
<path d="M155 300C152.474 300 149.958 299.373 147.7 298.1L124.03 284.823C121.862 283.61 119.405 282.944 116.919 282.914L89.7776 282.576C84.6159 282.516 79.7725 279.712 77.1369 275.276L63.2729 251.934C61.9999 249.796 60.1998 247.996 58.0615 246.723L34.7195 232.859C30.2838 230.224 27.4891 225.38 27.4195 220.219L27.0813 193.078C27.0515 190.592 26.3951 188.135 25.1718 185.967L11.8946 162.297C9.36846 157.792 9.36846 152.203 11.8946 147.698L25.1718 124.028C26.3852 121.86 27.0515 119.403 27.0813 116.917L27.4195 89.7762C27.4792 84.6146 30.2838 79.7713 34.7195 77.1357L58.0615 63.272C60.1998 61.999 61.9999 60.1989 63.2729 58.0607L77.1369 34.719C79.7725 30.2834 84.6159 27.4888 89.7776 27.4192L116.919 27.0811C119.405 27.0512 121.862 26.3948 124.03 25.1716L147.7 11.8946C152.205 9.36847 157.795 9.36847 162.3 11.8946L185.97 25.1716C188.138 26.3849 190.595 27.0512 193.081 27.0811L220.222 27.4192C225.384 27.4789 230.228 30.2834 232.863 34.719L246.727 58.0607C248 60.1989 249.8 61.999 251.939 63.272L275.281 77.1357C279.716 79.7713 282.511 84.6146 282.58 89.7762L282.919 116.917C282.949 119.403 283.605 121.86 284.828 124.028L298.105 147.698C300.632 152.203 300.632 157.792 298.105 162.297L284.828 185.967C283.615 188.135 282.958 190.592 282.919 193.078L282.58 220.219C282.521 225.38 279.716 230.224 275.281 232.859L251.939 246.723C249.8 247.996 248 249.796 246.727 251.934L232.863 275.276C230.228 279.712 225.384 282.506 220.222 282.576L193.081 282.914C190.595 282.944 188.138 283.6 185.97 284.823L162.3 298.1C160.052 299.363 157.526 300 155 300ZM155 12.004C152.812 12.004 150.624 12.551 148.675 13.645L125.004 26.9219C122.548 28.3043 119.763 29.0502 116.939 29.0801L89.7975 29.4182C85.322 29.4779 81.125 31.8946 78.8376 35.7434L64.9736 59.085C63.5315 61.5117 61.4927 63.5505 59.0759 64.9826L35.7339 78.8463C31.885 81.1338 29.4683 85.3307 29.4086 89.8061L29.0704 116.947C29.0406 119.761 28.2848 122.556 26.9123 125.012L13.6351 148.682C11.4471 152.581 11.4471 157.434 13.6351 161.333L26.9123 185.003C28.2947 187.459 29.0406 190.254 29.0704 193.068L29.4086 220.209C29.4683 224.684 31.885 228.881 35.7339 231.169L59.0759 245.032C61.5026 246.474 63.5414 248.513 64.9736 250.93L78.8376 274.272C81.125 278.12 85.322 280.537 89.7975 280.597L116.939 280.935C119.753 280.965 122.538 281.721 125.004 283.093L148.675 296.37C152.573 298.558 157.427 298.558 161.325 296.37L184.996 283.093C187.452 281.711 190.247 280.965 193.061 280.935L220.202 280.597C224.678 280.537 228.875 278.12 231.162 274.272L245.026 250.93C246.469 248.503 248.507 246.464 250.924 245.032L274.266 231.169C278.115 228.881 280.532 224.684 280.591 220.209L280.93 193.068C280.969 190.254 281.715 187.459 283.088 185.003L296.365 161.333C298.553 157.434 298.553 152.581 296.365 148.682L283.088 125.012C281.705 122.556 280.959 119.771 280.93 116.947L280.591 89.8061C280.532 85.3307 278.115 81.1338 274.266 78.8463L250.924 64.9826C248.497 63.5405 246.459 61.5017 245.026 59.085L231.162 35.7434C228.875 31.8946 224.678 29.4779 220.202 29.4182L193.061 29.0801C190.247 29.0403 187.462 28.2944 184.996 26.9219L161.325 13.645C159.376 12.551 157.188 12.004 155 12.004Z" fill="white" style="fill:white;fill-opacity:1;"/>
<path d="M177.276 99.6776L191.134 96.5392H191.144C194.638 95.7497 197.776 98.6512 196.829 101.8L192.21 117.146C191.588 119.209 189.762 120.808 187.423 121.064C175.5 122.357 164.179 118.834 155 112.014C145.821 118.834 134.5 122.357 122.577 121.064C120.238 120.808 118.412 119.199 117.79 117.146L113.171 101.8C112.224 98.6512 115.362 95.7497 118.856 96.5392L132.714 99.6776C134.855 100.161 137.116 99.5888 138.675 98.1775L151.664 86.4034C153.51 84.7355 156.49 84.7355 158.326 86.4034L171.315 98.1775C172.874 99.5987 175.135 100.161 177.276 99.6776Z" fill="white" style="fill:white;fill-opacity:1;"/>
<path d="M156.441 124.39C161.426 127.144 170.644 131.536 183.82 131.2C186.051 131.141 187.828 133.016 187.245 134.96L182.064 150.959C180.929 154.739 176.378 156.367 172.815 154.146L157.655 144.702C156.056 143.705 153.934 143.705 152.325 144.702L137.55 154.146C133.987 156.367 129.072 154.739 127.937 150.959L122.745 134.96C122.163 133.016 123.939 131.141 126.17 131.2C139.346 131.536 148.555 127.144 153.549 124.39C154.487 123.867 155.523 123.877 156.441 124.39Z" fill="white" style="fill:white;fill-opacity:1;"/>
<path d="M148.91 59.5801L146.42 59.76L146.02 54.2301L138.9 43.52L141.67 43.3201L147.07 51.3501L151.23 42.63L154.09 42.42L148.51 54.01L148.92 59.5901L148.91 59.5801Z" fill="white" style="fill:white;fill-opacity:1;"/>
<path d="M133.22 61.6001L135.55 60.9401L135.56 60.9301L130.98 44.8201L128.89 45.41L126.21 59.3501L116.62 48.9L114.51 49.5001L119.09 65.6101L121.42 64.9501L118.39 54.3L126.76 63.4401L127.9 63.1101L130.19 50.9501L133.22 61.6001Z" fill="white" style="fill:white;fill-opacity:1;"/>
<path d="M104.12 72.98L94.5503 70.66L93.8198 71.12L97.5601 77.09L95.4502 78.42L86.5601 64.23L88.6699 62.9L92.52 69.04L93.0898 68.6801L95.0303 58.91L97.6602 57.26L95.5103 68.53L106.99 71.1801L104.13 72.98H104.12Z" fill="white" style="fill:white;fill-opacity:1;"/>
<path d="M88.8799 83.53L90.4497 82.1101L79.1997 69.7001L77.3296 71.3901L85.5396 80.4501L70.3496 77.7201L68.7798 79.1401L80.0298 91.55L81.8799 89.8701L73.8096 80.9601L88.8799 83.53Z" fill="white" style="fill:white;fill-opacity:1;"/>
<path fill-rule="evenodd" clip-rule="evenodd" d="M75.2202 96.9601L71.2002 95.77L66.52 101.76L68.6499 105.37L66.9902 107.5L58.02 91.77L59.4502 89.9301L76.8799 94.8201L75.2202 96.9501V96.9601ZM61.3198 92.88L65.2002 99.49L68.6699 95.04L61.3198 92.88Z" fill="white" style="fill:white;fill-opacity:1;"/>
<path fill-rule="evenodd" clip-rule="evenodd" d="M63.6499 113.11L55.1201 114.78L54.0298 116.76L59.8799 119.97L58.6802 122.16L44 114.09L47.54 107.65C49.0898 104.83 51.8999 103.93 54.5498 105.38C57.0698 106.76 57.8398 109.42 56.5601 112.1L65.1499 110.38L63.6602 113.1L63.6499 113.11ZM54.2402 111.35C55.0698 109.84 54.7002 108.33 53.3398 107.58C51.96 106.82 50.4902 107.32 49.6602 108.83L47.3198 113.08L51.8999 115.6L54.2402 111.35Z" fill="white" style="fill:white;fill-opacity:1;"/>
<path fill-rule="evenodd" clip-rule="evenodd" d="M184.08 54.64C185.04 49.86 182.48 45.78 177.27 44.73V44.74L171.92 43.66L168.62 60.0801L173.97 61.15C179.18 62.2001 183.12 59.42 184.08 54.64ZM181.6 54.15C180.92 57.5601 178.17 59.53 174.44 58.78L174.43 58.77L171.53 58.1901L173.88 46.53L176.78 47.11C180.51 47.86 182.29 50.74 181.6 54.15Z" fill="white" style="fill:white;fill-opacity:1;"/>
<path d="M198.43 68.88L187.63 64.5701L193.84 49.01L204.62 53.3101L203.72 55.5601L195.25 52.1801L193.5 56.5701L201.32 59.6901L200.43 61.92L192.61 58.8L190.84 63.24L199.33 66.63L198.43 68.88Z" fill="white" style="fill:white;fill-opacity:1;"/>
<path d="M213.7 77.7301L215.5 78.8501L224.37 64.65L222.23 63.3201L215.75 73.6801L214.24 58.3201L212.44 57.2001L203.57 71.4L205.69 72.7201L212.06 62.53L213.7 77.7301Z" fill="white" style="fill:white;fill-opacity:1;"/>
<path d="M234.95 76.51L225.4 87.1899L223.52 85.51L233.07 74.83L228.99 71.1799L230.61 69.37L240.67 78.37L239.05 80.1799L234.95 76.51Z" fill="white" style="fill:white;fill-opacity:1;"/>
<path d="M245.45 83.64L232.91 94.74L234.56 96.61L247.1 85.51L245.45 83.64Z" fill="white" style="fill:white;fill-opacity:1;"/>
<path d="M255.47 103.84L253.59 102.11C254.88 100.86 255.03 99.03 253.96 97.5C252.9 95.99 251.33 95.61 250.12 96.46C249.16 97.13 249.01 98.01 249.54 99.29L250.84 102.5C251.73 104.73 251.54 106.9 249.39 108.41C246.81 110.22 243.82 109.38 241.76 106.44C239.86 103.73 239.7 100.48 242.13 98.3L244.15 100.13C242.6 101.67 242.64 103.55 243.84 105.27C245.04 106.99 246.6 107.35 247.85 106.47C248.89 105.74 249.03 104.88 248.42 103.4L247.08 100.18C246.36 98.3199 246.11 96.0499 248.55 94.34C250.97 92.65 253.9 93.36 255.89 96.2C257.71 98.7999 257.5 101.73 255.47 103.84Z" fill="white" style="fill:white;fill-opacity:1;"/>
<path d="M251.16 121.66L263.94 115.19L266.43 120.09L268.59 118.99L262.49 106.95L260.33 108.05L262.8 112.94L250.02 119.41L251.16 121.66Z" fill="white" style="fill:white;fill-opacity:1;"/>
<path d="M134.922 272.19V271.254C135.194 271.038 135.51 270.798 135.87 270.534C136.23 270.27 136.594 269.982 136.962 269.67C137.338 269.358 137.686 269.026 138.006 268.674C138.326 268.322 138.582 267.954 138.774 267.57C138.974 267.178 139.074 266.778 139.074 266.37C139.074 265.93 138.954 265.574 138.714 265.302C138.474 265.022 138.114 264.882 137.634 264.882C137.274 264.882 136.974 264.966 136.734 265.134C136.502 265.302 136.33 265.53 136.218 265.818C136.106 266.106 136.046 266.426 136.038 266.778L134.886 266.694C134.886 266.302 134.946 265.93 135.066 265.578C135.186 265.226 135.362 264.914 135.594 264.642C135.834 264.362 136.126 264.142 136.47 263.982C136.822 263.822 137.222 263.742 137.67 263.742C138.182 263.742 138.626 263.85 139.002 264.066C139.386 264.282 139.686 264.582 139.902 264.966C140.118 265.35 140.226 265.802 140.226 266.322C140.226 266.762 140.146 267.186 139.986 267.594C139.834 268.002 139.618 268.394 139.338 268.77C139.058 269.138 138.734 269.486 138.366 269.814C137.998 270.142 137.602 270.454 137.178 270.75C136.754 271.038 136.314 271.302 135.858 271.542L136.17 271.098H140.562V272.19H134.922Z" fill="white" style="fill:white;fill-opacity:1;"/>
<path d="M149.269 272.286C148.781 272.286 148.369 272.198 148.033 272.022C147.705 271.846 147.433 271.61 147.217 271.314C147.009 271.01 146.849 270.674 146.737 270.306C146.633 269.93 146.561 269.542 146.521 269.142C146.481 268.734 146.461 268.346 146.461 267.978C146.461 267.61 146.477 267.23 146.509 266.838C146.549 266.438 146.621 266.054 146.725 265.686C146.837 265.31 146.997 264.974 147.205 264.678C147.413 264.382 147.681 264.146 148.009 263.97C148.345 263.794 148.753 263.706 149.233 263.706C149.705 263.706 150.105 263.794 150.433 263.97C150.761 264.138 151.029 264.366 151.237 264.654C151.453 264.942 151.617 265.27 151.729 265.638C151.841 266.006 151.917 266.394 151.957 266.802C152.005 267.202 152.029 267.594 152.029 267.978C152.029 268.378 152.005 268.782 151.957 269.19C151.917 269.598 151.837 269.986 151.717 270.354C151.605 270.722 151.445 271.054 151.237 271.35C151.029 271.638 150.765 271.866 150.445 272.034C150.125 272.202 149.733 272.286 149.269 272.286ZM149.269 271.158C149.669 271.158 149.981 271.018 150.205 270.738C150.437 270.458 150.601 270.082 150.697 269.61C150.793 269.138 150.841 268.61 150.841 268.026C150.841 267.41 150.789 266.866 150.685 266.394C150.589 265.914 150.425 265.534 150.193 265.254C149.961 264.974 149.641 264.834 149.233 264.834C148.913 264.834 148.649 264.918 148.441 265.086C148.241 265.254 148.085 265.486 147.973 265.782C147.861 266.078 147.781 266.418 147.733 266.802C147.685 267.178 147.661 267.582 147.661 268.014C147.661 268.43 147.685 268.826 147.733 269.202C147.781 269.578 147.861 269.914 147.973 270.21C148.093 270.498 148.257 270.73 148.465 270.906C148.673 271.074 148.941 271.158 149.269 271.158Z" fill="white" style="fill:white;fill-opacity:1;"/>
<path d="M157.952 272.19V271.254C158.224 271.038 158.54 270.798 158.9 270.534C159.26 270.27 159.624 269.982 159.992 269.67C160.368 269.358 160.716 269.026 161.036 268.674C161.356 268.322 161.612 267.954 161.804 267.57C162.004 267.178 162.104 266.778 162.104 266.37C162.104 265.93 161.984 265.574 161.744 265.302C161.504 265.022 161.144 264.882 160.664 264.882C160.304 264.882 160.004 264.966 159.764 265.134C159.532 265.302 159.36 265.53 159.248 265.818C159.136 266.106 159.076 266.426 159.068 266.778L157.916 266.694C157.916 266.302 157.976 265.93 158.096 265.578C158.216 265.226 158.392 264.914 158.624 264.642C158.864 264.362 159.156 264.142 159.5 263.982C159.852 263.822 160.252 263.742 160.7 263.742C161.212 263.742 161.656 263.85 162.032 264.066C162.416 264.282 162.716 264.582 162.932 264.966C163.148 265.35 163.256 265.802 163.256 266.322C163.256 266.762 163.176 267.186 163.016 267.594C162.864 268.002 162.648 268.394 162.368 268.77C162.088 269.138 161.764 269.486 161.396 269.814C161.028 270.142 160.632 270.454 160.208 270.75C159.784 271.038 159.344 271.302 158.888 271.542L159.2 271.098H163.592V272.19H157.952Z" fill="white" style="fill:white;fill-opacity:1;"/>
<path d="M172.251 272.298C171.747 272.298 171.283 272.19 170.859 271.974C170.443 271.758 170.099 271.466 169.827 271.098C169.555 270.722 169.379 270.298 169.299 269.826L170.451 269.622C170.499 269.894 170.595 270.15 170.739 270.39C170.891 270.63 171.091 270.822 171.339 270.966C171.595 271.102 171.891 271.17 172.227 271.17C172.611 271.17 172.931 271.082 173.187 270.906C173.451 270.722 173.651 270.49 173.787 270.21C173.923 269.922 173.991 269.618 173.991 269.298C173.991 268.994 173.927 268.714 173.799 268.458C173.671 268.202 173.479 267.998 173.223 267.846C172.975 267.686 172.663 267.606 172.287 267.606C171.943 267.606 171.635 267.686 171.363 267.846C171.099 267.998 170.875 268.21 170.691 268.482L169.551 268.182L170.343 263.826H174.855V264.918H170.775L171.399 264.426L170.835 267.522L170.487 267.438C170.799 267.078 171.123 266.834 171.459 266.706C171.803 266.57 172.135 266.502 172.455 266.502C172.999 266.502 173.479 266.63 173.895 266.886C174.319 267.142 174.647 267.482 174.879 267.906C175.111 268.33 175.227 268.794 175.227 269.298C175.227 269.698 175.155 270.078 175.011 270.438C174.867 270.798 174.659 271.118 174.387 271.398C174.123 271.678 173.807 271.898 173.439 272.058C173.079 272.218 172.683 272.298 172.251 272.298Z" fill="white" style="fill:white;fill-opacity:1;"/>
<path d="M41 147.61L42.8887 152.721L48 154.61L42.8887 156.499L41 161.61L39.1113 156.499L34 154.61L39.1113 152.721L41 147.61Z" fill="white" style="fill:white;fill-opacity:1;"/>
<path d="M269 147.61L270.889 152.721L276 154.61L270.889 156.499L269 161.61L267.111 156.499L262 154.61L267.111 152.721L269 147.61Z" fill="white" style="fill:white;fill-opacity:1;"/>
<path fill-rule="evenodd" clip-rule="evenodd" d="M265 178H45V177H265V178Z" fill="white" style="fill:white;fill-opacity:1;"/>
<path d="M41.2668 215V197.575H52.8418V200.15H44.1668V204.775H52.1668V207.375H44.1668V212.425H52.8418V215H41.2668ZM55.3688 215V202.675H58.1438V205.875L57.5438 206.225C57.6938 205.508 57.9021 204.908 58.1688 204.425C58.4521 203.942 58.7771 203.558 59.1438 203.275C59.5104 202.975 59.9021 202.767 60.3188 202.65C60.7521 202.517 61.1854 202.45 61.6188 202.45C62.2854 202.45 62.9104 202.583 63.4938 202.85C64.0771 203.1 64.5688 203.517 64.9688 204.1C65.3854 204.667 65.6688 205.442 65.8188 206.425L64.1938 206.875C64.4438 205.808 64.7938 204.958 65.2438 204.325C65.6938 203.675 66.2188 203.2 66.8188 202.9C67.4354 202.6 68.1021 202.45 68.8188 202.45C69.8688 202.45 70.7104 202.683 71.3438 203.15C71.9938 203.6 72.4688 204.2 72.7688 204.95C73.0688 205.683 73.2188 206.475 73.2188 207.325V215H70.4438V208C70.4438 207.317 70.3604 206.742 70.1938 206.275C70.0438 205.808 69.8021 205.458 69.4688 205.225C69.1354 204.975 68.7104 204.85 68.1938 204.85C67.6438 204.85 67.1854 204.992 66.8188 205.275C66.4521 205.542 66.1688 205.958 65.9688 206.525C65.7854 207.092 65.6938 207.792 65.6938 208.625V215H62.9188V207.875C62.9188 206.858 62.7271 206.1 62.3438 205.6C61.9604 205.1 61.4188 204.85 60.7188 204.85C60.1688 204.85 59.7021 204.992 59.3188 205.275C58.9354 205.558 58.6438 205.983 58.4438 206.55C58.2438 207.1 58.1438 207.792 58.1438 208.625V215H55.3688ZM81.466 215.225C80.4327 215.225 79.5327 215.058 78.766 214.725C78.016 214.392 77.3994 213.925 76.916 213.325C76.4327 212.725 76.0744 212.05 75.841 211.3C75.6077 210.533 75.491 209.742 75.491 208.925C75.491 208.108 75.5994 207.317 75.816 206.55C76.0494 205.767 76.3994 205.067 76.866 204.45C77.3327 203.833 77.9327 203.35 78.666 203C79.3994 202.633 80.266 202.45 81.266 202.45C82.216 202.45 83.041 202.617 83.741 202.95C84.4577 203.267 85.0494 203.717 85.516 204.3C85.9827 204.867 86.3244 205.517 86.541 206.25C86.7744 206.983 86.891 207.767 86.891 208.6C86.891 208.717 86.8827 208.883 86.866 209.1C86.866 209.317 86.8494 209.533 86.816 209.75H78.266C78.3327 210.733 78.666 211.483 79.266 212C79.866 212.517 80.6327 212.775 81.566 212.775C82.2494 212.775 82.8744 212.667 83.441 212.45C84.0077 212.233 84.5244 211.892 84.991 211.425L86.516 213.275C85.9994 213.742 85.4827 214.117 84.966 214.4C84.4494 214.683 83.9077 214.892 83.341 215.025C82.791 215.158 82.166 215.225 81.466 215.225ZM84.166 208.35C84.1994 208.217 84.216 208.083 84.216 207.95C84.2327 207.817 84.241 207.683 84.241 207.55C84.241 207.183 84.1744 206.833 84.041 206.5C83.9244 206.167 83.741 205.875 83.491 205.625C83.241 205.358 82.9327 205.15 82.566 205C82.1994 204.833 81.7827 204.75 81.316 204.75C80.666 204.75 80.116 204.892 79.666 205.175C79.2327 205.458 78.891 205.825 78.641 206.275C78.4077 206.708 78.266 207.183 78.216 207.7H85.066L84.166 208.35ZM89.3414 215V202.675H92.1414V206L91.6164 206.075C91.6998 205.358 91.9414 204.733 92.3414 204.2C92.7414 203.65 93.2248 203.225 93.7914 202.925C94.3748 202.608 94.9498 202.45 95.5164 202.45C95.9164 202.45 96.2998 202.5 96.6664 202.6C97.0331 202.7 97.4164 202.867 97.8164 203.1L96.4664 205.6C96.2831 205.483 96.0414 205.392 95.7414 205.325C95.4581 205.242 95.1831 205.2 94.9164 205.2C94.5664 205.2 94.2164 205.267 93.8664 205.4C93.5331 205.533 93.2331 205.742 92.9664 206.025C92.6998 206.292 92.4998 206.642 92.3664 207.075C92.2831 207.308 92.2164 207.617 92.1664 208C92.1331 208.367 92.1164 208.883 92.1164 209.55V215H89.3414ZM104.153 220.35C102.336 220.35 100.903 220.017 99.853 219.35C98.803 218.7 98.278 217.808 98.278 216.675C98.278 216.575 98.278 216.458 98.278 216.325C98.2946 216.192 98.3196 216.058 98.353 215.925L101.703 213.75L102.453 214.475L100.828 216.5C100.811 216.55 100.803 216.592 100.803 216.625C100.803 216.675 100.803 216.725 100.803 216.775C100.803 217.292 101.111 217.683 101.728 217.95C102.361 218.233 103.17 218.375 104.153 218.375C104.986 218.375 105.653 218.258 106.153 218.025C106.653 217.808 106.903 217.475 106.903 217.025C106.903 216.775 106.828 216.567 106.678 216.4C106.528 216.25 106.303 216.125 106.003 216.025C105.703 215.925 105.328 215.833 104.878 215.75C104.445 215.683 103.928 215.617 103.328 215.55C102.578 215.433 101.836 215.267 101.103 215.05C100.386 214.833 99.7863 214.508 99.303 214.075C98.8363 213.642 98.603 213.067 98.603 212.35C98.603 211.717 98.8196 211.142 99.253 210.625C99.6863 210.092 100.261 209.658 100.978 209.325L102.403 210.425C101.936 210.525 101.586 210.7 101.353 210.95C101.12 211.183 101.003 211.467 101.003 211.8C101.003 212.083 101.111 212.317 101.328 212.5C101.545 212.667 101.853 212.8 102.253 212.9C102.67 212.983 103.161 213.067 103.728 213.15C104.578 213.25 105.361 213.367 106.078 213.5C106.795 213.633 107.42 213.825 107.953 214.075C108.486 214.308 108.895 214.633 109.178 215.05C109.478 215.467 109.628 216.008 109.628 216.675C109.628 217.858 109.145 218.767 108.178 219.4C107.228 220.033 105.886 220.35 104.153 220.35ZM103.878 211.425C102.878 211.425 101.995 211.233 101.228 210.85C100.461 210.467 99.8613 209.942 99.428 209.275C99.0113 208.592 98.803 207.825 98.803 206.975C98.803 206.058 99.028 205.267 99.478 204.6C99.928 203.917 100.528 203.392 101.278 203.025C102.045 202.642 102.878 202.45 103.778 202.45C104.678 202.45 105.503 202.642 106.253 203.025C107.003 203.392 107.603 203.925 108.053 204.625C108.52 205.308 108.753 206.125 108.753 207.075C108.753 207.942 108.545 208.708 108.128 209.375C107.728 210.025 107.161 210.533 106.428 210.9C105.695 211.25 104.845 211.425 103.878 211.425ZM103.828 209.2C104.545 209.2 105.086 208.983 105.453 208.55C105.82 208.1 106.003 207.567 106.003 206.95C106.003 206.283 105.803 205.75 105.403 205.35C105.003 204.933 104.478 204.725 103.828 204.725C103.145 204.725 102.595 204.933 102.178 205.35C101.778 205.75 101.578 206.275 101.578 206.925C101.578 207.558 101.77 208.1 102.153 208.55C102.536 208.983 103.095 209.2 103.828 209.2ZM107.953 205.175L105.928 203.875L108.703 201.625L110.128 203.35L107.953 205.175ZM116.898 215.225C115.864 215.225 114.964 215.058 114.198 214.725C113.448 214.392 112.831 213.925 112.348 213.325C111.864 212.725 111.506 212.05 111.273 211.3C111.039 210.533 110.923 209.742 110.923 208.925C110.923 208.108 111.031 207.317 111.248 206.55C111.481 205.767 111.831 205.067 112.298 204.45C112.764 203.833 113.364 203.35 114.098 203C114.831 202.633 115.698 202.45 116.698 202.45C117.648 202.45 118.473 202.617 119.173 202.95C119.889 203.267 120.481 203.717 120.948 204.3C121.414 204.867 121.756 205.517 121.973 206.25C122.206 206.983 122.323 207.767 122.323 208.6C122.323 208.717 122.314 208.883 122.298 209.1C122.298 209.317 122.281 209.533 122.248 209.75H113.698C113.764 210.733 114.098 211.483 114.698 212C115.298 212.517 116.064 212.775 116.998 212.775C117.681 212.775 118.306 212.667 118.873 212.45C119.439 212.233 119.956 211.892 120.423 211.425L121.948 213.275C121.431 213.742 120.914 214.117 120.398 214.4C119.881 214.683 119.339 214.892 118.773 215.025C118.223 215.158 117.598 215.225 116.898 215.225ZM119.598 208.35C119.631 208.217 119.648 208.083 119.648 207.95C119.664 207.817 119.673 207.683 119.673 207.55C119.673 207.183 119.606 206.833 119.473 206.5C119.356 206.167 119.173 205.875 118.923 205.625C118.673 205.358 118.364 205.15 117.998 205C117.631 204.833 117.214 204.75 116.748 204.75C116.098 204.75 115.548 204.892 115.098 205.175C114.664 205.458 114.323 205.825 114.073 206.275C113.839 206.708 113.698 207.183 113.648 207.7H120.498L119.598 208.35ZM124.773 215V202.675H127.548V205.4L127.048 205.525C127.265 204.808 127.581 204.225 127.998 203.775C128.415 203.325 128.898 202.992 129.448 202.775C130.015 202.558 130.606 202.45 131.223 202.45C132.606 202.45 133.681 202.85 134.448 203.65C135.231 204.433 135.623 205.558 135.623 207.025V215H132.848V208.05C132.848 206.95 132.648 206.142 132.248 205.625C131.848 205.108 131.231 204.85 130.398 204.85C129.781 204.85 129.256 205 128.823 205.3C128.406 205.583 128.09 206.033 127.873 206.65C127.656 207.267 127.548 208.05 127.548 209V215H124.773ZM143.813 215.225C142.846 215.225 141.988 215.058 141.238 214.725C140.505 214.375 139.888 213.9 139.388 213.3C138.905 212.683 138.538 211.992 138.288 211.225C138.038 210.458 137.913 209.658 137.913 208.825C137.913 207.992 138.038 207.192 138.288 206.425C138.538 205.658 138.905 204.975 139.388 204.375C139.888 203.775 140.505 203.308 141.238 202.975C141.988 202.625 142.846 202.45 143.813 202.45C145.03 202.45 146.088 202.742 146.988 203.325C147.905 203.908 148.58 204.808 149.013 206.025L146.563 206.975C146.363 206.342 146.038 205.833 145.588 205.45C145.138 205.05 144.546 204.85 143.813 204.85C143.08 204.85 142.48 205.042 142.013 205.425C141.563 205.808 141.23 206.3 141.013 206.9C140.796 207.5 140.688 208.142 140.688 208.825C140.688 209.508 140.796 210.158 141.013 210.775C141.23 211.375 141.563 211.867 142.013 212.25C142.48 212.617 143.08 212.8 143.813 212.8C144.546 212.8 145.138 212.608 145.588 212.225C146.038 211.842 146.363 211.333 146.563 210.7L149.013 211.65C148.58 212.85 147.905 213.75 146.988 214.35C146.088 214.933 145.03 215.225 143.813 215.225ZM152.301 220.075L154.751 214.175L150.051 202.675H153.101L156.226 211.4L159.401 202.675H162.401L155.301 220.075H152.301ZM170.627 215V197.575H175.627C178.494 197.575 180.719 198.35 182.302 199.9C183.886 201.433 184.677 203.608 184.677 206.425C184.677 209.192 183.894 211.317 182.327 212.8C180.777 214.267 178.536 215 175.602 215H170.627ZM173.527 212.35H175.327C176.677 212.35 177.836 212.167 178.802 211.8C179.769 211.417 180.502 210.783 181.002 209.9C181.502 209.017 181.752 207.825 181.752 206.325C181.752 204.825 181.502 203.633 181.002 202.75C180.519 201.85 179.811 201.208 178.877 200.825C177.961 200.425 176.861 200.225 175.577 200.225H173.527V212.35ZM192.522 215.225C191.488 215.225 190.588 215.058 189.822 214.725C189.072 214.392 188.455 213.925 187.972 213.325C187.488 212.725 187.13 212.05 186.897 211.3C186.663 210.533 186.547 209.742 186.547 208.925C186.547 208.108 186.655 207.317 186.872 206.55C187.105 205.767 187.455 205.067 187.922 204.45C188.388 203.833 188.988 203.35 189.722 203C190.455 202.633 191.322 202.45 192.322 202.45C193.272 202.45 194.097 202.617 194.797 202.95C195.513 203.267 196.105 203.717 196.572 204.3C197.038 204.867 197.38 205.517 197.597 206.25C197.83 206.983 197.947 207.767 197.947 208.6C197.947 208.717 197.938 208.883 197.922 209.1C197.922 209.317 197.905 209.533 197.872 209.75H189.322C189.388 210.733 189.722 211.483 190.322 212C190.922 212.517 191.688 212.775 192.622 212.775C193.305 212.775 193.93 212.667 194.497 212.45C195.063 212.233 195.58 211.892 196.047 211.425L197.572 213.275C197.055 213.742 196.538 214.117 196.022 214.4C195.505 214.683 194.963 214.892 194.397 215.025C193.847 215.158 193.222 215.225 192.522 215.225ZM195.222 208.35C195.255 208.217 195.272 208.083 195.272 207.95C195.288 207.817 195.297 207.683 195.297 207.55C195.297 207.183 195.23 206.833 195.097 206.5C194.98 206.167 194.797 205.875 194.547 205.625C194.297 205.358 193.988 205.15 193.622 205C193.255 204.833 192.838 204.75 192.372 204.75C191.722 204.75 191.172 204.892 190.722 205.175C190.288 205.458 189.947 205.825 189.697 206.275C189.463 206.708 189.322 207.183 189.272 207.7H196.122L195.222 208.35ZM200.397 215V202.675H203.172V205.4L202.672 205.525C202.889 204.808 203.205 204.225 203.622 203.775C204.039 203.325 204.522 202.992 205.072 202.775C205.639 202.558 206.23 202.45 206.847 202.45C208.23 202.45 209.305 202.85 210.072 203.65C210.855 204.433 211.247 205.558 211.247 207.025V215H208.472V208.05C208.472 206.95 208.272 206.142 207.872 205.625C207.472 205.108 206.855 204.85 206.022 204.85C205.405 204.85 204.88 205 204.447 205.3C204.03 205.583 203.714 206.033 203.497 206.65C203.28 207.267 203.172 208.05 203.172 209V215H200.397ZM218.587 215.225C217.97 215.225 217.387 215.108 216.837 214.875C216.304 214.625 215.879 214.233 215.562 213.7C215.245 213.15 215.087 212.433 215.087 211.55V199.675L217.887 198.125V210.775C217.887 211.475 217.987 212.017 218.187 212.4C218.404 212.767 218.787 212.95 219.337 212.95C219.504 212.95 219.695 212.933 219.912 212.9C220.145 212.85 220.387 212.792 220.637 212.725V214.875C220.304 214.992 219.962 215.075 219.612 215.125C219.279 215.192 218.937 215.225 218.587 215.225ZM212.737 204.825V202.675H220.637V204.825H212.737ZM222.846 215V202.675H225.621V215H222.846ZM222.721 200.65V197.575H225.746V200.65H222.721ZM232.802 215.225C231.919 215.225 231.136 215.1 230.452 214.85C229.769 214.583 229.194 214.25 228.727 213.85C228.261 213.45 227.877 213.05 227.577 212.65L229.477 211C229.794 211.517 230.227 211.975 230.777 212.375C231.344 212.775 232.027 212.975 232.827 212.975C233.494 212.975 234.019 212.833 234.402 212.55C234.802 212.267 235.002 211.917 235.002 211.5C235.002 211.133 234.877 210.85 234.627 210.65C234.377 210.433 234.052 210.25 233.652 210.1C233.252 209.95 232.811 209.817 232.327 209.7C231.861 209.583 231.386 209.442 230.902 209.275C230.419 209.092 229.969 208.867 229.552 208.6C229.152 208.333 228.827 207.992 228.577 207.575C228.327 207.158 228.202 206.642 228.202 206.025C228.202 204.942 228.619 204.075 229.452 203.425C230.286 202.775 231.377 202.45 232.727 202.45C233.694 202.45 234.577 202.642 235.377 203.025C236.177 203.408 236.802 203.983 237.252 204.75L235.527 206.075C235.194 205.575 234.777 205.2 234.277 204.95C233.777 204.7 233.236 204.575 232.652 204.575C232.119 204.575 231.669 204.683 231.302 204.9C230.952 205.117 230.777 205.4 230.777 205.75C230.777 206.017 230.861 206.233 231.027 206.4C231.194 206.567 231.452 206.717 231.802 206.85C232.152 206.983 232.594 207.117 233.127 207.25C233.627 207.367 234.144 207.508 234.677 207.675C235.211 207.842 235.702 208.067 236.152 208.35C236.619 208.617 236.994 208.983 237.277 209.45C237.577 209.9 237.727 210.483 237.727 211.2C237.727 212 237.519 212.708 237.102 213.325C236.702 213.925 236.127 214.392 235.377 214.725C234.644 215.058 233.786 215.225 232.802 215.225ZM244.595 215.225C243.978 215.225 243.395 215.108 242.845 214.875C242.311 214.625 241.886 214.233 241.57 213.7C241.253 213.15 241.095 212.433 241.095 211.55V199.675L243.895 198.125V210.775C243.895 211.475 243.995 212.017 244.195 212.4C244.411 212.767 244.795 212.95 245.345 212.95C245.511 212.95 245.703 212.933 245.92 212.9C246.153 212.85 246.395 212.792 246.645 212.725V214.875C246.311 214.992 245.97 215.075 245.62 215.125C245.286 215.192 244.945 215.225 244.595 215.225ZM238.745 204.825V202.675H246.645V204.825H238.745ZM248.879 215V202.675H251.679V206L251.154 206.075C251.237 205.358 251.479 204.733 251.879 204.2C252.279 203.65 252.762 203.225 253.329 202.925C253.912 202.608 254.487 202.45 255.054 202.45C255.454 202.45 255.837 202.5 256.204 202.6C256.57 202.7 256.954 202.867 257.354 203.1L256.004 205.6C255.82 205.483 255.579 205.392 255.279 205.325C254.995 205.242 254.72 205.2 254.454 205.2C254.104 205.2 253.754 205.267 253.404 205.4C253.07 205.533 252.77 205.742 252.504 206.025C252.237 206.292 252.037 206.642 251.904 207.075C251.82 207.308 251.754 207.617 251.704 208C251.67 208.367 251.654 208.883 251.654 209.55V215H248.879ZM260.202 220.075L262.652 214.175L257.952 202.675H261.002L264.127 211.4L267.302 202.675H270.302L263.202 220.075H260.202ZM119.777 245L126.677 227.575H128.877L135.752 245H132.602L127.777 231.8L122.952 245H119.777ZM124.077 241.35L124.977 238.775H130.552L131.502 241.35H124.077ZM138.859 245L135.109 232.675H138.059L140.259 240.75L142.759 232.675H145.134L147.634 240.7L149.859 232.675H152.809L149.034 245H146.534L143.959 236.6L141.384 245H138.859ZM162.683 245L162.483 242.925V237.225C162.483 236.425 162.241 235.825 161.758 235.425C161.275 235.008 160.6 234.8 159.733 234.8C159.066 234.8 158.408 234.933 157.758 235.2C157.125 235.45 156.541 235.842 156.008 236.375L154.458 234.55C155.258 233.8 156.108 233.267 157.008 232.95C157.908 232.617 158.891 232.45 159.958 232.45C161.625 232.45 162.916 232.875 163.833 233.725C164.766 234.558 165.233 235.725 165.233 237.225V245H162.683ZM158.858 245.225C157.941 245.225 157.125 245.058 156.408 244.725C155.708 244.392 155.158 243.925 154.758 243.325C154.375 242.725 154.183 242.025 154.183 241.225C154.183 240.542 154.325 239.95 154.608 239.45C154.908 238.95 155.291 238.558 155.758 238.275C156.158 238.025 156.625 237.85 157.158 237.75C157.691 237.633 158.25 237.575 158.833 237.575H162.708V239.65H159.233C158.933 239.65 158.633 239.683 158.333 239.75C158.033 239.8 157.766 239.9 157.533 240.05C157.366 240.183 157.225 240.35 157.108 240.55C157.008 240.75 156.958 240.983 156.958 241.25C156.958 241.783 157.158 242.208 157.558 242.525C157.975 242.825 158.525 242.975 159.208 242.975C159.808 242.975 160.35 242.842 160.833 242.575C161.333 242.308 161.733 241.942 162.033 241.475C162.333 241.008 162.483 240.483 162.483 239.9L163.333 241.275C163.133 242.142 162.816 242.875 162.383 243.475C161.95 244.058 161.433 244.5 160.833 244.8C160.233 245.083 159.575 245.225 158.858 245.225ZM168.082 245V232.675H170.882V236L170.357 236.075C170.44 235.358 170.682 234.733 171.082 234.2C171.482 233.65 171.965 233.225 172.532 232.925C173.115 232.608 173.69 232.45 174.257 232.45C174.657 232.45 175.04 232.5 175.407 232.6C175.773 232.7 176.157 232.867 176.557 233.1L175.207 235.6C175.023 235.483 174.782 235.392 174.482 235.325C174.198 235.242 173.923 235.2 173.657 235.2C173.307 235.2 172.957 235.267 172.607 235.4C172.273 235.533 171.973 235.742 171.707 236.025C171.44 236.292 171.24 236.642 171.107 237.075C171.023 237.308 170.957 237.617 170.907 238C170.873 238.367 170.857 238.883 170.857 239.55V245H168.082ZM182.446 245.225C181.346 245.225 180.388 244.95 179.571 244.4C178.771 243.833 178.154 243.067 177.721 242.1C177.288 241.133 177.071 240.042 177.071 238.825C177.071 237.492 177.304 236.35 177.771 235.4C178.254 234.45 178.904 233.725 179.721 233.225C180.538 232.708 181.446 232.45 182.446 232.45C183.146 232.45 183.788 232.592 184.371 232.875C184.971 233.158 185.471 233.575 185.871 234.125C186.288 234.658 186.579 235.317 186.746 236.1L186.096 236.125V227.575H188.871V245H186.096V241.575L186.846 241.4C186.629 242.3 186.296 243.033 185.846 243.6C185.413 244.15 184.904 244.558 184.321 244.825C183.738 245.092 183.113 245.225 182.446 245.225ZM183.121 242.675C183.771 242.675 184.338 242.517 184.821 242.2C185.304 241.883 185.679 241.433 185.946 240.85C186.213 240.267 186.346 239.592 186.346 238.825C186.346 238.058 186.213 237.392 185.946 236.825C185.679 236.242 185.304 235.792 184.821 235.475C184.338 235.142 183.771 234.975 183.121 234.975C182.471 234.975 181.896 235.133 181.396 235.45C180.913 235.767 180.529 236.217 180.246 236.8C179.979 237.383 179.846 238.058 179.846 238.825C179.846 239.592 179.979 240.267 180.246 240.85C180.529 241.433 180.913 241.883 181.396 242.2C181.896 242.517 182.471 242.675 183.121 242.675Z" fill="white" style="fill:white;fill-opacity:1;"/>
</svg>
