<svg width="310" height="310" viewBox="0 0 310 310" fill="none" xmlns="http://www.w3.org/2000/svg">
<path d="M147.651 1.92236C152.217 -0.640785 157.783 -0.640785 162.349 1.92236L188.281 16.4702C190.473 17.7017 192.937 18.3625 195.44 18.3925L225.166 18.763C230.402 18.8231 235.218 21.6065 237.892 26.112L253.08 51.6733C254.362 53.836 256.164 55.6382 258.327 56.9198L283.888 72.1084C288.384 74.7817 291.167 79.5976 291.237 84.834L291.607 114.56C291.638 117.074 292.298 119.537 293.53 121.719L308.078 147.651C310.641 152.217 310.641 157.783 308.078 162.349L293.53 188.281C292.298 190.473 291.638 192.936 291.607 195.44L291.237 225.166C291.167 230.402 288.384 235.218 283.888 237.892L258.327 253.08C256.174 254.362 254.362 256.164 253.08 258.327L237.892 283.888C235.218 288.383 230.392 291.167 225.166 291.237L195.44 291.607C192.927 291.637 190.463 292.298 188.281 293.53L162.349 308.078C157.783 310.641 152.217 310.641 147.651 308.078L121.719 293.53C119.527 292.298 117.064 291.637 114.56 291.607L84.834 291.237C79.5976 291.167 74.7817 288.383 72.1084 283.888L56.9198 258.327C55.6382 256.174 53.836 254.362 51.6733 253.08L26.112 237.892C21.6165 235.218 18.8331 230.392 18.763 225.166L18.3925 195.44C18.3625 192.926 17.7017 190.463 16.4702 188.281L1.92236 162.349C-0.640786 157.783 -0.640786 152.217 1.92236 147.651L16.4702 121.719C17.7017 119.527 18.3625 117.063 18.3925 114.56L18.763 84.834C18.8231 79.5976 21.6065 74.7817 26.112 72.1084L51.6733 56.9198C53.836 55.6382 55.6382 53.836 56.9198 51.6733L72.1084 26.112C74.7817 21.6165 79.5976 18.8331 84.834 18.763L114.56 18.3925C117.074 18.3625 119.537 17.7017 121.719 16.4702L147.651 1.92236Z" fill="#227DF5" style="fill:#227DF5;fill:color(display-p3 0.1333 0.4919 0.9608);fill-opacity:1;"/>
<path d="M155 300C152.474 300 149.958 299.373 147.7 298.1L124.03 284.823C121.862 283.61 119.405 282.944 116.919 282.914L89.7776 282.576C84.6159 282.516 79.7725 279.712 77.1369 275.276L63.2729 251.934C61.9999 249.796 60.1998 247.996 58.0615 246.723L34.7195 232.859C30.2838 230.224 27.4891 225.38 27.4195 220.219L27.0813 193.078C27.0515 190.592 26.3951 188.135 25.1718 185.967L11.8946 162.297C9.36846 157.792 9.36846 152.203 11.8946 147.698L25.1718 124.028C26.3852 121.86 27.0515 119.403 27.0813 116.917L27.4195 89.7762C27.4792 84.6146 30.2838 79.7713 34.7195 77.1357L58.0615 63.272C60.1998 61.999 61.9999 60.1989 63.2729 58.0607L77.1369 34.719C79.7725 30.2834 84.6159 27.4888 89.7776 27.4192L116.919 27.0811C119.405 27.0512 121.862 26.3948 124.03 25.1716L147.7 11.8946C152.205 9.36847 157.795 9.36847 162.3 11.8946L185.97 25.1716C188.138 26.3849 190.595 27.0512 193.081 27.0811L220.222 27.4192C225.384 27.4789 230.228 30.2834 232.863 34.719L246.727 58.0607C248 60.1989 249.8 61.999 251.939 63.272L275.281 77.1357C279.716 79.7713 282.511 84.6146 282.58 89.7762L282.919 116.917C282.949 119.403 283.605 121.86 284.828 124.028L298.105 147.698C300.632 152.203 300.632 157.792 298.105 162.297L284.828 185.967C283.615 188.135 282.958 190.592 282.919 193.078L282.58 220.219C282.521 225.38 279.716 230.224 275.281 232.859L251.939 246.723C249.8 247.996 248 249.796 246.727 251.934L232.863 275.276C230.228 279.712 225.384 282.506 220.222 282.576L193.081 282.914C190.595 282.944 188.138 283.6 185.97 284.823L162.3 298.1C160.052 299.363 157.526 300 155 300ZM155 12.004C152.812 12.004 150.624 12.551 148.675 13.645L125.004 26.9219C122.548 28.3043 119.763 29.0502 116.939 29.0801L89.7975 29.4182C85.322 29.4779 81.125 31.8946 78.8376 35.7434L64.9736 59.085C63.5315 61.5117 61.4927 63.5505 59.0759 64.9826L35.7339 78.8463C31.885 81.1338 29.4683 85.3307 29.4086 89.8061L29.0704 116.947C29.0406 119.761 28.2848 122.556 26.9123 125.012L13.6351 148.682C11.4471 152.581 11.4471 157.434 13.6351 161.333L26.9123 185.003C28.2947 187.459 29.0406 190.254 29.0704 193.068L29.4086 220.209C29.4683 224.684 31.885 228.881 35.7339 231.169L59.0759 245.032C61.5026 246.474 63.5414 248.513 64.9736 250.93L78.8376 274.272C81.125 278.12 85.322 280.537 89.7975 280.597L116.939 280.935C119.753 280.965 122.538 281.721 125.004 283.093L148.675 296.37C152.573 298.558 157.427 298.558 161.325 296.37L184.996 283.093C187.452 281.711 190.247 280.965 193.061 280.935L220.202 280.597C224.678 280.537 228.875 278.12 231.162 274.272L245.026 250.93C246.469 248.503 248.507 246.464 250.924 245.032L274.266 231.169C278.115 228.881 280.532 224.684 280.591 220.209L280.93 193.068C280.969 190.254 281.715 187.459 283.088 185.003L296.365 161.333C298.553 157.434 298.553 152.581 296.365 148.682L283.088 125.012C281.705 122.556 280.959 119.771 280.93 116.947L280.591 89.8061C280.532 85.3307 278.115 81.1338 274.266 78.8463L250.924 64.9826C248.497 63.5405 246.459 61.5017 245.026 59.085L231.162 35.7434C228.875 31.8946 224.678 29.4779 220.202 29.4182L193.061 29.0801C190.247 29.0403 187.462 28.2944 184.996 26.9219L161.325 13.645C159.376 12.551 157.188 12.004 155 12.004Z" fill="white" style="fill:white;fill-opacity:1;"/>
<path d="M177.276 99.6776L191.134 96.5392H191.144C194.638 95.7497 197.776 98.6512 196.829 101.8L192.21 117.146C191.588 119.209 189.762 120.808 187.423 121.064C175.5 122.357 164.179 118.834 155 112.014C145.821 118.834 134.5 122.357 122.577 121.064C120.238 120.808 118.412 119.199 117.79 117.146L113.171 101.8C112.224 98.6512 115.362 95.7497 118.856 96.5392L132.714 99.6776C134.855 100.161 137.116 99.5888 138.675 98.1775L151.664 86.4034C153.51 84.7355 156.49 84.7355 158.326 86.4034L171.315 98.1775C172.874 99.5987 175.135 100.161 177.276 99.6776Z" fill="white" style="fill:white;fill-opacity:1;"/>
<path d="M156.441 124.39C161.426 127.144 170.644 131.536 183.82 131.2C186.051 131.141 187.828 133.016 187.245 134.96L182.064 150.959C180.929 154.739 176.378 156.367 172.815 154.146L157.655 144.702C156.056 143.705 153.934 143.705 152.325 144.702L137.55 154.146C133.987 156.367 129.072 154.739 127.937 150.959L122.745 134.96C122.163 133.016 123.939 131.141 126.17 131.2C139.346 131.536 148.555 127.144 153.549 124.39C154.487 123.867 155.523 123.877 156.441 124.39Z" fill="white" style="fill:white;fill-opacity:1;"/>
<path d="M148.91 59.5801L146.42 59.76L146.02 54.2301L138.9 43.52L141.67 43.3201L147.07 51.3501L151.23 42.63L154.09 42.42L148.51 54.01L148.92 59.5901L148.91 59.5801Z" fill="white" style="fill:white;fill-opacity:1;"/>
<path d="M133.22 61.6001L135.55 60.9401L135.56 60.9301L130.98 44.8201L128.89 45.41L126.21 59.3501L116.62 48.9L114.51 49.5001L119.09 65.6101L121.42 64.9501L118.39 54.3L126.76 63.4401L127.9 63.1101L130.19 50.9501L133.22 61.6001Z" fill="white" style="fill:white;fill-opacity:1;"/>
<path d="M104.12 72.98L94.5503 70.66L93.8198 71.12L97.5601 77.09L95.4502 78.42L86.5601 64.23L88.6699 62.9L92.52 69.04L93.0898 68.6801L95.0303 58.91L97.6602 57.26L95.5103 68.53L106.99 71.1801L104.13 72.98H104.12Z" fill="white" style="fill:white;fill-opacity:1;"/>
<path d="M88.8799 83.53L90.4497 82.1101L79.1997 69.7001L77.3296 71.3901L85.5396 80.4501L70.3496 77.7201L68.7798 79.1401L80.0298 91.55L81.8799 89.8701L73.8096 80.9601L88.8799 83.53Z" fill="white" style="fill:white;fill-opacity:1;"/>
<path fill-rule="evenodd" clip-rule="evenodd" d="M75.2202 96.9601L71.2002 95.77L66.52 101.76L68.6499 105.37L66.9902 107.5L58.02 91.77L59.4502 89.9301L76.8799 94.8201L75.2202 96.9501V96.9601ZM61.3198 92.88L65.2002 99.49L68.6699 95.04L61.3198 92.88Z" fill="white" style="fill:white;fill-opacity:1;"/>
<path fill-rule="evenodd" clip-rule="evenodd" d="M63.6499 113.11L55.1201 114.78L54.0298 116.76L59.8799 119.97L58.6802 122.16L44 114.09L47.54 107.65C49.0898 104.83 51.8999 103.93 54.5498 105.38C57.0698 106.76 57.8398 109.42 56.5601 112.1L65.1499 110.38L63.6602 113.1L63.6499 113.11ZM54.2402 111.35C55.0698 109.84 54.7002 108.33 53.3398 107.58C51.96 106.82 50.4902 107.32 49.6602 108.83L47.3198 113.08L51.8999 115.6L54.2402 111.35Z" fill="white" style="fill:white;fill-opacity:1;"/>
<path fill-rule="evenodd" clip-rule="evenodd" d="M184.08 54.64C185.04 49.86 182.48 45.78 177.27 44.73V44.74L171.92 43.66L168.62 60.0801L173.97 61.15C179.18 62.2001 183.12 59.42 184.08 54.64ZM181.6 54.15C180.92 57.5601 178.17 59.53 174.44 58.78L174.43 58.77L171.53 58.1901L173.88 46.53L176.78 47.11C180.51 47.86 182.29 50.74 181.6 54.15Z" fill="white" style="fill:white;fill-opacity:1;"/>
<path d="M198.43 68.88L187.63 64.5701L193.84 49.01L204.62 53.3101L203.72 55.5601L195.25 52.1801L193.5 56.5701L201.32 59.6901L200.43 61.92L192.61 58.8L190.84 63.24L199.33 66.63L198.43 68.88Z" fill="white" style="fill:white;fill-opacity:1;"/>
<path d="M213.7 77.7301L215.5 78.8501L224.37 64.65L222.23 63.3201L215.75 73.6801L214.24 58.3201L212.44 57.2001L203.57 71.4L205.69 72.7201L212.06 62.53L213.7 77.7301Z" fill="white" style="fill:white;fill-opacity:1;"/>
<path d="M234.95 76.51L225.4 87.1899L223.52 85.51L233.07 74.83L228.99 71.1799L230.61 69.37L240.67 78.37L239.05 80.1799L234.95 76.51Z" fill="white" style="fill:white;fill-opacity:1;"/>
<path d="M245.45 83.64L232.91 94.74L234.56 96.61L247.1 85.51L245.45 83.64Z" fill="white" style="fill:white;fill-opacity:1;"/>
<path d="M255.47 103.84L253.59 102.11C254.88 100.86 255.03 99.03 253.96 97.5C252.9 95.99 251.33 95.61 250.12 96.46C249.16 97.13 249.01 98.01 249.54 99.29L250.84 102.5C251.73 104.73 251.54 106.9 249.39 108.41C246.81 110.22 243.82 109.38 241.76 106.44C239.86 103.73 239.7 100.48 242.13 98.3L244.15 100.13C242.6 101.67 242.64 103.55 243.84 105.27C245.04 106.99 246.6 107.35 247.85 106.47C248.89 105.74 249.03 104.88 248.42 103.4L247.08 100.18C246.36 98.3199 246.11 96.0499 248.55 94.34C250.97 92.65 253.9 93.36 255.89 96.2C257.71 98.7999 257.5 101.73 255.47 103.84Z" fill="white" style="fill:white;fill-opacity:1;"/>
<path d="M251.16 121.66L263.94 115.19L266.43 120.09L268.59 118.99L262.49 106.95L260.33 108.05L262.8 112.94L250.02 119.41L251.16 121.66Z" fill="white" style="fill:white;fill-opacity:1;"/>
<path d="M134.922 272.19V271.254C135.194 271.038 135.51 270.798 135.87 270.534C136.23 270.27 136.594 269.982 136.962 269.67C137.338 269.358 137.686 269.026 138.006 268.674C138.326 268.322 138.582 267.954 138.774 267.57C138.974 267.178 139.074 266.778 139.074 266.37C139.074 265.93 138.954 265.574 138.714 265.302C138.474 265.022 138.114 264.882 137.634 264.882C137.274 264.882 136.974 264.966 136.734 265.134C136.502 265.302 136.33 265.53 136.218 265.818C136.106 266.106 136.046 266.426 136.038 266.778L134.886 266.694C134.886 266.302 134.946 265.93 135.066 265.578C135.186 265.226 135.362 264.914 135.594 264.642C135.834 264.362 136.126 264.142 136.47 263.982C136.822 263.822 137.222 263.742 137.67 263.742C138.182 263.742 138.626 263.85 139.002 264.066C139.386 264.282 139.686 264.582 139.902 264.966C140.118 265.35 140.226 265.802 140.226 266.322C140.226 266.762 140.146 267.186 139.986 267.594C139.834 268.002 139.618 268.394 139.338 268.77C139.058 269.138 138.734 269.486 138.366 269.814C137.998 270.142 137.602 270.454 137.178 270.75C136.754 271.038 136.314 271.302 135.858 271.542L136.17 271.098H140.562V272.19H134.922Z" fill="white" style="fill:white;fill-opacity:1;"/>
<path d="M149.269 272.286C148.781 272.286 148.369 272.198 148.033 272.022C147.705 271.846 147.433 271.61 147.217 271.314C147.009 271.01 146.849 270.674 146.737 270.306C146.633 269.93 146.561 269.542 146.521 269.142C146.481 268.734 146.461 268.346 146.461 267.978C146.461 267.61 146.477 267.23 146.509 266.838C146.549 266.438 146.621 266.054 146.725 265.686C146.837 265.31 146.997 264.974 147.205 264.678C147.413 264.382 147.681 264.146 148.009 263.97C148.345 263.794 148.753 263.706 149.233 263.706C149.705 263.706 150.105 263.794 150.433 263.97C150.761 264.138 151.029 264.366 151.237 264.654C151.453 264.942 151.617 265.27 151.729 265.638C151.841 266.006 151.917 266.394 151.957 266.802C152.005 267.202 152.029 267.594 152.029 267.978C152.029 268.378 152.005 268.782 151.957 269.19C151.917 269.598 151.837 269.986 151.717 270.354C151.605 270.722 151.445 271.054 151.237 271.35C151.029 271.638 150.765 271.866 150.445 272.034C150.125 272.202 149.733 272.286 149.269 272.286ZM149.269 271.158C149.669 271.158 149.981 271.018 150.205 270.738C150.437 270.458 150.601 270.082 150.697 269.61C150.793 269.138 150.841 268.61 150.841 268.026C150.841 267.41 150.789 266.866 150.685 266.394C150.589 265.914 150.425 265.534 150.193 265.254C149.961 264.974 149.641 264.834 149.233 264.834C148.913 264.834 148.649 264.918 148.441 265.086C148.241 265.254 148.085 265.486 147.973 265.782C147.861 266.078 147.781 266.418 147.733 266.802C147.685 267.178 147.661 267.582 147.661 268.014C147.661 268.43 147.685 268.826 147.733 269.202C147.781 269.578 147.861 269.914 147.973 270.21C148.093 270.498 148.257 270.73 148.465 270.906C148.673 271.074 148.941 271.158 149.269 271.158Z" fill="white" style="fill:white;fill-opacity:1;"/>
<path d="M157.952 272.19V271.254C158.224 271.038 158.54 270.798 158.9 270.534C159.26 270.27 159.624 269.982 159.992 269.67C160.368 269.358 160.716 269.026 161.036 268.674C161.356 268.322 161.612 267.954 161.804 267.57C162.004 267.178 162.104 266.778 162.104 266.37C162.104 265.93 161.984 265.574 161.744 265.302C161.504 265.022 161.144 264.882 160.664 264.882C160.304 264.882 160.004 264.966 159.764 265.134C159.532 265.302 159.36 265.53 159.248 265.818C159.136 266.106 159.076 266.426 159.068 266.778L157.916 266.694C157.916 266.302 157.976 265.93 158.096 265.578C158.216 265.226 158.392 264.914 158.624 264.642C158.864 264.362 159.156 264.142 159.5 263.982C159.852 263.822 160.252 263.742 160.7 263.742C161.212 263.742 161.656 263.85 162.032 264.066C162.416 264.282 162.716 264.582 162.932 264.966C163.148 265.35 163.256 265.802 163.256 266.322C163.256 266.762 163.176 267.186 163.016 267.594C162.864 268.002 162.648 268.394 162.368 268.77C162.088 269.138 161.764 269.486 161.396 269.814C161.028 270.142 160.632 270.454 160.208 270.75C159.784 271.038 159.344 271.302 158.888 271.542L159.2 271.098H163.592V272.19H157.952Z" fill="white" style="fill:white;fill-opacity:1;"/>
<path d="M172.251 272.298C171.747 272.298 171.283 272.19 170.859 271.974C170.443 271.758 170.099 271.466 169.827 271.098C169.555 270.722 169.379 270.298 169.299 269.826L170.451 269.622C170.499 269.894 170.595 270.15 170.739 270.39C170.891 270.63 171.091 270.822 171.339 270.966C171.595 271.102 171.891 271.17 172.227 271.17C172.611 271.17 172.931 271.082 173.187 270.906C173.451 270.722 173.651 270.49 173.787 270.21C173.923 269.922 173.991 269.618 173.991 269.298C173.991 268.994 173.927 268.714 173.799 268.458C173.671 268.202 173.479 267.998 173.223 267.846C172.975 267.686 172.663 267.606 172.287 267.606C171.943 267.606 171.635 267.686 171.363 267.846C171.099 267.998 170.875 268.21 170.691 268.482L169.551 268.182L170.343 263.826H174.855V264.918H170.775L171.399 264.426L170.835 267.522L170.487 267.438C170.799 267.078 171.123 266.834 171.459 266.706C171.803 266.57 172.135 266.502 172.455 266.502C172.999 266.502 173.479 266.63 173.895 266.886C174.319 267.142 174.647 267.482 174.879 267.906C175.111 268.33 175.227 268.794 175.227 269.298C175.227 269.698 175.155 270.078 175.011 270.438C174.867 270.798 174.659 271.118 174.387 271.398C174.123 271.678 173.807 271.898 173.439 272.058C173.079 272.218 172.683 272.298 172.251 272.298Z" fill="white" style="fill:white;fill-opacity:1;"/>
<path d="M41 147.61L42.8887 152.721L48 154.61L42.8887 156.499L41 161.61L39.1113 156.499L34 154.61L39.1113 152.721L41 147.61Z" fill="white" style="fill:white;fill-opacity:1;"/>
<path d="M269 147.61L270.889 152.721L276 154.61L270.889 156.499L269 161.61L267.111 156.499L262 154.61L267.111 152.721L269 147.61Z" fill="white" style="fill:white;fill-opacity:1;"/>
<path fill-rule="evenodd" clip-rule="evenodd" d="M265 178H45V177H265V178Z" fill="white" style="fill:white;fill-opacity:1;"/>
<path d="M88.0788 215V197.575H99.6538V200.15H90.9788V204.775H98.9788V207.375H90.9788V212.425H99.6538V215H88.0788ZM102.181 215V202.675H104.956V205.4L104.456 205.525C104.672 204.808 104.989 204.225 105.406 203.775C105.822 203.325 106.306 202.992 106.856 202.775C107.422 202.558 108.014 202.45 108.631 202.45C110.014 202.45 111.089 202.85 111.856 203.65C112.639 204.433 113.031 205.558 113.031 207.025V215H110.256V208.05C110.256 206.95 110.056 206.142 109.656 205.625C109.256 205.108 108.639 204.85 107.806 204.85C107.189 204.85 106.664 205 106.231 205.3C105.814 205.583 105.497 206.033 105.281 206.65C105.064 207.267 104.956 208.05 104.956 209V215H102.181ZM120.696 215.225C119.596 215.225 118.637 214.95 117.821 214.4C117.021 213.833 116.404 213.067 115.971 212.1C115.537 211.133 115.321 210.042 115.321 208.825C115.321 207.492 115.554 206.35 116.021 205.4C116.504 204.45 117.154 203.725 117.971 203.225C118.787 202.708 119.696 202.45 120.696 202.45C121.396 202.45 122.037 202.592 122.621 202.875C123.221 203.158 123.721 203.575 124.121 204.125C124.537 204.658 124.829 205.317 124.996 206.1L124.346 206.125V197.575H127.121V215H124.346V211.575L125.096 211.4C124.879 212.3 124.546 213.033 124.096 213.6C123.662 214.15 123.154 214.558 122.571 214.825C121.987 215.092 121.362 215.225 120.696 215.225ZM121.371 212.675C122.021 212.675 122.587 212.517 123.071 212.2C123.554 211.883 123.929 211.433 124.196 210.85C124.462 210.267 124.596 209.592 124.596 208.825C124.596 208.058 124.462 207.392 124.196 206.825C123.929 206.242 123.554 205.792 123.071 205.475C122.587 205.142 122.021 204.975 121.371 204.975C120.721 204.975 120.146 205.133 119.646 205.45C119.162 205.767 118.779 206.217 118.496 206.8C118.229 207.383 118.096 208.058 118.096 208.825C118.096 209.592 118.229 210.267 118.496 210.85C118.779 211.433 119.162 211.883 119.646 212.2C120.146 212.517 120.721 212.675 121.371 212.675ZM135.673 215.225C134.507 215.225 133.457 214.95 132.523 214.4C131.59 213.85 130.857 213.092 130.323 212.125C129.807 211.158 129.548 210.058 129.548 208.825C129.548 207.592 129.807 206.492 130.323 205.525C130.857 204.558 131.582 203.808 132.498 203.275C133.432 202.725 134.49 202.45 135.673 202.45C136.873 202.45 137.923 202.725 138.823 203.275C139.74 203.808 140.465 204.558 140.998 205.525C141.532 206.492 141.798 207.592 141.798 208.825C141.798 210.058 141.532 211.158 140.998 212.125C140.482 213.092 139.757 213.85 138.823 214.4C137.907 214.95 136.857 215.225 135.673 215.225ZM135.698 212.775C136.382 212.775 136.973 212.617 137.473 212.3C137.973 211.983 138.357 211.525 138.623 210.925C138.89 210.325 139.023 209.625 139.023 208.825C139.023 208.008 138.89 207.308 138.623 206.725C138.357 206.125 137.973 205.667 137.473 205.35C136.973 205.033 136.382 204.875 135.698 204.875C134.982 204.875 134.373 205.042 133.873 205.375C133.373 205.692 132.99 206.142 132.723 206.725C132.457 207.308 132.323 208.008 132.323 208.825C132.323 209.625 132.457 210.325 132.723 210.925C132.99 211.525 133.373 211.983 133.873 212.3C134.373 212.617 134.982 212.775 135.698 212.775ZM149.029 215.225C147.929 215.225 146.97 214.95 146.154 214.4C145.354 213.833 144.737 213.067 144.304 212.1C143.87 211.133 143.654 210.042 143.654 208.825C143.654 207.492 143.887 206.35 144.354 205.4C144.837 204.45 145.487 203.725 146.304 203.225C147.12 202.708 148.029 202.45 149.029 202.45C149.729 202.45 150.37 202.592 150.954 202.875C151.554 203.158 152.054 203.575 152.454 204.125C152.87 204.658 153.162 205.317 153.329 206.1L152.679 206.125V197.575H155.454V215H152.679V211.575L153.429 211.4C153.212 212.3 152.879 213.033 152.429 213.6C151.995 214.15 151.487 214.558 150.904 214.825C150.32 215.092 149.695 215.225 149.029 215.225ZM149.704 212.675C150.354 212.675 150.92 212.517 151.404 212.2C151.887 211.883 152.262 211.433 152.529 210.85C152.795 210.267 152.929 209.592 152.929 208.825C152.929 208.058 152.795 207.392 152.529 206.825C152.262 206.242 151.887 205.792 151.404 205.475C150.92 205.142 150.354 204.975 149.704 204.975C149.054 204.975 148.479 205.133 147.979 205.45C147.495 205.767 147.112 206.217 146.829 206.8C146.562 207.383 146.429 208.058 146.429 208.825C146.429 209.592 146.562 210.267 146.829 210.85C147.112 211.433 147.495 211.883 147.979 212.2C148.479 212.517 149.054 212.675 149.704 212.675ZM164.006 215.225C162.84 215.225 161.79 214.95 160.856 214.4C159.923 213.85 159.19 213.092 158.656 212.125C158.14 211.158 157.881 210.058 157.881 208.825C157.881 207.592 158.14 206.492 158.656 205.525C159.19 204.558 159.915 203.808 160.831 203.275C161.765 202.725 162.823 202.45 164.006 202.45C165.206 202.45 166.256 202.725 167.156 203.275C168.073 203.808 168.798 204.558 169.331 205.525C169.865 206.492 170.131 207.592 170.131 208.825C170.131 210.058 169.865 211.158 169.331 212.125C168.815 213.092 168.09 213.85 167.156 214.4C166.24 214.95 165.19 215.225 164.006 215.225ZM164.031 212.775C164.715 212.775 165.306 212.617 165.806 212.3C166.306 211.983 166.69 211.525 166.956 210.925C167.223 210.325 167.356 209.625 167.356 208.825C167.356 208.008 167.223 207.308 166.956 206.725C166.69 206.125 166.306 205.667 165.806 205.35C165.306 205.033 164.715 204.875 164.031 204.875C163.315 204.875 162.706 205.042 162.206 205.375C161.706 205.692 161.323 206.142 161.056 206.725C160.79 207.308 160.656 208.008 160.656 208.825C160.656 209.625 160.79 210.325 161.056 210.925C161.323 211.525 161.706 211.983 162.206 212.3C162.706 212.617 163.315 212.775 164.031 212.775ZM172.562 215V202.675H175.337V205.4L174.837 205.525C175.053 204.808 175.37 204.225 175.787 203.775C176.203 203.325 176.687 202.992 177.237 202.775C177.803 202.558 178.395 202.45 179.012 202.45C180.395 202.45 181.47 202.85 182.237 203.65C183.02 204.433 183.412 205.558 183.412 207.025V215H180.637V208.05C180.637 206.95 180.437 206.142 180.037 205.625C179.637 205.108 179.02 204.85 178.187 204.85C177.57 204.85 177.045 205 176.612 205.3C176.195 205.583 175.878 206.033 175.662 206.65C175.445 207.267 175.337 208.05 175.337 209V215H172.562ZM190.751 215.225C190.135 215.225 189.551 215.108 189.001 214.875C188.468 214.625 188.043 214.233 187.726 213.7C187.41 213.15 187.251 212.433 187.251 211.55V199.675L190.051 198.125V210.775C190.051 211.475 190.151 212.017 190.351 212.4C190.568 212.767 190.951 212.95 191.501 212.95C191.668 212.95 191.86 212.933 192.076 212.9C192.31 212.85 192.551 212.792 192.801 212.725V214.875C192.468 214.992 192.126 215.075 191.776 215.125C191.443 215.192 191.101 215.225 190.751 215.225ZM184.901 204.825V202.675H192.801V204.825H184.901ZM195.01 215V202.675H197.785V215H195.01ZM194.885 200.65V197.575H197.91V200.65H194.885ZM206.092 215.225C205.125 215.225 204.267 215.058 203.517 214.725C202.783 214.375 202.167 213.9 201.667 213.3C201.183 212.683 200.817 211.992 200.567 211.225C200.317 210.458 200.192 209.658 200.192 208.825C200.192 207.992 200.317 207.192 200.567 206.425C200.817 205.658 201.183 204.975 201.667 204.375C202.167 203.775 202.783 203.308 203.517 202.975C204.267 202.625 205.125 202.45 206.092 202.45C207.308 202.45 208.367 202.742 209.267 203.325C210.183 203.908 210.858 204.808 211.292 206.025L208.842 206.975C208.642 206.342 208.317 205.833 207.867 205.45C207.417 205.05 206.825 204.85 206.092 204.85C205.358 204.85 204.758 205.042 204.292 205.425C203.842 205.808 203.508 206.3 203.292 206.9C203.075 207.5 202.967 208.142 202.967 208.825C202.967 209.508 203.075 210.158 203.292 210.775C203.508 211.375 203.842 211.867 204.292 212.25C204.758 212.617 205.358 212.8 206.092 212.8C206.825 212.8 207.417 212.608 207.867 212.225C208.317 211.842 208.642 211.333 208.842 210.7L211.292 211.65C210.858 212.85 210.183 213.75 209.267 214.35C208.367 214.933 207.308 215.225 206.092 215.225ZM217.754 215.225C216.87 215.225 216.087 215.1 215.404 214.85C214.72 214.583 214.145 214.25 213.679 213.85C213.212 213.45 212.829 213.05 212.529 212.65L214.429 211C214.745 211.517 215.179 211.975 215.729 212.375C216.295 212.775 216.979 212.975 217.779 212.975C218.446 212.975 218.971 212.833 219.354 212.55C219.754 212.267 219.954 211.917 219.954 211.5C219.954 211.133 219.829 210.85 219.579 210.65C219.329 210.433 219.004 210.25 218.604 210.1C218.204 209.95 217.762 209.817 217.279 209.7C216.812 209.583 216.337 209.442 215.854 209.275C215.37 209.092 214.92 208.867 214.504 208.6C214.104 208.333 213.779 207.992 213.529 207.575C213.279 207.158 213.154 206.642 213.154 206.025C213.154 204.942 213.57 204.075 214.404 203.425C215.237 202.775 216.329 202.45 217.679 202.45C218.645 202.45 219.529 202.642 220.329 203.025C221.129 203.408 221.754 203.983 222.204 204.75L220.479 206.075C220.146 205.575 219.729 205.2 219.229 204.95C218.729 204.7 218.187 204.575 217.604 204.575C217.07 204.575 216.62 204.683 216.254 204.9C215.904 205.117 215.729 205.4 215.729 205.75C215.729 206.017 215.812 206.233 215.979 206.4C216.145 206.567 216.404 206.717 216.754 206.85C217.104 206.983 217.546 207.117 218.079 207.25C218.579 207.367 219.096 207.508 219.629 207.675C220.162 207.842 220.654 208.067 221.104 208.35C221.57 208.617 221.946 208.983 222.229 209.45C222.529 209.9 222.679 210.483 222.679 211.2C222.679 212 222.471 212.708 222.054 213.325C221.654 213.925 221.079 214.392 220.329 214.725C219.596 215.058 218.737 215.225 217.754 215.225ZM119.777 245L126.677 227.575H128.877L135.752 245H132.602L127.777 231.8L122.952 245H119.777ZM124.077 241.35L124.977 238.775H130.552L131.502 241.35H124.077ZM138.859 245L135.109 232.675H138.059L140.259 240.75L142.759 232.675H145.134L147.634 240.7L149.859 232.675H152.809L149.034 245H146.534L143.959 236.6L141.384 245H138.859ZM162.683 245L162.483 242.925V237.225C162.483 236.425 162.241 235.825 161.758 235.425C161.275 235.008 160.6 234.8 159.733 234.8C159.066 234.8 158.408 234.933 157.758 235.2C157.125 235.45 156.541 235.842 156.008 236.375L154.458 234.55C155.258 233.8 156.108 233.267 157.008 232.95C157.908 232.617 158.891 232.45 159.958 232.45C161.625 232.45 162.916 232.875 163.833 233.725C164.766 234.558 165.233 235.725 165.233 237.225V245H162.683ZM158.858 245.225C157.941 245.225 157.125 245.058 156.408 244.725C155.708 244.392 155.158 243.925 154.758 243.325C154.375 242.725 154.183 242.025 154.183 241.225C154.183 240.542 154.325 239.95 154.608 239.45C154.908 238.95 155.291 238.558 155.758 238.275C156.158 238.025 156.625 237.85 157.158 237.75C157.691 237.633 158.25 237.575 158.833 237.575H162.708V239.65H159.233C158.933 239.65 158.633 239.683 158.333 239.75C158.033 239.8 157.766 239.9 157.533 240.05C157.366 240.183 157.225 240.35 157.108 240.55C157.008 240.75 156.958 240.983 156.958 241.25C156.958 241.783 157.158 242.208 157.558 242.525C157.975 242.825 158.525 242.975 159.208 242.975C159.808 242.975 160.35 242.842 160.833 242.575C161.333 242.308 161.733 241.942 162.033 241.475C162.333 241.008 162.483 240.483 162.483 239.9L163.333 241.275C163.133 242.142 162.816 242.875 162.383 243.475C161.95 244.058 161.433 244.5 160.833 244.8C160.233 245.083 159.575 245.225 158.858 245.225ZM168.082 245V232.675H170.882V236L170.357 236.075C170.44 235.358 170.682 234.733 171.082 234.2C171.482 233.65 171.965 233.225 172.532 232.925C173.115 232.608 173.69 232.45 174.257 232.45C174.657 232.45 175.04 232.5 175.407 232.6C175.773 232.7 176.157 232.867 176.557 233.1L175.207 235.6C175.023 235.483 174.782 235.392 174.482 235.325C174.198 235.242 173.923 235.2 173.657 235.2C173.307 235.2 172.957 235.267 172.607 235.4C172.273 235.533 171.973 235.742 171.707 236.025C171.44 236.292 171.24 236.642 171.107 237.075C171.023 237.308 170.957 237.617 170.907 238C170.873 238.367 170.857 238.883 170.857 239.55V245H168.082ZM182.446 245.225C181.346 245.225 180.388 244.95 179.571 244.4C178.771 243.833 178.154 243.067 177.721 242.1C177.288 241.133 177.071 240.042 177.071 238.825C177.071 237.492 177.304 236.35 177.771 235.4C178.254 234.45 178.904 233.725 179.721 233.225C180.538 232.708 181.446 232.45 182.446 232.45C183.146 232.45 183.788 232.592 184.371 232.875C184.971 233.158 185.471 233.575 185.871 234.125C186.288 234.658 186.579 235.317 186.746 236.1L186.096 236.125V227.575H188.871V245H186.096V241.575L186.846 241.4C186.629 242.3 186.296 243.033 185.846 243.6C185.413 244.15 184.904 244.558 184.321 244.825C183.738 245.092 183.113 245.225 182.446 245.225ZM183.121 242.675C183.771 242.675 184.338 242.517 184.821 242.2C185.304 241.883 185.679 241.433 185.946 240.85C186.213 240.267 186.346 239.592 186.346 238.825C186.346 238.058 186.213 237.392 185.946 236.825C185.679 236.242 185.304 235.792 184.821 235.475C184.338 235.142 183.771 234.975 183.121 234.975C182.471 234.975 181.896 235.133 181.396 235.45C180.913 235.767 180.529 236.217 180.246 236.8C179.979 237.383 179.846 238.058 179.846 238.825C179.846 239.592 179.979 240.267 180.246 240.85C180.529 241.433 180.913 241.883 181.396 242.2C181.896 242.517 182.471 242.675 183.121 242.675Z" fill="white" style="fill:white;fill-opacity:1;"/>
</svg>
