<svg width="310" height="310" viewBox="0 0 310 310" fill="none" xmlns="http://www.w3.org/2000/svg">
<path d="M147.651 1.92236C152.217 -0.640785 157.783 -0.640785 162.349 1.92236L188.281 16.4702C190.473 17.7017 192.937 18.3625 195.44 18.3925L225.166 18.763C230.402 18.8231 235.218 21.6065 237.892 26.112L253.08 51.6733C254.362 53.836 256.164 55.6382 258.327 56.9198L283.888 72.1084C288.384 74.7817 291.167 79.5976 291.237 84.834L291.607 114.56C291.638 117.074 292.298 119.537 293.53 121.719L308.078 147.651C310.641 152.217 310.641 157.783 308.078 162.349L293.53 188.281C292.298 190.473 291.638 192.936 291.607 195.44L291.237 225.166C291.167 230.402 288.384 235.218 283.888 237.892L258.327 253.08C256.174 254.362 254.362 256.164 253.08 258.327L237.892 283.888C235.218 288.383 230.392 291.167 225.166 291.237L195.44 291.607C192.927 291.637 190.463 292.298 188.281 293.53L162.349 308.078C157.783 310.641 152.217 310.641 147.651 308.078L121.719 293.53C119.527 292.298 117.064 291.637 114.56 291.607L84.834 291.237C79.5976 291.167 74.7817 288.383 72.1084 283.888L56.9198 258.327C55.6382 256.174 53.836 254.362 51.6733 253.08L26.112 237.892C21.6165 235.218 18.8331 230.392 18.763 225.166L18.3925 195.44C18.3625 192.926 17.7017 190.463 16.4702 188.281L1.92236 162.349C-0.640786 157.783 -0.640786 152.217 1.92236 147.651L16.4702 121.719C17.7017 119.527 18.3625 117.063 18.3925 114.56L18.763 84.834C18.8231 79.5976 21.6065 74.7817 26.112 72.1084L51.6733 56.9198C53.836 55.6382 55.6382 53.836 56.9198 51.6733L72.1084 26.112C74.7817 21.6165 79.5976 18.8331 84.834 18.763L114.56 18.3925C117.074 18.3625 119.537 17.7017 121.719 16.4702L147.651 1.92236Z" fill="#227DF5" style="fill:#227DF5;fill:color(display-p3 0.1333 0.4919 0.9608);fill-opacity:1;"/>
<path d="M155 300C152.474 300 149.958 299.373 147.7 298.1L124.03 284.823C121.862 283.61 119.405 282.944 116.919 282.914L89.7776 282.576C84.6159 282.516 79.7725 279.712 77.1369 275.276L63.2729 251.934C61.9999 249.796 60.1998 247.996 58.0615 246.723L34.7195 232.859C30.2838 230.224 27.4891 225.38 27.4195 220.219L27.0813 193.078C27.0515 190.592 26.3951 188.135 25.1718 185.967L11.8946 162.297C9.36846 157.792 9.36846 152.203 11.8946 147.698L25.1718 124.028C26.3852 121.86 27.0515 119.403 27.0813 116.917L27.4195 89.7762C27.4792 84.6146 30.2838 79.7713 34.7195 77.1357L58.0615 63.272C60.1998 61.999 61.9999 60.1989 63.2729 58.0607L77.1369 34.719C79.7725 30.2834 84.6159 27.4888 89.7776 27.4192L116.919 27.0811C119.405 27.0512 121.862 26.3948 124.03 25.1716L147.7 11.8946C152.205 9.36847 157.795 9.36847 162.3 11.8946L185.97 25.1716C188.138 26.3849 190.595 27.0512 193.081 27.0811L220.222 27.4192C225.384 27.4789 230.228 30.2834 232.863 34.719L246.727 58.0607C248 60.1989 249.8 61.999 251.939 63.272L275.281 77.1357C279.716 79.7713 282.511 84.6146 282.58 89.7762L282.919 116.917C282.949 119.403 283.605 121.86 284.828 124.028L298.105 147.698C300.632 152.203 300.632 157.792 298.105 162.297L284.828 185.967C283.615 188.135 282.958 190.592 282.919 193.078L282.58 220.219C282.521 225.38 279.716 230.224 275.281 232.859L251.939 246.723C249.8 247.996 248 249.796 246.727 251.934L232.863 275.276C230.228 279.712 225.384 282.506 220.222 282.576L193.081 282.914C190.595 282.944 188.138 283.6 185.97 284.823L162.3 298.1C160.052 299.363 157.526 300 155 300ZM155 12.004C152.812 12.004 150.624 12.551 148.675 13.645L125.004 26.9219C122.548 28.3043 119.763 29.0502 116.939 29.0801L89.7975 29.4182C85.322 29.4779 81.125 31.8946 78.8376 35.7434L64.9736 59.085C63.5315 61.5117 61.4927 63.5505 59.0759 64.9826L35.7339 78.8463C31.885 81.1338 29.4683 85.3307 29.4086 89.8061L29.0704 116.947C29.0406 119.761 28.2848 122.556 26.9123 125.012L13.6351 148.682C11.4471 152.581 11.4471 157.434 13.6351 161.333L26.9123 185.003C28.2947 187.459 29.0406 190.254 29.0704 193.068L29.4086 220.209C29.4683 224.684 31.885 228.881 35.7339 231.169L59.0759 245.032C61.5026 246.474 63.5414 248.513 64.9736 250.93L78.8376 274.272C81.125 278.12 85.322 280.537 89.7975 280.597L116.939 280.935C119.753 280.965 122.538 281.721 125.004 283.093L148.675 296.37C152.573 298.558 157.427 298.558 161.325 296.37L184.996 283.093C187.452 281.711 190.247 280.965 193.061 280.935L220.202 280.597C224.678 280.537 228.875 278.12 231.162 274.272L245.026 250.93C246.469 248.503 248.507 246.464 250.924 245.032L274.266 231.169C278.115 228.881 280.532 224.684 280.591 220.209L280.93 193.068C280.969 190.254 281.715 187.459 283.088 185.003L296.365 161.333C298.553 157.434 298.553 152.581 296.365 148.682L283.088 125.012C281.705 122.556 280.959 119.771 280.93 116.947L280.591 89.8061C280.532 85.3307 278.115 81.1338 274.266 78.8463L250.924 64.9826C248.497 63.5405 246.459 61.5017 245.026 59.085L231.162 35.7434C228.875 31.8946 224.678 29.4779 220.202 29.4182L193.061 29.0801C190.247 29.0403 187.462 28.2944 184.996 26.9219L161.325 13.645C159.376 12.551 157.188 12.004 155 12.004Z" fill="white" style="fill:white;fill-opacity:1;"/>
<path d="M177.276 99.6776L191.134 96.5392H191.144C194.638 95.7497 197.776 98.6512 196.829 101.8L192.21 117.146C191.588 119.209 189.762 120.808 187.423 121.064C175.5 122.357 164.179 118.834 155 112.014C145.821 118.834 134.5 122.357 122.577 121.064C120.238 120.808 118.412 119.199 117.79 117.146L113.171 101.8C112.224 98.6512 115.362 95.7497 118.856 96.5392L132.714 99.6776C134.855 100.161 137.116 99.5888 138.675 98.1775L151.664 86.4034C153.51 84.7355 156.49 84.7355 158.326 86.4034L171.315 98.1775C172.874 99.5987 175.135 100.161 177.276 99.6776Z" fill="white" style="fill:white;fill-opacity:1;"/>
<path d="M156.441 124.39C161.426 127.144 170.644 131.536 183.82 131.2C186.051 131.141 187.828 133.016 187.245 134.96L182.064 150.959C180.929 154.739 176.378 156.367 172.815 154.146L157.655 144.702C156.056 143.705 153.934 143.705 152.325 144.702L137.55 154.146C133.987 156.367 129.072 154.739 127.937 150.959L122.745 134.96C122.163 133.016 123.939 131.141 126.17 131.2C139.346 131.536 148.555 127.144 153.549 124.39C154.487 123.867 155.523 123.877 156.441 124.39Z" fill="white" style="fill:white;fill-opacity:1;"/>
<path d="M148.91 59.5801L146.42 59.76L146.02 54.2301L138.9 43.52L141.67 43.3201L147.07 51.3501L151.23 42.63L154.09 42.42L148.51 54.01L148.92 59.5901L148.91 59.5801Z" fill="white" style="fill:white;fill-opacity:1;"/>
<path d="M133.22 61.6001L135.55 60.9401L135.56 60.9301L130.98 44.8201L128.89 45.41L126.21 59.3501L116.62 48.9L114.51 49.5001L119.09 65.6101L121.42 64.9501L118.39 54.3L126.76 63.4401L127.9 63.1101L130.19 50.9501L133.22 61.6001Z" fill="white" style="fill:white;fill-opacity:1;"/>
<path d="M104.12 72.98L94.5503 70.66L93.8198 71.12L97.5601 77.09L95.4502 78.42L86.5601 64.23L88.6699 62.9L92.52 69.04L93.0898 68.6801L95.0303 58.91L97.6602 57.26L95.5103 68.53L106.99 71.1801L104.13 72.98H104.12Z" fill="white" style="fill:white;fill-opacity:1;"/>
<path d="M88.8799 83.53L90.4497 82.1101L79.1997 69.7001L77.3296 71.3901L85.5396 80.4501L70.3496 77.7201L68.7798 79.1401L80.0298 91.55L81.8799 89.8701L73.8096 80.9601L88.8799 83.53Z" fill="white" style="fill:white;fill-opacity:1;"/>
<path fill-rule="evenodd" clip-rule="evenodd" d="M75.2202 96.9601L71.2002 95.77L66.52 101.76L68.6499 105.37L66.9902 107.5L58.02 91.77L59.4502 89.9301L76.8799 94.8201L75.2202 96.9501V96.9601ZM61.3198 92.88L65.2002 99.49L68.6699 95.04L61.3198 92.88Z" fill="white" style="fill:white;fill-opacity:1;"/>
<path fill-rule="evenodd" clip-rule="evenodd" d="M63.6499 113.11L55.1201 114.78L54.0298 116.76L59.8799 119.97L58.6802 122.16L44 114.09L47.54 107.65C49.0898 104.83 51.8999 103.93 54.5498 105.38C57.0698 106.76 57.8398 109.42 56.5601 112.1L65.1499 110.38L63.6602 113.1L63.6499 113.11ZM54.2402 111.35C55.0698 109.84 54.7002 108.33 53.3398 107.58C51.96 106.82 50.4902 107.32 49.6602 108.83L47.3198 113.08L51.8999 115.6L54.2402 111.35Z" fill="white" style="fill:white;fill-opacity:1;"/>
<path fill-rule="evenodd" clip-rule="evenodd" d="M184.08 54.64C185.04 49.86 182.48 45.78 177.27 44.73V44.74L171.92 43.66L168.62 60.0801L173.97 61.15C179.18 62.2001 183.12 59.42 184.08 54.64ZM181.6 54.15C180.92 57.5601 178.17 59.53 174.44 58.78L174.43 58.77L171.53 58.1901L173.88 46.53L176.78 47.11C180.51 47.86 182.29 50.74 181.6 54.15Z" fill="white" style="fill:white;fill-opacity:1;"/>
<path d="M198.43 68.88L187.63 64.5701L193.84 49.01L204.62 53.3101L203.72 55.5601L195.25 52.1801L193.5 56.5701L201.32 59.6901L200.43 61.92L192.61 58.8L190.84 63.24L199.33 66.63L198.43 68.88Z" fill="white" style="fill:white;fill-opacity:1;"/>
<path d="M213.7 77.7301L215.5 78.8501L224.37 64.65L222.23 63.3201L215.75 73.6801L214.24 58.3201L212.44 57.2001L203.57 71.4L205.69 72.7201L212.06 62.53L213.7 77.7301Z" fill="white" style="fill:white;fill-opacity:1;"/>
<path d="M234.95 76.51L225.4 87.1899L223.52 85.51L233.07 74.83L228.99 71.1799L230.61 69.37L240.67 78.37L239.05 80.1799L234.95 76.51Z" fill="white" style="fill:white;fill-opacity:1;"/>
<path d="M245.45 83.64L232.91 94.74L234.56 96.61L247.1 85.51L245.45 83.64Z" fill="white" style="fill:white;fill-opacity:1;"/>
<path d="M255.47 103.84L253.59 102.11C254.88 100.86 255.03 99.03 253.96 97.5C252.9 95.99 251.33 95.61 250.12 96.46C249.16 97.13 249.01 98.01 249.54 99.29L250.84 102.5C251.73 104.73 251.54 106.9 249.39 108.41C246.81 110.22 243.82 109.38 241.76 106.44C239.86 103.73 239.7 100.48 242.13 98.3L244.15 100.13C242.6 101.67 242.64 103.55 243.84 105.27C245.04 106.99 246.6 107.35 247.85 106.47C248.89 105.74 249.03 104.88 248.42 103.4L247.08 100.18C246.36 98.3199 246.11 96.0499 248.55 94.34C250.97 92.65 253.9 93.36 255.89 96.2C257.71 98.7999 257.5 101.73 255.47 103.84Z" fill="white" style="fill:white;fill-opacity:1;"/>
<path d="M251.16 121.66L263.94 115.19L266.43 120.09L268.59 118.99L262.49 106.95L260.33 108.05L262.8 112.94L250.02 119.41L251.16 121.66Z" fill="white" style="fill:white;fill-opacity:1;"/>
<path d="M134.922 272.19V271.254C135.194 271.038 135.51 270.798 135.87 270.534C136.23 270.27 136.594 269.982 136.962 269.67C137.338 269.358 137.686 269.026 138.006 268.674C138.326 268.322 138.582 267.954 138.774 267.57C138.974 267.178 139.074 266.778 139.074 266.37C139.074 265.93 138.954 265.574 138.714 265.302C138.474 265.022 138.114 264.882 137.634 264.882C137.274 264.882 136.974 264.966 136.734 265.134C136.502 265.302 136.33 265.53 136.218 265.818C136.106 266.106 136.046 266.426 136.038 266.778L134.886 266.694C134.886 266.302 134.946 265.93 135.066 265.578C135.186 265.226 135.362 264.914 135.594 264.642C135.834 264.362 136.126 264.142 136.47 263.982C136.822 263.822 137.222 263.742 137.67 263.742C138.182 263.742 138.626 263.85 139.002 264.066C139.386 264.282 139.686 264.582 139.902 264.966C140.118 265.35 140.226 265.802 140.226 266.322C140.226 266.762 140.146 267.186 139.986 267.594C139.834 268.002 139.618 268.394 139.338 268.77C139.058 269.138 138.734 269.486 138.366 269.814C137.998 270.142 137.602 270.454 137.178 270.75C136.754 271.038 136.314 271.302 135.858 271.542L136.17 271.098H140.562V272.19H134.922Z" fill="white" style="fill:white;fill-opacity:1;"/>
<path d="M149.269 272.286C148.781 272.286 148.369 272.198 148.033 272.022C147.705 271.846 147.433 271.61 147.217 271.314C147.009 271.01 146.849 270.674 146.737 270.306C146.633 269.93 146.561 269.542 146.521 269.142C146.481 268.734 146.461 268.346 146.461 267.978C146.461 267.61 146.477 267.23 146.509 266.838C146.549 266.438 146.621 266.054 146.725 265.686C146.837 265.31 146.997 264.974 147.205 264.678C147.413 264.382 147.681 264.146 148.009 263.97C148.345 263.794 148.753 263.706 149.233 263.706C149.705 263.706 150.105 263.794 150.433 263.97C150.761 264.138 151.029 264.366 151.237 264.654C151.453 264.942 151.617 265.27 151.729 265.638C151.841 266.006 151.917 266.394 151.957 266.802C152.005 267.202 152.029 267.594 152.029 267.978C152.029 268.378 152.005 268.782 151.957 269.19C151.917 269.598 151.837 269.986 151.717 270.354C151.605 270.722 151.445 271.054 151.237 271.35C151.029 271.638 150.765 271.866 150.445 272.034C150.125 272.202 149.733 272.286 149.269 272.286ZM149.269 271.158C149.669 271.158 149.981 271.018 150.205 270.738C150.437 270.458 150.601 270.082 150.697 269.61C150.793 269.138 150.841 268.61 150.841 268.026C150.841 267.41 150.789 266.866 150.685 266.394C150.589 265.914 150.425 265.534 150.193 265.254C149.961 264.974 149.641 264.834 149.233 264.834C148.913 264.834 148.649 264.918 148.441 265.086C148.241 265.254 148.085 265.486 147.973 265.782C147.861 266.078 147.781 266.418 147.733 266.802C147.685 267.178 147.661 267.582 147.661 268.014C147.661 268.43 147.685 268.826 147.733 269.202C147.781 269.578 147.861 269.914 147.973 270.21C148.093 270.498 148.257 270.73 148.465 270.906C148.673 271.074 148.941 271.158 149.269 271.158Z" fill="white" style="fill:white;fill-opacity:1;"/>
<path d="M157.952 272.19V271.254C158.224 271.038 158.54 270.798 158.9 270.534C159.26 270.27 159.624 269.982 159.992 269.67C160.368 269.358 160.716 269.026 161.036 268.674C161.356 268.322 161.612 267.954 161.804 267.57C162.004 267.178 162.104 266.778 162.104 266.37C162.104 265.93 161.984 265.574 161.744 265.302C161.504 265.022 161.144 264.882 160.664 264.882C160.304 264.882 160.004 264.966 159.764 265.134C159.532 265.302 159.36 265.53 159.248 265.818C159.136 266.106 159.076 266.426 159.068 266.778L157.916 266.694C157.916 266.302 157.976 265.93 158.096 265.578C158.216 265.226 158.392 264.914 158.624 264.642C158.864 264.362 159.156 264.142 159.5 263.982C159.852 263.822 160.252 263.742 160.7 263.742C161.212 263.742 161.656 263.85 162.032 264.066C162.416 264.282 162.716 264.582 162.932 264.966C163.148 265.35 163.256 265.802 163.256 266.322C163.256 266.762 163.176 267.186 163.016 267.594C162.864 268.002 162.648 268.394 162.368 268.77C162.088 269.138 161.764 269.486 161.396 269.814C161.028 270.142 160.632 270.454 160.208 270.75C159.784 271.038 159.344 271.302 158.888 271.542L159.2 271.098H163.592V272.19H157.952Z" fill="white" style="fill:white;fill-opacity:1;"/>
<path d="M172.251 272.298C171.747 272.298 171.283 272.19 170.859 271.974C170.443 271.758 170.099 271.466 169.827 271.098C169.555 270.722 169.379 270.298 169.299 269.826L170.451 269.622C170.499 269.894 170.595 270.15 170.739 270.39C170.891 270.63 171.091 270.822 171.339 270.966C171.595 271.102 171.891 271.17 172.227 271.17C172.611 271.17 172.931 271.082 173.187 270.906C173.451 270.722 173.651 270.49 173.787 270.21C173.923 269.922 173.991 269.618 173.991 269.298C173.991 268.994 173.927 268.714 173.799 268.458C173.671 268.202 173.479 267.998 173.223 267.846C172.975 267.686 172.663 267.606 172.287 267.606C171.943 267.606 171.635 267.686 171.363 267.846C171.099 267.998 170.875 268.21 170.691 268.482L169.551 268.182L170.343 263.826H174.855V264.918H170.775L171.399 264.426L170.835 267.522L170.487 267.438C170.799 267.078 171.123 266.834 171.459 266.706C171.803 266.57 172.135 266.502 172.455 266.502C172.999 266.502 173.479 266.63 173.895 266.886C174.319 267.142 174.647 267.482 174.879 267.906C175.111 268.33 175.227 268.794 175.227 269.298C175.227 269.698 175.155 270.078 175.011 270.438C174.867 270.798 174.659 271.118 174.387 271.398C174.123 271.678 173.807 271.898 173.439 272.058C173.079 272.218 172.683 272.298 172.251 272.298Z" fill="white" style="fill:white;fill-opacity:1;"/>
<path d="M41 147.61L42.8887 152.721L48 154.61L42.8887 156.499L41 161.61L39.1113 156.499L34 154.61L39.1113 152.721L41 147.61Z" fill="white" style="fill:white;fill-opacity:1;"/>
<path d="M269 147.61L270.889 152.721L276 154.61L270.889 156.499L269 161.61L267.111 156.499L262 154.61L267.111 152.721L269 147.61Z" fill="white" style="fill:white;fill-opacity:1;"/>
<path fill-rule="evenodd" clip-rule="evenodd" d="M265 178H45V177H265V178Z" fill="white" style="fill:white;fill-opacity:1;"/>
<path d="M66.7341 215V197.575H78.3091V200.15H69.6341V204.775H77.1591V207.375H69.6341V215H66.7341ZM87.3456 215L87.1456 212.925V207.225C87.1456 206.425 86.904 205.825 86.4206 205.425C85.9373 205.008 85.2623 204.8 84.3956 204.8C83.729 204.8 83.0706 204.933 82.4206 205.2C81.7873 205.45 81.204 205.842 80.6706 206.375L79.1206 204.55C79.9206 203.8 80.7706 203.267 81.6706 202.95C82.5706 202.617 83.554 202.45 84.6206 202.45C86.2873 202.45 87.579 202.875 88.4956 203.725C89.429 204.558 89.8956 205.725 89.8956 207.225V215H87.3456ZM83.5206 215.225C82.604 215.225 81.7873 215.058 81.0706 214.725C80.3706 214.392 79.8206 213.925 79.4206 213.325C79.0373 212.725 78.8456 212.025 78.8456 211.225C78.8456 210.542 78.9873 209.95 79.2706 209.45C79.5706 208.95 79.954 208.558 80.4206 208.275C80.8206 208.025 81.2873 207.85 81.8206 207.75C82.354 207.633 82.9123 207.575 83.4956 207.575H87.3706V209.65H83.8956C83.5956 209.65 83.2956 209.683 82.9956 209.75C82.6956 209.8 82.429 209.9 82.1956 210.05C82.029 210.183 81.8873 210.35 81.7706 210.55C81.6706 210.75 81.6206 210.983 81.6206 211.25C81.6206 211.783 81.8206 212.208 82.2206 212.525C82.6373 212.825 83.1873 212.975 83.8706 212.975C84.4706 212.975 85.0123 212.842 85.4956 212.575C85.9956 212.308 86.3956 211.942 86.6956 211.475C86.9956 211.008 87.1456 210.483 87.1456 209.9L87.9956 211.275C87.7956 212.142 87.479 212.875 87.0456 213.475C86.6123 214.058 86.0956 214.5 85.4956 214.8C84.8956 215.083 84.2373 215.225 83.5206 215.225ZM92.7443 215V202.675H95.5193V205.875L94.9193 206.225C95.0693 205.508 95.2776 204.908 95.5443 204.425C95.8276 203.942 96.1526 203.558 96.5193 203.275C96.8859 202.975 97.2776 202.767 97.6943 202.65C98.1276 202.517 98.5609 202.45 98.9943 202.45C99.6609 202.45 100.286 202.583 100.869 202.85C101.453 203.1 101.944 203.517 102.344 204.1C102.761 204.667 103.044 205.442 103.194 206.425L101.569 206.875C101.819 205.808 102.169 204.958 102.619 204.325C103.069 203.675 103.594 203.2 104.194 202.9C104.811 202.6 105.478 202.45 106.194 202.45C107.244 202.45 108.086 202.683 108.719 203.15C109.369 203.6 109.844 204.2 110.144 204.95C110.444 205.683 110.594 206.475 110.594 207.325V215H107.819V208C107.819 207.317 107.736 206.742 107.569 206.275C107.419 205.808 107.178 205.458 106.844 205.225C106.511 204.975 106.086 204.85 105.569 204.85C105.019 204.85 104.561 204.992 104.194 205.275C103.828 205.542 103.544 205.958 103.344 206.525C103.161 207.092 103.069 207.792 103.069 208.625V215H100.294V207.875C100.294 206.858 100.103 206.1 99.7193 205.6C99.3359 205.1 98.7943 204.85 98.0943 204.85C97.5443 204.85 97.0776 204.992 96.6943 205.275C96.3109 205.558 96.0193 205.983 95.8193 206.55C95.6193 207.1 95.5193 207.792 95.5193 208.625V215H92.7443ZM113.417 215V202.675H116.192V215H113.417ZM113.292 200.65V197.575H116.317V200.65H113.292ZM121.898 215.225C121.098 215.225 120.431 214.983 119.898 214.5C119.365 214 119.098 213.208 119.098 212.125V197.575H121.873V211.575C121.873 211.958 121.956 212.242 122.123 212.425C122.306 212.592 122.54 212.675 122.823 212.675C122.973 212.675 123.123 212.658 123.273 212.625C123.44 212.592 123.606 212.55 123.773 212.5V214.85C123.456 214.983 123.131 215.075 122.798 215.125C122.465 215.192 122.165 215.225 121.898 215.225ZM126.834 220.075L129.284 214.175L124.584 202.675H127.634L130.759 211.4L133.934 202.675H136.934L129.834 220.075H126.834ZM145.16 215V197.575H150.16C153.027 197.575 155.252 198.35 156.835 199.9C158.418 201.433 159.21 203.608 159.21 206.425C159.21 209.192 158.427 211.317 156.86 212.8C155.31 214.267 153.068 215 150.135 215H145.16ZM148.06 212.35H149.86C151.21 212.35 152.368 212.167 153.335 211.8C154.302 211.417 155.035 210.783 155.535 209.9C156.035 209.017 156.285 207.825 156.285 206.325C156.285 204.825 156.035 203.633 155.535 202.75C155.052 201.85 154.343 201.208 153.41 200.825C152.493 200.425 151.393 200.225 150.11 200.225H148.06V212.35ZM167.054 215.225C166.021 215.225 165.121 215.058 164.354 214.725C163.604 214.392 162.988 213.925 162.504 213.325C162.021 212.725 161.663 212.05 161.429 211.3C161.196 210.533 161.079 209.742 161.079 208.925C161.079 208.108 161.188 207.317 161.404 206.55C161.638 205.767 161.988 205.067 162.454 204.45C162.921 203.833 163.521 203.35 164.254 203C164.988 202.633 165.854 202.45 166.854 202.45C167.804 202.45 168.629 202.617 169.329 202.95C170.046 203.267 170.638 203.717 171.104 204.3C171.571 204.867 171.913 205.517 172.129 206.25C172.363 206.983 172.479 207.767 172.479 208.6C172.479 208.717 172.471 208.883 172.454 209.1C172.454 209.317 172.438 209.533 172.404 209.75H163.854C163.921 210.733 164.254 211.483 164.854 212C165.454 212.517 166.221 212.775 167.154 212.775C167.838 212.775 168.463 212.667 169.029 212.45C169.596 212.233 170.113 211.892 170.579 211.425L172.104 213.275C171.588 213.742 171.071 214.117 170.554 214.4C170.038 214.683 169.496 214.892 168.929 215.025C168.379 215.158 167.754 215.225 167.054 215.225ZM169.754 208.35C169.788 208.217 169.804 208.083 169.804 207.95C169.821 207.817 169.829 207.683 169.829 207.55C169.829 207.183 169.763 206.833 169.629 206.5C169.513 206.167 169.329 205.875 169.079 205.625C168.829 205.358 168.521 205.15 168.154 205C167.788 204.833 167.371 204.75 166.904 204.75C166.254 204.75 165.704 204.892 165.254 205.175C164.821 205.458 164.479 205.825 164.229 206.275C163.996 206.708 163.854 207.183 163.804 207.7H170.654L169.754 208.35ZM174.93 215V202.675H177.705V205.4L177.205 205.525C177.421 204.808 177.738 204.225 178.155 203.775C178.571 203.325 179.055 202.992 179.605 202.775C180.171 202.558 180.763 202.45 181.38 202.45C182.763 202.45 183.838 202.85 184.605 203.65C185.388 204.433 185.78 205.558 185.78 207.025V215H183.005V208.05C183.005 206.95 182.805 206.142 182.405 205.625C182.005 205.108 181.388 204.85 180.555 204.85C179.938 204.85 179.413 205 178.98 205.3C178.563 205.583 178.246 206.033 178.03 206.65C177.813 207.267 177.705 208.05 177.705 209V215H174.93ZM193.12 215.225C192.503 215.225 191.92 215.108 191.37 214.875C190.836 214.625 190.411 214.233 190.095 213.7C189.778 213.15 189.62 212.433 189.62 211.55V199.675L192.42 198.125V210.775C192.42 211.475 192.52 212.017 192.72 212.4C192.936 212.767 193.32 212.95 193.87 212.95C194.036 212.95 194.228 212.933 194.445 212.9C194.678 212.85 194.92 212.792 195.17 212.725V214.875C194.836 214.992 194.495 215.075 194.145 215.125C193.811 215.192 193.47 215.225 193.12 215.225ZM187.27 204.825V202.675H195.17V204.825H187.27ZM197.378 215V202.675H200.153V215H197.378ZM197.253 200.65V197.575H200.278V200.65H197.253ZM207.335 215.225C206.452 215.225 205.668 215.1 204.985 214.85C204.302 214.583 203.727 214.25 203.26 213.85C202.793 213.45 202.41 213.05 202.11 212.65L204.01 211C204.327 211.517 204.76 211.975 205.31 212.375C205.877 212.775 206.56 212.975 207.36 212.975C208.027 212.975 208.552 212.833 208.935 212.55C209.335 212.267 209.535 211.917 209.535 211.5C209.535 211.133 209.41 210.85 209.16 210.65C208.91 210.433 208.585 210.25 208.185 210.1C207.785 209.95 207.343 209.817 206.86 209.7C206.393 209.583 205.918 209.442 205.435 209.275C204.952 209.092 204.502 208.867 204.085 208.6C203.685 208.333 203.36 207.992 203.11 207.575C202.86 207.158 202.735 206.642 202.735 206.025C202.735 204.942 203.152 204.075 203.985 203.425C204.818 202.775 205.91 202.45 207.26 202.45C208.227 202.45 209.11 202.642 209.91 203.025C210.71 203.408 211.335 203.983 211.785 204.75L210.06 206.075C209.727 205.575 209.31 205.2 208.81 204.95C208.31 204.7 207.768 204.575 207.185 204.575C206.652 204.575 206.202 204.683 205.835 204.9C205.485 205.117 205.31 205.4 205.31 205.75C205.31 206.017 205.393 206.233 205.56 206.4C205.727 206.567 205.985 206.717 206.335 206.85C206.685 206.983 207.127 207.117 207.66 207.25C208.16 207.367 208.677 207.508 209.21 207.675C209.743 207.842 210.235 208.067 210.685 208.35C211.152 208.617 211.527 208.983 211.81 209.45C212.11 209.9 212.26 210.483 212.26 211.2C212.26 212 212.052 212.708 211.635 213.325C211.235 213.925 210.66 214.392 209.91 214.725C209.177 215.058 208.318 215.225 207.335 215.225ZM219.127 215.225C218.511 215.225 217.927 215.108 217.377 214.875C216.844 214.625 216.419 214.233 216.102 213.7C215.786 213.15 215.627 212.433 215.627 211.55V199.675L218.427 198.125V210.775C218.427 211.475 218.527 212.017 218.727 212.4C218.944 212.767 219.327 212.95 219.877 212.95C220.044 212.95 220.236 212.933 220.452 212.9C220.686 212.85 220.927 212.792 221.177 212.725V214.875C220.844 214.992 220.502 215.075 220.152 215.125C219.819 215.192 219.477 215.225 219.127 215.225ZM213.277 204.825V202.675H221.177V204.825H213.277ZM223.411 215V202.675H226.211V206L225.686 206.075C225.77 205.358 226.011 204.733 226.411 204.2C226.811 203.65 227.295 203.225 227.861 202.925C228.445 202.608 229.02 202.45 229.586 202.45C229.986 202.45 230.37 202.5 230.736 202.6C231.103 202.7 231.486 202.867 231.886 203.1L230.536 205.6C230.353 205.483 230.111 205.392 229.811 205.325C229.528 205.242 229.253 205.2 228.986 205.2C228.636 205.2 228.286 205.267 227.936 205.4C227.603 205.533 227.303 205.742 227.036 206.025C226.77 206.292 226.57 206.642 226.436 207.075C226.353 207.308 226.286 207.617 226.236 208C226.203 208.367 226.186 208.883 226.186 209.55V215H223.411ZM234.734 220.075L237.184 214.175L232.484 202.675H235.534L238.659 211.4L241.834 202.675H244.834L237.734 220.075H234.734ZM119.777 245L126.677 227.575H128.877L135.752 245H132.602L127.777 231.8L122.952 245H119.777ZM124.077 241.35L124.977 238.775H130.552L131.502 241.35H124.077ZM138.859 245L135.109 232.675H138.059L140.259 240.75L142.759 232.675H145.134L147.634 240.7L149.859 232.675H152.809L149.034 245H146.534L143.959 236.6L141.384 245H138.859ZM162.683 245L162.483 242.925V237.225C162.483 236.425 162.241 235.825 161.758 235.425C161.275 235.008 160.6 234.8 159.733 234.8C159.066 234.8 158.408 234.933 157.758 235.2C157.125 235.45 156.541 235.842 156.008 236.375L154.458 234.55C155.258 233.8 156.108 233.267 157.008 232.95C157.908 232.617 158.891 232.45 159.958 232.45C161.625 232.45 162.916 232.875 163.833 233.725C164.766 234.558 165.233 235.725 165.233 237.225V245H162.683ZM158.858 245.225C157.941 245.225 157.125 245.058 156.408 244.725C155.708 244.392 155.158 243.925 154.758 243.325C154.375 242.725 154.183 242.025 154.183 241.225C154.183 240.542 154.325 239.95 154.608 239.45C154.908 238.95 155.291 238.558 155.758 238.275C156.158 238.025 156.625 237.85 157.158 237.75C157.691 237.633 158.25 237.575 158.833 237.575H162.708V239.65H159.233C158.933 239.65 158.633 239.683 158.333 239.75C158.033 239.8 157.766 239.9 157.533 240.05C157.366 240.183 157.225 240.35 157.108 240.55C157.008 240.75 156.958 240.983 156.958 241.25C156.958 241.783 157.158 242.208 157.558 242.525C157.975 242.825 158.525 242.975 159.208 242.975C159.808 242.975 160.35 242.842 160.833 242.575C161.333 242.308 161.733 241.942 162.033 241.475C162.333 241.008 162.483 240.483 162.483 239.9L163.333 241.275C163.133 242.142 162.816 242.875 162.383 243.475C161.95 244.058 161.433 244.5 160.833 244.8C160.233 245.083 159.575 245.225 158.858 245.225ZM168.082 245V232.675H170.882V236L170.357 236.075C170.44 235.358 170.682 234.733 171.082 234.2C171.482 233.65 171.965 233.225 172.532 232.925C173.115 232.608 173.69 232.45 174.257 232.45C174.657 232.45 175.04 232.5 175.407 232.6C175.773 232.7 176.157 232.867 176.557 233.1L175.207 235.6C175.023 235.483 174.782 235.392 174.482 235.325C174.198 235.242 173.923 235.2 173.657 235.2C173.307 235.2 172.957 235.267 172.607 235.4C172.273 235.533 171.973 235.742 171.707 236.025C171.44 236.292 171.24 236.642 171.107 237.075C171.023 237.308 170.957 237.617 170.907 238C170.873 238.367 170.857 238.883 170.857 239.55V245H168.082ZM182.446 245.225C181.346 245.225 180.388 244.95 179.571 244.4C178.771 243.833 178.154 243.067 177.721 242.1C177.288 241.133 177.071 240.042 177.071 238.825C177.071 237.492 177.304 236.35 177.771 235.4C178.254 234.45 178.904 233.725 179.721 233.225C180.538 232.708 181.446 232.45 182.446 232.45C183.146 232.45 183.788 232.592 184.371 232.875C184.971 233.158 185.471 233.575 185.871 234.125C186.288 234.658 186.579 235.317 186.746 236.1L186.096 236.125V227.575H188.871V245H186.096V241.575L186.846 241.4C186.629 242.3 186.296 243.033 185.846 243.6C185.413 244.15 184.904 244.558 184.321 244.825C183.738 245.092 183.113 245.225 182.446 245.225ZM183.121 242.675C183.771 242.675 184.338 242.517 184.821 242.2C185.304 241.883 185.679 241.433 185.946 240.85C186.213 240.267 186.346 239.592 186.346 238.825C186.346 238.058 186.213 237.392 185.946 236.825C185.679 236.242 185.304 235.792 184.821 235.475C184.338 235.142 183.771 234.975 183.121 234.975C182.471 234.975 181.896 235.133 181.396 235.45C180.913 235.767 180.529 236.217 180.246 236.8C179.979 237.383 179.846 238.058 179.846 238.825C179.846 239.592 179.979 240.267 180.246 240.85C180.529 241.433 180.913 241.883 181.396 242.2C181.896 242.517 182.471 242.675 183.121 242.675Z" fill="white" style="fill:white;fill-opacity:1;"/>
</svg>
