<svg width="310" height="310" viewBox="0 0 310 310" fill="none" xmlns="http://www.w3.org/2000/svg">
<path d="M147.651 1.92236C152.217 -0.640785 157.783 -0.640785 162.349 1.92236L188.281 16.4702C190.473 17.7017 192.937 18.3625 195.44 18.3925L225.166 18.763C230.402 18.8231 235.218 21.6065 237.892 26.112L253.08 51.6733C254.362 53.836 256.164 55.6382 258.327 56.9198L283.888 72.1084C288.384 74.7817 291.167 79.5976 291.237 84.834L291.607 114.56C291.638 117.074 292.298 119.537 293.53 121.719L308.078 147.651C310.641 152.217 310.641 157.783 308.078 162.349L293.53 188.281C292.298 190.473 291.638 192.936 291.607 195.44L291.237 225.166C291.167 230.402 288.384 235.218 283.888 237.892L258.327 253.08C256.174 254.362 254.362 256.164 253.08 258.327L237.892 283.888C235.218 288.383 230.392 291.167 225.166 291.237L195.44 291.607C192.927 291.637 190.463 292.298 188.281 293.53L162.349 308.078C157.783 310.641 152.217 310.641 147.651 308.078L121.719 293.53C119.527 292.298 117.064 291.637 114.56 291.607L84.834 291.237C79.5976 291.167 74.7817 288.383 72.1084 283.888L56.9198 258.327C55.6382 256.174 53.836 254.362 51.6733 253.08L26.112 237.892C21.6165 235.218 18.8331 230.392 18.763 225.166L18.3925 195.44C18.3625 192.926 17.7017 190.463 16.4702 188.281L1.92236 162.349C-0.640786 157.783 -0.640786 152.217 1.92236 147.651L16.4702 121.719C17.7017 119.527 18.3625 117.063 18.3925 114.56L18.763 84.834C18.8231 79.5976 21.6065 74.7817 26.112 72.1084L51.6733 56.9198C53.836 55.6382 55.6382 53.836 56.9198 51.6733L72.1084 26.112C74.7817 21.6165 79.5976 18.8331 84.834 18.763L114.56 18.3925C117.074 18.3625 119.537 17.7017 121.719 16.4702L147.651 1.92236Z" fill="#227DF5" style="fill:#227DF5;fill:color(display-p3 0.1333 0.4919 0.9608);fill-opacity:1;"/>
<path d="M155 300C152.474 300 149.958 299.373 147.7 298.1L124.03 284.823C121.862 283.61 119.405 282.944 116.919 282.914L89.7776 282.576C84.6159 282.516 79.7725 279.712 77.1369 275.276L63.2729 251.934C61.9999 249.796 60.1998 247.996 58.0615 246.723L34.7195 232.859C30.2838 230.224 27.4891 225.38 27.4195 220.219L27.0813 193.078C27.0515 190.592 26.3951 188.135 25.1718 185.967L11.8946 162.297C9.36846 157.792 9.36846 152.203 11.8946 147.698L25.1718 124.028C26.3852 121.86 27.0515 119.403 27.0813 116.917L27.4195 89.7762C27.4792 84.6146 30.2838 79.7713 34.7195 77.1357L58.0615 63.272C60.1998 61.999 61.9999 60.1989 63.2729 58.0607L77.1369 34.719C79.7725 30.2834 84.6159 27.4888 89.7776 27.4192L116.919 27.0811C119.405 27.0512 121.862 26.3948 124.03 25.1716L147.7 11.8946C152.205 9.36847 157.795 9.36847 162.3 11.8946L185.97 25.1716C188.138 26.3849 190.595 27.0512 193.081 27.0811L220.222 27.4192C225.384 27.4789 230.228 30.2834 232.863 34.719L246.727 58.0607C248 60.1989 249.8 61.999 251.939 63.272L275.281 77.1357C279.716 79.7713 282.511 84.6146 282.58 89.7762L282.919 116.917C282.949 119.403 283.605 121.86 284.828 124.028L298.105 147.698C300.632 152.203 300.632 157.792 298.105 162.297L284.828 185.967C283.615 188.135 282.958 190.592 282.919 193.078L282.58 220.219C282.521 225.38 279.716 230.224 275.281 232.859L251.939 246.723C249.8 247.996 248 249.796 246.727 251.934L232.863 275.276C230.228 279.712 225.384 282.506 220.222 282.576L193.081 282.914C190.595 282.944 188.138 283.6 185.97 284.823L162.3 298.1C160.052 299.363 157.526 300 155 300ZM155 12.004C152.812 12.004 150.624 12.551 148.675 13.645L125.004 26.9219C122.548 28.3043 119.763 29.0502 116.939 29.0801L89.7975 29.4182C85.322 29.4779 81.125 31.8946 78.8376 35.7434L64.9736 59.085C63.5315 61.5117 61.4927 63.5505 59.0759 64.9826L35.7339 78.8463C31.885 81.1338 29.4683 85.3307 29.4086 89.8061L29.0704 116.947C29.0406 119.761 28.2848 122.556 26.9123 125.012L13.6351 148.682C11.4471 152.581 11.4471 157.434 13.6351 161.333L26.9123 185.003C28.2947 187.459 29.0406 190.254 29.0704 193.068L29.4086 220.209C29.4683 224.684 31.885 228.881 35.7339 231.169L59.0759 245.032C61.5026 246.474 63.5414 248.513 64.9736 250.93L78.8376 274.272C81.125 278.12 85.322 280.537 89.7975 280.597L116.939 280.935C119.753 280.965 122.538 281.721 125.004 283.093L148.675 296.37C152.573 298.558 157.427 298.558 161.325 296.37L184.996 283.093C187.452 281.711 190.247 280.965 193.061 280.935L220.202 280.597C224.678 280.537 228.875 278.12 231.162 274.272L245.026 250.93C246.469 248.503 248.507 246.464 250.924 245.032L274.266 231.169C278.115 228.881 280.532 224.684 280.591 220.209L280.93 193.068C280.969 190.254 281.715 187.459 283.088 185.003L296.365 161.333C298.553 157.434 298.553 152.581 296.365 148.682L283.088 125.012C281.705 122.556 280.959 119.771 280.93 116.947L280.591 89.8061C280.532 85.3307 278.115 81.1338 274.266 78.8463L250.924 64.9826C248.497 63.5405 246.459 61.5017 245.026 59.085L231.162 35.7434C228.875 31.8946 224.678 29.4779 220.202 29.4182L193.061 29.0801C190.247 29.0403 187.462 28.2944 184.996 26.9219L161.325 13.645C159.376 12.551 157.188 12.004 155 12.004Z" fill="white" style="fill:white;fill-opacity:1;"/>
<path d="M177.276 99.6776L191.134 96.5392H191.144C194.638 95.7497 197.776 98.6512 196.829 101.8L192.21 117.146C191.588 119.209 189.762 120.808 187.423 121.064C175.5 122.357 164.179 118.834 155 112.014C145.821 118.834 134.5 122.357 122.577 121.064C120.238 120.808 118.412 119.199 117.79 117.146L113.171 101.8C112.224 98.6512 115.362 95.7497 118.856 96.5392L132.714 99.6776C134.855 100.161 137.116 99.5888 138.675 98.1775L151.664 86.4034C153.51 84.7355 156.49 84.7355 158.326 86.4034L171.315 98.1775C172.874 99.5987 175.135 100.161 177.276 99.6776Z" fill="white" style="fill:white;fill-opacity:1;"/>
<path d="M156.441 124.39C161.426 127.144 170.644 131.536 183.82 131.2C186.051 131.141 187.828 133.016 187.245 134.96L182.064 150.959C180.929 154.739 176.378 156.367 172.815 154.146L157.655 144.702C156.056 143.705 153.934 143.705 152.325 144.702L137.55 154.146C133.987 156.367 129.072 154.739 127.937 150.959L122.745 134.96C122.163 133.016 123.939 131.141 126.17 131.2C139.346 131.536 148.555 127.144 153.549 124.39C154.487 123.867 155.523 123.877 156.441 124.39Z" fill="white" style="fill:white;fill-opacity:1;"/>
<path d="M148.91 59.5801L146.42 59.76L146.02 54.2301L138.9 43.52L141.67 43.3201L147.07 51.3501L151.23 42.63L154.09 42.42L148.51 54.01L148.92 59.5901L148.91 59.5801Z" fill="white" style="fill:white;fill-opacity:1;"/>
<path d="M133.22 61.6001L135.55 60.9401L135.56 60.9301L130.98 44.8201L128.89 45.41L126.21 59.3501L116.62 48.9L114.51 49.5001L119.09 65.6101L121.42 64.9501L118.39 54.3L126.76 63.4401L127.9 63.1101L130.19 50.9501L133.22 61.6001Z" fill="white" style="fill:white;fill-opacity:1;"/>
<path d="M104.12 72.98L94.5503 70.66L93.8198 71.12L97.5601 77.09L95.4502 78.42L86.5601 64.23L88.6699 62.9L92.52 69.04L93.0898 68.6801L95.0303 58.91L97.6602 57.26L95.5103 68.53L106.99 71.1801L104.13 72.98H104.12Z" fill="white" style="fill:white;fill-opacity:1;"/>
<path d="M88.8799 83.53L90.4497 82.1101L79.1997 69.7001L77.3296 71.3901L85.5396 80.4501L70.3496 77.7201L68.7798 79.1401L80.0298 91.55L81.8799 89.8701L73.8096 80.9601L88.8799 83.53Z" fill="white" style="fill:white;fill-opacity:1;"/>
<path fill-rule="evenodd" clip-rule="evenodd" d="M75.2202 96.9601L71.2002 95.77L66.52 101.76L68.6499 105.37L66.9902 107.5L58.02 91.77L59.4502 89.9301L76.8799 94.8201L75.2202 96.9501V96.9601ZM61.3198 92.88L65.2002 99.49L68.6699 95.04L61.3198 92.88Z" fill="white" style="fill:white;fill-opacity:1;"/>
<path fill-rule="evenodd" clip-rule="evenodd" d="M63.6499 113.11L55.1201 114.78L54.0298 116.76L59.8799 119.97L58.6802 122.16L44 114.09L47.54 107.65C49.0898 104.83 51.8999 103.93 54.5498 105.38C57.0698 106.76 57.8398 109.42 56.5601 112.1L65.1499 110.38L63.6602 113.1L63.6499 113.11ZM54.2402 111.35C55.0698 109.84 54.7002 108.33 53.3398 107.58C51.96 106.82 50.4902 107.32 49.6602 108.83L47.3198 113.08L51.8999 115.6L54.2402 111.35Z" fill="white" style="fill:white;fill-opacity:1;"/>
<path fill-rule="evenodd" clip-rule="evenodd" d="M184.08 54.64C185.04 49.86 182.48 45.78 177.27 44.73V44.74L171.92 43.66L168.62 60.0801L173.97 61.15C179.18 62.2001 183.12 59.42 184.08 54.64ZM181.6 54.15C180.92 57.5601 178.17 59.53 174.44 58.78L174.43 58.77L171.53 58.1901L173.88 46.53L176.78 47.11C180.51 47.86 182.29 50.74 181.6 54.15Z" fill="white" style="fill:white;fill-opacity:1;"/>
<path d="M198.43 68.88L187.63 64.5701L193.84 49.01L204.62 53.3101L203.72 55.5601L195.25 52.1801L193.5 56.5701L201.32 59.6901L200.43 61.92L192.61 58.8L190.84 63.24L199.33 66.63L198.43 68.88Z" fill="white" style="fill:white;fill-opacity:1;"/>
<path d="M213.7 77.7301L215.5 78.8501L224.37 64.65L222.23 63.3201L215.75 73.6801L214.24 58.3201L212.44 57.2001L203.57 71.4L205.69 72.7201L212.06 62.53L213.7 77.7301Z" fill="white" style="fill:white;fill-opacity:1;"/>
<path d="M234.95 76.51L225.4 87.1899L223.52 85.51L233.07 74.83L228.99 71.1799L230.61 69.37L240.67 78.37L239.05 80.1799L234.95 76.51Z" fill="white" style="fill:white;fill-opacity:1;"/>
<path d="M245.45 83.64L232.91 94.74L234.56 96.61L247.1 85.51L245.45 83.64Z" fill="white" style="fill:white;fill-opacity:1;"/>
<path d="M255.47 103.84L253.59 102.11C254.88 100.86 255.03 99.03 253.96 97.5C252.9 95.99 251.33 95.61 250.12 96.46C249.16 97.13 249.01 98.01 249.54 99.29L250.84 102.5C251.73 104.73 251.54 106.9 249.39 108.41C246.81 110.22 243.82 109.38 241.76 106.44C239.86 103.73 239.7 100.48 242.13 98.3L244.15 100.13C242.6 101.67 242.64 103.55 243.84 105.27C245.04 106.99 246.6 107.35 247.85 106.47C248.89 105.74 249.03 104.88 248.42 103.4L247.08 100.18C246.36 98.3199 246.11 96.0499 248.55 94.34C250.97 92.65 253.9 93.36 255.89 96.2C257.71 98.7999 257.5 101.73 255.47 103.84Z" fill="white" style="fill:white;fill-opacity:1;"/>
<path d="M251.16 121.66L263.94 115.19L266.43 120.09L268.59 118.99L262.49 106.95L260.33 108.05L262.8 112.94L250.02 119.41L251.16 121.66Z" fill="white" style="fill:white;fill-opacity:1;"/>
<path d="M134.922 272.19V271.254C135.194 271.038 135.51 270.798 135.87 270.534C136.23 270.27 136.594 269.982 136.962 269.67C137.338 269.358 137.686 269.026 138.006 268.674C138.326 268.322 138.582 267.954 138.774 267.57C138.974 267.178 139.074 266.778 139.074 266.37C139.074 265.93 138.954 265.574 138.714 265.302C138.474 265.022 138.114 264.882 137.634 264.882C137.274 264.882 136.974 264.966 136.734 265.134C136.502 265.302 136.33 265.53 136.218 265.818C136.106 266.106 136.046 266.426 136.038 266.778L134.886 266.694C134.886 266.302 134.946 265.93 135.066 265.578C135.186 265.226 135.362 264.914 135.594 264.642C135.834 264.362 136.126 264.142 136.47 263.982C136.822 263.822 137.222 263.742 137.67 263.742C138.182 263.742 138.626 263.85 139.002 264.066C139.386 264.282 139.686 264.582 139.902 264.966C140.118 265.35 140.226 265.802 140.226 266.322C140.226 266.762 140.146 267.186 139.986 267.594C139.834 268.002 139.618 268.394 139.338 268.77C139.058 269.138 138.734 269.486 138.366 269.814C137.998 270.142 137.602 270.454 137.178 270.75C136.754 271.038 136.314 271.302 135.858 271.542L136.17 271.098H140.562V272.19H134.922Z" fill="white" style="fill:white;fill-opacity:1;"/>
<path d="M149.269 272.286C148.781 272.286 148.369 272.198 148.033 272.022C147.705 271.846 147.433 271.61 147.217 271.314C147.009 271.01 146.849 270.674 146.737 270.306C146.633 269.93 146.561 269.542 146.521 269.142C146.481 268.734 146.461 268.346 146.461 267.978C146.461 267.61 146.477 267.23 146.509 266.838C146.549 266.438 146.621 266.054 146.725 265.686C146.837 265.31 146.997 264.974 147.205 264.678C147.413 264.382 147.681 264.146 148.009 263.97C148.345 263.794 148.753 263.706 149.233 263.706C149.705 263.706 150.105 263.794 150.433 263.97C150.761 264.138 151.029 264.366 151.237 264.654C151.453 264.942 151.617 265.27 151.729 265.638C151.841 266.006 151.917 266.394 151.957 266.802C152.005 267.202 152.029 267.594 152.029 267.978C152.029 268.378 152.005 268.782 151.957 269.19C151.917 269.598 151.837 269.986 151.717 270.354C151.605 270.722 151.445 271.054 151.237 271.35C151.029 271.638 150.765 271.866 150.445 272.034C150.125 272.202 149.733 272.286 149.269 272.286ZM149.269 271.158C149.669 271.158 149.981 271.018 150.205 270.738C150.437 270.458 150.601 270.082 150.697 269.61C150.793 269.138 150.841 268.61 150.841 268.026C150.841 267.41 150.789 266.866 150.685 266.394C150.589 265.914 150.425 265.534 150.193 265.254C149.961 264.974 149.641 264.834 149.233 264.834C148.913 264.834 148.649 264.918 148.441 265.086C148.241 265.254 148.085 265.486 147.973 265.782C147.861 266.078 147.781 266.418 147.733 266.802C147.685 267.178 147.661 267.582 147.661 268.014C147.661 268.43 147.685 268.826 147.733 269.202C147.781 269.578 147.861 269.914 147.973 270.21C148.093 270.498 148.257 270.73 148.465 270.906C148.673 271.074 148.941 271.158 149.269 271.158Z" fill="white" style="fill:white;fill-opacity:1;"/>
<path d="M157.952 272.19V271.254C158.224 271.038 158.54 270.798 158.9 270.534C159.26 270.27 159.624 269.982 159.992 269.67C160.368 269.358 160.716 269.026 161.036 268.674C161.356 268.322 161.612 267.954 161.804 267.57C162.004 267.178 162.104 266.778 162.104 266.37C162.104 265.93 161.984 265.574 161.744 265.302C161.504 265.022 161.144 264.882 160.664 264.882C160.304 264.882 160.004 264.966 159.764 265.134C159.532 265.302 159.36 265.53 159.248 265.818C159.136 266.106 159.076 266.426 159.068 266.778L157.916 266.694C157.916 266.302 157.976 265.93 158.096 265.578C158.216 265.226 158.392 264.914 158.624 264.642C158.864 264.362 159.156 264.142 159.5 263.982C159.852 263.822 160.252 263.742 160.7 263.742C161.212 263.742 161.656 263.85 162.032 264.066C162.416 264.282 162.716 264.582 162.932 264.966C163.148 265.35 163.256 265.802 163.256 266.322C163.256 266.762 163.176 267.186 163.016 267.594C162.864 268.002 162.648 268.394 162.368 268.77C162.088 269.138 161.764 269.486 161.396 269.814C161.028 270.142 160.632 270.454 160.208 270.75C159.784 271.038 159.344 271.302 158.888 271.542L159.2 271.098H163.592V272.19H157.952Z" fill="white" style="fill:white;fill-opacity:1;"/>
<path d="M172.251 272.298C171.747 272.298 171.283 272.19 170.859 271.974C170.443 271.758 170.099 271.466 169.827 271.098C169.555 270.722 169.379 270.298 169.299 269.826L170.451 269.622C170.499 269.894 170.595 270.15 170.739 270.39C170.891 270.63 171.091 270.822 171.339 270.966C171.595 271.102 171.891 271.17 172.227 271.17C172.611 271.17 172.931 271.082 173.187 270.906C173.451 270.722 173.651 270.49 173.787 270.21C173.923 269.922 173.991 269.618 173.991 269.298C173.991 268.994 173.927 268.714 173.799 268.458C173.671 268.202 173.479 267.998 173.223 267.846C172.975 267.686 172.663 267.606 172.287 267.606C171.943 267.606 171.635 267.686 171.363 267.846C171.099 267.998 170.875 268.21 170.691 268.482L169.551 268.182L170.343 263.826H174.855V264.918H170.775L171.399 264.426L170.835 267.522L170.487 267.438C170.799 267.078 171.123 266.834 171.459 266.706C171.803 266.57 172.135 266.502 172.455 266.502C172.999 266.502 173.479 266.63 173.895 266.886C174.319 267.142 174.647 267.482 174.879 267.906C175.111 268.33 175.227 268.794 175.227 269.298C175.227 269.698 175.155 270.078 175.011 270.438C174.867 270.798 174.659 271.118 174.387 271.398C174.123 271.678 173.807 271.898 173.439 272.058C173.079 272.218 172.683 272.298 172.251 272.298Z" fill="white" style="fill:white;fill-opacity:1;"/>
<path d="M41 147.61L42.8887 152.721L48 154.61L42.8887 156.499L41 161.61L39.1113 156.499L34 154.61L39.1113 152.721L41 147.61Z" fill="white" style="fill:white;fill-opacity:1;"/>
<path d="M269 147.61L270.889 152.721L276 154.61L270.889 156.499L269 161.61L267.111 156.499L262 154.61L267.111 152.721L269 147.61Z" fill="white" style="fill:white;fill-opacity:1;"/>
<path fill-rule="evenodd" clip-rule="evenodd" d="M265 178H45V177H265V178Z" fill="white" style="fill:white;fill-opacity:1;"/>
<path d="M66.0304 215.35C64.4637 215.35 63.0721 214.975 61.8554 214.225C60.6387 213.475 59.6887 212.417 59.0054 211.05C58.3221 209.683 57.9804 208.092 57.9804 206.275C57.9804 204.458 58.3221 202.875 59.0054 201.525C59.7054 200.158 60.6721 199.1 61.9054 198.35C63.1387 197.6 64.5721 197.225 66.2054 197.225C68.0221 197.225 69.5887 197.675 70.9054 198.575C72.2387 199.475 73.1971 200.725 73.7804 202.325L71.0804 203.3C70.6804 202.25 70.0637 201.433 69.2304 200.85C68.3971 200.267 67.3887 199.975 66.2054 199.975C65.1221 199.975 64.1804 200.233 63.3804 200.75C62.5804 201.267 61.9554 201.992 61.5054 202.925C61.0721 203.858 60.8554 204.975 60.8554 206.275C60.8554 207.575 61.0721 208.7 61.5054 209.65C61.9554 210.583 62.5804 211.308 63.3804 211.825C64.1804 212.342 65.1221 212.6 66.2054 212.6C66.7721 212.6 67.3471 212.525 67.9304 212.375C68.5137 212.208 69.0554 211.933 69.5554 211.55C70.0554 211.167 70.4554 210.633 70.7554 209.95C71.0721 209.25 71.2304 208.375 71.2304 207.325V206.225L71.8804 208.225H66.9054V205.65H73.7804V215H71.2304L70.8304 211.975L71.3304 212.375C71.0137 213.042 70.5887 213.6 70.0554 214.05C69.5387 214.483 68.9304 214.808 68.2304 215.025C67.5471 215.242 66.8137 215.35 66.0304 215.35ZM82.0398 215.225C81.0064 215.225 80.1064 215.058 79.3398 214.725C78.5898 214.392 77.9731 213.925 77.4898 213.325C77.0064 212.725 76.6481 212.05 76.4148 211.3C76.1814 210.533 76.0648 209.742 76.0648 208.925C76.0648 208.108 76.1731 207.317 76.3898 206.55C76.6231 205.767 76.9731 205.067 77.4398 204.45C77.9064 203.833 78.5064 203.35 79.2398 203C79.9731 202.633 80.8398 202.45 81.8398 202.45C82.7898 202.45 83.6148 202.617 84.3148 202.95C85.0314 203.267 85.6231 203.717 86.0898 204.3C86.5564 204.867 86.8981 205.517 87.1148 206.25C87.3481 206.983 87.4648 207.767 87.4648 208.6C87.4648 208.717 87.4564 208.883 87.4398 209.1C87.4398 209.317 87.4231 209.533 87.3898 209.75H78.8398C78.9064 210.733 79.2398 211.483 79.8398 212C80.4398 212.517 81.2064 212.775 82.1398 212.775C82.8231 212.775 83.4481 212.667 84.0148 212.45C84.5814 212.233 85.0981 211.892 85.5648 211.425L87.0898 213.275C86.5731 213.742 86.0564 214.117 85.5398 214.4C85.0231 214.683 84.4814 214.892 83.9148 215.025C83.3648 215.158 82.7398 215.225 82.0398 215.225ZM84.7398 208.35C84.7731 208.217 84.7898 208.083 84.7898 207.95C84.8064 207.817 84.8148 207.683 84.8148 207.55C84.8148 207.183 84.7481 206.833 84.6148 206.5C84.4981 206.167 84.3148 205.875 84.0648 205.625C83.8148 205.358 83.5064 205.15 83.1398 205C82.7731 204.833 82.3564 204.75 81.8898 204.75C81.2398 204.75 80.6898 204.892 80.2398 205.175C79.8064 205.458 79.4648 205.825 79.2148 206.275C78.9814 206.708 78.8398 207.183 78.7898 207.7H85.6398L84.7398 208.35ZM89.9152 215V202.675H92.6902V205.4L92.1902 205.525C92.4068 204.808 92.7235 204.225 93.1402 203.775C93.5568 203.325 94.0402 202.992 94.5902 202.775C95.1568 202.558 95.7485 202.45 96.3652 202.45C97.7485 202.45 98.8235 202.85 99.5902 203.65C100.374 204.433 100.765 205.558 100.765 207.025V215H97.9902V208.05C97.9902 206.95 97.7902 206.142 97.3902 205.625C96.9902 205.108 96.3735 204.85 95.5402 204.85C94.9235 204.85 94.3985 205 93.9652 205.3C93.5485 205.583 93.2318 206.033 93.0152 206.65C92.7985 207.267 92.6902 208.05 92.6902 209V215H89.9152ZM109.03 215.225C107.997 215.225 107.097 215.058 106.33 214.725C105.58 214.392 104.963 213.925 104.48 213.325C103.997 212.725 103.638 212.05 103.405 211.3C103.172 210.533 103.055 209.742 103.055 208.925C103.055 208.108 103.163 207.317 103.38 206.55C103.613 205.767 103.963 205.067 104.43 204.45C104.897 203.833 105.497 203.35 106.23 203C106.963 202.633 107.83 202.45 108.83 202.45C109.78 202.45 110.605 202.617 111.305 202.95C112.022 203.267 112.613 203.717 113.08 204.3C113.547 204.867 113.888 205.517 114.105 206.25C114.338 206.983 114.455 207.767 114.455 208.6C114.455 208.717 114.447 208.883 114.43 209.1C114.43 209.317 114.413 209.533 114.38 209.75H105.83C105.897 210.733 106.23 211.483 106.83 212C107.43 212.517 108.197 212.775 109.13 212.775C109.813 212.775 110.438 212.667 111.005 212.45C111.572 212.233 112.088 211.892 112.555 211.425L114.08 213.275C113.563 213.742 113.047 214.117 112.53 214.4C112.013 214.683 111.472 214.892 110.905 215.025C110.355 215.158 109.73 215.225 109.03 215.225ZM111.73 208.35C111.763 208.217 111.78 208.083 111.78 207.95C111.797 207.817 111.805 207.683 111.805 207.55C111.805 207.183 111.738 206.833 111.605 206.5C111.488 206.167 111.305 205.875 111.055 205.625C110.805 205.358 110.497 205.15 110.13 205C109.763 204.833 109.347 204.75 108.88 204.75C108.23 204.75 107.68 204.892 107.23 205.175C106.797 205.458 106.455 205.825 106.205 206.275C105.972 206.708 105.83 207.183 105.78 207.7H112.63L111.73 208.35ZM116.905 215V202.675H119.705V206L119.18 206.075C119.264 205.358 119.505 204.733 119.905 204.2C120.305 203.65 120.789 203.225 121.355 202.925C121.939 202.608 122.514 202.45 123.08 202.45C123.48 202.45 123.864 202.5 124.23 202.6C124.597 202.7 124.98 202.867 125.38 203.1L124.03 205.6C123.847 205.483 123.605 205.392 123.305 205.325C123.022 205.242 122.747 205.2 122.48 205.2C122.13 205.2 121.78 205.267 121.43 205.4C121.097 205.533 120.797 205.742 120.53 206.025C120.264 206.292 120.064 206.642 119.93 207.075C119.847 207.308 119.78 207.617 119.73 208C119.697 208.367 119.68 208.883 119.68 209.55V215H116.905ZM134.835 215L134.635 212.925V207.225C134.635 206.425 134.393 205.825 133.91 205.425C133.427 205.008 132.752 204.8 131.885 204.8C131.218 204.8 130.56 204.933 129.91 205.2C129.277 205.45 128.693 205.842 128.16 206.375L126.61 204.55C127.41 203.8 128.26 203.267 129.16 202.95C130.06 202.617 131.043 202.45 132.11 202.45C133.777 202.45 135.068 202.875 135.985 203.725C136.918 204.558 137.385 205.725 137.385 207.225V215H134.835ZM131.01 215.225C130.093 215.225 129.277 215.058 128.56 214.725C127.86 214.392 127.31 213.925 126.91 213.325C126.527 212.725 126.335 212.025 126.335 211.225C126.335 210.542 126.477 209.95 126.76 209.45C127.06 208.95 127.443 208.558 127.91 208.275C128.31 208.025 128.777 207.85 129.31 207.75C129.843 207.633 130.402 207.575 130.985 207.575H134.86V209.65H131.385C131.085 209.65 130.785 209.683 130.485 209.75C130.185 209.8 129.918 209.9 129.685 210.05C129.518 210.183 129.377 210.35 129.26 210.55C129.16 210.75 129.11 210.983 129.11 211.25C129.11 211.783 129.31 212.208 129.71 212.525C130.127 212.825 130.677 212.975 131.36 212.975C131.96 212.975 132.502 212.842 132.985 212.575C133.485 212.308 133.885 211.942 134.185 211.475C134.485 211.008 134.635 210.483 134.635 209.9L135.485 211.275C135.285 212.142 134.968 212.875 134.535 213.475C134.102 214.058 133.585 214.5 132.985 214.8C132.385 215.083 131.727 215.225 131.01 215.225ZM142.959 215.225C142.159 215.225 141.492 214.983 140.959 214.5C140.425 214 140.159 213.208 140.159 212.125V197.575H142.934V211.575C142.934 211.958 143.017 212.242 143.184 212.425C143.367 212.592 143.6 212.675 143.884 212.675C144.034 212.675 144.184 212.658 144.334 212.625C144.5 212.592 144.667 212.55 144.834 212.5V214.85C144.517 214.983 144.192 215.075 143.859 215.125C143.525 215.192 143.225 215.225 142.959 215.225ZM153.214 215V197.575H158.214C161.08 197.575 163.305 198.35 164.889 199.9C166.472 201.433 167.264 203.608 167.264 206.425C167.264 209.192 166.48 211.317 164.914 212.8C163.364 214.267 161.122 215 158.189 215H153.214ZM156.114 212.35H157.914C159.264 212.35 160.422 212.167 161.389 211.8C162.355 211.417 163.089 210.783 163.589 209.9C164.089 209.017 164.339 207.825 164.339 206.325C164.339 204.825 164.089 203.633 163.589 202.75C163.105 201.85 162.397 201.208 161.464 200.825C160.547 200.425 159.447 200.225 158.164 200.225H156.114V212.35ZM175.108 215.225C174.075 215.225 173.175 215.058 172.408 214.725C171.658 214.392 171.041 213.925 170.558 213.325C170.075 212.725 169.716 212.05 169.483 211.3C169.25 210.533 169.133 209.742 169.133 208.925C169.133 208.108 169.241 207.317 169.458 206.55C169.691 205.767 170.041 205.067 170.508 204.45C170.975 203.833 171.575 203.35 172.308 203C173.041 202.633 173.908 202.45 174.908 202.45C175.858 202.45 176.683 202.617 177.383 202.95C178.1 203.267 178.691 203.717 179.158 204.3C179.625 204.867 179.966 205.517 180.183 206.25C180.416 206.983 180.533 207.767 180.533 208.6C180.533 208.717 180.525 208.883 180.508 209.1C180.508 209.317 180.491 209.533 180.458 209.75H171.908C171.975 210.733 172.308 211.483 172.908 212C173.508 212.517 174.275 212.775 175.208 212.775C175.891 212.775 176.516 212.667 177.083 212.45C177.65 212.233 178.166 211.892 178.633 211.425L180.158 213.275C179.641 213.742 179.125 214.117 178.608 214.4C178.091 214.683 177.55 214.892 176.983 215.025C176.433 215.158 175.808 215.225 175.108 215.225ZM177.808 208.35C177.841 208.217 177.858 208.083 177.858 207.95C177.875 207.817 177.883 207.683 177.883 207.55C177.883 207.183 177.816 206.833 177.683 206.5C177.566 206.167 177.383 205.875 177.133 205.625C176.883 205.358 176.575 205.15 176.208 205C175.841 204.833 175.425 204.75 174.958 204.75C174.308 204.75 173.758 204.892 173.308 205.175C172.875 205.458 172.533 205.825 172.283 206.275C172.05 206.708 171.908 207.183 171.858 207.7H178.708L177.808 208.35ZM182.984 215V202.675H185.759V205.4L185.259 205.525C185.475 204.808 185.792 204.225 186.209 203.775C186.625 203.325 187.109 202.992 187.659 202.775C188.225 202.558 188.817 202.45 189.434 202.45C190.817 202.45 191.892 202.85 192.659 203.65C193.442 204.433 193.834 205.558 193.834 207.025V215H191.059V208.05C191.059 206.95 190.859 206.142 190.459 205.625C190.059 205.108 189.442 204.85 188.609 204.85C187.992 204.85 187.467 205 187.034 205.3C186.617 205.583 186.3 206.033 186.084 206.65C185.867 207.267 185.759 208.05 185.759 209V215H182.984ZM201.173 215.225C200.557 215.225 199.973 215.108 199.423 214.875C198.89 214.625 198.465 214.233 198.148 213.7C197.832 213.15 197.673 212.433 197.673 211.55V199.675L200.473 198.125V210.775C200.473 211.475 200.573 212.017 200.773 212.4C200.99 212.767 201.373 212.95 201.923 212.95C202.09 212.95 202.282 212.933 202.498 212.9C202.732 212.85 202.973 212.792 203.223 212.725V214.875C202.89 214.992 202.548 215.075 202.198 215.125C201.865 215.192 201.523 215.225 201.173 215.225ZM195.323 204.825V202.675H203.223V204.825H195.323ZM205.432 215V202.675H208.207V215H205.432ZM205.307 200.65V197.575H208.332V200.65H205.307ZM215.389 215.225C214.505 215.225 213.722 215.1 213.039 214.85C212.355 214.583 211.78 214.25 211.314 213.85C210.847 213.45 210.464 213.05 210.164 212.65L212.064 211C212.38 211.517 212.814 211.975 213.364 212.375C213.93 212.775 214.614 212.975 215.414 212.975C216.08 212.975 216.605 212.833 216.989 212.55C217.389 212.267 217.589 211.917 217.589 211.5C217.589 211.133 217.464 210.85 217.214 210.65C216.964 210.433 216.639 210.25 216.239 210.1C215.839 209.95 215.397 209.817 214.914 209.7C214.447 209.583 213.972 209.442 213.489 209.275C213.005 209.092 212.555 208.867 212.139 208.6C211.739 208.333 211.414 207.992 211.164 207.575C210.914 207.158 210.789 206.642 210.789 206.025C210.789 204.942 211.205 204.075 212.039 203.425C212.872 202.775 213.964 202.45 215.314 202.45C216.28 202.45 217.164 202.642 217.964 203.025C218.764 203.408 219.389 203.983 219.839 204.75L218.114 206.075C217.78 205.575 217.364 205.2 216.864 204.95C216.364 204.7 215.822 204.575 215.239 204.575C214.705 204.575 214.255 204.683 213.889 204.9C213.539 205.117 213.364 205.4 213.364 205.75C213.364 206.017 213.447 206.233 213.614 206.4C213.78 206.567 214.039 206.717 214.389 206.85C214.739 206.983 215.18 207.117 215.714 207.25C216.214 207.367 216.73 207.508 217.264 207.675C217.797 207.842 218.289 208.067 218.739 208.35C219.205 208.617 219.58 208.983 219.864 209.45C220.164 209.9 220.314 210.483 220.314 211.2C220.314 212 220.105 212.708 219.689 213.325C219.289 213.925 218.714 214.392 217.964 214.725C217.23 215.058 216.372 215.225 215.389 215.225ZM227.181 215.225C226.565 215.225 225.981 215.108 225.431 214.875C224.898 214.625 224.473 214.233 224.156 213.7C223.84 213.15 223.681 212.433 223.681 211.55V199.675L226.481 198.125V210.775C226.481 211.475 226.581 212.017 226.781 212.4C226.998 212.767 227.381 212.95 227.931 212.95C228.098 212.95 228.29 212.933 228.506 212.9C228.74 212.85 228.981 212.792 229.231 212.725V214.875C228.898 214.992 228.556 215.075 228.206 215.125C227.873 215.192 227.531 215.225 227.181 215.225ZM221.331 204.825V202.675H229.231V204.825H221.331ZM231.465 215V202.675H234.265V206L233.74 206.075C233.823 205.358 234.065 204.733 234.465 204.2C234.865 203.65 235.348 203.225 235.915 202.925C236.498 202.608 237.073 202.45 237.64 202.45C238.04 202.45 238.423 202.5 238.79 202.6C239.157 202.7 239.54 202.867 239.94 203.1L238.59 205.6C238.407 205.483 238.165 205.392 237.865 205.325C237.582 205.242 237.307 205.2 237.04 205.2C236.69 205.2 236.34 205.267 235.99 205.4C235.657 205.533 235.357 205.742 235.09 206.025C234.823 206.292 234.623 206.642 234.49 207.075C234.407 207.308 234.34 207.617 234.29 208C234.257 208.367 234.24 208.883 234.24 209.55V215H231.465ZM242.788 220.075L245.238 214.175L240.538 202.675H243.588L246.713 211.4L249.888 202.675H252.888L245.788 220.075H242.788ZM119.777 245L126.677 227.575H128.877L135.752 245H132.602L127.777 231.8L122.952 245H119.777ZM124.077 241.35L124.977 238.775H130.552L131.502 241.35H124.077ZM138.859 245L135.109 232.675H138.059L140.259 240.75L142.759 232.675H145.134L147.634 240.7L149.859 232.675H152.809L149.034 245H146.534L143.959 236.6L141.384 245H138.859ZM162.683 245L162.483 242.925V237.225C162.483 236.425 162.241 235.825 161.758 235.425C161.275 235.008 160.6 234.8 159.733 234.8C159.066 234.8 158.408 234.933 157.758 235.2C157.125 235.45 156.541 235.842 156.008 236.375L154.458 234.55C155.258 233.8 156.108 233.267 157.008 232.95C157.908 232.617 158.891 232.45 159.958 232.45C161.625 232.45 162.916 232.875 163.833 233.725C164.766 234.558 165.233 235.725 165.233 237.225V245H162.683ZM158.858 245.225C157.941 245.225 157.125 245.058 156.408 244.725C155.708 244.392 155.158 243.925 154.758 243.325C154.375 242.725 154.183 242.025 154.183 241.225C154.183 240.542 154.325 239.95 154.608 239.45C154.908 238.95 155.291 238.558 155.758 238.275C156.158 238.025 156.625 237.85 157.158 237.75C157.691 237.633 158.25 237.575 158.833 237.575H162.708V239.65H159.233C158.933 239.65 158.633 239.683 158.333 239.75C158.033 239.8 157.766 239.9 157.533 240.05C157.366 240.183 157.225 240.35 157.108 240.55C157.008 240.75 156.958 240.983 156.958 241.25C156.958 241.783 157.158 242.208 157.558 242.525C157.975 242.825 158.525 242.975 159.208 242.975C159.808 242.975 160.35 242.842 160.833 242.575C161.333 242.308 161.733 241.942 162.033 241.475C162.333 241.008 162.483 240.483 162.483 239.9L163.333 241.275C163.133 242.142 162.816 242.875 162.383 243.475C161.95 244.058 161.433 244.5 160.833 244.8C160.233 245.083 159.575 245.225 158.858 245.225ZM168.082 245V232.675H170.882V236L170.357 236.075C170.44 235.358 170.682 234.733 171.082 234.2C171.482 233.65 171.965 233.225 172.532 232.925C173.115 232.608 173.69 232.45 174.257 232.45C174.657 232.45 175.04 232.5 175.407 232.6C175.773 232.7 176.157 232.867 176.557 233.1L175.207 235.6C175.023 235.483 174.782 235.392 174.482 235.325C174.198 235.242 173.923 235.2 173.657 235.2C173.307 235.2 172.957 235.267 172.607 235.4C172.273 235.533 171.973 235.742 171.707 236.025C171.44 236.292 171.24 236.642 171.107 237.075C171.023 237.308 170.957 237.617 170.907 238C170.873 238.367 170.857 238.883 170.857 239.55V245H168.082ZM182.446 245.225C181.346 245.225 180.388 244.95 179.571 244.4C178.771 243.833 178.154 243.067 177.721 242.1C177.288 241.133 177.071 240.042 177.071 238.825C177.071 237.492 177.304 236.35 177.771 235.4C178.254 234.45 178.904 233.725 179.721 233.225C180.538 232.708 181.446 232.45 182.446 232.45C183.146 232.45 183.788 232.592 184.371 232.875C184.971 233.158 185.471 233.575 185.871 234.125C186.288 234.658 186.579 235.317 186.746 236.1L186.096 236.125V227.575H188.871V245H186.096V241.575L186.846 241.4C186.629 242.3 186.296 243.033 185.846 243.6C185.413 244.15 184.904 244.558 184.321 244.825C183.738 245.092 183.113 245.225 182.446 245.225ZM183.121 242.675C183.771 242.675 184.338 242.517 184.821 242.2C185.304 241.883 185.679 241.433 185.946 240.85C186.213 240.267 186.346 239.592 186.346 238.825C186.346 238.058 186.213 237.392 185.946 236.825C185.679 236.242 185.304 235.792 184.821 235.475C184.338 235.142 183.771 234.975 183.121 234.975C182.471 234.975 181.896 235.133 181.396 235.45C180.913 235.767 180.529 236.217 180.246 236.8C179.979 237.383 179.846 238.058 179.846 238.825C179.846 239.592 179.979 240.267 180.246 240.85C180.529 241.433 180.913 241.883 181.396 242.2C181.896 242.517 182.471 242.675 183.121 242.675Z" fill="white" style="fill:white;fill-opacity:1;"/>
</svg>
