<svg width="310" height="310" viewBox="0 0 310 310" fill="none" xmlns="http://www.w3.org/2000/svg">
<path d="M147.651 1.92236C152.217 -0.640785 157.783 -0.640785 162.349 1.92236L188.281 16.4702C190.473 17.7017 192.937 18.3625 195.44 18.3925L225.166 18.763C230.402 18.8231 235.218 21.6065 237.892 26.112L253.08 51.6733C254.362 53.836 256.164 55.6382 258.327 56.9198L283.888 72.1084C288.384 74.7817 291.167 79.5976 291.237 84.834L291.607 114.56C291.638 117.074 292.298 119.537 293.53 121.719L308.078 147.651C310.641 152.217 310.641 157.783 308.078 162.349L293.53 188.281C292.298 190.473 291.638 192.936 291.607 195.44L291.237 225.166C291.167 230.402 288.384 235.218 283.888 237.892L258.327 253.08C256.174 254.362 254.362 256.164 253.08 258.327L237.892 283.888C235.218 288.383 230.392 291.167 225.166 291.237L195.44 291.607C192.927 291.637 190.463 292.298 188.281 293.53L162.349 308.078C157.783 310.641 152.217 310.641 147.651 308.078L121.719 293.53C119.527 292.298 117.064 291.637 114.56 291.607L84.834 291.237C79.5976 291.167 74.7817 288.383 72.1084 283.888L56.9198 258.327C55.6382 256.174 53.836 254.362 51.6733 253.08L26.112 237.892C21.6165 235.218 18.8331 230.392 18.763 225.166L18.3925 195.44C18.3625 192.926 17.7017 190.463 16.4702 188.281L1.92236 162.349C-0.640786 157.783 -0.640786 152.217 1.92236 147.651L16.4702 121.719C17.7017 119.527 18.3625 117.063 18.3925 114.56L18.763 84.834C18.8231 79.5976 21.6065 74.7817 26.112 72.1084L51.6733 56.9198C53.836 55.6382 55.6382 53.836 56.9198 51.6733L72.1084 26.112C74.7817 21.6165 79.5976 18.8331 84.834 18.763L114.56 18.3925C117.074 18.3625 119.537 17.7017 121.719 16.4702L147.651 1.92236Z" fill="#227DF5" style="fill:#227DF5;fill:color(display-p3 0.1333 0.4919 0.9608);fill-opacity:1;"/>
<path d="M155 300C152.474 300 149.958 299.373 147.7 298.1L124.03 284.823C121.862 283.61 119.405 282.944 116.919 282.914L89.7776 282.576C84.6159 282.516 79.7725 279.712 77.1369 275.276L63.2729 251.934C61.9999 249.796 60.1998 247.996 58.0615 246.723L34.7195 232.859C30.2838 230.224 27.4891 225.38 27.4195 220.219L27.0813 193.078C27.0515 190.592 26.3951 188.135 25.1718 185.967L11.8946 162.297C9.36846 157.792 9.36846 152.203 11.8946 147.698L25.1718 124.028C26.3852 121.86 27.0515 119.403 27.0813 116.917L27.4195 89.7762C27.4792 84.6146 30.2838 79.7713 34.7195 77.1357L58.0615 63.272C60.1998 61.999 61.9999 60.1989 63.2729 58.0607L77.1369 34.719C79.7725 30.2834 84.6159 27.4888 89.7776 27.4192L116.919 27.0811C119.405 27.0512 121.862 26.3948 124.03 25.1716L147.7 11.8946C152.205 9.36847 157.795 9.36847 162.3 11.8946L185.97 25.1716C188.138 26.3849 190.595 27.0512 193.081 27.0811L220.222 27.4192C225.384 27.4789 230.228 30.2834 232.863 34.719L246.727 58.0607C248 60.1989 249.8 61.999 251.939 63.272L275.281 77.1357C279.716 79.7713 282.511 84.6146 282.58 89.7762L282.919 116.917C282.949 119.403 283.605 121.86 284.828 124.028L298.105 147.698C300.632 152.203 300.632 157.792 298.105 162.297L284.828 185.967C283.615 188.135 282.958 190.592 282.919 193.078L282.58 220.219C282.521 225.38 279.716 230.224 275.281 232.859L251.939 246.723C249.8 247.996 248 249.796 246.727 251.934L232.863 275.276C230.228 279.712 225.384 282.506 220.222 282.576L193.081 282.914C190.595 282.944 188.138 283.6 185.97 284.823L162.3 298.1C160.052 299.363 157.526 300 155 300ZM155 12.004C152.812 12.004 150.624 12.551 148.675 13.645L125.004 26.9219C122.548 28.3043 119.763 29.0502 116.939 29.0801L89.7975 29.4182C85.322 29.4779 81.125 31.8946 78.8376 35.7434L64.9736 59.085C63.5315 61.5117 61.4927 63.5505 59.0759 64.9826L35.7339 78.8463C31.885 81.1338 29.4683 85.3307 29.4086 89.8061L29.0704 116.947C29.0406 119.761 28.2848 122.556 26.9123 125.012L13.6351 148.682C11.4471 152.581 11.4471 157.434 13.6351 161.333L26.9123 185.003C28.2947 187.459 29.0406 190.254 29.0704 193.068L29.4086 220.209C29.4683 224.684 31.885 228.881 35.7339 231.169L59.0759 245.032C61.5026 246.474 63.5414 248.513 64.9736 250.93L78.8376 274.272C81.125 278.12 85.322 280.537 89.7975 280.597L116.939 280.935C119.753 280.965 122.538 281.721 125.004 283.093L148.675 296.37C152.573 298.558 157.427 298.558 161.325 296.37L184.996 283.093C187.452 281.711 190.247 280.965 193.061 280.935L220.202 280.597C224.678 280.537 228.875 278.12 231.162 274.272L245.026 250.93C246.469 248.503 248.507 246.464 250.924 245.032L274.266 231.169C278.115 228.881 280.532 224.684 280.591 220.209L280.93 193.068C280.969 190.254 281.715 187.459 283.088 185.003L296.365 161.333C298.553 157.434 298.553 152.581 296.365 148.682L283.088 125.012C281.705 122.556 280.959 119.771 280.93 116.947L280.591 89.8061C280.532 85.3307 278.115 81.1338 274.266 78.8463L250.924 64.9826C248.497 63.5405 246.459 61.5017 245.026 59.085L231.162 35.7434C228.875 31.8946 224.678 29.4779 220.202 29.4182L193.061 29.0801C190.247 29.0403 187.462 28.2944 184.996 26.9219L161.325 13.645C159.376 12.551 157.188 12.004 155 12.004Z" fill="white" style="fill:white;fill-opacity:1;"/>
<path d="M177.276 99.6776L191.134 96.5392H191.144C194.638 95.7497 197.776 98.6512 196.829 101.8L192.21 117.146C191.588 119.209 189.762 120.808 187.423 121.064C175.5 122.357 164.179 118.834 155 112.014C145.821 118.834 134.5 122.357 122.577 121.064C120.238 120.808 118.412 119.199 117.79 117.146L113.171 101.8C112.224 98.6512 115.362 95.7497 118.856 96.5392L132.714 99.6776C134.855 100.161 137.116 99.5888 138.675 98.1775L151.664 86.4034C153.51 84.7355 156.49 84.7355 158.326 86.4034L171.315 98.1775C172.874 99.5987 175.135 100.161 177.276 99.6776Z" fill="white" style="fill:white;fill-opacity:1;"/>
<path d="M156.441 124.39C161.426 127.144 170.644 131.536 183.82 131.2C186.051 131.141 187.828 133.016 187.245 134.96L182.064 150.959C180.929 154.739 176.378 156.367 172.815 154.146L157.655 144.702C156.056 143.705 153.934 143.705 152.325 144.702L137.55 154.146C133.987 156.367 129.072 154.739 127.937 150.959L122.745 134.96C122.163 133.016 123.939 131.141 126.17 131.2C139.346 131.536 148.555 127.144 153.549 124.39C154.487 123.867 155.523 123.877 156.441 124.39Z" fill="white" style="fill:white;fill-opacity:1;"/>
<path d="M148.91 59.5801L146.42 59.76L146.02 54.2301L138.9 43.52L141.67 43.3201L147.07 51.3501L151.23 42.63L154.09 42.42L148.51 54.01L148.92 59.5901L148.91 59.5801Z" fill="white" style="fill:white;fill-opacity:1;"/>
<path d="M133.22 61.6001L135.55 60.9401L135.56 60.9301L130.98 44.8201L128.89 45.41L126.21 59.3501L116.62 48.9L114.51 49.5001L119.09 65.6101L121.42 64.9501L118.39 54.3L126.76 63.4401L127.9 63.1101L130.19 50.9501L133.22 61.6001Z" fill="white" style="fill:white;fill-opacity:1;"/>
<path d="M104.12 72.98L94.5503 70.66L93.8198 71.12L97.5601 77.09L95.4502 78.42L86.5601 64.23L88.6699 62.9L92.52 69.04L93.0898 68.6801L95.0303 58.91L97.6602 57.26L95.5103 68.53L106.99 71.1801L104.13 72.98H104.12Z" fill="white" style="fill:white;fill-opacity:1;"/>
<path d="M88.8799 83.53L90.4497 82.1101L79.1997 69.7001L77.3296 71.3901L85.5396 80.4501L70.3496 77.7201L68.7798 79.1401L80.0298 91.55L81.8799 89.8701L73.8096 80.9601L88.8799 83.53Z" fill="white" style="fill:white;fill-opacity:1;"/>
<path fill-rule="evenodd" clip-rule="evenodd" d="M75.2202 96.9601L71.2002 95.77L66.52 101.76L68.6499 105.37L66.9902 107.5L58.02 91.77L59.4502 89.9301L76.8799 94.8201L75.2202 96.9501V96.9601ZM61.3198 92.88L65.2002 99.49L68.6699 95.04L61.3198 92.88Z" fill="white" style="fill:white;fill-opacity:1;"/>
<path fill-rule="evenodd" clip-rule="evenodd" d="M63.6499 113.11L55.1201 114.78L54.0298 116.76L59.8799 119.97L58.6802 122.16L44 114.09L47.54 107.65C49.0898 104.83 51.8999 103.93 54.5498 105.38C57.0698 106.76 57.8398 109.42 56.5601 112.1L65.1499 110.38L63.6602 113.1L63.6499 113.11ZM54.2402 111.35C55.0698 109.84 54.7002 108.33 53.3398 107.58C51.96 106.82 50.4902 107.32 49.6602 108.83L47.3198 113.08L51.8999 115.6L54.2402 111.35Z" fill="white" style="fill:white;fill-opacity:1;"/>
<path fill-rule="evenodd" clip-rule="evenodd" d="M184.08 54.64C185.04 49.86 182.48 45.78 177.27 44.73V44.74L171.92 43.66L168.62 60.0801L173.97 61.15C179.18 62.2001 183.12 59.42 184.08 54.64ZM181.6 54.15C180.92 57.5601 178.17 59.53 174.44 58.78L174.43 58.77L171.53 58.1901L173.88 46.53L176.78 47.11C180.51 47.86 182.29 50.74 181.6 54.15Z" fill="white" style="fill:white;fill-opacity:1;"/>
<path d="M198.43 68.88L187.63 64.5701L193.84 49.01L204.62 53.3101L203.72 55.5601L195.25 52.1801L193.5 56.5701L201.32 59.6901L200.43 61.92L192.61 58.8L190.84 63.24L199.33 66.63L198.43 68.88Z" fill="white" style="fill:white;fill-opacity:1;"/>
<path d="M213.7 77.7301L215.5 78.8501L224.37 64.65L222.23 63.3201L215.75 73.6801L214.24 58.3201L212.44 57.2001L203.57 71.4L205.69 72.7201L212.06 62.53L213.7 77.7301Z" fill="white" style="fill:white;fill-opacity:1;"/>
<path d="M234.95 76.51L225.4 87.1899L223.52 85.51L233.07 74.83L228.99 71.1799L230.61 69.37L240.67 78.37L239.05 80.1799L234.95 76.51Z" fill="white" style="fill:white;fill-opacity:1;"/>
<path d="M245.45 83.64L232.91 94.74L234.56 96.61L247.1 85.51L245.45 83.64Z" fill="white" style="fill:white;fill-opacity:1;"/>
<path d="M255.47 103.84L253.59 102.11C254.88 100.86 255.03 99.03 253.96 97.5C252.9 95.99 251.33 95.61 250.12 96.46C249.16 97.13 249.01 98.01 249.54 99.29L250.84 102.5C251.73 104.73 251.54 106.9 249.39 108.41C246.81 110.22 243.82 109.38 241.76 106.44C239.86 103.73 239.7 100.48 242.13 98.3L244.15 100.13C242.6 101.67 242.64 103.55 243.84 105.27C245.04 106.99 246.6 107.35 247.85 106.47C248.89 105.74 249.03 104.88 248.42 103.4L247.08 100.18C246.36 98.3199 246.11 96.0499 248.55 94.34C250.97 92.65 253.9 93.36 255.89 96.2C257.71 98.7999 257.5 101.73 255.47 103.84Z" fill="white" style="fill:white;fill-opacity:1;"/>
<path d="M251.16 121.66L263.94 115.19L266.43 120.09L268.59 118.99L262.49 106.95L260.33 108.05L262.8 112.94L250.02 119.41L251.16 121.66Z" fill="white" style="fill:white;fill-opacity:1;"/>
<path d="M134.922 272.19V271.254C135.194 271.038 135.51 270.798 135.87 270.534C136.23 270.27 136.594 269.982 136.962 269.67C137.338 269.358 137.686 269.026 138.006 268.674C138.326 268.322 138.582 267.954 138.774 267.57C138.974 267.178 139.074 266.778 139.074 266.37C139.074 265.93 138.954 265.574 138.714 265.302C138.474 265.022 138.114 264.882 137.634 264.882C137.274 264.882 136.974 264.966 136.734 265.134C136.502 265.302 136.33 265.53 136.218 265.818C136.106 266.106 136.046 266.426 136.038 266.778L134.886 266.694C134.886 266.302 134.946 265.93 135.066 265.578C135.186 265.226 135.362 264.914 135.594 264.642C135.834 264.362 136.126 264.142 136.47 263.982C136.822 263.822 137.222 263.742 137.67 263.742C138.182 263.742 138.626 263.85 139.002 264.066C139.386 264.282 139.686 264.582 139.902 264.966C140.118 265.35 140.226 265.802 140.226 266.322C140.226 266.762 140.146 267.186 139.986 267.594C139.834 268.002 139.618 268.394 139.338 268.77C139.058 269.138 138.734 269.486 138.366 269.814C137.998 270.142 137.602 270.454 137.178 270.75C136.754 271.038 136.314 271.302 135.858 271.542L136.17 271.098H140.562V272.19H134.922Z" fill="white" style="fill:white;fill-opacity:1;"/>
<path d="M149.269 272.286C148.781 272.286 148.369 272.198 148.033 272.022C147.705 271.846 147.433 271.61 147.217 271.314C147.009 271.01 146.849 270.674 146.737 270.306C146.633 269.93 146.561 269.542 146.521 269.142C146.481 268.734 146.461 268.346 146.461 267.978C146.461 267.61 146.477 267.23 146.509 266.838C146.549 266.438 146.621 266.054 146.725 265.686C146.837 265.31 146.997 264.974 147.205 264.678C147.413 264.382 147.681 264.146 148.009 263.97C148.345 263.794 148.753 263.706 149.233 263.706C149.705 263.706 150.105 263.794 150.433 263.97C150.761 264.138 151.029 264.366 151.237 264.654C151.453 264.942 151.617 265.27 151.729 265.638C151.841 266.006 151.917 266.394 151.957 266.802C152.005 267.202 152.029 267.594 152.029 267.978C152.029 268.378 152.005 268.782 151.957 269.19C151.917 269.598 151.837 269.986 151.717 270.354C151.605 270.722 151.445 271.054 151.237 271.35C151.029 271.638 150.765 271.866 150.445 272.034C150.125 272.202 149.733 272.286 149.269 272.286ZM149.269 271.158C149.669 271.158 149.981 271.018 150.205 270.738C150.437 270.458 150.601 270.082 150.697 269.61C150.793 269.138 150.841 268.61 150.841 268.026C150.841 267.41 150.789 266.866 150.685 266.394C150.589 265.914 150.425 265.534 150.193 265.254C149.961 264.974 149.641 264.834 149.233 264.834C148.913 264.834 148.649 264.918 148.441 265.086C148.241 265.254 148.085 265.486 147.973 265.782C147.861 266.078 147.781 266.418 147.733 266.802C147.685 267.178 147.661 267.582 147.661 268.014C147.661 268.43 147.685 268.826 147.733 269.202C147.781 269.578 147.861 269.914 147.973 270.21C148.093 270.498 148.257 270.73 148.465 270.906C148.673 271.074 148.941 271.158 149.269 271.158Z" fill="white" style="fill:white;fill-opacity:1;"/>
<path d="M157.952 272.19V271.254C158.224 271.038 158.54 270.798 158.9 270.534C159.26 270.27 159.624 269.982 159.992 269.67C160.368 269.358 160.716 269.026 161.036 268.674C161.356 268.322 161.612 267.954 161.804 267.57C162.004 267.178 162.104 266.778 162.104 266.37C162.104 265.93 161.984 265.574 161.744 265.302C161.504 265.022 161.144 264.882 160.664 264.882C160.304 264.882 160.004 264.966 159.764 265.134C159.532 265.302 159.36 265.53 159.248 265.818C159.136 266.106 159.076 266.426 159.068 266.778L157.916 266.694C157.916 266.302 157.976 265.93 158.096 265.578C158.216 265.226 158.392 264.914 158.624 264.642C158.864 264.362 159.156 264.142 159.5 263.982C159.852 263.822 160.252 263.742 160.7 263.742C161.212 263.742 161.656 263.85 162.032 264.066C162.416 264.282 162.716 264.582 162.932 264.966C163.148 265.35 163.256 265.802 163.256 266.322C163.256 266.762 163.176 267.186 163.016 267.594C162.864 268.002 162.648 268.394 162.368 268.77C162.088 269.138 161.764 269.486 161.396 269.814C161.028 270.142 160.632 270.454 160.208 270.75C159.784 271.038 159.344 271.302 158.888 271.542L159.2 271.098H163.592V272.19H157.952Z" fill="white" style="fill:white;fill-opacity:1;"/>
<path d="M172.251 272.298C171.747 272.298 171.283 272.19 170.859 271.974C170.443 271.758 170.099 271.466 169.827 271.098C169.555 270.722 169.379 270.298 169.299 269.826L170.451 269.622C170.499 269.894 170.595 270.15 170.739 270.39C170.891 270.63 171.091 270.822 171.339 270.966C171.595 271.102 171.891 271.17 172.227 271.17C172.611 271.17 172.931 271.082 173.187 270.906C173.451 270.722 173.651 270.49 173.787 270.21C173.923 269.922 173.991 269.618 173.991 269.298C173.991 268.994 173.927 268.714 173.799 268.458C173.671 268.202 173.479 267.998 173.223 267.846C172.975 267.686 172.663 267.606 172.287 267.606C171.943 267.606 171.635 267.686 171.363 267.846C171.099 267.998 170.875 268.21 170.691 268.482L169.551 268.182L170.343 263.826H174.855V264.918H170.775L171.399 264.426L170.835 267.522L170.487 267.438C170.799 267.078 171.123 266.834 171.459 266.706C171.803 266.57 172.135 266.502 172.455 266.502C172.999 266.502 173.479 266.63 173.895 266.886C174.319 267.142 174.647 267.482 174.879 267.906C175.111 268.33 175.227 268.794 175.227 269.298C175.227 269.698 175.155 270.078 175.011 270.438C174.867 270.798 174.659 271.118 174.387 271.398C174.123 271.678 173.807 271.898 173.439 272.058C173.079 272.218 172.683 272.298 172.251 272.298Z" fill="white" style="fill:white;fill-opacity:1;"/>
<path d="M41 147.61L42.8887 152.721L48 154.61L42.8887 156.499L41 161.61L39.1113 156.499L34 154.61L39.1113 152.721L41 147.61Z" fill="white" style="fill:white;fill-opacity:1;"/>
<path d="M269 147.61L270.889 152.721L276 154.61L270.889 156.499L269 161.61L267.111 156.499L262 154.61L267.111 152.721L269 147.61Z" fill="white" style="fill:white;fill-opacity:1;"/>
<path fill-rule="evenodd" clip-rule="evenodd" d="M265 178H45V177H265V178Z" fill="white" style="fill:white;fill-opacity:1;"/>
<path d="M61.7351 215V197.575H64.6351V204.7H72.4851V197.575H75.3851V215H72.4851V207.375H64.6351V215H61.7351ZM84.097 215.225C82.9303 215.225 81.8803 214.95 80.947 214.4C80.0137 213.85 79.2803 213.092 78.747 212.125C78.2303 211.158 77.972 210.058 77.972 208.825C77.972 207.592 78.2303 206.492 78.747 205.525C79.2803 204.558 80.0053 203.808 80.922 203.275C81.8553 202.725 82.9137 202.45 84.097 202.45C85.297 202.45 86.347 202.725 87.247 203.275C88.1637 203.808 88.8887 204.558 89.422 205.525C89.9553 206.492 90.222 207.592 90.222 208.825C90.222 210.058 89.9553 211.158 89.422 212.125C88.9053 213.092 88.1803 213.85 87.247 214.4C86.3303 214.95 85.2803 215.225 84.097 215.225ZM84.122 212.775C84.8053 212.775 85.397 212.617 85.897 212.3C86.397 211.983 86.7803 211.525 87.047 210.925C87.3137 210.325 87.447 209.625 87.447 208.825C87.447 208.008 87.3137 207.308 87.047 206.725C86.7803 206.125 86.397 205.667 85.897 205.35C85.397 205.033 84.8053 204.875 84.122 204.875C83.4053 204.875 82.797 205.042 82.297 205.375C81.797 205.692 81.4137 206.142 81.147 206.725C80.8803 207.308 80.747 208.008 80.747 208.825C80.747 209.625 80.8803 210.325 81.147 210.925C81.4137 211.525 81.797 211.983 82.297 212.3C82.797 212.617 83.4053 212.775 84.122 212.775ZM95.3775 215.225C94.5775 215.225 93.9108 214.983 93.3775 214.5C92.8441 214 92.5775 213.208 92.5775 212.125V197.575H95.3525V211.575C95.3525 211.958 95.4358 212.242 95.6025 212.425C95.7858 212.592 96.0191 212.675 96.3025 212.675C96.4525 212.675 96.6025 212.658 96.7525 212.625C96.9191 212.592 97.0858 212.55 97.2525 212.5V214.85C96.9358 214.983 96.6108 215.075 96.2775 215.125C95.9441 215.192 95.6441 215.225 95.3775 215.225ZM99.2134 215V202.675H101.988V215H99.2134ZM99.0884 200.65V197.575H102.113V200.65H99.0884ZM109.17 215.225C108.287 215.225 107.503 215.1 106.82 214.85C106.137 214.583 105.562 214.25 105.095 213.85C104.628 213.45 104.245 213.05 103.945 212.65L105.845 211C106.162 211.517 106.595 211.975 107.145 212.375C107.712 212.775 108.395 212.975 109.195 212.975C109.862 212.975 110.387 212.833 110.77 212.55C111.17 212.267 111.37 211.917 111.37 211.5C111.37 211.133 111.245 210.85 110.995 210.65C110.745 210.433 110.42 210.25 110.02 210.1C109.62 209.95 109.178 209.817 108.695 209.7C108.228 209.583 107.753 209.442 107.27 209.275C106.787 209.092 106.337 208.867 105.92 208.6C105.52 208.333 105.195 207.992 104.945 207.575C104.695 207.158 104.57 206.642 104.57 206.025C104.57 204.942 104.987 204.075 105.82 203.425C106.653 202.775 107.745 202.45 109.095 202.45C110.062 202.45 110.945 202.642 111.745 203.025C112.545 203.408 113.17 203.983 113.62 204.75L111.895 206.075C111.562 205.575 111.145 205.2 110.645 204.95C110.145 204.7 109.603 204.575 109.02 204.575C108.487 204.575 108.037 204.683 107.67 204.9C107.32 205.117 107.145 205.4 107.145 205.75C107.145 206.017 107.228 206.233 107.395 206.4C107.562 206.567 107.82 206.717 108.17 206.85C108.52 206.983 108.962 207.117 109.495 207.25C109.995 207.367 110.512 207.508 111.045 207.675C111.578 207.842 112.07 208.067 112.52 208.35C112.987 208.617 113.362 208.983 113.645 209.45C113.945 209.9 114.095 210.483 114.095 211.2C114.095 212 113.887 212.708 113.47 213.325C113.07 213.925 112.495 214.392 111.745 214.725C111.012 215.058 110.153 215.225 109.17 215.225ZM120.962 215.225C120.346 215.225 119.762 215.108 119.212 214.875C118.679 214.625 118.254 214.233 117.937 213.7C117.621 213.15 117.462 212.433 117.462 211.55V199.675L120.262 198.125V210.775C120.262 211.475 120.362 212.017 120.562 212.4C120.779 212.767 121.162 212.95 121.712 212.95C121.879 212.95 122.071 212.933 122.287 212.9C122.521 212.85 122.762 212.792 123.012 212.725V214.875C122.679 214.992 122.337 215.075 121.987 215.125C121.654 215.192 121.312 215.225 120.962 215.225ZM115.112 204.825V202.675H123.012V204.825H115.112ZM125.221 215V202.675H127.996V215H125.221ZM125.096 200.65V197.575H128.121V200.65H125.096ZM136.303 215.225C135.336 215.225 134.478 215.058 133.728 214.725C132.994 214.375 132.378 213.9 131.878 213.3C131.394 212.683 131.028 211.992 130.778 211.225C130.528 210.458 130.403 209.658 130.403 208.825C130.403 207.992 130.528 207.192 130.778 206.425C131.028 205.658 131.394 204.975 131.878 204.375C132.378 203.775 132.994 203.308 133.728 202.975C134.478 202.625 135.336 202.45 136.303 202.45C137.519 202.45 138.578 202.742 139.478 203.325C140.394 203.908 141.069 204.808 141.503 206.025L139.053 206.975C138.853 206.342 138.528 205.833 138.078 205.45C137.628 205.05 137.036 204.85 136.303 204.85C135.569 204.85 134.969 205.042 134.503 205.425C134.053 205.808 133.719 206.3 133.503 206.9C133.286 207.5 133.178 208.142 133.178 208.825C133.178 209.508 133.286 210.158 133.503 210.775C133.719 211.375 134.053 211.867 134.503 212.25C134.969 212.617 135.569 212.8 136.303 212.8C137.036 212.8 137.628 212.608 138.078 212.225C138.528 211.842 138.853 211.333 139.053 210.7L141.503 211.65C141.069 212.85 140.394 213.75 139.478 214.35C138.578 214.933 137.519 215.225 136.303 215.225ZM150.159 215V197.575H155.159C158.026 197.575 160.251 198.35 161.834 199.9C163.417 201.433 164.209 203.608 164.209 206.425C164.209 209.192 163.426 211.317 161.859 212.8C160.309 214.267 158.067 215 155.134 215H150.159ZM153.059 212.35H154.859C156.209 212.35 157.367 212.167 158.334 211.8C159.301 211.417 160.034 210.783 160.534 209.9C161.034 209.017 161.284 207.825 161.284 206.325C161.284 204.825 161.034 203.633 160.534 202.75C160.051 201.85 159.342 201.208 158.409 200.825C157.492 200.425 156.392 200.225 155.109 200.225H153.059V212.35ZM172.053 215.225C171.02 215.225 170.12 215.058 169.353 214.725C168.603 214.392 167.987 213.925 167.503 213.325C167.02 212.725 166.662 212.05 166.428 211.3C166.195 210.533 166.078 209.742 166.078 208.925C166.078 208.108 166.187 207.317 166.403 206.55C166.637 205.767 166.987 205.067 167.453 204.45C167.92 203.833 168.52 203.35 169.253 203C169.987 202.633 170.853 202.45 171.853 202.45C172.803 202.45 173.628 202.617 174.328 202.95C175.045 203.267 175.637 203.717 176.103 204.3C176.57 204.867 176.912 205.517 177.128 206.25C177.362 206.983 177.478 207.767 177.478 208.6C177.478 208.717 177.47 208.883 177.453 209.1C177.453 209.317 177.437 209.533 177.403 209.75H168.853C168.92 210.733 169.253 211.483 169.853 212C170.453 212.517 171.22 212.775 172.153 212.775C172.837 212.775 173.462 212.667 174.028 212.45C174.595 212.233 175.112 211.892 175.578 211.425L177.103 213.275C176.587 213.742 176.07 214.117 175.553 214.4C175.037 214.683 174.495 214.892 173.928 215.025C173.378 215.158 172.753 215.225 172.053 215.225ZM174.753 208.35C174.787 208.217 174.803 208.083 174.803 207.95C174.82 207.817 174.828 207.683 174.828 207.55C174.828 207.183 174.762 206.833 174.628 206.5C174.512 206.167 174.328 205.875 174.078 205.625C173.828 205.358 173.52 205.15 173.153 205C172.787 204.833 172.37 204.75 171.903 204.75C171.253 204.75 170.703 204.892 170.253 205.175C169.82 205.458 169.478 205.825 169.228 206.275C168.995 206.708 168.853 207.183 168.803 207.7H175.653L174.753 208.35ZM179.929 215V202.675H182.704V205.4L182.204 205.525C182.42 204.808 182.737 204.225 183.154 203.775C183.57 203.325 184.054 202.992 184.604 202.775C185.17 202.558 185.762 202.45 186.379 202.45C187.762 202.45 188.837 202.85 189.604 203.65C190.387 204.433 190.779 205.558 190.779 207.025V215H188.004V208.05C188.004 206.95 187.804 206.142 187.404 205.625C187.004 205.108 186.387 204.85 185.554 204.85C184.937 204.85 184.412 205 183.979 205.3C183.562 205.583 183.245 206.033 183.029 206.65C182.812 207.267 182.704 208.05 182.704 209V215H179.929ZM198.119 215.225C197.502 215.225 196.919 215.108 196.369 214.875C195.835 214.625 195.41 214.233 195.094 213.7C194.777 213.15 194.619 212.433 194.619 211.55V199.675L197.419 198.125V210.775C197.419 211.475 197.519 212.017 197.719 212.4C197.935 212.767 198.319 212.95 198.869 212.95C199.035 212.95 199.227 212.933 199.444 212.9C199.677 212.85 199.919 212.792 200.169 212.725V214.875C199.835 214.992 199.494 215.075 199.144 215.125C198.81 215.192 198.469 215.225 198.119 215.225ZM192.269 204.825V202.675H200.169V204.825H192.269ZM202.377 215V202.675H205.152V215H202.377ZM202.252 200.65V197.575H205.277V200.65H202.252ZM212.334 215.225C211.451 215.225 210.667 215.1 209.984 214.85C209.301 214.583 208.726 214.25 208.259 213.85C207.792 213.45 207.409 213.05 207.109 212.65L209.009 211C209.326 211.517 209.759 211.975 210.309 212.375C210.876 212.775 211.559 212.975 212.359 212.975C213.026 212.975 213.551 212.833 213.934 212.55C214.334 212.267 214.534 211.917 214.534 211.5C214.534 211.133 214.409 210.85 214.159 210.65C213.909 210.433 213.584 210.25 213.184 210.1C212.784 209.95 212.342 209.817 211.859 209.7C211.392 209.583 210.917 209.442 210.434 209.275C209.951 209.092 209.501 208.867 209.084 208.6C208.684 208.333 208.359 207.992 208.109 207.575C207.859 207.158 207.734 206.642 207.734 206.025C207.734 204.942 208.151 204.075 208.984 203.425C209.817 202.775 210.909 202.45 212.259 202.45C213.226 202.45 214.109 202.642 214.909 203.025C215.709 203.408 216.334 203.983 216.784 204.75L215.059 206.075C214.726 205.575 214.309 205.2 213.809 204.95C213.309 204.7 212.767 204.575 212.184 204.575C211.651 204.575 211.201 204.683 210.834 204.9C210.484 205.117 210.309 205.4 210.309 205.75C210.309 206.017 210.392 206.233 210.559 206.4C210.726 206.567 210.984 206.717 211.334 206.85C211.684 206.983 212.126 207.117 212.659 207.25C213.159 207.367 213.676 207.508 214.209 207.675C214.742 207.842 215.234 208.067 215.684 208.35C216.151 208.617 216.526 208.983 216.809 209.45C217.109 209.9 217.259 210.483 217.259 211.2C217.259 212 217.051 212.708 216.634 213.325C216.234 213.925 215.659 214.392 214.909 214.725C214.176 215.058 213.317 215.225 212.334 215.225ZM224.126 215.225C223.51 215.225 222.926 215.108 222.376 214.875C221.843 214.625 221.418 214.233 221.101 213.7C220.785 213.15 220.626 212.433 220.626 211.55V199.675L223.426 198.125V210.775C223.426 211.475 223.526 212.017 223.726 212.4C223.943 212.767 224.326 212.95 224.876 212.95C225.043 212.95 225.235 212.933 225.451 212.9C225.685 212.85 225.926 212.792 226.176 212.725V214.875C225.843 214.992 225.501 215.075 225.151 215.125C224.818 215.192 224.476 215.225 224.126 215.225ZM218.276 204.825V202.675H226.176V204.825H218.276ZM228.41 215V202.675H231.21V206L230.685 206.075C230.769 205.358 231.01 204.733 231.41 204.2C231.81 203.65 232.294 203.225 232.86 202.925C233.444 202.608 234.019 202.45 234.585 202.45C234.985 202.45 235.369 202.5 235.735 202.6C236.102 202.7 236.485 202.867 236.885 203.1L235.535 205.6C235.352 205.483 235.11 205.392 234.81 205.325C234.527 205.242 234.252 205.2 233.985 205.2C233.635 205.2 233.285 205.267 232.935 205.4C232.602 205.533 232.302 205.742 232.035 206.025C231.769 206.292 231.569 206.642 231.435 207.075C231.352 207.308 231.285 207.617 231.235 208C231.202 208.367 231.185 208.883 231.185 209.55V215H228.41ZM239.733 220.075L242.183 214.175L237.483 202.675H240.533L243.658 211.4L246.833 202.675H249.833L242.733 220.075H239.733ZM119.777 245L126.677 227.575H128.877L135.752 245H132.602L127.777 231.8L122.952 245H119.777ZM124.077 241.35L124.977 238.775H130.552L131.502 241.35H124.077ZM138.859 245L135.109 232.675H138.059L140.259 240.75L142.759 232.675H145.134L147.634 240.7L149.859 232.675H152.809L149.034 245H146.534L143.959 236.6L141.384 245H138.859ZM162.683 245L162.483 242.925V237.225C162.483 236.425 162.241 235.825 161.758 235.425C161.275 235.008 160.6 234.8 159.733 234.8C159.066 234.8 158.408 234.933 157.758 235.2C157.125 235.45 156.541 235.842 156.008 236.375L154.458 234.55C155.258 233.8 156.108 233.267 157.008 232.95C157.908 232.617 158.891 232.45 159.958 232.45C161.625 232.45 162.916 232.875 163.833 233.725C164.766 234.558 165.233 235.725 165.233 237.225V245H162.683ZM158.858 245.225C157.941 245.225 157.125 245.058 156.408 244.725C155.708 244.392 155.158 243.925 154.758 243.325C154.375 242.725 154.183 242.025 154.183 241.225C154.183 240.542 154.325 239.95 154.608 239.45C154.908 238.95 155.291 238.558 155.758 238.275C156.158 238.025 156.625 237.85 157.158 237.75C157.691 237.633 158.25 237.575 158.833 237.575H162.708V239.65H159.233C158.933 239.65 158.633 239.683 158.333 239.75C158.033 239.8 157.766 239.9 157.533 240.05C157.366 240.183 157.225 240.35 157.108 240.55C157.008 240.75 156.958 240.983 156.958 241.25C156.958 241.783 157.158 242.208 157.558 242.525C157.975 242.825 158.525 242.975 159.208 242.975C159.808 242.975 160.35 242.842 160.833 242.575C161.333 242.308 161.733 241.942 162.033 241.475C162.333 241.008 162.483 240.483 162.483 239.9L163.333 241.275C163.133 242.142 162.816 242.875 162.383 243.475C161.95 244.058 161.433 244.5 160.833 244.8C160.233 245.083 159.575 245.225 158.858 245.225ZM168.082 245V232.675H170.882V236L170.357 236.075C170.44 235.358 170.682 234.733 171.082 234.2C171.482 233.65 171.965 233.225 172.532 232.925C173.115 232.608 173.69 232.45 174.257 232.45C174.657 232.45 175.04 232.5 175.407 232.6C175.773 232.7 176.157 232.867 176.557 233.1L175.207 235.6C175.023 235.483 174.782 235.392 174.482 235.325C174.198 235.242 173.923 235.2 173.657 235.2C173.307 235.2 172.957 235.267 172.607 235.4C172.273 235.533 171.973 235.742 171.707 236.025C171.44 236.292 171.24 236.642 171.107 237.075C171.023 237.308 170.957 237.617 170.907 238C170.873 238.367 170.857 238.883 170.857 239.55V245H168.082ZM182.446 245.225C181.346 245.225 180.388 244.95 179.571 244.4C178.771 243.833 178.154 243.067 177.721 242.1C177.288 241.133 177.071 240.042 177.071 238.825C177.071 237.492 177.304 236.35 177.771 235.4C178.254 234.45 178.904 233.725 179.721 233.225C180.538 232.708 181.446 232.45 182.446 232.45C183.146 232.45 183.788 232.592 184.371 232.875C184.971 233.158 185.471 233.575 185.871 234.125C186.288 234.658 186.579 235.317 186.746 236.1L186.096 236.125V227.575H188.871V245H186.096V241.575L186.846 241.4C186.629 242.3 186.296 243.033 185.846 243.6C185.413 244.15 184.904 244.558 184.321 244.825C183.738 245.092 183.113 245.225 182.446 245.225ZM183.121 242.675C183.771 242.675 184.338 242.517 184.821 242.2C185.304 241.883 185.679 241.433 185.946 240.85C186.213 240.267 186.346 239.592 186.346 238.825C186.346 238.058 186.213 237.392 185.946 236.825C185.679 236.242 185.304 235.792 184.821 235.475C184.338 235.142 183.771 234.975 183.121 234.975C182.471 234.975 181.896 235.133 181.396 235.45C180.913 235.767 180.529 236.217 180.246 236.8C179.979 237.383 179.846 238.058 179.846 238.825C179.846 239.592 179.979 240.267 180.246 240.85C180.529 241.433 180.913 241.883 181.396 242.2C181.896 242.517 182.471 242.675 183.121 242.675Z" fill="white" style="fill:white;fill-opacity:1;"/>
</svg>
