<svg width="310" height="310" viewBox="0 0 310 310" fill="none" xmlns="http://www.w3.org/2000/svg">
<path d="M147.651 1.92236C152.217 -0.640785 157.783 -0.640785 162.349 1.92236L188.281 16.4702C190.473 17.7017 192.937 18.3625 195.44 18.3925L225.166 18.763C230.402 18.8231 235.218 21.6065 237.892 26.112L253.08 51.6733C254.362 53.836 256.164 55.6382 258.327 56.9198L283.888 72.1084C288.384 74.7817 291.167 79.5976 291.237 84.834L291.607 114.56C291.638 117.074 292.298 119.537 293.53 121.719L308.078 147.651C310.641 152.217 310.641 157.783 308.078 162.349L293.53 188.281C292.298 190.473 291.638 192.936 291.607 195.44L291.237 225.166C291.167 230.402 288.384 235.218 283.888 237.892L258.327 253.08C256.174 254.362 254.362 256.164 253.08 258.327L237.892 283.888C235.218 288.383 230.392 291.167 225.166 291.237L195.44 291.607C192.927 291.637 190.463 292.298 188.281 293.53L162.349 308.078C157.783 310.641 152.217 310.641 147.651 308.078L121.719 293.53C119.527 292.298 117.064 291.637 114.56 291.607L84.834 291.237C79.5976 291.167 74.7817 288.383 72.1084 283.888L56.9198 258.327C55.6382 256.174 53.836 254.362 51.6733 253.08L26.112 237.892C21.6165 235.218 18.8331 230.392 18.763 225.166L18.3925 195.44C18.3625 192.926 17.7017 190.463 16.4702 188.281L1.92236 162.349C-0.640786 157.783 -0.640786 152.217 1.92236 147.651L16.4702 121.719C17.7017 119.527 18.3625 117.063 18.3925 114.56L18.763 84.834C18.8231 79.5976 21.6065 74.7817 26.112 72.1084L51.6733 56.9198C53.836 55.6382 55.6382 53.836 56.9198 51.6733L72.1084 26.112C74.7817 21.6165 79.5976 18.8331 84.834 18.763L114.56 18.3925C117.074 18.3625 119.537 17.7017 121.719 16.4702L147.651 1.92236Z" fill="#227DF5" style="fill:#227DF5;fill:color(display-p3 0.1333 0.4919 0.9608);fill-opacity:1;"/>
<path d="M155 300C152.474 300 149.958 299.373 147.7 298.1L124.03 284.823C121.862 283.61 119.405 282.944 116.919 282.914L89.7776 282.576C84.6159 282.516 79.7725 279.712 77.1369 275.276L63.2729 251.934C61.9999 249.796 60.1998 247.996 58.0615 246.723L34.7195 232.859C30.2838 230.224 27.4891 225.38 27.4195 220.219L27.0813 193.078C27.0515 190.592 26.3951 188.135 25.1718 185.967L11.8946 162.297C9.36846 157.792 9.36846 152.203 11.8946 147.698L25.1718 124.028C26.3852 121.86 27.0515 119.403 27.0813 116.917L27.4195 89.7762C27.4792 84.6146 30.2838 79.7713 34.7195 77.1357L58.0615 63.272C60.1998 61.999 61.9999 60.1989 63.2729 58.0607L77.1369 34.719C79.7725 30.2834 84.6159 27.4888 89.7776 27.4192L116.919 27.0811C119.405 27.0512 121.862 26.3948 124.03 25.1716L147.7 11.8946C152.205 9.36847 157.795 9.36847 162.3 11.8946L185.97 25.1716C188.138 26.3849 190.595 27.0512 193.081 27.0811L220.222 27.4192C225.384 27.4789 230.228 30.2834 232.863 34.719L246.727 58.0607C248 60.1989 249.8 61.999 251.939 63.272L275.281 77.1357C279.716 79.7713 282.511 84.6146 282.58 89.7762L282.919 116.917C282.949 119.403 283.605 121.86 284.828 124.028L298.105 147.698C300.632 152.203 300.632 157.792 298.105 162.297L284.828 185.967C283.615 188.135 282.958 190.592 282.919 193.078L282.58 220.219C282.521 225.38 279.716 230.224 275.281 232.859L251.939 246.723C249.8 247.996 248 249.796 246.727 251.934L232.863 275.276C230.228 279.712 225.384 282.506 220.222 282.576L193.081 282.914C190.595 282.944 188.138 283.6 185.97 284.823L162.3 298.1C160.052 299.363 157.526 300 155 300ZM155 12.004C152.812 12.004 150.624 12.551 148.675 13.645L125.004 26.9219C122.548 28.3043 119.763 29.0502 116.939 29.0801L89.7975 29.4182C85.322 29.4779 81.125 31.8946 78.8376 35.7434L64.9736 59.085C63.5315 61.5117 61.4927 63.5505 59.0759 64.9826L35.7339 78.8463C31.885 81.1338 29.4683 85.3307 29.4086 89.8061L29.0704 116.947C29.0406 119.761 28.2848 122.556 26.9123 125.012L13.6351 148.682C11.4471 152.581 11.4471 157.434 13.6351 161.333L26.9123 185.003C28.2947 187.459 29.0406 190.254 29.0704 193.068L29.4086 220.209C29.4683 224.684 31.885 228.881 35.7339 231.169L59.0759 245.032C61.5026 246.474 63.5414 248.513 64.9736 250.93L78.8376 274.272C81.125 278.12 85.322 280.537 89.7975 280.597L116.939 280.935C119.753 280.965 122.538 281.721 125.004 283.093L148.675 296.37C152.573 298.558 157.427 298.558 161.325 296.37L184.996 283.093C187.452 281.711 190.247 280.965 193.061 280.935L220.202 280.597C224.678 280.537 228.875 278.12 231.162 274.272L245.026 250.93C246.469 248.503 248.507 246.464 250.924 245.032L274.266 231.169C278.115 228.881 280.532 224.684 280.591 220.209L280.93 193.068C280.969 190.254 281.715 187.459 283.088 185.003L296.365 161.333C298.553 157.434 298.553 152.581 296.365 148.682L283.088 125.012C281.705 122.556 280.959 119.771 280.93 116.947L280.591 89.8061C280.532 85.3307 278.115 81.1338 274.266 78.8463L250.924 64.9826C248.497 63.5405 246.459 61.5017 245.026 59.085L231.162 35.7434C228.875 31.8946 224.678 29.4779 220.202 29.4182L193.061 29.0801C190.247 29.0403 187.462 28.2944 184.996 26.9219L161.325 13.645C159.376 12.551 157.188 12.004 155 12.004Z" fill="white" style="fill:white;fill-opacity:1;"/>
<path d="M177.276 99.6776L191.134 96.5392H191.144C194.638 95.7497 197.776 98.6512 196.829 101.8L192.21 117.146C191.588 119.209 189.762 120.808 187.423 121.064C175.5 122.357 164.179 118.834 155 112.014C145.821 118.834 134.5 122.357 122.577 121.064C120.238 120.808 118.412 119.199 117.79 117.146L113.171 101.8C112.224 98.6512 115.362 95.7497 118.856 96.5392L132.714 99.6776C134.855 100.161 137.116 99.5888 138.675 98.1775L151.664 86.4034C153.51 84.7355 156.49 84.7355 158.326 86.4034L171.315 98.1775C172.874 99.5987 175.135 100.161 177.276 99.6776Z" fill="white" style="fill:white;fill-opacity:1;"/>
<path d="M156.441 124.39C161.426 127.144 170.644 131.536 183.82 131.2C186.051 131.141 187.828 133.016 187.245 134.96L182.064 150.959C180.929 154.739 176.378 156.367 172.815 154.146L157.655 144.702C156.056 143.705 153.934 143.705 152.325 144.702L137.55 154.146C133.987 156.367 129.072 154.739 127.937 150.959L122.745 134.96C122.163 133.016 123.939 131.141 126.17 131.2C139.346 131.536 148.555 127.144 153.549 124.39C154.487 123.867 155.523 123.877 156.441 124.39Z" fill="white" style="fill:white;fill-opacity:1;"/>
<path d="M148.91 59.5801L146.42 59.76L146.02 54.2301L138.9 43.52L141.67 43.3201L147.07 51.3501L151.23 42.63L154.09 42.42L148.51 54.01L148.92 59.5901L148.91 59.5801Z" fill="white" style="fill:white;fill-opacity:1;"/>
<path d="M133.22 61.6001L135.55 60.9401L135.56 60.9301L130.98 44.8201L128.89 45.41L126.21 59.3501L116.62 48.9L114.51 49.5001L119.09 65.6101L121.42 64.9501L118.39 54.3L126.76 63.4401L127.9 63.1101L130.19 50.9501L133.22 61.6001Z" fill="white" style="fill:white;fill-opacity:1;"/>
<path d="M104.12 72.98L94.5503 70.66L93.8198 71.12L97.5601 77.09L95.4502 78.42L86.5601 64.23L88.6699 62.9L92.52 69.04L93.0898 68.6801L95.0303 58.91L97.6602 57.26L95.5103 68.53L106.99 71.1801L104.13 72.98H104.12Z" fill="white" style="fill:white;fill-opacity:1;"/>
<path d="M88.8799 83.53L90.4497 82.1101L79.1997 69.7001L77.3296 71.3901L85.5396 80.4501L70.3496 77.7201L68.7798 79.1401L80.0298 91.55L81.8799 89.8701L73.8096 80.9601L88.8799 83.53Z" fill="white" style="fill:white;fill-opacity:1;"/>
<path fill-rule="evenodd" clip-rule="evenodd" d="M75.2202 96.9601L71.2002 95.77L66.52 101.76L68.6499 105.37L66.9902 107.5L58.02 91.77L59.4502 89.9301L76.8799 94.8201L75.2202 96.9501V96.9601ZM61.3198 92.88L65.2002 99.49L68.6699 95.04L61.3198 92.88Z" fill="white" style="fill:white;fill-opacity:1;"/>
<path fill-rule="evenodd" clip-rule="evenodd" d="M63.6499 113.11L55.1201 114.78L54.0298 116.76L59.8799 119.97L58.6802 122.16L44 114.09L47.54 107.65C49.0898 104.83 51.8999 103.93 54.5498 105.38C57.0698 106.76 57.8398 109.42 56.5601 112.1L65.1499 110.38L63.6602 113.1L63.6499 113.11ZM54.2402 111.35C55.0698 109.84 54.7002 108.33 53.3398 107.58C51.96 106.82 50.4902 107.32 49.6602 108.83L47.3198 113.08L51.8999 115.6L54.2402 111.35Z" fill="white" style="fill:white;fill-opacity:1;"/>
<path fill-rule="evenodd" clip-rule="evenodd" d="M184.08 54.64C185.04 49.86 182.48 45.78 177.27 44.73V44.74L171.92 43.66L168.62 60.0801L173.97 61.15C179.18 62.2001 183.12 59.42 184.08 54.64ZM181.6 54.15C180.92 57.5601 178.17 59.53 174.44 58.78L174.43 58.77L171.53 58.1901L173.88 46.53L176.78 47.11C180.51 47.86 182.29 50.74 181.6 54.15Z" fill="white" style="fill:white;fill-opacity:1;"/>
<path d="M198.43 68.88L187.63 64.5701L193.84 49.01L204.62 53.3101L203.72 55.5601L195.25 52.1801L193.5 56.5701L201.32 59.6901L200.43 61.92L192.61 58.8L190.84 63.24L199.33 66.63L198.43 68.88Z" fill="white" style="fill:white;fill-opacity:1;"/>
<path d="M213.7 77.7301L215.5 78.8501L224.37 64.65L222.23 63.3201L215.75 73.6801L214.24 58.3201L212.44 57.2001L203.57 71.4L205.69 72.7201L212.06 62.53L213.7 77.7301Z" fill="white" style="fill:white;fill-opacity:1;"/>
<path d="M234.95 76.51L225.4 87.1899L223.52 85.51L233.07 74.83L228.99 71.1799L230.61 69.37L240.67 78.37L239.05 80.1799L234.95 76.51Z" fill="white" style="fill:white;fill-opacity:1;"/>
<path d="M245.45 83.64L232.91 94.74L234.56 96.61L247.1 85.51L245.45 83.64Z" fill="white" style="fill:white;fill-opacity:1;"/>
<path d="M255.47 103.84L253.59 102.11C254.88 100.86 255.03 99.03 253.96 97.5C252.9 95.99 251.33 95.61 250.12 96.46C249.16 97.13 249.01 98.01 249.54 99.29L250.84 102.5C251.73 104.73 251.54 106.9 249.39 108.41C246.81 110.22 243.82 109.38 241.76 106.44C239.86 103.73 239.7 100.48 242.13 98.3L244.15 100.13C242.6 101.67 242.64 103.55 243.84 105.27C245.04 106.99 246.6 107.35 247.85 106.47C248.89 105.74 249.03 104.88 248.42 103.4L247.08 100.18C246.36 98.3199 246.11 96.0499 248.55 94.34C250.97 92.65 253.9 93.36 255.89 96.2C257.71 98.7999 257.5 101.73 255.47 103.84Z" fill="white" style="fill:white;fill-opacity:1;"/>
<path d="M251.16 121.66L263.94 115.19L266.43 120.09L268.59 118.99L262.49 106.95L260.33 108.05L262.8 112.94L250.02 119.41L251.16 121.66Z" fill="white" style="fill:white;fill-opacity:1;"/>
<path d="M134.922 272.19V271.254C135.194 271.038 135.51 270.798 135.87 270.534C136.23 270.27 136.594 269.982 136.962 269.67C137.338 269.358 137.686 269.026 138.006 268.674C138.326 268.322 138.582 267.954 138.774 267.57C138.974 267.178 139.074 266.778 139.074 266.37C139.074 265.93 138.954 265.574 138.714 265.302C138.474 265.022 138.114 264.882 137.634 264.882C137.274 264.882 136.974 264.966 136.734 265.134C136.502 265.302 136.33 265.53 136.218 265.818C136.106 266.106 136.046 266.426 136.038 266.778L134.886 266.694C134.886 266.302 134.946 265.93 135.066 265.578C135.186 265.226 135.362 264.914 135.594 264.642C135.834 264.362 136.126 264.142 136.47 263.982C136.822 263.822 137.222 263.742 137.67 263.742C138.182 263.742 138.626 263.85 139.002 264.066C139.386 264.282 139.686 264.582 139.902 264.966C140.118 265.35 140.226 265.802 140.226 266.322C140.226 266.762 140.146 267.186 139.986 267.594C139.834 268.002 139.618 268.394 139.338 268.77C139.058 269.138 138.734 269.486 138.366 269.814C137.998 270.142 137.602 270.454 137.178 270.75C136.754 271.038 136.314 271.302 135.858 271.542L136.17 271.098H140.562V272.19H134.922Z" fill="white" style="fill:white;fill-opacity:1;"/>
<path d="M149.269 272.286C148.781 272.286 148.369 272.198 148.033 272.022C147.705 271.846 147.433 271.61 147.217 271.314C147.009 271.01 146.849 270.674 146.737 270.306C146.633 269.93 146.561 269.542 146.521 269.142C146.481 268.734 146.461 268.346 146.461 267.978C146.461 267.61 146.477 267.23 146.509 266.838C146.549 266.438 146.621 266.054 146.725 265.686C146.837 265.31 146.997 264.974 147.205 264.678C147.413 264.382 147.681 264.146 148.009 263.97C148.345 263.794 148.753 263.706 149.233 263.706C149.705 263.706 150.105 263.794 150.433 263.97C150.761 264.138 151.029 264.366 151.237 264.654C151.453 264.942 151.617 265.27 151.729 265.638C151.841 266.006 151.917 266.394 151.957 266.802C152.005 267.202 152.029 267.594 152.029 267.978C152.029 268.378 152.005 268.782 151.957 269.19C151.917 269.598 151.837 269.986 151.717 270.354C151.605 270.722 151.445 271.054 151.237 271.35C151.029 271.638 150.765 271.866 150.445 272.034C150.125 272.202 149.733 272.286 149.269 272.286ZM149.269 271.158C149.669 271.158 149.981 271.018 150.205 270.738C150.437 270.458 150.601 270.082 150.697 269.61C150.793 269.138 150.841 268.61 150.841 268.026C150.841 267.41 150.789 266.866 150.685 266.394C150.589 265.914 150.425 265.534 150.193 265.254C149.961 264.974 149.641 264.834 149.233 264.834C148.913 264.834 148.649 264.918 148.441 265.086C148.241 265.254 148.085 265.486 147.973 265.782C147.861 266.078 147.781 266.418 147.733 266.802C147.685 267.178 147.661 267.582 147.661 268.014C147.661 268.43 147.685 268.826 147.733 269.202C147.781 269.578 147.861 269.914 147.973 270.21C148.093 270.498 148.257 270.73 148.465 270.906C148.673 271.074 148.941 271.158 149.269 271.158Z" fill="white" style="fill:white;fill-opacity:1;"/>
<path d="M157.952 272.19V271.254C158.224 271.038 158.54 270.798 158.9 270.534C159.26 270.27 159.624 269.982 159.992 269.67C160.368 269.358 160.716 269.026 161.036 268.674C161.356 268.322 161.612 267.954 161.804 267.57C162.004 267.178 162.104 266.778 162.104 266.37C162.104 265.93 161.984 265.574 161.744 265.302C161.504 265.022 161.144 264.882 160.664 264.882C160.304 264.882 160.004 264.966 159.764 265.134C159.532 265.302 159.36 265.53 159.248 265.818C159.136 266.106 159.076 266.426 159.068 266.778L157.916 266.694C157.916 266.302 157.976 265.93 158.096 265.578C158.216 265.226 158.392 264.914 158.624 264.642C158.864 264.362 159.156 264.142 159.5 263.982C159.852 263.822 160.252 263.742 160.7 263.742C161.212 263.742 161.656 263.85 162.032 264.066C162.416 264.282 162.716 264.582 162.932 264.966C163.148 265.35 163.256 265.802 163.256 266.322C163.256 266.762 163.176 267.186 163.016 267.594C162.864 268.002 162.648 268.394 162.368 268.77C162.088 269.138 161.764 269.486 161.396 269.814C161.028 270.142 160.632 270.454 160.208 270.75C159.784 271.038 159.344 271.302 158.888 271.542L159.2 271.098H163.592V272.19H157.952Z" fill="white" style="fill:white;fill-opacity:1;"/>
<path d="M172.251 272.298C171.747 272.298 171.283 272.19 170.859 271.974C170.443 271.758 170.099 271.466 169.827 271.098C169.555 270.722 169.379 270.298 169.299 269.826L170.451 269.622C170.499 269.894 170.595 270.15 170.739 270.39C170.891 270.63 171.091 270.822 171.339 270.966C171.595 271.102 171.891 271.17 172.227 271.17C172.611 271.17 172.931 271.082 173.187 270.906C173.451 270.722 173.651 270.49 173.787 270.21C173.923 269.922 173.991 269.618 173.991 269.298C173.991 268.994 173.927 268.714 173.799 268.458C173.671 268.202 173.479 267.998 173.223 267.846C172.975 267.686 172.663 267.606 172.287 267.606C171.943 267.606 171.635 267.686 171.363 267.846C171.099 267.998 170.875 268.21 170.691 268.482L169.551 268.182L170.343 263.826H174.855V264.918H170.775L171.399 264.426L170.835 267.522L170.487 267.438C170.799 267.078 171.123 266.834 171.459 266.706C171.803 266.57 172.135 266.502 172.455 266.502C172.999 266.502 173.479 266.63 173.895 266.886C174.319 267.142 174.647 267.482 174.879 267.906C175.111 268.33 175.227 268.794 175.227 269.298C175.227 269.698 175.155 270.078 175.011 270.438C174.867 270.798 174.659 271.118 174.387 271.398C174.123 271.678 173.807 271.898 173.439 272.058C173.079 272.218 172.683 272.298 172.251 272.298Z" fill="white" style="fill:white;fill-opacity:1;"/>
<path d="M41 147.61L42.8887 152.721L48 154.61L42.8887 156.499L41 161.61L39.1113 156.499L34 154.61L39.1113 152.721L41 147.61Z" fill="white" style="fill:white;fill-opacity:1;"/>
<path d="M269 147.61L270.889 152.721L276 154.61L270.889 156.499L269 161.61L267.111 156.499L262 154.61L267.111 152.721L269 147.61Z" fill="white" style="fill:white;fill-opacity:1;"/>
<path fill-rule="evenodd" clip-rule="evenodd" d="M265 178H45V177H265V178Z" fill="white" style="fill:white;fill-opacity:1;"/>
<path d="M50.4861 215V197.575H53.3861V215H50.4861ZM56.5314 215V202.675H59.3064V205.4L58.8064 205.525C59.023 204.808 59.3397 204.225 59.7564 203.775C60.173 203.325 60.6564 202.992 61.2064 202.775C61.773 202.558 62.3647 202.45 62.9814 202.45C64.3647 202.45 65.4397 202.85 66.2064 203.65C66.9897 204.433 67.3814 205.558 67.3814 207.025V215H64.6064V208.05C64.6064 206.95 64.4064 206.142 64.0064 205.625C63.6064 205.108 62.9897 204.85 62.1564 204.85C61.5397 204.85 61.0147 205 60.5814 205.3C60.1647 205.583 59.848 206.033 59.6314 206.65C59.4147 207.267 59.3064 208.05 59.3064 209V215H56.5314ZM73.7544 215L68.7294 202.675H71.7794L74.9044 211.4L78.0794 202.675H81.0794L76.0544 215H73.7544ZM82.8863 215V202.675H85.6613V215H82.8863ZM82.7613 200.65V197.575H85.7863V200.65H82.7613ZM92.8427 215.225C91.9594 215.225 91.176 215.1 90.4927 214.85C89.8094 214.583 89.2344 214.25 88.7677 213.85C88.301 213.45 87.9177 213.05 87.6177 212.65L89.5177 211C89.8344 211.517 90.2677 211.975 90.8177 212.375C91.3844 212.775 92.0677 212.975 92.8677 212.975C93.5344 212.975 94.0594 212.833 94.4427 212.55C94.8427 212.267 95.0427 211.917 95.0427 211.5C95.0427 211.133 94.9177 210.85 94.6677 210.65C94.4177 210.433 94.0927 210.25 93.6927 210.1C93.2927 209.95 92.851 209.817 92.3677 209.7C91.901 209.583 91.426 209.442 90.9427 209.275C90.4594 209.092 90.0094 208.867 89.5927 208.6C89.1927 208.333 88.8677 207.992 88.6177 207.575C88.3677 207.158 88.2427 206.642 88.2427 206.025C88.2427 204.942 88.6594 204.075 89.4927 203.425C90.326 202.775 91.4177 202.45 92.7677 202.45C93.7344 202.45 94.6177 202.642 95.4177 203.025C96.2177 203.408 96.8427 203.983 97.2927 204.75L95.5677 206.075C95.2344 205.575 94.8177 205.2 94.3177 204.95C93.8177 204.7 93.276 204.575 92.6927 204.575C92.1594 204.575 91.7094 204.683 91.3427 204.9C90.9927 205.117 90.8177 205.4 90.8177 205.75C90.8177 206.017 90.901 206.233 91.0677 206.4C91.2344 206.567 91.4927 206.717 91.8427 206.85C92.1927 206.983 92.6344 207.117 93.1677 207.25C93.6677 207.367 94.1844 207.508 94.7177 207.675C95.251 207.842 95.7427 208.067 96.1927 208.35C96.6594 208.617 97.0344 208.983 97.3177 209.45C97.6177 209.9 97.7677 210.483 97.7677 211.2C97.7677 212 97.5594 212.708 97.1427 213.325C96.7427 213.925 96.1677 214.392 95.4177 214.725C94.6844 215.058 93.826 215.225 92.8427 215.225ZM108.11 215L107.91 212.925V207.225C107.91 206.425 107.669 205.825 107.185 205.425C106.702 205.008 106.027 204.8 105.16 204.8C104.494 204.8 103.835 204.933 103.185 205.2C102.552 205.45 101.969 205.842 101.435 206.375L99.8853 204.55C100.685 203.8 101.535 203.267 102.435 202.95C103.335 202.617 104.319 202.45 105.385 202.45C107.052 202.45 108.344 202.875 109.26 203.725C110.194 204.558 110.66 205.725 110.66 207.225V215H108.11ZM104.285 215.225C103.369 215.225 102.552 215.058 101.835 214.725C101.135 214.392 100.585 213.925 100.185 213.325C99.802 212.725 99.6103 212.025 99.6103 211.225C99.6103 210.542 99.752 209.95 100.035 209.45C100.335 208.95 100.719 208.558 101.185 208.275C101.585 208.025 102.052 207.85 102.585 207.75C103.119 207.633 103.677 207.575 104.26 207.575H108.135V209.65H104.66C104.36 209.65 104.06 209.683 103.76 209.75C103.46 209.8 103.194 209.9 102.96 210.05C102.794 210.183 102.652 210.35 102.535 210.55C102.435 210.75 102.385 210.983 102.385 211.25C102.385 211.783 102.585 212.208 102.985 212.525C103.402 212.825 103.952 212.975 104.635 212.975C105.235 212.975 105.777 212.842 106.26 212.575C106.76 212.308 107.16 211.942 107.46 211.475C107.76 211.008 107.91 210.483 107.91 209.9L108.76 211.275C108.56 212.142 108.244 212.875 107.81 213.475C107.377 214.058 106.86 214.5 106.26 214.8C105.66 215.083 105.002 215.225 104.285 215.225ZM116.234 215.225C115.434 215.225 114.767 214.983 114.234 214.5C113.701 214 113.434 213.208 113.434 212.125V197.575H116.209V211.575C116.209 211.958 116.292 212.242 116.459 212.425C116.642 212.592 116.876 212.675 117.159 212.675C117.309 212.675 117.459 212.658 117.609 212.625C117.776 212.592 117.942 212.55 118.109 212.5V214.85C117.792 214.983 117.467 215.075 117.134 215.125C116.801 215.192 116.501 215.225 116.234 215.225ZM120.07 215V202.675H122.845V215H120.07ZM119.945 200.65V197.575H122.97V200.65H119.945ZM130.951 220.35C129.135 220.35 127.701 220.017 126.651 219.35C125.601 218.7 125.076 217.808 125.076 216.675C125.076 216.575 125.076 216.458 125.076 216.325C125.093 216.192 125.118 216.058 125.151 215.925L128.501 213.75L129.251 214.475L127.626 216.5C127.61 216.55 127.601 216.592 127.601 216.625C127.601 216.675 127.601 216.725 127.601 216.775C127.601 217.292 127.91 217.683 128.526 217.95C129.16 218.233 129.968 218.375 130.951 218.375C131.785 218.375 132.451 218.258 132.951 218.025C133.451 217.808 133.701 217.475 133.701 217.025C133.701 216.775 133.626 216.567 133.476 216.4C133.326 216.25 133.101 216.125 132.801 216.025C132.501 215.925 132.126 215.833 131.676 215.75C131.243 215.683 130.726 215.617 130.126 215.55C129.376 215.433 128.635 215.267 127.901 215.05C127.185 214.833 126.585 214.508 126.101 214.075C125.635 213.642 125.401 213.067 125.401 212.35C125.401 211.717 125.618 211.142 126.051 210.625C126.485 210.092 127.06 209.658 127.776 209.325L129.201 210.425C128.735 210.525 128.385 210.7 128.151 210.95C127.918 211.183 127.801 211.467 127.801 211.8C127.801 212.083 127.91 212.317 128.126 212.5C128.343 212.667 128.651 212.8 129.051 212.9C129.468 212.983 129.96 213.067 130.526 213.15C131.376 213.25 132.16 213.367 132.876 213.5C133.593 213.633 134.218 213.825 134.751 214.075C135.285 214.308 135.693 214.633 135.976 215.05C136.276 215.467 136.426 216.008 136.426 216.675C136.426 217.858 135.943 218.767 134.976 219.4C134.026 220.033 132.685 220.35 130.951 220.35ZM130.676 211.425C129.676 211.425 128.793 211.233 128.026 210.85C127.26 210.467 126.66 209.942 126.226 209.275C125.81 208.592 125.601 207.825 125.601 206.975C125.601 206.058 125.826 205.267 126.276 204.6C126.726 203.917 127.326 203.392 128.076 203.025C128.843 202.642 129.676 202.45 130.576 202.45C131.476 202.45 132.301 202.642 133.051 203.025C133.801 203.392 134.401 203.925 134.851 204.625C135.318 205.308 135.551 206.125 135.551 207.075C135.551 207.942 135.343 208.708 134.926 209.375C134.526 210.025 133.96 210.533 133.226 210.9C132.493 211.25 131.643 211.425 130.676 211.425ZM130.626 209.2C131.343 209.2 131.885 208.983 132.251 208.55C132.618 208.1 132.801 207.567 132.801 206.95C132.801 206.283 132.601 205.75 132.201 205.35C131.801 204.933 131.276 204.725 130.626 204.725C129.943 204.725 129.393 204.933 128.976 205.35C128.576 205.75 128.376 206.275 128.376 206.925C128.376 207.558 128.568 208.1 128.951 208.55C129.335 208.983 129.893 209.2 130.626 209.2ZM134.751 205.175L132.726 203.875L135.501 201.625L136.926 203.35L134.751 205.175ZM138.565 215V202.675H141.34V205.4L140.84 205.525C141.056 204.808 141.373 204.225 141.79 203.775C142.206 203.325 142.69 202.992 143.24 202.775C143.806 202.558 144.398 202.45 145.015 202.45C146.398 202.45 147.473 202.85 148.24 203.65C149.023 204.433 149.415 205.558 149.415 207.025V215H146.64V208.05C146.64 206.95 146.44 206.142 146.04 205.625C145.64 205.108 145.023 204.85 144.19 204.85C143.573 204.85 143.048 205 142.615 205.3C142.198 205.583 141.881 206.033 141.665 206.65C141.448 207.267 141.34 208.05 141.34 209V215H138.565ZM158.674 215V197.575H170.249V200.15H161.574V204.775H169.574V207.375H161.574V212.425H170.249V215H158.674ZM171.701 215L175.976 208.8L171.701 202.675H175.026L177.826 206.95L180.676 202.675H183.951L179.651 208.8L183.951 215H180.626L177.826 210.65L174.976 215H171.701ZM185.88 220.1V202.675H188.63V206.1L187.93 206.125C188.147 205.225 188.463 204.508 188.88 203.975C189.313 203.442 189.822 203.058 190.405 202.825C191.005 202.575 191.638 202.45 192.305 202.45C193.405 202.45 194.355 202.733 195.155 203.3C195.955 203.85 196.572 204.608 197.005 205.575C197.455 206.542 197.68 207.633 197.68 208.85C197.68 210.167 197.438 211.308 196.955 212.275C196.472 213.225 195.822 213.958 195.005 214.475C194.205 214.975 193.305 215.225 192.305 215.225C191.605 215.225 190.955 215.092 190.355 214.825C189.772 214.558 189.272 214.158 188.855 213.625C188.455 213.092 188.172 212.442 188.005 211.675L188.63 211.55V220.1H185.88ZM191.63 212.7C192.28 212.7 192.847 212.542 193.33 212.225C193.83 211.908 194.213 211.458 194.48 210.875C194.747 210.292 194.88 209.617 194.88 208.85C194.88 208.083 194.747 207.408 194.48 206.825C194.213 206.242 193.83 205.792 193.33 205.475C192.847 205.158 192.28 205 191.63 205C190.98 205 190.405 205.158 189.905 205.475C189.422 205.792 189.047 206.242 188.78 206.825C188.513 207.408 188.38 208.083 188.38 208.85C188.38 209.617 188.513 210.292 188.78 210.875C189.047 211.442 189.422 211.892 189.905 212.225C190.405 212.542 190.98 212.7 191.63 212.7ZM205.508 215.225C204.474 215.225 203.574 215.058 202.808 214.725C202.058 214.392 201.441 213.925 200.958 213.325C200.474 212.725 200.116 212.05 199.883 211.3C199.649 210.533 199.533 209.742 199.533 208.925C199.533 208.108 199.641 207.317 199.858 206.55C200.091 205.767 200.441 205.067 200.908 204.45C201.374 203.833 201.974 203.35 202.708 203C203.441 202.633 204.308 202.45 205.308 202.45C206.258 202.45 207.083 202.617 207.783 202.95C208.499 203.267 209.091 203.717 209.558 204.3C210.024 204.867 210.366 205.517 210.583 206.25C210.816 206.983 210.933 207.767 210.933 208.6C210.933 208.717 210.924 208.883 210.908 209.1C210.908 209.317 210.891 209.533 210.858 209.75H202.308C202.374 210.733 202.708 211.483 203.308 212C203.908 212.517 204.674 212.775 205.608 212.775C206.291 212.775 206.916 212.667 207.483 212.45C208.049 212.233 208.566 211.892 209.033 211.425L210.558 213.275C210.041 213.742 209.524 214.117 209.008 214.4C208.491 214.683 207.949 214.892 207.383 215.025C206.833 215.158 206.208 215.225 205.508 215.225ZM208.208 208.35C208.241 208.217 208.258 208.083 208.258 207.95C208.274 207.817 208.283 207.683 208.283 207.55C208.283 207.183 208.216 206.833 208.083 206.5C207.966 206.167 207.783 205.875 207.533 205.625C207.283 205.358 206.974 205.15 206.608 205C206.241 204.833 205.824 204.75 205.358 204.75C204.708 204.75 204.158 204.892 203.708 205.175C203.274 205.458 202.933 205.825 202.683 206.275C202.449 206.708 202.308 207.183 202.258 207.7H209.108L208.208 208.35ZM213.383 215V202.675H216.183V206L215.658 206.075C215.741 205.358 215.983 204.733 216.383 204.2C216.783 203.65 217.266 203.225 217.833 202.925C218.416 202.608 218.991 202.45 219.558 202.45C219.958 202.45 220.341 202.5 220.708 202.6C221.075 202.7 221.458 202.867 221.858 203.1L220.508 205.6C220.325 205.483 220.083 205.392 219.783 205.325C219.5 205.242 219.225 205.2 218.958 205.2C218.608 205.2 218.258 205.267 217.908 205.4C217.575 205.533 217.275 205.742 217.008 206.025C216.741 206.292 216.541 206.642 216.408 207.075C216.325 207.308 216.258 207.617 216.208 208C216.175 208.367 216.158 208.883 216.158 209.55V215H213.383ZM228.106 215.225C227.489 215.225 226.906 215.108 226.356 214.875C225.823 214.625 225.398 214.233 225.081 213.7C224.764 213.15 224.606 212.433 224.606 211.55V199.675L227.406 198.125V210.775C227.406 211.475 227.506 212.017 227.706 212.4C227.923 212.767 228.306 212.95 228.856 212.95C229.023 212.95 229.214 212.933 229.431 212.9C229.664 212.85 229.906 212.792 230.156 212.725V214.875C229.823 214.992 229.481 215.075 229.131 215.125C228.798 215.192 228.456 215.225 228.106 215.225ZM222.256 204.825V202.675H230.156V204.825H222.256ZM232.365 215V202.675H235.14V215H232.365ZM232.24 200.65V197.575H235.265V200.65H232.24ZM242.321 215.225C241.438 215.225 240.655 215.1 239.971 214.85C239.288 214.583 238.713 214.25 238.246 213.85C237.78 213.45 237.396 213.05 237.096 212.65L238.996 211C239.313 211.517 239.746 211.975 240.296 212.375C240.863 212.775 241.546 212.975 242.346 212.975C243.013 212.975 243.538 212.833 243.921 212.55C244.321 212.267 244.521 211.917 244.521 211.5C244.521 211.133 244.396 210.85 244.146 210.65C243.896 210.433 243.571 210.25 243.171 210.1C242.771 209.95 242.33 209.817 241.846 209.7C241.38 209.583 240.905 209.442 240.421 209.275C239.938 209.092 239.488 208.867 239.071 208.6C238.671 208.333 238.346 207.992 238.096 207.575C237.846 207.158 237.721 206.642 237.721 206.025C237.721 204.942 238.138 204.075 238.971 203.425C239.805 202.775 240.896 202.45 242.246 202.45C243.213 202.45 244.096 202.642 244.896 203.025C245.696 203.408 246.321 203.983 246.771 204.75L245.046 206.075C244.713 205.575 244.296 205.2 243.796 204.95C243.296 204.7 242.755 204.575 242.171 204.575C241.638 204.575 241.188 204.683 240.821 204.9C240.471 205.117 240.296 205.4 240.296 205.75C240.296 206.017 240.38 206.233 240.546 206.4C240.713 206.567 240.971 206.717 241.321 206.85C241.671 206.983 242.113 207.117 242.646 207.25C243.146 207.367 243.663 207.508 244.196 207.675C244.73 207.842 245.221 208.067 245.671 208.35C246.138 208.617 246.513 208.983 246.796 209.45C247.096 209.9 247.246 210.483 247.246 211.2C247.246 212 247.038 212.708 246.621 213.325C246.221 213.925 245.646 214.392 244.896 214.725C244.163 215.058 243.305 215.225 242.321 215.225ZM255.039 215.225C254.005 215.225 253.105 215.058 252.339 214.725C251.589 214.392 250.972 213.925 250.489 213.325C250.005 212.725 249.647 212.05 249.414 211.3C249.18 210.533 249.064 209.742 249.064 208.925C249.064 208.108 249.172 207.317 249.389 206.55C249.622 205.767 249.972 205.067 250.439 204.45C250.905 203.833 251.505 203.35 252.239 203C252.972 202.633 253.839 202.45 254.839 202.45C255.789 202.45 256.614 202.617 257.314 202.95C258.03 203.267 258.622 203.717 259.089 204.3C259.555 204.867 259.897 205.517 260.114 206.25C260.347 206.983 260.464 207.767 260.464 208.6C260.464 208.717 260.455 208.883 260.439 209.1C260.439 209.317 260.422 209.533 260.389 209.75H251.839C251.905 210.733 252.239 211.483 252.839 212C253.439 212.517 254.205 212.775 255.139 212.775C255.822 212.775 256.447 212.667 257.014 212.45C257.58 212.233 258.097 211.892 258.564 211.425L260.089 213.275C259.572 213.742 259.055 214.117 258.539 214.4C258.022 214.683 257.48 214.892 256.914 215.025C256.364 215.158 255.739 215.225 255.039 215.225ZM257.739 208.35C257.772 208.217 257.789 208.083 257.789 207.95C257.805 207.817 257.814 207.683 257.814 207.55C257.814 207.183 257.747 206.833 257.614 206.5C257.497 206.167 257.314 205.875 257.064 205.625C256.814 205.358 256.505 205.15 256.139 205C255.772 204.833 255.355 204.75 254.889 204.75C254.239 204.75 253.689 204.892 253.239 205.175C252.805 205.458 252.464 205.825 252.214 206.275C251.98 206.708 251.839 207.183 251.789 207.7H258.639L257.739 208.35ZM119.777 245L126.677 227.575H128.877L135.752 245H132.602L127.777 231.8L122.952 245H119.777ZM124.077 241.35L124.977 238.775H130.552L131.502 241.35H124.077ZM138.859 245L135.109 232.675H138.059L140.259 240.75L142.759 232.675H145.134L147.634 240.7L149.859 232.675H152.809L149.034 245H146.534L143.959 236.6L141.384 245H138.859ZM162.683 245L162.483 242.925V237.225C162.483 236.425 162.241 235.825 161.758 235.425C161.275 235.008 160.6 234.8 159.733 234.8C159.066 234.8 158.408 234.933 157.758 235.2C157.125 235.45 156.541 235.842 156.008 236.375L154.458 234.55C155.258 233.8 156.108 233.267 157.008 232.95C157.908 232.617 158.891 232.45 159.958 232.45C161.625 232.45 162.916 232.875 163.833 233.725C164.766 234.558 165.233 235.725 165.233 237.225V245H162.683ZM158.858 245.225C157.941 245.225 157.125 245.058 156.408 244.725C155.708 244.392 155.158 243.925 154.758 243.325C154.375 242.725 154.183 242.025 154.183 241.225C154.183 240.542 154.325 239.95 154.608 239.45C154.908 238.95 155.291 238.558 155.758 238.275C156.158 238.025 156.625 237.85 157.158 237.75C157.691 237.633 158.25 237.575 158.833 237.575H162.708V239.65H159.233C158.933 239.65 158.633 239.683 158.333 239.75C158.033 239.8 157.766 239.9 157.533 240.05C157.366 240.183 157.225 240.35 157.108 240.55C157.008 240.75 156.958 240.983 156.958 241.25C156.958 241.783 157.158 242.208 157.558 242.525C157.975 242.825 158.525 242.975 159.208 242.975C159.808 242.975 160.35 242.842 160.833 242.575C161.333 242.308 161.733 241.942 162.033 241.475C162.333 241.008 162.483 240.483 162.483 239.9L163.333 241.275C163.133 242.142 162.816 242.875 162.383 243.475C161.95 244.058 161.433 244.5 160.833 244.8C160.233 245.083 159.575 245.225 158.858 245.225ZM168.082 245V232.675H170.882V236L170.357 236.075C170.44 235.358 170.682 234.733 171.082 234.2C171.482 233.65 171.965 233.225 172.532 232.925C173.115 232.608 173.69 232.45 174.257 232.45C174.657 232.45 175.04 232.5 175.407 232.6C175.773 232.7 176.157 232.867 176.557 233.1L175.207 235.6C175.023 235.483 174.782 235.392 174.482 235.325C174.198 235.242 173.923 235.2 173.657 235.2C173.307 235.2 172.957 235.267 172.607 235.4C172.273 235.533 171.973 235.742 171.707 236.025C171.44 236.292 171.24 236.642 171.107 237.075C171.023 237.308 170.957 237.617 170.907 238C170.873 238.367 170.857 238.883 170.857 239.55V245H168.082ZM182.446 245.225C181.346 245.225 180.388 244.95 179.571 244.4C178.771 243.833 178.154 243.067 177.721 242.1C177.288 241.133 177.071 240.042 177.071 238.825C177.071 237.492 177.304 236.35 177.771 235.4C178.254 234.45 178.904 233.725 179.721 233.225C180.538 232.708 181.446 232.45 182.446 232.45C183.146 232.45 183.788 232.592 184.371 232.875C184.971 233.158 185.471 233.575 185.871 234.125C186.288 234.658 186.579 235.317 186.746 236.1L186.096 236.125V227.575H188.871V245H186.096V241.575L186.846 241.4C186.629 242.3 186.296 243.033 185.846 243.6C185.413 244.15 184.904 244.558 184.321 244.825C183.738 245.092 183.113 245.225 182.446 245.225ZM183.121 242.675C183.771 242.675 184.338 242.517 184.821 242.2C185.304 241.883 185.679 241.433 185.946 240.85C186.213 240.267 186.346 239.592 186.346 238.825C186.346 238.058 186.213 237.392 185.946 236.825C185.679 236.242 185.304 235.792 184.821 235.475C184.338 235.142 183.771 234.975 183.121 234.975C182.471 234.975 181.896 235.133 181.396 235.45C180.913 235.767 180.529 236.217 180.246 236.8C179.979 237.383 179.846 238.058 179.846 238.825C179.846 239.592 179.979 240.267 180.246 240.85C180.529 241.433 180.913 241.883 181.396 242.2C181.896 242.517 182.471 242.675 183.121 242.675Z" fill="white" style="fill:white;fill-opacity:1;"/>
</svg>
