<svg width="310" height="310" viewBox="0 0 310 310" fill="none" xmlns="http://www.w3.org/2000/svg">
<path d="M147.651 1.92236C152.217 -0.640785 157.783 -0.640785 162.349 1.92236L188.281 16.4702C190.473 17.7017 192.937 18.3625 195.44 18.3925L225.166 18.763C230.402 18.8231 235.218 21.6065 237.892 26.112L253.08 51.6733C254.362 53.836 256.164 55.6382 258.327 56.9198L283.888 72.1084C288.384 74.7817 291.167 79.5976 291.237 84.834L291.607 114.56C291.638 117.074 292.298 119.537 293.53 121.719L308.078 147.651C310.641 152.217 310.641 157.783 308.078 162.349L293.53 188.281C292.298 190.473 291.638 192.936 291.607 195.44L291.237 225.166C291.167 230.402 288.384 235.218 283.888 237.892L258.327 253.08C256.174 254.362 254.362 256.164 253.08 258.327L237.892 283.888C235.218 288.383 230.392 291.167 225.166 291.237L195.44 291.607C192.927 291.637 190.463 292.298 188.281 293.53L162.349 308.078C157.783 310.641 152.217 310.641 147.651 308.078L121.719 293.53C119.527 292.298 117.064 291.637 114.56 291.607L84.834 291.237C79.5976 291.167 74.7817 288.383 72.1084 283.888L56.9198 258.327C55.6382 256.174 53.836 254.362 51.6733 253.08L26.112 237.892C21.6165 235.218 18.8331 230.392 18.763 225.166L18.3925 195.44C18.3625 192.926 17.7017 190.463 16.4702 188.281L1.92236 162.349C-0.640786 157.783 -0.640786 152.217 1.92236 147.651L16.4702 121.719C17.7017 119.527 18.3625 117.063 18.3925 114.56L18.763 84.834C18.8231 79.5976 21.6065 74.7817 26.112 72.1084L51.6733 56.9198C53.836 55.6382 55.6382 53.836 56.9198 51.6733L72.1084 26.112C74.7817 21.6165 79.5976 18.8331 84.834 18.763L114.56 18.3925C117.074 18.3625 119.537 17.7017 121.719 16.4702L147.651 1.92236Z" fill="#227DF5" style="fill:#227DF5;fill:color(display-p3 0.1333 0.4919 0.9608);fill-opacity:1;"/>
<path d="M155 300C152.474 300 149.958 299.373 147.7 298.1L124.03 284.823C121.862 283.61 119.405 282.944 116.919 282.914L89.7776 282.576C84.6159 282.516 79.7725 279.712 77.1369 275.276L63.2729 251.934C61.9999 249.796 60.1998 247.996 58.0615 246.723L34.7195 232.859C30.2838 230.224 27.4891 225.38 27.4195 220.219L27.0813 193.078C27.0515 190.592 26.3951 188.135 25.1718 185.967L11.8946 162.297C9.36846 157.792 9.36846 152.203 11.8946 147.698L25.1718 124.028C26.3852 121.86 27.0515 119.403 27.0813 116.917L27.4195 89.7762C27.4792 84.6146 30.2838 79.7713 34.7195 77.1357L58.0615 63.272C60.1998 61.999 61.9999 60.1989 63.2729 58.0607L77.1369 34.719C79.7725 30.2834 84.6159 27.4888 89.7776 27.4192L116.919 27.0811C119.405 27.0512 121.862 26.3948 124.03 25.1716L147.7 11.8946C152.205 9.36847 157.795 9.36847 162.3 11.8946L185.97 25.1716C188.138 26.3849 190.595 27.0512 193.081 27.0811L220.222 27.4192C225.384 27.4789 230.228 30.2834 232.863 34.719L246.727 58.0607C248 60.1989 249.8 61.999 251.939 63.272L275.281 77.1357C279.716 79.7713 282.511 84.6146 282.58 89.7762L282.919 116.917C282.949 119.403 283.605 121.86 284.828 124.028L298.105 147.698C300.632 152.203 300.632 157.792 298.105 162.297L284.828 185.967C283.615 188.135 282.958 190.592 282.919 193.078L282.58 220.219C282.521 225.38 279.716 230.224 275.281 232.859L251.939 246.723C249.8 247.996 248 249.796 246.727 251.934L232.863 275.276C230.228 279.712 225.384 282.506 220.222 282.576L193.081 282.914C190.595 282.944 188.138 283.6 185.97 284.823L162.3 298.1C160.052 299.363 157.526 300 155 300ZM155 12.004C152.812 12.004 150.624 12.551 148.675 13.645L125.004 26.9219C122.548 28.3043 119.763 29.0502 116.939 29.0801L89.7975 29.4182C85.322 29.4779 81.125 31.8946 78.8376 35.7434L64.9736 59.085C63.5315 61.5117 61.4927 63.5505 59.0759 64.9826L35.7339 78.8463C31.885 81.1338 29.4683 85.3307 29.4086 89.8061L29.0704 116.947C29.0406 119.761 28.2848 122.556 26.9123 125.012L13.6351 148.682C11.4471 152.581 11.4471 157.434 13.6351 161.333L26.9123 185.003C28.2947 187.459 29.0406 190.254 29.0704 193.068L29.4086 220.209C29.4683 224.684 31.885 228.881 35.7339 231.169L59.0759 245.032C61.5026 246.474 63.5414 248.513 64.9736 250.93L78.8376 274.272C81.125 278.12 85.322 280.537 89.7975 280.597L116.939 280.935C119.753 280.965 122.538 281.721 125.004 283.093L148.675 296.37C152.573 298.558 157.427 298.558 161.325 296.37L184.996 283.093C187.452 281.711 190.247 280.965 193.061 280.935L220.202 280.597C224.678 280.537 228.875 278.12 231.162 274.272L245.026 250.93C246.469 248.503 248.507 246.464 250.924 245.032L274.266 231.169C278.115 228.881 280.532 224.684 280.591 220.209L280.93 193.068C280.969 190.254 281.715 187.459 283.088 185.003L296.365 161.333C298.553 157.434 298.553 152.581 296.365 148.682L283.088 125.012C281.705 122.556 280.959 119.771 280.93 116.947L280.591 89.8061C280.532 85.3307 278.115 81.1338 274.266 78.8463L250.924 64.9826C248.497 63.5405 246.459 61.5017 245.026 59.085L231.162 35.7434C228.875 31.8946 224.678 29.4779 220.202 29.4182L193.061 29.0801C190.247 29.0403 187.462 28.2944 184.996 26.9219L161.325 13.645C159.376 12.551 157.188 12.004 155 12.004Z" fill="white" style="fill:white;fill-opacity:1;"/>
<path d="M177.276 99.6776L191.134 96.5392H191.144C194.638 95.7497 197.776 98.6512 196.829 101.8L192.21 117.146C191.588 119.209 189.762 120.808 187.423 121.064C175.5 122.357 164.179 118.834 155 112.014C145.821 118.834 134.5 122.357 122.577 121.064C120.238 120.808 118.412 119.199 117.79 117.146L113.171 101.8C112.224 98.6512 115.362 95.7497 118.856 96.5392L132.714 99.6776C134.855 100.161 137.116 99.5888 138.675 98.1775L151.664 86.4034C153.51 84.7355 156.49 84.7355 158.326 86.4034L171.315 98.1775C172.874 99.5987 175.135 100.161 177.276 99.6776Z" fill="white" style="fill:white;fill-opacity:1;"/>
<path d="M156.441 124.39C161.426 127.144 170.644 131.536 183.82 131.2C186.051 131.141 187.828 133.016 187.245 134.96L182.064 150.959C180.929 154.739 176.378 156.367 172.815 154.146L157.655 144.702C156.056 143.705 153.934 143.705 152.325 144.702L137.55 154.146C133.987 156.367 129.072 154.739 127.937 150.959L122.745 134.96C122.163 133.016 123.939 131.141 126.17 131.2C139.346 131.536 148.555 127.144 153.549 124.39C154.487 123.867 155.523 123.877 156.441 124.39Z" fill="white" style="fill:white;fill-opacity:1;"/>
<path d="M148.91 59.5801L146.42 59.76L146.02 54.2301L138.9 43.52L141.67 43.3201L147.07 51.3501L151.23 42.63L154.09 42.42L148.51 54.01L148.92 59.5901L148.91 59.5801Z" fill="white" style="fill:white;fill-opacity:1;"/>
<path d="M133.22 61.6001L135.55 60.9401L135.56 60.9301L130.98 44.8201L128.89 45.41L126.21 59.3501L116.62 48.9L114.51 49.5001L119.09 65.6101L121.42 64.9501L118.39 54.3L126.76 63.4401L127.9 63.1101L130.19 50.9501L133.22 61.6001Z" fill="white" style="fill:white;fill-opacity:1;"/>
<path d="M104.12 72.98L94.5503 70.66L93.8198 71.12L97.5601 77.09L95.4502 78.42L86.5601 64.23L88.6699 62.9L92.52 69.04L93.0898 68.6801L95.0303 58.91L97.6602 57.26L95.5103 68.53L106.99 71.1801L104.13 72.98H104.12Z" fill="white" style="fill:white;fill-opacity:1;"/>
<path d="M88.8799 83.53L90.4497 82.1101L79.1997 69.7001L77.3296 71.3901L85.5396 80.4501L70.3496 77.7201L68.7798 79.1401L80.0298 91.55L81.8799 89.8701L73.8096 80.9601L88.8799 83.53Z" fill="white" style="fill:white;fill-opacity:1;"/>
<path fill-rule="evenodd" clip-rule="evenodd" d="M75.2202 96.9601L71.2002 95.77L66.52 101.76L68.6499 105.37L66.9902 107.5L58.02 91.77L59.4502 89.9301L76.8799 94.8201L75.2202 96.9501V96.9601ZM61.3198 92.88L65.2002 99.49L68.6699 95.04L61.3198 92.88Z" fill="white" style="fill:white;fill-opacity:1;"/>
<path fill-rule="evenodd" clip-rule="evenodd" d="M63.6499 113.11L55.1201 114.78L54.0298 116.76L59.8799 119.97L58.6802 122.16L44 114.09L47.54 107.65C49.0898 104.83 51.8999 103.93 54.5498 105.38C57.0698 106.76 57.8398 109.42 56.5601 112.1L65.1499 110.38L63.6602 113.1L63.6499 113.11ZM54.2402 111.35C55.0698 109.84 54.7002 108.33 53.3398 107.58C51.96 106.82 50.4902 107.32 49.6602 108.83L47.3198 113.08L51.8999 115.6L54.2402 111.35Z" fill="white" style="fill:white;fill-opacity:1;"/>
<path fill-rule="evenodd" clip-rule="evenodd" d="M184.08 54.64C185.04 49.86 182.48 45.78 177.27 44.73V44.74L171.92 43.66L168.62 60.0801L173.97 61.15C179.18 62.2001 183.12 59.42 184.08 54.64ZM181.6 54.15C180.92 57.5601 178.17 59.53 174.44 58.78L174.43 58.77L171.53 58.1901L173.88 46.53L176.78 47.11C180.51 47.86 182.29 50.74 181.6 54.15Z" fill="white" style="fill:white;fill-opacity:1;"/>
<path d="M198.43 68.88L187.63 64.5701L193.84 49.01L204.62 53.3101L203.72 55.5601L195.25 52.1801L193.5 56.5701L201.32 59.6901L200.43 61.92L192.61 58.8L190.84 63.24L199.33 66.63L198.43 68.88Z" fill="white" style="fill:white;fill-opacity:1;"/>
<path d="M213.7 77.7301L215.5 78.8501L224.37 64.65L222.23 63.3201L215.75 73.6801L214.24 58.3201L212.44 57.2001L203.57 71.4L205.69 72.7201L212.06 62.53L213.7 77.7301Z" fill="white" style="fill:white;fill-opacity:1;"/>
<path d="M234.95 76.51L225.4 87.1899L223.52 85.51L233.07 74.83L228.99 71.1799L230.61 69.37L240.67 78.37L239.05 80.1799L234.95 76.51Z" fill="white" style="fill:white;fill-opacity:1;"/>
<path d="M245.45 83.64L232.91 94.74L234.56 96.61L247.1 85.51L245.45 83.64Z" fill="white" style="fill:white;fill-opacity:1;"/>
<path d="M255.47 103.84L253.59 102.11C254.88 100.86 255.03 99.03 253.96 97.5C252.9 95.99 251.33 95.61 250.12 96.46C249.16 97.13 249.01 98.01 249.54 99.29L250.84 102.5C251.73 104.73 251.54 106.9 249.39 108.41C246.81 110.22 243.82 109.38 241.76 106.44C239.86 103.73 239.7 100.48 242.13 98.3L244.15 100.13C242.6 101.67 242.64 103.55 243.84 105.27C245.04 106.99 246.6 107.35 247.85 106.47C248.89 105.74 249.03 104.88 248.42 103.4L247.08 100.18C246.36 98.3199 246.11 96.0499 248.55 94.34C250.97 92.65 253.9 93.36 255.89 96.2C257.71 98.7999 257.5 101.73 255.47 103.84Z" fill="white" style="fill:white;fill-opacity:1;"/>
<path d="M251.16 121.66L263.94 115.19L266.43 120.09L268.59 118.99L262.49 106.95L260.33 108.05L262.8 112.94L250.02 119.41L251.16 121.66Z" fill="white" style="fill:white;fill-opacity:1;"/>
<path d="M134.922 272.19V271.254C135.194 271.038 135.51 270.798 135.87 270.534C136.23 270.27 136.594 269.982 136.962 269.67C137.338 269.358 137.686 269.026 138.006 268.674C138.326 268.322 138.582 267.954 138.774 267.57C138.974 267.178 139.074 266.778 139.074 266.37C139.074 265.93 138.954 265.574 138.714 265.302C138.474 265.022 138.114 264.882 137.634 264.882C137.274 264.882 136.974 264.966 136.734 265.134C136.502 265.302 136.33 265.53 136.218 265.818C136.106 266.106 136.046 266.426 136.038 266.778L134.886 266.694C134.886 266.302 134.946 265.93 135.066 265.578C135.186 265.226 135.362 264.914 135.594 264.642C135.834 264.362 136.126 264.142 136.47 263.982C136.822 263.822 137.222 263.742 137.67 263.742C138.182 263.742 138.626 263.85 139.002 264.066C139.386 264.282 139.686 264.582 139.902 264.966C140.118 265.35 140.226 265.802 140.226 266.322C140.226 266.762 140.146 267.186 139.986 267.594C139.834 268.002 139.618 268.394 139.338 268.77C139.058 269.138 138.734 269.486 138.366 269.814C137.998 270.142 137.602 270.454 137.178 270.75C136.754 271.038 136.314 271.302 135.858 271.542L136.17 271.098H140.562V272.19H134.922Z" fill="white" style="fill:white;fill-opacity:1;"/>
<path d="M149.269 272.286C148.781 272.286 148.369 272.198 148.033 272.022C147.705 271.846 147.433 271.61 147.217 271.314C147.009 271.01 146.849 270.674 146.737 270.306C146.633 269.93 146.561 269.542 146.521 269.142C146.481 268.734 146.461 268.346 146.461 267.978C146.461 267.61 146.477 267.23 146.509 266.838C146.549 266.438 146.621 266.054 146.725 265.686C146.837 265.31 146.997 264.974 147.205 264.678C147.413 264.382 147.681 264.146 148.009 263.97C148.345 263.794 148.753 263.706 149.233 263.706C149.705 263.706 150.105 263.794 150.433 263.97C150.761 264.138 151.029 264.366 151.237 264.654C151.453 264.942 151.617 265.27 151.729 265.638C151.841 266.006 151.917 266.394 151.957 266.802C152.005 267.202 152.029 267.594 152.029 267.978C152.029 268.378 152.005 268.782 151.957 269.19C151.917 269.598 151.837 269.986 151.717 270.354C151.605 270.722 151.445 271.054 151.237 271.35C151.029 271.638 150.765 271.866 150.445 272.034C150.125 272.202 149.733 272.286 149.269 272.286ZM149.269 271.158C149.669 271.158 149.981 271.018 150.205 270.738C150.437 270.458 150.601 270.082 150.697 269.61C150.793 269.138 150.841 268.61 150.841 268.026C150.841 267.41 150.789 266.866 150.685 266.394C150.589 265.914 150.425 265.534 150.193 265.254C149.961 264.974 149.641 264.834 149.233 264.834C148.913 264.834 148.649 264.918 148.441 265.086C148.241 265.254 148.085 265.486 147.973 265.782C147.861 266.078 147.781 266.418 147.733 266.802C147.685 267.178 147.661 267.582 147.661 268.014C147.661 268.43 147.685 268.826 147.733 269.202C147.781 269.578 147.861 269.914 147.973 270.21C148.093 270.498 148.257 270.73 148.465 270.906C148.673 271.074 148.941 271.158 149.269 271.158Z" fill="white" style="fill:white;fill-opacity:1;"/>
<path d="M157.952 272.19V271.254C158.224 271.038 158.54 270.798 158.9 270.534C159.26 270.27 159.624 269.982 159.992 269.67C160.368 269.358 160.716 269.026 161.036 268.674C161.356 268.322 161.612 267.954 161.804 267.57C162.004 267.178 162.104 266.778 162.104 266.37C162.104 265.93 161.984 265.574 161.744 265.302C161.504 265.022 161.144 264.882 160.664 264.882C160.304 264.882 160.004 264.966 159.764 265.134C159.532 265.302 159.36 265.53 159.248 265.818C159.136 266.106 159.076 266.426 159.068 266.778L157.916 266.694C157.916 266.302 157.976 265.93 158.096 265.578C158.216 265.226 158.392 264.914 158.624 264.642C158.864 264.362 159.156 264.142 159.5 263.982C159.852 263.822 160.252 263.742 160.7 263.742C161.212 263.742 161.656 263.85 162.032 264.066C162.416 264.282 162.716 264.582 162.932 264.966C163.148 265.35 163.256 265.802 163.256 266.322C163.256 266.762 163.176 267.186 163.016 267.594C162.864 268.002 162.648 268.394 162.368 268.77C162.088 269.138 161.764 269.486 161.396 269.814C161.028 270.142 160.632 270.454 160.208 270.75C159.784 271.038 159.344 271.302 158.888 271.542L159.2 271.098H163.592V272.19H157.952Z" fill="white" style="fill:white;fill-opacity:1;"/>
<path d="M172.251 272.298C171.747 272.298 171.283 272.19 170.859 271.974C170.443 271.758 170.099 271.466 169.827 271.098C169.555 270.722 169.379 270.298 169.299 269.826L170.451 269.622C170.499 269.894 170.595 270.15 170.739 270.39C170.891 270.63 171.091 270.822 171.339 270.966C171.595 271.102 171.891 271.17 172.227 271.17C172.611 271.17 172.931 271.082 173.187 270.906C173.451 270.722 173.651 270.49 173.787 270.21C173.923 269.922 173.991 269.618 173.991 269.298C173.991 268.994 173.927 268.714 173.799 268.458C173.671 268.202 173.479 267.998 173.223 267.846C172.975 267.686 172.663 267.606 172.287 267.606C171.943 267.606 171.635 267.686 171.363 267.846C171.099 267.998 170.875 268.21 170.691 268.482L169.551 268.182L170.343 263.826H174.855V264.918H170.775L171.399 264.426L170.835 267.522L170.487 267.438C170.799 267.078 171.123 266.834 171.459 266.706C171.803 266.57 172.135 266.502 172.455 266.502C172.999 266.502 173.479 266.63 173.895 266.886C174.319 267.142 174.647 267.482 174.879 267.906C175.111 268.33 175.227 268.794 175.227 269.298C175.227 269.698 175.155 270.078 175.011 270.438C174.867 270.798 174.659 271.118 174.387 271.398C174.123 271.678 173.807 271.898 173.439 272.058C173.079 272.218 172.683 272.298 172.251 272.298Z" fill="white" style="fill:white;fill-opacity:1;"/>
<path d="M41 147.61L42.8887 152.721L48 154.61L42.8887 156.499L41 161.61L39.1113 156.499L34 154.61L39.1113 152.721L41 147.61Z" fill="white" style="fill:white;fill-opacity:1;"/>
<path d="M269 147.61L270.889 152.721L276 154.61L270.889 156.499L269 161.61L267.111 156.499L262 154.61L267.111 152.721L269 147.61Z" fill="white" style="fill:white;fill-opacity:1;"/>
<path fill-rule="evenodd" clip-rule="evenodd" d="M265 178H45V177H265V178Z" fill="white" style="fill:white;fill-opacity:1;"/>
<path d="M40.1863 215V197.575H44.4363L49.3113 210.6H48.7863L53.6863 197.575H57.9113V215H55.0113V200.95L55.2613 201L50.4613 213.475H47.6363L42.8113 201L43.0863 200.95V215H40.1863ZM69.0009 215L68.8009 212.925V207.225C68.8009 206.425 68.5592 205.825 68.0759 205.425C67.5926 205.008 66.9176 204.8 66.0509 204.8C65.3842 204.8 64.7259 204.933 64.0759 205.2C63.4426 205.45 62.8592 205.842 62.3259 206.375L60.7759 204.55C61.5759 203.8 62.4259 203.267 63.3259 202.95C64.2259 202.617 65.2092 202.45 66.2759 202.45C67.9426 202.45 69.2342 202.875 70.1509 203.725C71.0842 204.558 71.5509 205.725 71.5509 207.225V215H69.0009ZM65.1759 215.225C64.2592 215.225 63.4426 215.058 62.7259 214.725C62.0259 214.392 61.4759 213.925 61.0759 213.325C60.6926 212.725 60.5009 212.025 60.5009 211.225C60.5009 210.542 60.6426 209.95 60.9259 209.45C61.2259 208.95 61.6092 208.558 62.0759 208.275C62.4759 208.025 62.9426 207.85 63.4759 207.75C64.0092 207.633 64.5676 207.575 65.1509 207.575H69.0259V209.65H65.5509C65.2509 209.65 64.9509 209.683 64.6509 209.75C64.3509 209.8 64.0842 209.9 63.8509 210.05C63.6842 210.183 63.5426 210.35 63.4259 210.55C63.3259 210.75 63.2759 210.983 63.2759 211.25C63.2759 211.783 63.4759 212.208 63.8759 212.525C64.2926 212.825 64.8426 212.975 65.5259 212.975C66.1259 212.975 66.6676 212.842 67.1509 212.575C67.6509 212.308 68.0509 211.942 68.3509 211.475C68.6509 211.008 68.8009 210.483 68.8009 209.9L69.6509 211.275C69.4509 212.142 69.1342 212.875 68.7009 213.475C68.2676 214.058 67.7509 214.5 67.1509 214.8C66.5509 215.083 65.8926 215.225 65.1759 215.225ZM73.3245 215L77.5995 208.8L73.3245 202.675H76.6495L79.4495 206.95L82.2995 202.675H85.5745L81.2745 208.8L85.5745 215H82.2495L79.4495 210.65L76.5995 215H73.3245ZM87.479 215V202.675H90.254V215H87.479ZM87.354 200.65V197.575H90.379V200.65H87.354ZM95.9605 215.225C95.1605 215.225 94.4938 214.983 93.9605 214.5C93.4271 214 93.1605 213.208 93.1605 212.125V197.575H95.9355V211.575C95.9355 211.958 96.0188 212.242 96.1855 212.425C96.3688 212.592 96.6021 212.675 96.8855 212.675C97.0355 212.675 97.1855 212.658 97.3355 212.625C97.5021 212.592 97.6688 212.55 97.8355 212.5V214.85C97.5188 214.983 97.1938 215.075 96.8605 215.125C96.5271 215.192 96.2271 215.225 95.9605 215.225ZM102.546 215.225C101.746 215.225 101.08 214.983 100.546 214.5C100.013 214 99.7464 213.208 99.7464 212.125V197.575H102.521V211.575C102.521 211.958 102.605 212.242 102.771 212.425C102.955 212.592 103.188 212.675 103.471 212.675C103.621 212.675 103.771 212.658 103.921 212.625C104.088 212.592 104.255 212.55 104.421 212.5V214.85C104.105 214.983 103.78 215.075 103.446 215.125C103.113 215.192 102.813 215.225 102.546 215.225ZM111.957 215.225C110.791 215.225 109.741 214.95 108.807 214.4C107.874 213.85 107.141 213.092 106.607 212.125C106.091 211.158 105.832 210.058 105.832 208.825C105.832 207.592 106.091 206.492 106.607 205.525C107.141 204.558 107.866 203.808 108.782 203.275C109.716 202.725 110.774 202.45 111.957 202.45C113.157 202.45 114.207 202.725 115.107 203.275C116.024 203.808 116.749 204.558 117.282 205.525C117.816 206.492 118.082 207.592 118.082 208.825C118.082 210.058 117.816 211.158 117.282 212.125C116.766 213.092 116.041 213.85 115.107 214.4C114.191 214.95 113.141 215.225 111.957 215.225ZM111.982 212.775C112.666 212.775 113.257 212.617 113.757 212.3C114.257 211.983 114.641 211.525 114.907 210.925C115.174 210.325 115.307 209.625 115.307 208.825C115.307 208.008 115.174 207.308 114.907 206.725C114.641 206.125 114.257 205.667 113.757 205.35C113.257 205.033 112.666 204.875 111.982 204.875C111.266 204.875 110.657 205.042 110.157 205.375C109.657 205.692 109.274 206.142 109.007 206.725C108.741 207.308 108.607 208.008 108.607 208.825C108.607 209.625 108.741 210.325 109.007 210.925C109.274 211.525 109.657 211.983 110.157 212.3C110.657 212.617 111.266 212.775 111.982 212.775ZM121.341 215V204.825H118.991V202.675H121.366V201.275C121.366 200.258 121.533 199.467 121.866 198.9C122.2 198.317 122.641 197.917 123.191 197.7C123.758 197.467 124.383 197.35 125.066 197.35C125.55 197.35 125.975 197.4 126.341 197.5C126.725 197.583 127.083 197.708 127.416 197.875L126.516 199.975C126.35 199.875 126.166 199.8 125.966 199.75C125.783 199.683 125.583 199.65 125.366 199.65C124.916 199.65 124.591 199.8 124.391 200.1C124.208 200.383 124.116 200.775 124.116 201.275V202.675H126.816V204.825H124.116V215H121.341ZM136.66 215L136.46 212.925V207.225C136.46 206.425 136.218 205.825 135.735 205.425C135.252 205.008 134.577 204.8 133.71 204.8C133.043 204.8 132.385 204.933 131.735 205.2C131.102 205.45 130.518 205.842 129.985 206.375L128.435 204.55C129.235 203.8 130.085 203.267 130.985 202.95C131.885 202.617 132.868 202.45 133.935 202.45C135.602 202.45 136.893 202.875 137.81 203.725C138.743 204.558 139.21 205.725 139.21 207.225V215H136.66ZM132.835 215.225C131.918 215.225 131.102 215.058 130.385 214.725C129.685 214.392 129.135 213.925 128.735 213.325C128.352 212.725 128.16 212.025 128.16 211.225C128.16 210.542 128.302 209.95 128.585 209.45C128.885 208.95 129.268 208.558 129.735 208.275C130.135 208.025 130.602 207.85 131.135 207.75C131.668 207.633 132.227 207.575 132.81 207.575H136.685V209.65H133.21C132.91 209.65 132.61 209.683 132.31 209.75C132.01 209.8 131.743 209.9 131.51 210.05C131.343 210.183 131.202 210.35 131.085 210.55C130.985 210.75 130.935 210.983 130.935 211.25C130.935 211.783 131.135 212.208 131.535 212.525C131.952 212.825 132.502 212.975 133.185 212.975C133.785 212.975 134.327 212.842 134.81 212.575C135.31 212.308 135.71 211.942 136.01 211.475C136.31 211.008 136.46 210.483 136.46 209.9L137.31 211.275C137.11 212.142 136.793 212.875 136.36 213.475C135.927 214.058 135.41 214.5 134.81 214.8C134.21 215.083 133.552 215.225 132.835 215.225ZM147.384 215.225C146.417 215.225 145.559 215.058 144.809 214.725C144.075 214.375 143.459 213.9 142.959 213.3C142.475 212.683 142.109 211.992 141.859 211.225C141.609 210.458 141.484 209.658 141.484 208.825C141.484 207.992 141.609 207.192 141.859 206.425C142.109 205.658 142.475 204.975 142.959 204.375C143.459 203.775 144.075 203.308 144.809 202.975C145.559 202.625 146.417 202.45 147.384 202.45C148.6 202.45 149.659 202.742 150.559 203.325C151.475 203.908 152.15 204.808 152.584 206.025L150.134 206.975C149.934 206.342 149.609 205.833 149.159 205.45C148.709 205.05 148.117 204.85 147.384 204.85C146.65 204.85 146.05 205.042 145.584 205.425C145.134 205.808 144.8 206.3 144.584 206.9C144.367 207.5 144.259 208.142 144.259 208.825C144.259 209.508 144.367 210.158 144.584 210.775C144.8 211.375 145.134 211.867 145.584 212.25C146.05 212.617 146.65 212.8 147.384 212.8C148.117 212.8 148.709 212.608 149.159 212.225C149.609 211.842 149.934 211.333 150.134 210.7L152.584 211.65C152.15 212.85 151.475 213.75 150.559 214.35C149.659 214.933 148.6 215.225 147.384 215.225ZM154.821 215V202.675H157.596V215H154.821ZM154.696 200.65V197.575H157.721V200.65H154.696ZM168.527 215L168.327 212.925V207.225C168.327 206.425 168.086 205.825 167.602 205.425C167.119 205.008 166.444 204.8 165.577 204.8C164.911 204.8 164.252 204.933 163.602 205.2C162.969 205.45 162.386 205.842 161.852 206.375L160.302 204.55C161.102 203.8 161.952 203.267 162.852 202.95C163.752 202.617 164.736 202.45 165.802 202.45C167.469 202.45 168.761 202.875 169.677 203.725C170.611 204.558 171.077 205.725 171.077 207.225V215H168.527ZM164.702 215.225C163.786 215.225 162.969 215.058 162.252 214.725C161.552 214.392 161.002 213.925 160.602 213.325C160.219 212.725 160.027 212.025 160.027 211.225C160.027 210.542 160.169 209.95 160.452 209.45C160.752 208.95 161.136 208.558 161.602 208.275C162.002 208.025 162.469 207.85 163.002 207.75C163.536 207.633 164.094 207.575 164.677 207.575H168.552V209.65H165.077C164.777 209.65 164.477 209.683 164.177 209.75C163.877 209.8 163.611 209.9 163.377 210.05C163.211 210.183 163.069 210.35 162.952 210.55C162.852 210.75 162.802 210.983 162.802 211.25C162.802 211.783 163.002 212.208 163.402 212.525C163.819 212.825 164.369 212.975 165.052 212.975C165.652 212.975 166.194 212.842 166.677 212.575C167.177 212.308 167.577 211.942 167.877 211.475C168.177 211.008 168.327 210.483 168.327 209.9L169.177 211.275C168.977 212.142 168.661 212.875 168.227 213.475C167.794 214.058 167.277 214.5 166.677 214.8C166.077 215.083 165.419 215.225 164.702 215.225ZM176.651 215.225C175.851 215.225 175.184 214.983 174.651 214.5C174.118 214 173.851 213.208 173.851 212.125V197.575H176.626V211.575C176.626 211.958 176.709 212.242 176.876 212.425C177.059 212.592 177.293 212.675 177.576 212.675C177.726 212.675 177.876 212.658 178.026 212.625C178.193 212.592 178.359 212.55 178.526 212.5V214.85C178.209 214.983 177.884 215.075 177.551 215.125C177.218 215.192 176.918 215.225 176.651 215.225ZM192.531 215.325C190.698 215.325 189.198 214.85 188.031 213.9C186.881 212.95 186.173 211.683 185.906 210.1L188.731 209.4C188.914 210.5 189.348 211.333 190.031 211.9C190.731 212.467 191.589 212.75 192.606 212.75C193.173 212.75 193.681 212.65 194.131 212.45C194.581 212.233 194.931 211.933 195.181 211.55C195.448 211.167 195.581 210.733 195.581 210.25C195.581 209.733 195.439 209.308 195.156 208.975C194.873 208.625 194.464 208.317 193.931 208.05C193.398 207.767 192.748 207.475 191.981 207.175C190.931 206.775 190.039 206.342 189.306 205.875C188.573 205.408 188.014 204.858 187.631 204.225C187.248 203.575 187.056 202.808 187.056 201.925C187.056 201.008 187.281 200.2 187.731 199.5C188.181 198.783 188.814 198.225 189.631 197.825C190.448 197.425 191.389 197.225 192.456 197.225C193.606 197.225 194.623 197.483 195.506 198C196.389 198.517 197.098 199.3 197.631 200.35L195.331 201.75C194.981 201.117 194.556 200.633 194.056 200.3C193.556 199.95 192.989 199.775 192.356 199.775C191.906 199.775 191.498 199.867 191.131 200.05C190.764 200.217 190.473 200.458 190.256 200.775C190.056 201.092 189.956 201.458 189.956 201.875C189.956 202.308 190.081 202.692 190.331 203.025C190.581 203.342 190.964 203.633 191.481 203.9C192.014 204.167 192.689 204.458 193.506 204.775C194.556 205.175 195.448 205.608 196.181 206.075C196.914 206.542 197.473 207.1 197.856 207.75C198.256 208.383 198.456 209.158 198.456 210.075C198.456 211.092 198.206 211.992 197.706 212.775C197.206 213.558 196.506 214.183 195.606 214.65C194.723 215.1 193.698 215.325 192.531 215.325ZM205.088 215.225C204.121 215.225 203.304 215.033 202.638 214.65C201.988 214.267 201.496 213.717 201.163 213C200.829 212.283 200.663 211.417 200.663 210.4V202.675H203.438V209.65C203.438 210.3 203.513 210.867 203.663 211.35C203.829 211.817 204.088 212.175 204.438 212.425C204.804 212.675 205.296 212.8 205.913 212.8C206.629 212.8 207.188 212.617 207.588 212.25C208.004 211.867 208.296 211.317 208.463 210.6C208.646 209.867 208.738 208.992 208.738 207.975V202.675H211.513V215H208.738V212.35L209.213 212.525C208.829 213.458 208.271 214.142 207.538 214.575C206.821 215.008 206.004 215.225 205.088 215.225ZM214.527 215V202.675H217.327V206L216.802 206.075C216.886 205.358 217.127 204.733 217.527 204.2C217.927 203.65 218.411 203.225 218.977 202.925C219.561 202.608 220.136 202.45 220.702 202.45C221.102 202.45 221.486 202.5 221.852 202.6C222.219 202.7 222.602 202.867 223.002 203.1L221.652 205.6C221.469 205.483 221.227 205.392 220.927 205.325C220.644 205.242 220.369 205.2 220.102 205.2C219.752 205.2 219.402 205.267 219.052 205.4C218.719 205.533 218.419 205.742 218.152 206.025C217.886 206.292 217.686 206.642 217.552 207.075C217.469 207.308 217.402 207.617 217.352 208C217.319 208.367 217.302 208.883 217.302 209.55V215H214.527ZM229.339 220.35C227.522 220.35 226.089 220.017 225.039 219.35C223.989 218.7 223.464 217.808 223.464 216.675C223.464 216.575 223.464 216.458 223.464 216.325C223.481 216.192 223.506 216.058 223.539 215.925L226.889 213.75L227.639 214.475L226.014 216.5C225.997 216.55 225.989 216.592 225.989 216.625C225.989 216.675 225.989 216.725 225.989 216.775C225.989 217.292 226.297 217.683 226.914 217.95C227.547 218.233 228.356 218.375 229.339 218.375C230.172 218.375 230.839 218.258 231.339 218.025C231.839 217.808 232.089 217.475 232.089 217.025C232.089 216.775 232.014 216.567 231.864 216.4C231.714 216.25 231.489 216.125 231.189 216.025C230.889 215.925 230.514 215.833 230.064 215.75C229.631 215.683 229.114 215.617 228.514 215.55C227.764 215.433 227.022 215.267 226.289 215.05C225.572 214.833 224.972 214.508 224.489 214.075C224.022 213.642 223.789 213.067 223.789 212.35C223.789 211.717 224.006 211.142 224.439 210.625C224.872 210.092 225.447 209.658 226.164 209.325L227.589 210.425C227.122 210.525 226.772 210.7 226.539 210.95C226.306 211.183 226.189 211.467 226.189 211.8C226.189 212.083 226.297 212.317 226.514 212.5C226.731 212.667 227.039 212.8 227.439 212.9C227.856 212.983 228.347 213.067 228.914 213.15C229.764 213.25 230.547 213.367 231.264 213.5C231.981 213.633 232.606 213.825 233.139 214.075C233.672 214.308 234.081 214.633 234.364 215.05C234.664 215.467 234.814 216.008 234.814 216.675C234.814 217.858 234.331 218.767 233.364 219.4C232.414 220.033 231.072 220.35 229.339 220.35ZM229.064 211.425C228.064 211.425 227.181 211.233 226.414 210.85C225.647 210.467 225.047 209.942 224.614 209.275C224.197 208.592 223.989 207.825 223.989 206.975C223.989 206.058 224.214 205.267 224.664 204.6C225.114 203.917 225.714 203.392 226.464 203.025C227.231 202.642 228.064 202.45 228.964 202.45C229.864 202.45 230.689 202.642 231.439 203.025C232.189 203.392 232.789 203.925 233.239 204.625C233.706 205.308 233.939 206.125 233.939 207.075C233.939 207.942 233.731 208.708 233.314 209.375C232.914 210.025 232.347 210.533 231.614 210.9C230.881 211.25 230.031 211.425 229.064 211.425ZM229.014 209.2C229.731 209.2 230.272 208.983 230.639 208.55C231.006 208.1 231.189 207.567 231.189 206.95C231.189 206.283 230.989 205.75 230.589 205.35C230.189 204.933 229.664 204.725 229.014 204.725C228.331 204.725 227.781 204.933 227.364 205.35C226.964 205.75 226.764 206.275 226.764 206.925C226.764 207.558 226.956 208.1 227.339 208.55C227.722 208.983 228.281 209.2 229.014 209.2ZM233.139 205.175L231.114 203.875L233.889 201.625L235.314 203.35L233.139 205.175ZM242.084 215.225C241.05 215.225 240.15 215.058 239.384 214.725C238.634 214.392 238.017 213.925 237.534 213.325C237.05 212.725 236.692 212.05 236.459 211.3C236.225 210.533 236.109 209.742 236.109 208.925C236.109 208.108 236.217 207.317 236.434 206.55C236.667 205.767 237.017 205.067 237.484 204.45C237.95 203.833 238.55 203.35 239.284 203C240.017 202.633 240.884 202.45 241.884 202.45C242.834 202.45 243.659 202.617 244.359 202.95C245.075 203.267 245.667 203.717 246.134 204.3C246.6 204.867 246.942 205.517 247.159 206.25C247.392 206.983 247.509 207.767 247.509 208.6C247.509 208.717 247.5 208.883 247.484 209.1C247.484 209.317 247.467 209.533 247.434 209.75H238.884C238.95 210.733 239.284 211.483 239.884 212C240.484 212.517 241.25 212.775 242.184 212.775C242.867 212.775 243.492 212.667 244.059 212.45C244.625 212.233 245.142 211.892 245.609 211.425L247.134 213.275C246.617 213.742 246.1 214.117 245.584 214.4C245.067 214.683 244.525 214.892 243.959 215.025C243.409 215.158 242.784 215.225 242.084 215.225ZM244.784 208.35C244.817 208.217 244.834 208.083 244.834 207.95C244.85 207.817 244.859 207.683 244.859 207.55C244.859 207.183 244.792 206.833 244.659 206.5C244.542 206.167 244.359 205.875 244.109 205.625C243.859 205.358 243.55 205.15 243.184 205C242.817 204.833 242.4 204.75 241.934 204.75C241.284 204.75 240.734 204.892 240.284 205.175C239.85 205.458 239.509 205.825 239.259 206.275C239.025 206.708 238.884 207.183 238.834 207.7H245.684L244.784 208.35ZM249.959 215V202.675H252.759V206L252.234 206.075C252.317 205.358 252.559 204.733 252.959 204.2C253.359 203.65 253.842 203.225 254.409 202.925C254.992 202.608 255.567 202.45 256.134 202.45C256.534 202.45 256.917 202.5 257.284 202.6C257.651 202.7 258.034 202.867 258.434 203.1L257.084 205.6C256.901 205.483 256.659 205.392 256.359 205.325C256.076 205.242 255.801 205.2 255.534 205.2C255.184 205.2 254.834 205.267 254.484 205.4C254.151 205.533 253.851 205.742 253.584 206.025C253.317 206.292 253.117 206.642 252.984 207.075C252.901 207.308 252.834 207.617 252.784 208C252.751 208.367 252.734 208.883 252.734 209.55V215H249.959ZM261.282 220.075L263.732 214.175L259.032 202.675H262.082L265.207 211.4L268.382 202.675H271.382L264.282 220.075H261.282ZM119.777 245L126.677 227.575H128.877L135.752 245H132.602L127.777 231.8L122.952 245H119.777ZM124.077 241.35L124.977 238.775H130.552L131.502 241.35H124.077ZM138.859 245L135.109 232.675H138.059L140.259 240.75L142.759 232.675H145.134L147.634 240.7L149.859 232.675H152.809L149.034 245H146.534L143.959 236.6L141.384 245H138.859ZM162.683 245L162.483 242.925V237.225C162.483 236.425 162.241 235.825 161.758 235.425C161.275 235.008 160.6 234.8 159.733 234.8C159.066 234.8 158.408 234.933 157.758 235.2C157.125 235.45 156.541 235.842 156.008 236.375L154.458 234.55C155.258 233.8 156.108 233.267 157.008 232.95C157.908 232.617 158.891 232.45 159.958 232.45C161.625 232.45 162.916 232.875 163.833 233.725C164.766 234.558 165.233 235.725 165.233 237.225V245H162.683ZM158.858 245.225C157.941 245.225 157.125 245.058 156.408 244.725C155.708 244.392 155.158 243.925 154.758 243.325C154.375 242.725 154.183 242.025 154.183 241.225C154.183 240.542 154.325 239.95 154.608 239.45C154.908 238.95 155.291 238.558 155.758 238.275C156.158 238.025 156.625 237.85 157.158 237.75C157.691 237.633 158.25 237.575 158.833 237.575H162.708V239.65H159.233C158.933 239.65 158.633 239.683 158.333 239.75C158.033 239.8 157.766 239.9 157.533 240.05C157.366 240.183 157.225 240.35 157.108 240.55C157.008 240.75 156.958 240.983 156.958 241.25C156.958 241.783 157.158 242.208 157.558 242.525C157.975 242.825 158.525 242.975 159.208 242.975C159.808 242.975 160.35 242.842 160.833 242.575C161.333 242.308 161.733 241.942 162.033 241.475C162.333 241.008 162.483 240.483 162.483 239.9L163.333 241.275C163.133 242.142 162.816 242.875 162.383 243.475C161.95 244.058 161.433 244.5 160.833 244.8C160.233 245.083 159.575 245.225 158.858 245.225ZM168.082 245V232.675H170.882V236L170.357 236.075C170.44 235.358 170.682 234.733 171.082 234.2C171.482 233.65 171.965 233.225 172.532 232.925C173.115 232.608 173.69 232.45 174.257 232.45C174.657 232.45 175.04 232.5 175.407 232.6C175.773 232.7 176.157 232.867 176.557 233.1L175.207 235.6C175.023 235.483 174.782 235.392 174.482 235.325C174.198 235.242 173.923 235.2 173.657 235.2C173.307 235.2 172.957 235.267 172.607 235.4C172.273 235.533 171.973 235.742 171.707 236.025C171.44 236.292 171.24 236.642 171.107 237.075C171.023 237.308 170.957 237.617 170.907 238C170.873 238.367 170.857 238.883 170.857 239.55V245H168.082ZM182.446 245.225C181.346 245.225 180.388 244.95 179.571 244.4C178.771 243.833 178.154 243.067 177.721 242.1C177.288 241.133 177.071 240.042 177.071 238.825C177.071 237.492 177.304 236.35 177.771 235.4C178.254 234.45 178.904 233.725 179.721 233.225C180.538 232.708 181.446 232.45 182.446 232.45C183.146 232.45 183.788 232.592 184.371 232.875C184.971 233.158 185.471 233.575 185.871 234.125C186.288 234.658 186.579 235.317 186.746 236.1L186.096 236.125V227.575H188.871V245H186.096V241.575L186.846 241.4C186.629 242.3 186.296 243.033 185.846 243.6C185.413 244.15 184.904 244.558 184.321 244.825C183.738 245.092 183.113 245.225 182.446 245.225ZM183.121 242.675C183.771 242.675 184.338 242.517 184.821 242.2C185.304 241.883 185.679 241.433 185.946 240.85C186.213 240.267 186.346 239.592 186.346 238.825C186.346 238.058 186.213 237.392 185.946 236.825C185.679 236.242 185.304 235.792 184.821 235.475C184.338 235.142 183.771 234.975 183.121 234.975C182.471 234.975 181.896 235.133 181.396 235.45C180.913 235.767 180.529 236.217 180.246 236.8C179.979 237.383 179.846 238.058 179.846 238.825C179.846 239.592 179.979 240.267 180.246 240.85C180.529 241.433 180.913 241.883 181.396 242.2C181.896 242.517 182.471 242.675 183.121 242.675Z" fill="white" style="fill:white;fill-opacity:1;"/>
</svg>
