<svg width="310" height="310" viewBox="0 0 310 310" fill="none" xmlns="http://www.w3.org/2000/svg">
<path d="M147.651 1.92236C152.217 -0.640785 157.783 -0.640785 162.349 1.92236L188.281 16.4702C190.473 17.7017 192.937 18.3625 195.44 18.3925L225.166 18.763C230.402 18.8231 235.218 21.6065 237.892 26.112L253.08 51.6733C254.362 53.836 256.164 55.6382 258.327 56.9198L283.888 72.1084C288.384 74.7817 291.167 79.5976 291.237 84.834L291.607 114.56C291.638 117.074 292.298 119.537 293.53 121.719L308.078 147.651C310.641 152.217 310.641 157.783 308.078 162.349L293.53 188.281C292.298 190.473 291.638 192.936 291.607 195.44L291.237 225.166C291.167 230.402 288.384 235.218 283.888 237.892L258.327 253.08C256.174 254.362 254.362 256.164 253.08 258.327L237.892 283.888C235.218 288.383 230.392 291.167 225.166 291.237L195.44 291.607C192.927 291.637 190.463 292.298 188.281 293.53L162.349 308.078C157.783 310.641 152.217 310.641 147.651 308.078L121.719 293.53C119.527 292.298 117.064 291.637 114.56 291.607L84.834 291.237C79.5976 291.167 74.7817 288.383 72.1084 283.888L56.9198 258.327C55.6382 256.174 53.836 254.362 51.6733 253.08L26.112 237.892C21.6165 235.218 18.8331 230.392 18.763 225.166L18.3925 195.44C18.3625 192.926 17.7017 190.463 16.4702 188.281L1.92236 162.349C-0.640786 157.783 -0.640786 152.217 1.92236 147.651L16.4702 121.719C17.7017 119.527 18.3625 117.063 18.3925 114.56L18.763 84.834C18.8231 79.5976 21.6065 74.7817 26.112 72.1084L51.6733 56.9198C53.836 55.6382 55.6382 53.836 56.9198 51.6733L72.1084 26.112C74.7817 21.6165 79.5976 18.8331 84.834 18.763L114.56 18.3925C117.074 18.3625 119.537 17.7017 121.719 16.4702L147.651 1.92236Z" fill="#227DF5" style="fill:#227DF5;fill:color(display-p3 0.1333 0.4919 0.9608);fill-opacity:1;"/>
<path d="M155 300C152.474 300 149.958 299.373 147.7 298.1L124.03 284.823C121.862 283.61 119.405 282.944 116.919 282.914L89.7776 282.576C84.6159 282.516 79.7725 279.712 77.1369 275.276L63.2729 251.934C61.9999 249.796 60.1998 247.996 58.0615 246.723L34.7195 232.859C30.2838 230.224 27.4891 225.38 27.4195 220.219L27.0813 193.078C27.0515 190.592 26.3951 188.135 25.1718 185.967L11.8946 162.297C9.36846 157.792 9.36846 152.203 11.8946 147.698L25.1718 124.028C26.3852 121.86 27.0515 119.403 27.0813 116.917L27.4195 89.7762C27.4792 84.6146 30.2838 79.7713 34.7195 77.1357L58.0615 63.272C60.1998 61.999 61.9999 60.1989 63.2729 58.0607L77.1369 34.719C79.7725 30.2834 84.6159 27.4888 89.7776 27.4192L116.919 27.0811C119.405 27.0512 121.862 26.3948 124.03 25.1716L147.7 11.8946C152.205 9.36847 157.795 9.36847 162.3 11.8946L185.97 25.1716C188.138 26.3849 190.595 27.0512 193.081 27.0811L220.222 27.4192C225.384 27.4789 230.228 30.2834 232.863 34.719L246.727 58.0607C248 60.1989 249.8 61.999 251.939 63.272L275.281 77.1357C279.716 79.7713 282.511 84.6146 282.58 89.7762L282.919 116.917C282.949 119.403 283.605 121.86 284.828 124.028L298.105 147.698C300.632 152.203 300.632 157.792 298.105 162.297L284.828 185.967C283.615 188.135 282.958 190.592 282.919 193.078L282.58 220.219C282.521 225.38 279.716 230.224 275.281 232.859L251.939 246.723C249.8 247.996 248 249.796 246.727 251.934L232.863 275.276C230.228 279.712 225.384 282.506 220.222 282.576L193.081 282.914C190.595 282.944 188.138 283.6 185.97 284.823L162.3 298.1C160.052 299.363 157.526 300 155 300ZM155 12.004C152.812 12.004 150.624 12.551 148.675 13.645L125.004 26.9219C122.548 28.3043 119.763 29.0502 116.939 29.0801L89.7975 29.4182C85.322 29.4779 81.125 31.8946 78.8376 35.7434L64.9736 59.085C63.5315 61.5117 61.4927 63.5505 59.0759 64.9826L35.7339 78.8463C31.885 81.1338 29.4683 85.3307 29.4086 89.8061L29.0704 116.947C29.0406 119.761 28.2848 122.556 26.9123 125.012L13.6351 148.682C11.4471 152.581 11.4471 157.434 13.6351 161.333L26.9123 185.003C28.2947 187.459 29.0406 190.254 29.0704 193.068L29.4086 220.209C29.4683 224.684 31.885 228.881 35.7339 231.169L59.0759 245.032C61.5026 246.474 63.5414 248.513 64.9736 250.93L78.8376 274.272C81.125 278.12 85.322 280.537 89.7975 280.597L116.939 280.935C119.753 280.965 122.538 281.721 125.004 283.093L148.675 296.37C152.573 298.558 157.427 298.558 161.325 296.37L184.996 283.093C187.452 281.711 190.247 280.965 193.061 280.935L220.202 280.597C224.678 280.537 228.875 278.12 231.162 274.272L245.026 250.93C246.469 248.503 248.507 246.464 250.924 245.032L274.266 231.169C278.115 228.881 280.532 224.684 280.591 220.209L280.93 193.068C280.969 190.254 281.715 187.459 283.088 185.003L296.365 161.333C298.553 157.434 298.553 152.581 296.365 148.682L283.088 125.012C281.705 122.556 280.959 119.771 280.93 116.947L280.591 89.8061C280.532 85.3307 278.115 81.1338 274.266 78.8463L250.924 64.9826C248.497 63.5405 246.459 61.5017 245.026 59.085L231.162 35.7434C228.875 31.8946 224.678 29.4779 220.202 29.4182L193.061 29.0801C190.247 29.0403 187.462 28.2944 184.996 26.9219L161.325 13.645C159.376 12.551 157.188 12.004 155 12.004Z" fill="white" style="fill:white;fill-opacity:1;"/>
<path d="M177.276 99.6776L191.134 96.5392H191.144C194.638 95.7497 197.776 98.6512 196.829 101.8L192.21 117.146C191.588 119.209 189.762 120.808 187.423 121.064C175.5 122.357 164.179 118.834 155 112.014C145.821 118.834 134.5 122.357 122.577 121.064C120.238 120.808 118.412 119.199 117.79 117.146L113.171 101.8C112.224 98.6512 115.362 95.7497 118.856 96.5392L132.714 99.6776C134.855 100.161 137.116 99.5888 138.675 98.1775L151.664 86.4034C153.51 84.7355 156.49 84.7355 158.326 86.4034L171.315 98.1775C172.874 99.5987 175.135 100.161 177.276 99.6776Z" fill="white" style="fill:white;fill-opacity:1;"/>
<path d="M156.441 124.39C161.426 127.144 170.644 131.536 183.82 131.2C186.051 131.141 187.828 133.016 187.245 134.96L182.064 150.959C180.929 154.739 176.378 156.367 172.815 154.146L157.655 144.702C156.056 143.705 153.934 143.705 152.325 144.702L137.55 154.146C133.987 156.367 129.072 154.739 127.937 150.959L122.745 134.96C122.163 133.016 123.939 131.141 126.17 131.2C139.346 131.536 148.555 127.144 153.549 124.39C154.487 123.867 155.523 123.877 156.441 124.39Z" fill="white" style="fill:white;fill-opacity:1;"/>
<path d="M148.91 59.5801L146.42 59.76L146.02 54.2301L138.9 43.52L141.67 43.3201L147.07 51.3501L151.23 42.63L154.09 42.42L148.51 54.01L148.92 59.5901L148.91 59.5801Z" fill="white" style="fill:white;fill-opacity:1;"/>
<path d="M133.22 61.6001L135.55 60.9401L135.56 60.9301L130.98 44.8201L128.89 45.41L126.21 59.3501L116.62 48.9L114.51 49.5001L119.09 65.6101L121.42 64.9501L118.39 54.3L126.76 63.4401L127.9 63.1101L130.19 50.9501L133.22 61.6001Z" fill="white" style="fill:white;fill-opacity:1;"/>
<path d="M104.12 72.98L94.5503 70.66L93.8198 71.12L97.5601 77.09L95.4502 78.42L86.5601 64.23L88.6699 62.9L92.52 69.04L93.0898 68.6801L95.0303 58.91L97.6602 57.26L95.5103 68.53L106.99 71.1801L104.13 72.98H104.12Z" fill="white" style="fill:white;fill-opacity:1;"/>
<path d="M88.8799 83.53L90.4497 82.1101L79.1997 69.7001L77.3296 71.3901L85.5396 80.4501L70.3496 77.7201L68.7798 79.1401L80.0298 91.55L81.8799 89.8701L73.8096 80.9601L88.8799 83.53Z" fill="white" style="fill:white;fill-opacity:1;"/>
<path fill-rule="evenodd" clip-rule="evenodd" d="M75.2202 96.9601L71.2002 95.77L66.52 101.76L68.6499 105.37L66.9902 107.5L58.02 91.77L59.4502 89.9301L76.8799 94.8201L75.2202 96.9501V96.9601ZM61.3198 92.88L65.2002 99.49L68.6699 95.04L61.3198 92.88Z" fill="white" style="fill:white;fill-opacity:1;"/>
<path fill-rule="evenodd" clip-rule="evenodd" d="M63.6499 113.11L55.1201 114.78L54.0298 116.76L59.8799 119.97L58.6802 122.16L44 114.09L47.54 107.65C49.0898 104.83 51.8999 103.93 54.5498 105.38C57.0698 106.76 57.8398 109.42 56.5601 112.1L65.1499 110.38L63.6602 113.1L63.6499 113.11ZM54.2402 111.35C55.0698 109.84 54.7002 108.33 53.3398 107.58C51.96 106.82 50.4902 107.32 49.6602 108.83L47.3198 113.08L51.8999 115.6L54.2402 111.35Z" fill="white" style="fill:white;fill-opacity:1;"/>
<path fill-rule="evenodd" clip-rule="evenodd" d="M184.08 54.64C185.04 49.86 182.48 45.78 177.27 44.73V44.74L171.92 43.66L168.62 60.0801L173.97 61.15C179.18 62.2001 183.12 59.42 184.08 54.64ZM181.6 54.15C180.92 57.5601 178.17 59.53 174.44 58.78L174.43 58.77L171.53 58.1901L173.88 46.53L176.78 47.11C180.51 47.86 182.29 50.74 181.6 54.15Z" fill="white" style="fill:white;fill-opacity:1;"/>
<path d="M198.43 68.88L187.63 64.5701L193.84 49.01L204.62 53.3101L203.72 55.5601L195.25 52.1801L193.5 56.5701L201.32 59.6901L200.43 61.92L192.61 58.8L190.84 63.24L199.33 66.63L198.43 68.88Z" fill="white" style="fill:white;fill-opacity:1;"/>
<path d="M213.7 77.7301L215.5 78.8501L224.37 64.65L222.23 63.3201L215.75 73.6801L214.24 58.3201L212.44 57.2001L203.57 71.4L205.69 72.7201L212.06 62.53L213.7 77.7301Z" fill="white" style="fill:white;fill-opacity:1;"/>
<path d="M234.95 76.51L225.4 87.1899L223.52 85.51L233.07 74.83L228.99 71.1799L230.61 69.37L240.67 78.37L239.05 80.1799L234.95 76.51Z" fill="white" style="fill:white;fill-opacity:1;"/>
<path d="M245.45 83.64L232.91 94.74L234.56 96.61L247.1 85.51L245.45 83.64Z" fill="white" style="fill:white;fill-opacity:1;"/>
<path d="M255.47 103.84L253.59 102.11C254.88 100.86 255.03 99.03 253.96 97.5C252.9 95.99 251.33 95.61 250.12 96.46C249.16 97.13 249.01 98.01 249.54 99.29L250.84 102.5C251.73 104.73 251.54 106.9 249.39 108.41C246.81 110.22 243.82 109.38 241.76 106.44C239.86 103.73 239.7 100.48 242.13 98.3L244.15 100.13C242.6 101.67 242.64 103.55 243.84 105.27C245.04 106.99 246.6 107.35 247.85 106.47C248.89 105.74 249.03 104.88 248.42 103.4L247.08 100.18C246.36 98.3199 246.11 96.0499 248.55 94.34C250.97 92.65 253.9 93.36 255.89 96.2C257.71 98.7999 257.5 101.73 255.47 103.84Z" fill="white" style="fill:white;fill-opacity:1;"/>
<path d="M251.16 121.66L263.94 115.19L266.43 120.09L268.59 118.99L262.49 106.95L260.33 108.05L262.8 112.94L250.02 119.41L251.16 121.66Z" fill="white" style="fill:white;fill-opacity:1;"/>
<path d="M134.922 272.19V271.254C135.194 271.038 135.51 270.798 135.87 270.534C136.23 270.27 136.594 269.982 136.962 269.67C137.338 269.358 137.686 269.026 138.006 268.674C138.326 268.322 138.582 267.954 138.774 267.57C138.974 267.178 139.074 266.778 139.074 266.37C139.074 265.93 138.954 265.574 138.714 265.302C138.474 265.022 138.114 264.882 137.634 264.882C137.274 264.882 136.974 264.966 136.734 265.134C136.502 265.302 136.33 265.53 136.218 265.818C136.106 266.106 136.046 266.426 136.038 266.778L134.886 266.694C134.886 266.302 134.946 265.93 135.066 265.578C135.186 265.226 135.362 264.914 135.594 264.642C135.834 264.362 136.126 264.142 136.47 263.982C136.822 263.822 137.222 263.742 137.67 263.742C138.182 263.742 138.626 263.85 139.002 264.066C139.386 264.282 139.686 264.582 139.902 264.966C140.118 265.35 140.226 265.802 140.226 266.322C140.226 266.762 140.146 267.186 139.986 267.594C139.834 268.002 139.618 268.394 139.338 268.77C139.058 269.138 138.734 269.486 138.366 269.814C137.998 270.142 137.602 270.454 137.178 270.75C136.754 271.038 136.314 271.302 135.858 271.542L136.17 271.098H140.562V272.19H134.922Z" fill="white" style="fill:white;fill-opacity:1;"/>
<path d="M149.269 272.286C148.781 272.286 148.369 272.198 148.033 272.022C147.705 271.846 147.433 271.61 147.217 271.314C147.009 271.01 146.849 270.674 146.737 270.306C146.633 269.93 146.561 269.542 146.521 269.142C146.481 268.734 146.461 268.346 146.461 267.978C146.461 267.61 146.477 267.23 146.509 266.838C146.549 266.438 146.621 266.054 146.725 265.686C146.837 265.31 146.997 264.974 147.205 264.678C147.413 264.382 147.681 264.146 148.009 263.97C148.345 263.794 148.753 263.706 149.233 263.706C149.705 263.706 150.105 263.794 150.433 263.97C150.761 264.138 151.029 264.366 151.237 264.654C151.453 264.942 151.617 265.27 151.729 265.638C151.841 266.006 151.917 266.394 151.957 266.802C152.005 267.202 152.029 267.594 152.029 267.978C152.029 268.378 152.005 268.782 151.957 269.19C151.917 269.598 151.837 269.986 151.717 270.354C151.605 270.722 151.445 271.054 151.237 271.35C151.029 271.638 150.765 271.866 150.445 272.034C150.125 272.202 149.733 272.286 149.269 272.286ZM149.269 271.158C149.669 271.158 149.981 271.018 150.205 270.738C150.437 270.458 150.601 270.082 150.697 269.61C150.793 269.138 150.841 268.61 150.841 268.026C150.841 267.41 150.789 266.866 150.685 266.394C150.589 265.914 150.425 265.534 150.193 265.254C149.961 264.974 149.641 264.834 149.233 264.834C148.913 264.834 148.649 264.918 148.441 265.086C148.241 265.254 148.085 265.486 147.973 265.782C147.861 266.078 147.781 266.418 147.733 266.802C147.685 267.178 147.661 267.582 147.661 268.014C147.661 268.43 147.685 268.826 147.733 269.202C147.781 269.578 147.861 269.914 147.973 270.21C148.093 270.498 148.257 270.73 148.465 270.906C148.673 271.074 148.941 271.158 149.269 271.158Z" fill="white" style="fill:white;fill-opacity:1;"/>
<path d="M157.952 272.19V271.254C158.224 271.038 158.54 270.798 158.9 270.534C159.26 270.27 159.624 269.982 159.992 269.67C160.368 269.358 160.716 269.026 161.036 268.674C161.356 268.322 161.612 267.954 161.804 267.57C162.004 267.178 162.104 266.778 162.104 266.37C162.104 265.93 161.984 265.574 161.744 265.302C161.504 265.022 161.144 264.882 160.664 264.882C160.304 264.882 160.004 264.966 159.764 265.134C159.532 265.302 159.36 265.53 159.248 265.818C159.136 266.106 159.076 266.426 159.068 266.778L157.916 266.694C157.916 266.302 157.976 265.93 158.096 265.578C158.216 265.226 158.392 264.914 158.624 264.642C158.864 264.362 159.156 264.142 159.5 263.982C159.852 263.822 160.252 263.742 160.7 263.742C161.212 263.742 161.656 263.85 162.032 264.066C162.416 264.282 162.716 264.582 162.932 264.966C163.148 265.35 163.256 265.802 163.256 266.322C163.256 266.762 163.176 267.186 163.016 267.594C162.864 268.002 162.648 268.394 162.368 268.77C162.088 269.138 161.764 269.486 161.396 269.814C161.028 270.142 160.632 270.454 160.208 270.75C159.784 271.038 159.344 271.302 158.888 271.542L159.2 271.098H163.592V272.19H157.952Z" fill="white" style="fill:white;fill-opacity:1;"/>
<path d="M172.251 272.298C171.747 272.298 171.283 272.19 170.859 271.974C170.443 271.758 170.099 271.466 169.827 271.098C169.555 270.722 169.379 270.298 169.299 269.826L170.451 269.622C170.499 269.894 170.595 270.15 170.739 270.39C170.891 270.63 171.091 270.822 171.339 270.966C171.595 271.102 171.891 271.17 172.227 271.17C172.611 271.17 172.931 271.082 173.187 270.906C173.451 270.722 173.651 270.49 173.787 270.21C173.923 269.922 173.991 269.618 173.991 269.298C173.991 268.994 173.927 268.714 173.799 268.458C173.671 268.202 173.479 267.998 173.223 267.846C172.975 267.686 172.663 267.606 172.287 267.606C171.943 267.606 171.635 267.686 171.363 267.846C171.099 267.998 170.875 268.21 170.691 268.482L169.551 268.182L170.343 263.826H174.855V264.918H170.775L171.399 264.426L170.835 267.522L170.487 267.438C170.799 267.078 171.123 266.834 171.459 266.706C171.803 266.57 172.135 266.502 172.455 266.502C172.999 266.502 173.479 266.63 173.895 266.886C174.319 267.142 174.647 267.482 174.879 267.906C175.111 268.33 175.227 268.794 175.227 269.298C175.227 269.698 175.155 270.078 175.011 270.438C174.867 270.798 174.659 271.118 174.387 271.398C174.123 271.678 173.807 271.898 173.439 272.058C173.079 272.218 172.683 272.298 172.251 272.298Z" fill="white" style="fill:white;fill-opacity:1;"/>
<path d="M41 147.61L42.8887 152.721L48 154.61L42.8887 156.499L41 161.61L39.1113 156.499L34 154.61L39.1113 152.721L41 147.61Z" fill="white" style="fill:white;fill-opacity:1;"/>
<path d="M269 147.61L270.889 152.721L276 154.61L270.889 156.499L269 161.61L267.111 156.499L262 154.61L267.111 152.721L269 147.61Z" fill="white" style="fill:white;fill-opacity:1;"/>
<path fill-rule="evenodd" clip-rule="evenodd" d="M265 178H45V177H265V178Z" fill="white" style="fill:white;fill-opacity:1;"/>
<path d="M93.6414 215.35C92.0081 215.35 90.5748 214.975 89.3414 214.225C88.1081 213.475 87.1414 212.417 86.4414 211.05C85.7581 209.683 85.4164 208.1 85.4164 206.3C85.4164 204.483 85.7581 202.892 86.4414 201.525C87.1414 200.158 88.1081 199.1 89.3414 198.35C90.5748 197.6 92.0081 197.225 93.6414 197.225C95.3081 197.225 96.7581 197.6 97.9914 198.35C99.2414 199.1 100.208 200.158 100.891 201.525C101.591 202.875 101.941 204.467 101.941 206.3C101.941 208.117 101.591 209.708 100.891 211.075C100.191 212.425 99.2164 213.475 97.9664 214.225C96.7331 214.975 95.2914 215.35 93.6414 215.35ZM93.6414 212.6C94.7581 212.6 95.7164 212.342 96.5164 211.825C97.3164 211.308 97.9331 210.583 98.3664 209.65C98.8164 208.7 99.0414 207.583 99.0414 206.3C99.0414 205 98.8164 203.883 98.3664 202.95C97.9331 202 97.3164 201.267 96.5164 200.75C95.7164 200.233 94.7581 199.975 93.6414 199.975C92.5581 199.975 91.6164 200.233 90.8164 200.75C90.0164 201.25 89.3914 201.975 88.9414 202.925C88.5081 203.858 88.2914 204.983 88.2914 206.3C88.2914 207.6 88.5081 208.725 88.9414 209.675C89.3748 210.608 89.9914 211.333 90.7914 211.85C91.6081 212.35 92.5581 212.6 93.6414 212.6ZM104.418 215V202.675H107.218V206L106.693 206.075C106.776 205.358 107.018 204.733 107.418 204.2C107.818 203.65 108.301 203.225 108.868 202.925C109.451 202.608 110.026 202.45 110.593 202.45C110.993 202.45 111.376 202.5 111.743 202.6C112.109 202.7 112.493 202.867 112.893 203.1L111.543 205.6C111.359 205.483 111.118 205.392 110.818 205.325C110.534 205.242 110.259 205.2 109.993 205.2C109.643 205.2 109.293 205.267 108.943 205.4C108.609 205.533 108.309 205.742 108.043 206.025C107.776 206.292 107.576 206.642 107.443 207.075C107.359 207.308 107.293 207.617 107.243 208C107.209 208.367 107.193 208.883 107.193 209.55V215H104.418ZM122.347 215L122.147 212.925V207.225C122.147 206.425 121.905 205.825 121.422 205.425C120.939 205.008 120.264 204.8 119.397 204.8C118.73 204.8 118.072 204.933 117.422 205.2C116.789 205.45 116.205 205.842 115.672 206.375L114.122 204.55C114.922 203.8 115.772 203.267 116.672 202.95C117.572 202.617 118.555 202.45 119.622 202.45C121.289 202.45 122.58 202.875 123.497 203.725C124.43 204.558 124.897 205.725 124.897 207.225V215H122.347ZM118.522 215.225C117.605 215.225 116.789 215.058 116.072 214.725C115.372 214.392 114.822 213.925 114.422 213.325C114.039 212.725 113.847 212.025 113.847 211.225C113.847 210.542 113.989 209.95 114.272 209.45C114.572 208.95 114.955 208.558 115.422 208.275C115.822 208.025 116.289 207.85 116.822 207.75C117.355 207.633 117.914 207.575 118.497 207.575H122.372V209.65H118.897C118.597 209.65 118.297 209.683 117.997 209.75C117.697 209.8 117.43 209.9 117.197 210.05C117.03 210.183 116.889 210.35 116.772 210.55C116.672 210.75 116.622 210.983 116.622 211.25C116.622 211.783 116.822 212.208 117.222 212.525C117.639 212.825 118.189 212.975 118.872 212.975C119.472 212.975 120.014 212.842 120.497 212.575C120.997 212.308 121.397 211.942 121.697 211.475C121.997 211.008 122.147 210.483 122.147 209.9L122.997 211.275C122.797 212.142 122.48 212.875 122.047 213.475C121.614 214.058 121.097 214.5 120.497 214.8C119.897 215.083 119.239 215.225 118.522 215.225ZM130.471 215.225C129.671 215.225 129.004 214.983 128.471 214.5C127.937 214 127.671 213.208 127.671 212.125V197.575H130.446V211.575C130.446 211.958 130.529 212.242 130.696 212.425C130.879 212.592 131.112 212.675 131.396 212.675C131.546 212.675 131.696 212.658 131.846 212.625C132.012 212.592 132.179 212.55 132.346 212.5V214.85C132.029 214.983 131.704 215.075 131.371 215.125C131.037 215.192 130.737 215.225 130.471 215.225ZM146.351 215.325C144.517 215.325 143.017 214.85 141.851 213.9C140.701 212.95 139.992 211.683 139.726 210.1L142.551 209.4C142.734 210.5 143.167 211.333 143.851 211.9C144.551 212.467 145.409 212.75 146.426 212.75C146.992 212.75 147.501 212.65 147.951 212.45C148.401 212.233 148.751 211.933 149.001 211.55C149.267 211.167 149.401 210.733 149.401 210.25C149.401 209.733 149.259 209.308 148.976 208.975C148.692 208.625 148.284 208.317 147.751 208.05C147.217 207.767 146.567 207.475 145.801 207.175C144.751 206.775 143.859 206.342 143.126 205.875C142.392 205.408 141.834 204.858 141.451 204.225C141.067 203.575 140.876 202.808 140.876 201.925C140.876 201.008 141.101 200.2 141.551 199.5C142.001 198.783 142.634 198.225 143.451 197.825C144.267 197.425 145.209 197.225 146.276 197.225C147.426 197.225 148.442 197.483 149.326 198C150.209 198.517 150.917 199.3 151.451 200.35L149.151 201.75C148.801 201.117 148.376 200.633 147.876 200.3C147.376 199.95 146.809 199.775 146.176 199.775C145.726 199.775 145.317 199.867 144.951 200.05C144.584 200.217 144.292 200.458 144.076 200.775C143.876 201.092 143.776 201.458 143.776 201.875C143.776 202.308 143.901 202.692 144.151 203.025C144.401 203.342 144.784 203.633 145.301 203.9C145.834 204.167 146.509 204.458 147.326 204.775C148.376 205.175 149.267 205.608 150.001 206.075C150.734 206.542 151.292 207.1 151.676 207.75C152.076 208.383 152.276 209.158 152.276 210.075C152.276 211.092 152.026 211.992 151.526 212.775C151.026 213.558 150.326 214.183 149.426 214.65C148.542 215.1 147.517 215.325 146.351 215.325ZM158.907 215.225C157.941 215.225 157.124 215.033 156.457 214.65C155.807 214.267 155.316 213.717 154.982 213C154.649 212.283 154.482 211.417 154.482 210.4V202.675H157.257V209.65C157.257 210.3 157.332 210.867 157.482 211.35C157.649 211.817 157.907 212.175 158.257 212.425C158.624 212.675 159.116 212.8 159.732 212.8C160.449 212.8 161.007 212.617 161.407 212.25C161.824 211.867 162.116 211.317 162.282 210.6C162.466 209.867 162.557 208.992 162.557 207.975V202.675H165.332V215H162.557V212.35L163.032 212.525C162.649 213.458 162.091 214.142 161.357 214.575C160.641 215.008 159.824 215.225 158.907 215.225ZM168.347 215V202.675H171.147V206L170.622 206.075C170.706 205.358 170.947 204.733 171.347 204.2C171.747 203.65 172.231 203.225 172.797 202.925C173.381 202.608 173.956 202.45 174.522 202.45C174.922 202.45 175.306 202.5 175.672 202.6C176.039 202.7 176.422 202.867 176.822 203.1L175.472 205.6C175.289 205.483 175.047 205.392 174.747 205.325C174.464 205.242 174.189 205.2 173.922 205.2C173.572 205.2 173.222 205.267 172.872 205.4C172.539 205.533 172.239 205.742 171.972 206.025C171.706 206.292 171.506 206.642 171.372 207.075C171.289 207.308 171.222 207.617 171.172 208C171.139 208.367 171.122 208.883 171.122 209.55V215H168.347ZM183.159 220.35C181.342 220.35 179.909 220.017 178.859 219.35C177.809 218.7 177.284 217.808 177.284 216.675C177.284 216.575 177.284 216.458 177.284 216.325C177.3 216.192 177.325 216.058 177.359 215.925L180.709 213.75L181.459 214.475L179.834 216.5C179.817 216.55 179.809 216.592 179.809 216.625C179.809 216.675 179.809 216.725 179.809 216.775C179.809 217.292 180.117 217.683 180.734 217.95C181.367 218.233 182.175 218.375 183.159 218.375C183.992 218.375 184.659 218.258 185.159 218.025C185.659 217.808 185.909 217.475 185.909 217.025C185.909 216.775 185.834 216.567 185.684 216.4C185.534 216.25 185.309 216.125 185.009 216.025C184.709 215.925 184.334 215.833 183.884 215.75C183.45 215.683 182.934 215.617 182.334 215.55C181.584 215.433 180.842 215.267 180.109 215.05C179.392 214.833 178.792 214.508 178.309 214.075C177.842 213.642 177.609 213.067 177.609 212.35C177.609 211.717 177.825 211.142 178.259 210.625C178.692 210.092 179.267 209.658 179.984 209.325L181.409 210.425C180.942 210.525 180.592 210.7 180.359 210.95C180.125 211.183 180.009 211.467 180.009 211.8C180.009 212.083 180.117 212.317 180.334 212.5C180.55 212.667 180.859 212.8 181.259 212.9C181.675 212.983 182.167 213.067 182.734 213.15C183.584 213.25 184.367 213.367 185.084 213.5C185.8 213.633 186.425 213.825 186.959 214.075C187.492 214.308 187.9 214.633 188.184 215.05C188.484 215.467 188.634 216.008 188.634 216.675C188.634 217.858 188.15 218.767 187.184 219.4C186.234 220.033 184.892 220.35 183.159 220.35ZM182.884 211.425C181.884 211.425 181 211.233 180.234 210.85C179.467 210.467 178.867 209.942 178.434 209.275C178.017 208.592 177.809 207.825 177.809 206.975C177.809 206.058 178.034 205.267 178.484 204.6C178.934 203.917 179.534 203.392 180.284 203.025C181.05 202.642 181.884 202.45 182.784 202.45C183.684 202.45 184.509 202.642 185.259 203.025C186.009 203.392 186.609 203.925 187.059 204.625C187.525 205.308 187.759 206.125 187.759 207.075C187.759 207.942 187.55 208.708 187.134 209.375C186.734 210.025 186.167 210.533 185.434 210.9C184.7 211.25 183.85 211.425 182.884 211.425ZM182.834 209.2C183.55 209.2 184.092 208.983 184.459 208.55C184.825 208.1 185.009 207.567 185.009 206.95C185.009 206.283 184.809 205.75 184.409 205.35C184.009 204.933 183.484 204.725 182.834 204.725C182.15 204.725 181.6 204.933 181.184 205.35C180.784 205.75 180.584 206.275 180.584 206.925C180.584 207.558 180.775 208.1 181.159 208.55C181.542 208.983 182.1 209.2 182.834 209.2ZM186.959 205.175L184.934 203.875L187.709 201.625L189.134 203.35L186.959 205.175ZM195.904 215.225C194.87 215.225 193.97 215.058 193.204 214.725C192.454 214.392 191.837 213.925 191.354 213.325C190.87 212.725 190.512 212.05 190.279 211.3C190.045 210.533 189.929 209.742 189.929 208.925C189.929 208.108 190.037 207.317 190.254 206.55C190.487 205.767 190.837 205.067 191.304 204.45C191.77 203.833 192.37 203.35 193.104 203C193.837 202.633 194.704 202.45 195.704 202.45C196.654 202.45 197.479 202.617 198.179 202.95C198.895 203.267 199.487 203.717 199.954 204.3C200.42 204.867 200.762 205.517 200.979 206.25C201.212 206.983 201.329 207.767 201.329 208.6C201.329 208.717 201.32 208.883 201.304 209.1C201.304 209.317 201.287 209.533 201.254 209.75H192.704C192.77 210.733 193.104 211.483 193.704 212C194.304 212.517 195.07 212.775 196.004 212.775C196.687 212.775 197.312 212.667 197.879 212.45C198.445 212.233 198.962 211.892 199.429 211.425L200.954 213.275C200.437 213.742 199.92 214.117 199.404 214.4C198.887 214.683 198.345 214.892 197.779 215.025C197.229 215.158 196.604 215.225 195.904 215.225ZM198.604 208.35C198.637 208.217 198.654 208.083 198.654 207.95C198.67 207.817 198.679 207.683 198.679 207.55C198.679 207.183 198.612 206.833 198.479 206.5C198.362 206.167 198.179 205.875 197.929 205.625C197.679 205.358 197.37 205.15 197.004 205C196.637 204.833 196.22 204.75 195.754 204.75C195.104 204.75 194.554 204.892 194.104 205.175C193.67 205.458 193.329 205.825 193.079 206.275C192.845 206.708 192.704 207.183 192.654 207.7H199.504L198.604 208.35ZM203.779 215V202.675H206.579V206L206.054 206.075C206.137 205.358 206.379 204.733 206.779 204.2C207.179 203.65 207.662 203.225 208.229 202.925C208.812 202.608 209.387 202.45 209.954 202.45C210.354 202.45 210.737 202.5 211.104 202.6C211.471 202.7 211.854 202.867 212.254 203.1L210.904 205.6C210.721 205.483 210.479 205.392 210.179 205.325C209.896 205.242 209.621 205.2 209.354 205.2C209.004 205.2 208.654 205.267 208.304 205.4C207.971 205.533 207.671 205.742 207.404 206.025C207.137 206.292 206.937 206.642 206.804 207.075C206.721 207.308 206.654 207.617 206.604 208C206.571 208.367 206.554 208.883 206.554 209.55V215H203.779ZM215.102 220.075L217.552 214.175L212.852 202.675H215.902L219.027 211.4L222.202 202.675H225.202L218.102 220.075H215.102ZM119.777 245L126.677 227.575H128.877L135.752 245H132.602L127.777 231.8L122.952 245H119.777ZM124.077 241.35L124.977 238.775H130.552L131.502 241.35H124.077ZM138.859 245L135.109 232.675H138.059L140.259 240.75L142.759 232.675H145.134L147.634 240.7L149.859 232.675H152.809L149.034 245H146.534L143.959 236.6L141.384 245H138.859ZM162.683 245L162.483 242.925V237.225C162.483 236.425 162.241 235.825 161.758 235.425C161.275 235.008 160.6 234.8 159.733 234.8C159.066 234.8 158.408 234.933 157.758 235.2C157.125 235.45 156.541 235.842 156.008 236.375L154.458 234.55C155.258 233.8 156.108 233.267 157.008 232.95C157.908 232.617 158.891 232.45 159.958 232.45C161.625 232.45 162.916 232.875 163.833 233.725C164.766 234.558 165.233 235.725 165.233 237.225V245H162.683ZM158.858 245.225C157.941 245.225 157.125 245.058 156.408 244.725C155.708 244.392 155.158 243.925 154.758 243.325C154.375 242.725 154.183 242.025 154.183 241.225C154.183 240.542 154.325 239.95 154.608 239.45C154.908 238.95 155.291 238.558 155.758 238.275C156.158 238.025 156.625 237.85 157.158 237.75C157.691 237.633 158.25 237.575 158.833 237.575H162.708V239.65H159.233C158.933 239.65 158.633 239.683 158.333 239.75C158.033 239.8 157.766 239.9 157.533 240.05C157.366 240.183 157.225 240.35 157.108 240.55C157.008 240.75 156.958 240.983 156.958 241.25C156.958 241.783 157.158 242.208 157.558 242.525C157.975 242.825 158.525 242.975 159.208 242.975C159.808 242.975 160.35 242.842 160.833 242.575C161.333 242.308 161.733 241.942 162.033 241.475C162.333 241.008 162.483 240.483 162.483 239.9L163.333 241.275C163.133 242.142 162.816 242.875 162.383 243.475C161.95 244.058 161.433 244.5 160.833 244.8C160.233 245.083 159.575 245.225 158.858 245.225ZM168.082 245V232.675H170.882V236L170.357 236.075C170.44 235.358 170.682 234.733 171.082 234.2C171.482 233.65 171.965 233.225 172.532 232.925C173.115 232.608 173.69 232.45 174.257 232.45C174.657 232.45 175.04 232.5 175.407 232.6C175.773 232.7 176.157 232.867 176.557 233.1L175.207 235.6C175.023 235.483 174.782 235.392 174.482 235.325C174.198 235.242 173.923 235.2 173.657 235.2C173.307 235.2 172.957 235.267 172.607 235.4C172.273 235.533 171.973 235.742 171.707 236.025C171.44 236.292 171.24 236.642 171.107 237.075C171.023 237.308 170.957 237.617 170.907 238C170.873 238.367 170.857 238.883 170.857 239.55V245H168.082ZM182.446 245.225C181.346 245.225 180.388 244.95 179.571 244.4C178.771 243.833 178.154 243.067 177.721 242.1C177.288 241.133 177.071 240.042 177.071 238.825C177.071 237.492 177.304 236.35 177.771 235.4C178.254 234.45 178.904 233.725 179.721 233.225C180.538 232.708 181.446 232.45 182.446 232.45C183.146 232.45 183.788 232.592 184.371 232.875C184.971 233.158 185.471 233.575 185.871 234.125C186.288 234.658 186.579 235.317 186.746 236.1L186.096 236.125V227.575H188.871V245H186.096V241.575L186.846 241.4C186.629 242.3 186.296 243.033 185.846 243.6C185.413 244.15 184.904 244.558 184.321 244.825C183.738 245.092 183.113 245.225 182.446 245.225ZM183.121 242.675C183.771 242.675 184.338 242.517 184.821 242.2C185.304 241.883 185.679 241.433 185.946 240.85C186.213 240.267 186.346 239.592 186.346 238.825C186.346 238.058 186.213 237.392 185.946 236.825C185.679 236.242 185.304 235.792 184.821 235.475C184.338 235.142 183.771 234.975 183.121 234.975C182.471 234.975 181.896 235.133 181.396 235.45C180.913 235.767 180.529 236.217 180.246 236.8C179.979 237.383 179.846 238.058 179.846 238.825C179.846 239.592 179.979 240.267 180.246 240.85C180.529 241.433 180.913 241.883 181.396 242.2C181.896 242.517 182.471 242.675 183.121 242.675Z" fill="white" style="fill:white;fill-opacity:1;"/>
</svg>
