<svg width="310" height="310" viewBox="0 0 310 310" fill="none" xmlns="http://www.w3.org/2000/svg">
<path d="M147.651 1.92236C152.217 -0.640785 157.783 -0.640785 162.349 1.92236L188.281 16.4702C190.473 17.7017 192.937 18.3625 195.44 18.3925L225.166 18.763C230.402 18.8231 235.218 21.6065 237.892 26.112L253.08 51.6733C254.362 53.836 256.164 55.6382 258.327 56.9198L283.888 72.1084C288.384 74.7817 291.167 79.5976 291.237 84.834L291.607 114.56C291.638 117.074 292.298 119.537 293.53 121.719L308.078 147.651C310.641 152.217 310.641 157.783 308.078 162.349L293.53 188.281C292.298 190.473 291.638 192.936 291.607 195.44L291.237 225.166C291.167 230.402 288.384 235.218 283.888 237.892L258.327 253.08C256.174 254.362 254.362 256.164 253.08 258.327L237.892 283.888C235.218 288.383 230.392 291.167 225.166 291.237L195.44 291.607C192.927 291.637 190.463 292.298 188.281 293.53L162.349 308.078C157.783 310.641 152.217 310.641 147.651 308.078L121.719 293.53C119.527 292.298 117.064 291.637 114.56 291.607L84.834 291.237C79.5976 291.167 74.7817 288.383 72.1084 283.888L56.9198 258.327C55.6382 256.174 53.836 254.362 51.6733 253.08L26.112 237.892C21.6165 235.218 18.8331 230.392 18.763 225.166L18.3925 195.44C18.3625 192.926 17.7017 190.463 16.4702 188.281L1.92236 162.349C-0.640786 157.783 -0.640786 152.217 1.92236 147.651L16.4702 121.719C17.7017 119.527 18.3625 117.063 18.3925 114.56L18.763 84.834C18.8231 79.5976 21.6065 74.7817 26.112 72.1084L51.6733 56.9198C53.836 55.6382 55.6382 53.836 56.9198 51.6733L72.1084 26.112C74.7817 21.6165 79.5976 18.8331 84.834 18.763L114.56 18.3925C117.074 18.3625 119.537 17.7017 121.719 16.4702L147.651 1.92236Z" fill="#227DF5" style="fill:#227DF5;fill:color(display-p3 0.1333 0.4919 0.9608);fill-opacity:1;"/>
<path d="M155 300C152.474 300 149.958 299.373 147.7 298.1L124.03 284.823C121.862 283.61 119.405 282.944 116.919 282.914L89.7776 282.576C84.6159 282.516 79.7725 279.712 77.1369 275.276L63.2729 251.934C61.9999 249.796 60.1998 247.996 58.0615 246.723L34.7195 232.859C30.2838 230.224 27.4891 225.38 27.4195 220.219L27.0813 193.078C27.0515 190.592 26.3951 188.135 25.1718 185.967L11.8946 162.297C9.36846 157.792 9.36846 152.203 11.8946 147.698L25.1718 124.028C26.3852 121.86 27.0515 119.403 27.0813 116.917L27.4195 89.7762C27.4792 84.6146 30.2838 79.7713 34.7195 77.1357L58.0615 63.272C60.1998 61.999 61.9999 60.1989 63.2729 58.0607L77.1369 34.719C79.7725 30.2834 84.6159 27.4888 89.7776 27.4192L116.919 27.0811C119.405 27.0512 121.862 26.3948 124.03 25.1716L147.7 11.8946C152.205 9.36847 157.795 9.36847 162.3 11.8946L185.97 25.1716C188.138 26.3849 190.595 27.0512 193.081 27.0811L220.222 27.4192C225.384 27.4789 230.228 30.2834 232.863 34.719L246.727 58.0607C248 60.1989 249.8 61.999 251.939 63.272L275.281 77.1357C279.716 79.7713 282.511 84.6146 282.58 89.7762L282.919 116.917C282.949 119.403 283.605 121.86 284.828 124.028L298.105 147.698C300.632 152.203 300.632 157.792 298.105 162.297L284.828 185.967C283.615 188.135 282.958 190.592 282.919 193.078L282.58 220.219C282.521 225.38 279.716 230.224 275.281 232.859L251.939 246.723C249.8 247.996 248 249.796 246.727 251.934L232.863 275.276C230.228 279.712 225.384 282.506 220.222 282.576L193.081 282.914C190.595 282.944 188.138 283.6 185.97 284.823L162.3 298.1C160.052 299.363 157.526 300 155 300ZM155 12.004C152.812 12.004 150.624 12.551 148.675 13.645L125.004 26.9219C122.548 28.3043 119.763 29.0502 116.939 29.0801L89.7975 29.4182C85.322 29.4779 81.125 31.8946 78.8376 35.7434L64.9736 59.085C63.5315 61.5117 61.4927 63.5505 59.0759 64.9826L35.7339 78.8463C31.885 81.1338 29.4683 85.3307 29.4086 89.8061L29.0704 116.947C29.0406 119.761 28.2848 122.556 26.9123 125.012L13.6351 148.682C11.4471 152.581 11.4471 157.434 13.6351 161.333L26.9123 185.003C28.2947 187.459 29.0406 190.254 29.0704 193.068L29.4086 220.209C29.4683 224.684 31.885 228.881 35.7339 231.169L59.0759 245.032C61.5026 246.474 63.5414 248.513 64.9736 250.93L78.8376 274.272C81.125 278.12 85.322 280.537 89.7975 280.597L116.939 280.935C119.753 280.965 122.538 281.721 125.004 283.093L148.675 296.37C152.573 298.558 157.427 298.558 161.325 296.37L184.996 283.093C187.452 281.711 190.247 280.965 193.061 280.935L220.202 280.597C224.678 280.537 228.875 278.12 231.162 274.272L245.026 250.93C246.469 248.503 248.507 246.464 250.924 245.032L274.266 231.169C278.115 228.881 280.532 224.684 280.591 220.209L280.93 193.068C280.969 190.254 281.715 187.459 283.088 185.003L296.365 161.333C298.553 157.434 298.553 152.581 296.365 148.682L283.088 125.012C281.705 122.556 280.959 119.771 280.93 116.947L280.591 89.8061C280.532 85.3307 278.115 81.1338 274.266 78.8463L250.924 64.9826C248.497 63.5405 246.459 61.5017 245.026 59.085L231.162 35.7434C228.875 31.8946 224.678 29.4779 220.202 29.4182L193.061 29.0801C190.247 29.0403 187.462 28.2944 184.996 26.9219L161.325 13.645C159.376 12.551 157.188 12.004 155 12.004Z" fill="white" style="fill:white;fill-opacity:1;"/>
<path d="M177.276 99.6776L191.134 96.5392H191.144C194.638 95.7497 197.776 98.6512 196.829 101.8L192.21 117.146C191.588 119.209 189.762 120.808 187.423 121.064C175.5 122.357 164.179 118.834 155 112.014C145.821 118.834 134.5 122.357 122.577 121.064C120.238 120.808 118.412 119.199 117.79 117.146L113.171 101.8C112.224 98.6512 115.362 95.7497 118.856 96.5392L132.714 99.6776C134.855 100.161 137.116 99.5888 138.675 98.1775L151.664 86.4034C153.51 84.7355 156.49 84.7355 158.326 86.4034L171.315 98.1775C172.874 99.5987 175.135 100.161 177.276 99.6776Z" fill="white" style="fill:white;fill-opacity:1;"/>
<path d="M156.441 124.39C161.426 127.144 170.644 131.536 183.82 131.2C186.051 131.141 187.828 133.016 187.245 134.96L182.064 150.959C180.929 154.739 176.378 156.367 172.815 154.146L157.655 144.702C156.056 143.705 153.934 143.705 152.325 144.702L137.55 154.146C133.987 156.367 129.072 154.739 127.937 150.959L122.745 134.96C122.163 133.016 123.939 131.141 126.17 131.2C139.346 131.536 148.555 127.144 153.549 124.39C154.487 123.867 155.523 123.877 156.441 124.39Z" fill="white" style="fill:white;fill-opacity:1;"/>
<path d="M148.91 59.5801L146.42 59.76L146.02 54.2301L138.9 43.52L141.67 43.3201L147.07 51.3501L151.23 42.63L154.09 42.42L148.51 54.01L148.92 59.5901L148.91 59.5801Z" fill="white" style="fill:white;fill-opacity:1;"/>
<path d="M133.22 61.6001L135.55 60.9401L135.56 60.9301L130.98 44.8201L128.89 45.41L126.21 59.3501L116.62 48.9L114.51 49.5001L119.09 65.6101L121.42 64.9501L118.39 54.3L126.76 63.4401L127.9 63.1101L130.19 50.9501L133.22 61.6001Z" fill="white" style="fill:white;fill-opacity:1;"/>
<path d="M104.12 72.98L94.5503 70.66L93.8198 71.12L97.5601 77.09L95.4502 78.42L86.5601 64.23L88.6699 62.9L92.52 69.04L93.0898 68.6801L95.0303 58.91L97.6602 57.26L95.5103 68.53L106.99 71.1801L104.13 72.98H104.12Z" fill="white" style="fill:white;fill-opacity:1;"/>
<path d="M88.8799 83.53L90.4497 82.1101L79.1997 69.7001L77.3296 71.3901L85.5396 80.4501L70.3496 77.7201L68.7798 79.1401L80.0298 91.55L81.8799 89.8701L73.8096 80.9601L88.8799 83.53Z" fill="white" style="fill:white;fill-opacity:1;"/>
<path fill-rule="evenodd" clip-rule="evenodd" d="M75.2202 96.9601L71.2002 95.77L66.52 101.76L68.6499 105.37L66.9902 107.5L58.02 91.77L59.4502 89.9301L76.8799 94.8201L75.2202 96.9501V96.9601ZM61.3198 92.88L65.2002 99.49L68.6699 95.04L61.3198 92.88Z" fill="white" style="fill:white;fill-opacity:1;"/>
<path fill-rule="evenodd" clip-rule="evenodd" d="M63.6499 113.11L55.1201 114.78L54.0298 116.76L59.8799 119.97L58.6802 122.16L44 114.09L47.54 107.65C49.0898 104.83 51.8999 103.93 54.5498 105.38C57.0698 106.76 57.8398 109.42 56.5601 112.1L65.1499 110.38L63.6602 113.1L63.6499 113.11ZM54.2402 111.35C55.0698 109.84 54.7002 108.33 53.3398 107.58C51.96 106.82 50.4902 107.32 49.6602 108.83L47.3198 113.08L51.8999 115.6L54.2402 111.35Z" fill="white" style="fill:white;fill-opacity:1;"/>
<path fill-rule="evenodd" clip-rule="evenodd" d="M184.08 54.64C185.04 49.86 182.48 45.78 177.27 44.73V44.74L171.92 43.66L168.62 60.0801L173.97 61.15C179.18 62.2001 183.12 59.42 184.08 54.64ZM181.6 54.15C180.92 57.5601 178.17 59.53 174.44 58.78L174.43 58.77L171.53 58.1901L173.88 46.53L176.78 47.11C180.51 47.86 182.29 50.74 181.6 54.15Z" fill="white" style="fill:white;fill-opacity:1;"/>
<path d="M198.43 68.88L187.63 64.5701L193.84 49.01L204.62 53.3101L203.72 55.5601L195.25 52.1801L193.5 56.5701L201.32 59.6901L200.43 61.92L192.61 58.8L190.84 63.24L199.33 66.63L198.43 68.88Z" fill="white" style="fill:white;fill-opacity:1;"/>
<path d="M213.7 77.7301L215.5 78.8501L224.37 64.65L222.23 63.3201L215.75 73.6801L214.24 58.3201L212.44 57.2001L203.57 71.4L205.69 72.7201L212.06 62.53L213.7 77.7301Z" fill="white" style="fill:white;fill-opacity:1;"/>
<path d="M234.95 76.51L225.4 87.1899L223.52 85.51L233.07 74.83L228.99 71.1799L230.61 69.37L240.67 78.37L239.05 80.1799L234.95 76.51Z" fill="white" style="fill:white;fill-opacity:1;"/>
<path d="M245.45 83.64L232.91 94.74L234.56 96.61L247.1 85.51L245.45 83.64Z" fill="white" style="fill:white;fill-opacity:1;"/>
<path d="M255.47 103.84L253.59 102.11C254.88 100.86 255.03 99.03 253.96 97.5C252.9 95.99 251.33 95.61 250.12 96.46C249.16 97.13 249.01 98.01 249.54 99.29L250.84 102.5C251.73 104.73 251.54 106.9 249.39 108.41C246.81 110.22 243.82 109.38 241.76 106.44C239.86 103.73 239.7 100.48 242.13 98.3L244.15 100.13C242.6 101.67 242.64 103.55 243.84 105.27C245.04 106.99 246.6 107.35 247.85 106.47C248.89 105.74 249.03 104.88 248.42 103.4L247.08 100.18C246.36 98.3199 246.11 96.0499 248.55 94.34C250.97 92.65 253.9 93.36 255.89 96.2C257.71 98.7999 257.5 101.73 255.47 103.84Z" fill="white" style="fill:white;fill-opacity:1;"/>
<path d="M251.16 121.66L263.94 115.19L266.43 120.09L268.59 118.99L262.49 106.95L260.33 108.05L262.8 112.94L250.02 119.41L251.16 121.66Z" fill="white" style="fill:white;fill-opacity:1;"/>
<path d="M134.922 272.19V271.254C135.194 271.038 135.51 270.798 135.87 270.534C136.23 270.27 136.594 269.982 136.962 269.67C137.338 269.358 137.686 269.026 138.006 268.674C138.326 268.322 138.582 267.954 138.774 267.57C138.974 267.178 139.074 266.778 139.074 266.37C139.074 265.93 138.954 265.574 138.714 265.302C138.474 265.022 138.114 264.882 137.634 264.882C137.274 264.882 136.974 264.966 136.734 265.134C136.502 265.302 136.33 265.53 136.218 265.818C136.106 266.106 136.046 266.426 136.038 266.778L134.886 266.694C134.886 266.302 134.946 265.93 135.066 265.578C135.186 265.226 135.362 264.914 135.594 264.642C135.834 264.362 136.126 264.142 136.47 263.982C136.822 263.822 137.222 263.742 137.67 263.742C138.182 263.742 138.626 263.85 139.002 264.066C139.386 264.282 139.686 264.582 139.902 264.966C140.118 265.35 140.226 265.802 140.226 266.322C140.226 266.762 140.146 267.186 139.986 267.594C139.834 268.002 139.618 268.394 139.338 268.77C139.058 269.138 138.734 269.486 138.366 269.814C137.998 270.142 137.602 270.454 137.178 270.75C136.754 271.038 136.314 271.302 135.858 271.542L136.17 271.098H140.562V272.19H134.922Z" fill="white" style="fill:white;fill-opacity:1;"/>
<path d="M149.269 272.286C148.781 272.286 148.369 272.198 148.033 272.022C147.705 271.846 147.433 271.61 147.217 271.314C147.009 271.01 146.849 270.674 146.737 270.306C146.633 269.93 146.561 269.542 146.521 269.142C146.481 268.734 146.461 268.346 146.461 267.978C146.461 267.61 146.477 267.23 146.509 266.838C146.549 266.438 146.621 266.054 146.725 265.686C146.837 265.31 146.997 264.974 147.205 264.678C147.413 264.382 147.681 264.146 148.009 263.97C148.345 263.794 148.753 263.706 149.233 263.706C149.705 263.706 150.105 263.794 150.433 263.97C150.761 264.138 151.029 264.366 151.237 264.654C151.453 264.942 151.617 265.27 151.729 265.638C151.841 266.006 151.917 266.394 151.957 266.802C152.005 267.202 152.029 267.594 152.029 267.978C152.029 268.378 152.005 268.782 151.957 269.19C151.917 269.598 151.837 269.986 151.717 270.354C151.605 270.722 151.445 271.054 151.237 271.35C151.029 271.638 150.765 271.866 150.445 272.034C150.125 272.202 149.733 272.286 149.269 272.286ZM149.269 271.158C149.669 271.158 149.981 271.018 150.205 270.738C150.437 270.458 150.601 270.082 150.697 269.61C150.793 269.138 150.841 268.61 150.841 268.026C150.841 267.41 150.789 266.866 150.685 266.394C150.589 265.914 150.425 265.534 150.193 265.254C149.961 264.974 149.641 264.834 149.233 264.834C148.913 264.834 148.649 264.918 148.441 265.086C148.241 265.254 148.085 265.486 147.973 265.782C147.861 266.078 147.781 266.418 147.733 266.802C147.685 267.178 147.661 267.582 147.661 268.014C147.661 268.43 147.685 268.826 147.733 269.202C147.781 269.578 147.861 269.914 147.973 270.21C148.093 270.498 148.257 270.73 148.465 270.906C148.673 271.074 148.941 271.158 149.269 271.158Z" fill="white" style="fill:white;fill-opacity:1;"/>
<path d="M157.952 272.19V271.254C158.224 271.038 158.54 270.798 158.9 270.534C159.26 270.27 159.624 269.982 159.992 269.67C160.368 269.358 160.716 269.026 161.036 268.674C161.356 268.322 161.612 267.954 161.804 267.57C162.004 267.178 162.104 266.778 162.104 266.37C162.104 265.93 161.984 265.574 161.744 265.302C161.504 265.022 161.144 264.882 160.664 264.882C160.304 264.882 160.004 264.966 159.764 265.134C159.532 265.302 159.36 265.53 159.248 265.818C159.136 266.106 159.076 266.426 159.068 266.778L157.916 266.694C157.916 266.302 157.976 265.93 158.096 265.578C158.216 265.226 158.392 264.914 158.624 264.642C158.864 264.362 159.156 264.142 159.5 263.982C159.852 263.822 160.252 263.742 160.7 263.742C161.212 263.742 161.656 263.85 162.032 264.066C162.416 264.282 162.716 264.582 162.932 264.966C163.148 265.35 163.256 265.802 163.256 266.322C163.256 266.762 163.176 267.186 163.016 267.594C162.864 268.002 162.648 268.394 162.368 268.77C162.088 269.138 161.764 269.486 161.396 269.814C161.028 270.142 160.632 270.454 160.208 270.75C159.784 271.038 159.344 271.302 158.888 271.542L159.2 271.098H163.592V272.19H157.952Z" fill="white" style="fill:white;fill-opacity:1;"/>
<path d="M172.251 272.298C171.747 272.298 171.283 272.19 170.859 271.974C170.443 271.758 170.099 271.466 169.827 271.098C169.555 270.722 169.379 270.298 169.299 269.826L170.451 269.622C170.499 269.894 170.595 270.15 170.739 270.39C170.891 270.63 171.091 270.822 171.339 270.966C171.595 271.102 171.891 271.17 172.227 271.17C172.611 271.17 172.931 271.082 173.187 270.906C173.451 270.722 173.651 270.49 173.787 270.21C173.923 269.922 173.991 269.618 173.991 269.298C173.991 268.994 173.927 268.714 173.799 268.458C173.671 268.202 173.479 267.998 173.223 267.846C172.975 267.686 172.663 267.606 172.287 267.606C171.943 267.606 171.635 267.686 171.363 267.846C171.099 267.998 170.875 268.21 170.691 268.482L169.551 268.182L170.343 263.826H174.855V264.918H170.775L171.399 264.426L170.835 267.522L170.487 267.438C170.799 267.078 171.123 266.834 171.459 266.706C171.803 266.57 172.135 266.502 172.455 266.502C172.999 266.502 173.479 266.63 173.895 266.886C174.319 267.142 174.647 267.482 174.879 267.906C175.111 268.33 175.227 268.794 175.227 269.298C175.227 269.698 175.155 270.078 175.011 270.438C174.867 270.798 174.659 271.118 174.387 271.398C174.123 271.678 173.807 271.898 173.439 272.058C173.079 272.218 172.683 272.298 172.251 272.298Z" fill="white" style="fill:white;fill-opacity:1;"/>
<path d="M41 147.61L42.8887 152.721L48 154.61L42.8887 156.499L41 161.61L39.1113 156.499L34 154.61L39.1113 152.721L41 147.61Z" fill="white" style="fill:white;fill-opacity:1;"/>
<path d="M269 147.61L270.889 152.721L276 154.61L270.889 156.499L269 161.61L267.111 156.499L262 154.61L267.111 152.721L269 147.61Z" fill="white" style="fill:white;fill-opacity:1;"/>
<path fill-rule="evenodd" clip-rule="evenodd" d="M265 178H45V177H265V178Z" fill="white" style="fill:white;fill-opacity:1;"/>
<path d="M40.0764 215V197.575H45.6514C47.0347 197.575 48.1597 197.783 49.0264 198.2C49.8931 198.6 50.5264 199.175 50.9264 199.925C51.3431 200.675 51.5514 201.558 51.5514 202.575C51.5514 204.125 51.1014 205.333 50.2014 206.2C49.3181 207.05 48.0514 207.542 46.4014 207.675C46.0681 207.675 45.7097 207.675 45.3264 207.675C44.9431 207.675 44.6014 207.675 44.3014 207.675H42.9764V215H40.0764ZM49.6264 215L45.2014 207.35L48.1764 207L52.9764 215H49.6264ZM42.9764 205.125H45.3514C45.9847 205.125 46.5431 205.05 47.0264 204.9C47.5264 204.75 47.9181 204.492 48.2014 204.125C48.5014 203.758 48.6514 203.25 48.6514 202.6C48.6514 201.95 48.5014 201.45 48.2014 201.1C47.9181 200.75 47.5264 200.508 47.0264 200.375C46.5264 200.225 45.9681 200.15 45.3514 200.15H42.9764V205.125ZM59.7004 215.225C58.6671 215.225 57.7671 215.058 57.0004 214.725C56.2504 214.392 55.6338 213.925 55.1504 213.325C54.6671 212.725 54.3088 212.05 54.0754 211.3C53.8421 210.533 53.7254 209.742 53.7254 208.925C53.7254 208.108 53.8338 207.317 54.0504 206.55C54.2838 205.767 54.6338 205.067 55.1004 204.45C55.5671 203.833 56.1671 203.35 56.9004 203C57.6338 202.633 58.5004 202.45 59.5004 202.45C60.4504 202.45 61.2754 202.617 61.9754 202.95C62.6921 203.267 63.2838 203.717 63.7504 204.3C64.2171 204.867 64.5588 205.517 64.7754 206.25C65.0088 206.983 65.1254 207.767 65.1254 208.6C65.1254 208.717 65.1171 208.883 65.1004 209.1C65.1004 209.317 65.0838 209.533 65.0504 209.75H56.5004C56.5671 210.733 56.9004 211.483 57.5004 212C58.1004 212.517 58.8671 212.775 59.8004 212.775C60.4838 212.775 61.1088 212.667 61.6754 212.45C62.2421 212.233 62.7588 211.892 63.2254 211.425L64.7504 213.275C64.2338 213.742 63.7171 214.117 63.2004 214.4C62.6838 214.683 62.1421 214.892 61.5754 215.025C61.0254 215.158 60.4004 215.225 59.7004 215.225ZM62.4004 208.35C62.4338 208.217 62.4504 208.083 62.4504 207.95C62.4671 207.817 62.4754 207.683 62.4754 207.55C62.4754 207.183 62.4088 206.833 62.2754 206.5C62.1588 206.167 61.9754 205.875 61.7254 205.625C61.4754 205.358 61.1671 205.15 60.8004 205C60.4338 204.833 60.0171 204.75 59.5504 204.75C58.9004 204.75 58.3504 204.892 57.9004 205.175C57.4671 205.458 57.1254 205.825 56.8754 206.275C56.6421 206.708 56.5004 207.183 56.4504 207.7H63.3004L62.4004 208.35ZM71.7758 215.225C70.8925 215.225 70.1091 215.1 69.4258 214.85C68.7425 214.583 68.1675 214.25 67.7008 213.85C67.2341 213.45 66.8508 213.05 66.5508 212.65L68.4508 211C68.7675 211.517 69.2008 211.975 69.7508 212.375C70.3175 212.775 71.0008 212.975 71.8008 212.975C72.4675 212.975 72.9925 212.833 73.3758 212.55C73.7758 212.267 73.9758 211.917 73.9758 211.5C73.9758 211.133 73.8508 210.85 73.6008 210.65C73.3508 210.433 73.0258 210.25 72.6258 210.1C72.2258 209.95 71.7841 209.817 71.3008 209.7C70.8341 209.583 70.3591 209.442 69.8758 209.275C69.3925 209.092 68.9425 208.867 68.5258 208.6C68.1258 208.333 67.8008 207.992 67.5508 207.575C67.3008 207.158 67.1758 206.642 67.1758 206.025C67.1758 204.942 67.5925 204.075 68.4258 203.425C69.2591 202.775 70.3508 202.45 71.7008 202.45C72.6675 202.45 73.5508 202.642 74.3508 203.025C75.1508 203.408 75.7758 203.983 76.2258 204.75L74.5008 206.075C74.1675 205.575 73.7508 205.2 73.2508 204.95C72.7508 204.7 72.2091 204.575 71.6258 204.575C71.0925 204.575 70.6425 204.683 70.2758 204.9C69.9258 205.117 69.7508 205.4 69.7508 205.75C69.7508 206.017 69.8341 206.233 70.0008 206.4C70.1675 206.567 70.4258 206.717 70.7758 206.85C71.1258 206.983 71.5675 207.117 72.1008 207.25C72.6008 207.367 73.1175 207.508 73.6508 207.675C74.1841 207.842 74.6758 208.067 75.1258 208.35C75.5925 208.617 75.9675 208.983 76.2508 209.45C76.5508 209.9 76.7008 210.483 76.7008 211.2C76.7008 212 76.4925 212.708 76.0758 213.325C75.6758 213.925 75.1008 214.392 74.3508 214.725C73.6175 215.058 72.7591 215.225 71.7758 215.225ZM83.5684 215.225C82.9517 215.225 82.3684 215.108 81.8184 214.875C81.2851 214.625 80.8601 214.233 80.5434 213.7C80.2267 213.15 80.0684 212.433 80.0684 211.55V199.675L82.8684 198.125V210.775C82.8684 211.475 82.9684 212.017 83.1684 212.4C83.3851 212.767 83.7684 212.95 84.3184 212.95C84.4851 212.95 84.6767 212.933 84.8934 212.9C85.1267 212.85 85.3684 212.792 85.6184 212.725V214.875C85.2851 214.992 84.9434 215.075 84.5934 215.125C84.2601 215.192 83.9184 215.225 83.5684 215.225ZM77.7184 204.825V202.675H85.6184V204.825H77.7184ZM93.158 215.225C91.9914 215.225 90.9414 214.95 90.008 214.4C89.0747 213.85 88.3414 213.092 87.808 212.125C87.2914 211.158 87.033 210.058 87.033 208.825C87.033 207.592 87.2914 206.492 87.808 205.525C88.3414 204.558 89.0664 203.808 89.983 203.275C90.9164 202.725 91.9747 202.45 93.158 202.45C94.358 202.45 95.408 202.725 96.308 203.275C97.2247 203.808 97.9497 204.558 98.483 205.525C99.0164 206.492 99.283 207.592 99.283 208.825C99.283 210.058 99.0164 211.158 98.483 212.125C97.9664 213.092 97.2414 213.85 96.308 214.4C95.3914 214.95 94.3414 215.225 93.158 215.225ZM93.183 212.775C93.8664 212.775 94.458 212.617 94.958 212.3C95.458 211.983 95.8414 211.525 96.108 210.925C96.3747 210.325 96.508 209.625 96.508 208.825C96.508 208.008 96.3747 207.308 96.108 206.725C95.8414 206.125 95.458 205.667 94.958 205.35C94.458 205.033 93.8664 204.875 93.183 204.875C92.4664 204.875 91.858 205.042 91.358 205.375C90.858 205.692 90.4747 206.142 90.208 206.725C89.9414 207.308 89.808 208.008 89.808 208.825C89.808 209.625 89.9414 210.325 90.208 210.925C90.4747 211.525 90.858 211.983 91.358 212.3C91.858 212.617 92.4664 212.775 93.183 212.775ZM101.714 215V202.675H104.514V206L103.989 206.075C104.072 205.358 104.314 204.733 104.714 204.2C105.114 203.65 105.597 203.225 106.164 202.925C106.747 202.608 107.322 202.45 107.889 202.45C108.289 202.45 108.672 202.5 109.039 202.6C109.405 202.7 109.789 202.867 110.189 203.1L108.839 205.6C108.655 205.483 108.414 205.392 108.114 205.325C107.83 205.242 107.555 205.2 107.289 205.2C106.939 205.2 106.589 205.267 106.239 205.4C105.905 205.533 105.605 205.742 105.339 206.025C105.072 206.292 104.872 206.642 104.739 207.075C104.655 207.308 104.589 207.617 104.539 208C104.505 208.367 104.489 208.883 104.489 209.55V215H101.714ZM119.643 215L119.443 212.925V207.225C119.443 206.425 119.201 205.825 118.718 205.425C118.235 205.008 117.56 204.8 116.693 204.8C116.026 204.8 115.368 204.933 114.718 205.2C114.085 205.45 113.501 205.842 112.968 206.375L111.418 204.55C112.218 203.8 113.068 203.267 113.968 202.95C114.868 202.617 115.851 202.45 116.918 202.45C118.585 202.45 119.876 202.875 120.793 203.725C121.726 204.558 122.193 205.725 122.193 207.225V215H119.643ZM115.818 215.225C114.901 215.225 114.085 215.058 113.368 214.725C112.668 214.392 112.118 213.925 111.718 213.325C111.335 212.725 111.143 212.025 111.143 211.225C111.143 210.542 111.285 209.95 111.568 209.45C111.868 208.95 112.251 208.558 112.718 208.275C113.118 208.025 113.585 207.85 114.118 207.75C114.651 207.633 115.21 207.575 115.793 207.575H119.668V209.65H116.193C115.893 209.65 115.593 209.683 115.293 209.75C114.993 209.8 114.726 209.9 114.493 210.05C114.326 210.183 114.185 210.35 114.068 210.55C113.968 210.75 113.918 210.983 113.918 211.25C113.918 211.783 114.118 212.208 114.518 212.525C114.935 212.825 115.485 212.975 116.168 212.975C116.768 212.975 117.31 212.842 117.793 212.575C118.293 212.308 118.693 211.942 118.993 211.475C119.293 211.008 119.443 210.483 119.443 209.9L120.293 211.275C120.093 212.142 119.776 212.875 119.343 213.475C118.91 214.058 118.393 214.5 117.793 214.8C117.193 215.083 116.535 215.225 115.818 215.225ZM129.517 215.225C128.9 215.225 128.317 215.108 127.767 214.875C127.233 214.625 126.808 214.233 126.492 213.7C126.175 213.15 126.017 212.433 126.017 211.55V199.675L128.817 198.125V210.775C128.817 211.475 128.917 212.017 129.117 212.4C129.333 212.767 129.717 212.95 130.267 212.95C130.433 212.95 130.625 212.933 130.842 212.9C131.075 212.85 131.317 212.792 131.567 212.725V214.875C131.233 214.992 130.892 215.075 130.542 215.125C130.208 215.192 129.867 215.225 129.517 215.225ZM123.667 204.825V202.675H131.567V204.825H123.667ZM133.775 215V202.675H136.55V215H133.775ZM133.65 200.65V197.575H136.675V200.65H133.65ZM143.382 215L138.357 202.675H141.407L144.532 211.4L147.707 202.675H150.707L145.682 215H143.382ZM157.548 215.225C156.515 215.225 155.615 215.058 154.848 214.725C154.098 214.392 153.481 213.925 152.998 213.325C152.515 212.725 152.156 212.05 151.923 211.3C151.69 210.533 151.573 209.742 151.573 208.925C151.573 208.108 151.681 207.317 151.898 206.55C152.131 205.767 152.481 205.067 152.948 204.45C153.415 203.833 154.015 203.35 154.748 203C155.481 202.633 156.348 202.45 157.348 202.45C158.298 202.45 159.123 202.617 159.823 202.95C160.54 203.267 161.131 203.717 161.598 204.3C162.065 204.867 162.406 205.517 162.623 206.25C162.856 206.983 162.973 207.767 162.973 208.6C162.973 208.717 162.965 208.883 162.948 209.1C162.948 209.317 162.931 209.533 162.898 209.75H154.348C154.415 210.733 154.748 211.483 155.348 212C155.948 212.517 156.715 212.775 157.648 212.775C158.331 212.775 158.956 212.667 159.523 212.45C160.09 212.233 160.606 211.892 161.073 211.425L162.598 213.275C162.081 213.742 161.565 214.117 161.048 214.4C160.531 214.683 159.99 214.892 159.423 215.025C158.873 215.158 158.248 215.225 157.548 215.225ZM160.248 208.35C160.281 208.217 160.298 208.083 160.298 207.95C160.315 207.817 160.323 207.683 160.323 207.55C160.323 207.183 160.256 206.833 160.123 206.5C160.006 206.167 159.823 205.875 159.573 205.625C159.323 205.358 159.015 205.15 158.648 205C158.281 204.833 157.865 204.75 157.398 204.75C156.748 204.75 156.198 204.892 155.748 205.175C155.315 205.458 154.973 205.825 154.723 206.275C154.49 206.708 154.348 207.183 154.298 207.7H161.148L160.248 208.35ZM171.818 215V197.575H176.818C179.684 197.575 181.909 198.35 183.493 199.9C185.076 201.433 185.868 203.608 185.868 206.425C185.868 209.192 185.084 211.317 183.518 212.8C181.968 214.267 179.726 215 176.793 215H171.818ZM174.718 212.35H176.518C177.868 212.35 179.026 212.167 179.993 211.8C180.959 211.417 181.693 210.783 182.193 209.9C182.693 209.017 182.943 207.825 182.943 206.325C182.943 204.825 182.693 203.633 182.193 202.75C181.709 201.85 181.001 201.208 180.068 200.825C179.151 200.425 178.051 200.225 176.768 200.225H174.718V212.35ZM193.712 215.225C192.679 215.225 191.779 215.058 191.012 214.725C190.262 214.392 189.645 213.925 189.162 213.325C188.679 212.725 188.32 212.05 188.087 211.3C187.854 210.533 187.737 209.742 187.737 208.925C187.737 208.108 187.845 207.317 188.062 206.55C188.295 205.767 188.645 205.067 189.112 204.45C189.579 203.833 190.179 203.35 190.912 203C191.645 202.633 192.512 202.45 193.512 202.45C194.462 202.45 195.287 202.617 195.987 202.95C196.704 203.267 197.295 203.717 197.762 204.3C198.229 204.867 198.57 205.517 198.787 206.25C199.02 206.983 199.137 207.767 199.137 208.6C199.137 208.717 199.129 208.883 199.112 209.1C199.112 209.317 199.095 209.533 199.062 209.75H190.512C190.579 210.733 190.912 211.483 191.512 212C192.112 212.517 192.879 212.775 193.812 212.775C194.495 212.775 195.12 212.667 195.687 212.45C196.254 212.233 196.77 211.892 197.237 211.425L198.762 213.275C198.245 213.742 197.729 214.117 197.212 214.4C196.695 214.683 196.154 214.892 195.587 215.025C195.037 215.158 194.412 215.225 193.712 215.225ZM196.412 208.35C196.445 208.217 196.462 208.083 196.462 207.95C196.479 207.817 196.487 207.683 196.487 207.55C196.487 207.183 196.42 206.833 196.287 206.5C196.17 206.167 195.987 205.875 195.737 205.625C195.487 205.358 195.179 205.15 194.812 205C194.445 204.833 194.029 204.75 193.562 204.75C192.912 204.75 192.362 204.892 191.912 205.175C191.479 205.458 191.137 205.825 190.887 206.275C190.654 206.708 190.512 207.183 190.462 207.7H197.312L196.412 208.35ZM201.588 215V202.675H204.363V205.4L203.863 205.525C204.079 204.808 204.396 204.225 204.813 203.775C205.229 203.325 205.713 202.992 206.263 202.775C206.829 202.558 207.421 202.45 208.038 202.45C209.421 202.45 210.496 202.85 211.263 203.65C212.046 204.433 212.438 205.558 212.438 207.025V215H209.663V208.05C209.663 206.95 209.463 206.142 209.063 205.625C208.663 205.108 208.046 204.85 207.213 204.85C206.596 204.85 206.071 205 205.638 205.3C205.221 205.583 204.904 206.033 204.688 206.65C204.471 207.267 204.363 208.05 204.363 209V215H201.588ZM219.777 215.225C219.161 215.225 218.577 215.108 218.027 214.875C217.494 214.625 217.069 214.233 216.752 213.7C216.436 213.15 216.277 212.433 216.277 211.55V199.675L219.077 198.125V210.775C219.077 211.475 219.177 212.017 219.377 212.4C219.594 212.767 219.977 212.95 220.527 212.95C220.694 212.95 220.886 212.933 221.102 212.9C221.336 212.85 221.577 212.792 221.827 212.725V214.875C221.494 214.992 221.152 215.075 220.802 215.125C220.469 215.192 220.127 215.225 219.777 215.225ZM213.927 204.825V202.675H221.827V204.825H213.927ZM224.036 215V202.675H226.811V215H224.036ZM223.911 200.65V197.575H226.936V200.65H223.911ZM233.993 215.225C233.109 215.225 232.326 215.1 231.643 214.85C230.959 214.583 230.384 214.25 229.918 213.85C229.451 213.45 229.068 213.05 228.768 212.65L230.668 211C230.984 211.517 231.418 211.975 231.968 212.375C232.534 212.775 233.218 212.975 234.018 212.975C234.684 212.975 235.209 212.833 235.593 212.55C235.993 212.267 236.193 211.917 236.193 211.5C236.193 211.133 236.068 210.85 235.818 210.65C235.568 210.433 235.243 210.25 234.843 210.1C234.443 209.95 234.001 209.817 233.518 209.7C233.051 209.583 232.576 209.442 232.093 209.275C231.609 209.092 231.159 208.867 230.743 208.6C230.343 208.333 230.018 207.992 229.768 207.575C229.518 207.158 229.393 206.642 229.393 206.025C229.393 204.942 229.809 204.075 230.643 203.425C231.476 202.775 232.568 202.45 233.918 202.45C234.884 202.45 235.768 202.642 236.568 203.025C237.368 203.408 237.993 203.983 238.443 204.75L236.718 206.075C236.384 205.575 235.968 205.2 235.468 204.95C234.968 204.7 234.426 204.575 233.843 204.575C233.309 204.575 232.859 204.683 232.493 204.9C232.143 205.117 231.968 205.4 231.968 205.75C231.968 206.017 232.051 206.233 232.218 206.4C232.384 206.567 232.643 206.717 232.993 206.85C233.343 206.983 233.784 207.117 234.318 207.25C234.818 207.367 235.334 207.508 235.868 207.675C236.401 207.842 236.893 208.067 237.343 208.35C237.809 208.617 238.184 208.983 238.468 209.45C238.768 209.9 238.918 210.483 238.918 211.2C238.918 212 238.709 212.708 238.293 213.325C237.893 213.925 237.318 214.392 236.568 214.725C235.834 215.058 234.976 215.225 233.993 215.225ZM245.785 215.225C245.169 215.225 244.585 215.108 244.035 214.875C243.502 214.625 243.077 214.233 242.76 213.7C242.444 213.15 242.285 212.433 242.285 211.55V199.675L245.085 198.125V210.775C245.085 211.475 245.185 212.017 245.385 212.4C245.602 212.767 245.985 212.95 246.535 212.95C246.702 212.95 246.894 212.933 247.11 212.9C247.344 212.85 247.585 212.792 247.835 212.725V214.875C247.502 214.992 247.16 215.075 246.81 215.125C246.477 215.192 246.135 215.225 245.785 215.225ZM239.935 204.825V202.675H247.835V204.825H239.935ZM250.069 215V202.675H252.869V206L252.344 206.075C252.427 205.358 252.669 204.733 253.069 204.2C253.469 203.65 253.952 203.225 254.519 202.925C255.102 202.608 255.677 202.45 256.244 202.45C256.644 202.45 257.027 202.5 257.394 202.6C257.761 202.7 258.144 202.867 258.544 203.1L257.194 205.6C257.011 205.483 256.769 205.392 256.469 205.325C256.186 205.242 255.911 205.2 255.644 205.2C255.294 205.2 254.944 205.267 254.594 205.4C254.261 205.533 253.961 205.742 253.694 206.025C253.427 206.292 253.227 206.642 253.094 207.075C253.011 207.308 252.944 207.617 252.894 208C252.861 208.367 252.844 208.883 252.844 209.55V215H250.069ZM261.392 220.075L263.842 214.175L259.142 202.675H262.192L265.317 211.4L268.492 202.675H271.492L264.392 220.075H261.392ZM119.777 245L126.677 227.575H128.877L135.752 245H132.602L127.777 231.8L122.952 245H119.777ZM124.077 241.35L124.977 238.775H130.552L131.502 241.35H124.077ZM138.859 245L135.109 232.675H138.059L140.259 240.75L142.759 232.675H145.134L147.634 240.7L149.859 232.675H152.809L149.034 245H146.534L143.959 236.6L141.384 245H138.859ZM162.683 245L162.483 242.925V237.225C162.483 236.425 162.241 235.825 161.758 235.425C161.275 235.008 160.6 234.8 159.733 234.8C159.066 234.8 158.408 234.933 157.758 235.2C157.125 235.45 156.541 235.842 156.008 236.375L154.458 234.55C155.258 233.8 156.108 233.267 157.008 232.95C157.908 232.617 158.891 232.45 159.958 232.45C161.625 232.45 162.916 232.875 163.833 233.725C164.766 234.558 165.233 235.725 165.233 237.225V245H162.683ZM158.858 245.225C157.941 245.225 157.125 245.058 156.408 244.725C155.708 244.392 155.158 243.925 154.758 243.325C154.375 242.725 154.183 242.025 154.183 241.225C154.183 240.542 154.325 239.95 154.608 239.45C154.908 238.95 155.291 238.558 155.758 238.275C156.158 238.025 156.625 237.85 157.158 237.75C157.691 237.633 158.25 237.575 158.833 237.575H162.708V239.65H159.233C158.933 239.65 158.633 239.683 158.333 239.75C158.033 239.8 157.766 239.9 157.533 240.05C157.366 240.183 157.225 240.35 157.108 240.55C157.008 240.75 156.958 240.983 156.958 241.25C156.958 241.783 157.158 242.208 157.558 242.525C157.975 242.825 158.525 242.975 159.208 242.975C159.808 242.975 160.35 242.842 160.833 242.575C161.333 242.308 161.733 241.942 162.033 241.475C162.333 241.008 162.483 240.483 162.483 239.9L163.333 241.275C163.133 242.142 162.816 242.875 162.383 243.475C161.95 244.058 161.433 244.5 160.833 244.8C160.233 245.083 159.575 245.225 158.858 245.225ZM168.082 245V232.675H170.882V236L170.357 236.075C170.44 235.358 170.682 234.733 171.082 234.2C171.482 233.65 171.965 233.225 172.532 232.925C173.115 232.608 173.69 232.45 174.257 232.45C174.657 232.45 175.04 232.5 175.407 232.6C175.773 232.7 176.157 232.867 176.557 233.1L175.207 235.6C175.023 235.483 174.782 235.392 174.482 235.325C174.198 235.242 173.923 235.2 173.657 235.2C173.307 235.2 172.957 235.267 172.607 235.4C172.273 235.533 171.973 235.742 171.707 236.025C171.44 236.292 171.24 236.642 171.107 237.075C171.023 237.308 170.957 237.617 170.907 238C170.873 238.367 170.857 238.883 170.857 239.55V245H168.082ZM182.446 245.225C181.346 245.225 180.388 244.95 179.571 244.4C178.771 243.833 178.154 243.067 177.721 242.1C177.288 241.133 177.071 240.042 177.071 238.825C177.071 237.492 177.304 236.35 177.771 235.4C178.254 234.45 178.904 233.725 179.721 233.225C180.538 232.708 181.446 232.45 182.446 232.45C183.146 232.45 183.788 232.592 184.371 232.875C184.971 233.158 185.471 233.575 185.871 234.125C186.288 234.658 186.579 235.317 186.746 236.1L186.096 236.125V227.575H188.871V245H186.096V241.575L186.846 241.4C186.629 242.3 186.296 243.033 185.846 243.6C185.413 244.15 184.904 244.558 184.321 244.825C183.738 245.092 183.113 245.225 182.446 245.225ZM183.121 242.675C183.771 242.675 184.338 242.517 184.821 242.2C185.304 241.883 185.679 241.433 185.946 240.85C186.213 240.267 186.346 239.592 186.346 238.825C186.346 238.058 186.213 237.392 185.946 236.825C185.679 236.242 185.304 235.792 184.821 235.475C184.338 235.142 183.771 234.975 183.121 234.975C182.471 234.975 181.896 235.133 181.396 235.45C180.913 235.767 180.529 236.217 180.246 236.8C179.979 237.383 179.846 238.058 179.846 238.825C179.846 239.592 179.979 240.267 180.246 240.85C180.529 241.433 180.913 241.883 181.396 242.2C181.896 242.517 182.471 242.675 183.121 242.675Z" fill="white" style="fill:white;fill-opacity:1;"/>
</svg>
