<svg width="310" height="310" viewBox="0 0 310 310" fill="none" xmlns="http://www.w3.org/2000/svg">
<path d="M147.651 1.92236C152.217 -0.640785 157.783 -0.640785 162.349 1.92236L188.281 16.4702C190.473 17.7017 192.937 18.3625 195.44 18.3925L225.166 18.763C230.402 18.8231 235.218 21.6065 237.892 26.112L253.08 51.6733C254.362 53.836 256.164 55.6382 258.327 56.9198L283.888 72.1084C288.384 74.7817 291.167 79.5976 291.237 84.834L291.607 114.56C291.638 117.074 292.298 119.537 293.53 121.719L308.078 147.651C310.641 152.217 310.641 157.783 308.078 162.349L293.53 188.281C292.298 190.473 291.638 192.936 291.607 195.44L291.237 225.166C291.167 230.402 288.384 235.218 283.888 237.892L258.327 253.08C256.174 254.362 254.362 256.164 253.08 258.327L237.892 283.888C235.218 288.383 230.392 291.167 225.166 291.237L195.44 291.607C192.927 291.637 190.463 292.298 188.281 293.53L162.349 308.078C157.783 310.641 152.217 310.641 147.651 308.078L121.719 293.53C119.527 292.298 117.064 291.637 114.56 291.607L84.834 291.237C79.5976 291.167 74.7817 288.383 72.1084 283.888L56.9198 258.327C55.6382 256.174 53.836 254.362 51.6733 253.08L26.112 237.892C21.6165 235.218 18.8331 230.392 18.763 225.166L18.3925 195.44C18.3625 192.926 17.7017 190.463 16.4702 188.281L1.92236 162.349C-0.640786 157.783 -0.640786 152.217 1.92236 147.651L16.4702 121.719C17.7017 119.527 18.3625 117.063 18.3925 114.56L18.763 84.834C18.8231 79.5976 21.6065 74.7817 26.112 72.1084L51.6733 56.9198C53.836 55.6382 55.6382 53.836 56.9198 51.6733L72.1084 26.112C74.7817 21.6165 79.5976 18.8331 84.834 18.763L114.56 18.3925C117.074 18.3625 119.537 17.7017 121.719 16.4702L147.651 1.92236Z" fill="#227DF5" style="fill:#227DF5;fill:color(display-p3 0.1333 0.4919 0.9608);fill-opacity:1;"/>
<path d="M155 300C152.474 300 149.958 299.373 147.7 298.1L124.03 284.823C121.862 283.61 119.405 282.944 116.919 282.914L89.7776 282.576C84.6159 282.516 79.7725 279.712 77.1369 275.276L63.2729 251.934C61.9999 249.796 60.1998 247.996 58.0615 246.723L34.7195 232.859C30.2838 230.224 27.4891 225.38 27.4195 220.219L27.0813 193.078C27.0515 190.592 26.3951 188.135 25.1718 185.967L11.8946 162.297C9.36846 157.792 9.36846 152.203 11.8946 147.698L25.1718 124.028C26.3852 121.86 27.0515 119.403 27.0813 116.917L27.4195 89.7762C27.4792 84.6146 30.2838 79.7713 34.7195 77.1357L58.0615 63.272C60.1998 61.999 61.9999 60.1989 63.2729 58.0607L77.1369 34.719C79.7725 30.2834 84.6159 27.4888 89.7776 27.4192L116.919 27.0811C119.405 27.0512 121.862 26.3948 124.03 25.1716L147.7 11.8946C152.205 9.36847 157.795 9.36847 162.3 11.8946L185.97 25.1716C188.138 26.3849 190.595 27.0512 193.081 27.0811L220.222 27.4192C225.384 27.4789 230.228 30.2834 232.863 34.719L246.727 58.0607C248 60.1989 249.8 61.999 251.939 63.272L275.281 77.1357C279.716 79.7713 282.511 84.6146 282.58 89.7762L282.919 116.917C282.949 119.403 283.605 121.86 284.828 124.028L298.105 147.698C300.632 152.203 300.632 157.792 298.105 162.297L284.828 185.967C283.615 188.135 282.958 190.592 282.919 193.078L282.58 220.219C282.521 225.38 279.716 230.224 275.281 232.859L251.939 246.723C249.8 247.996 248 249.796 246.727 251.934L232.863 275.276C230.228 279.712 225.384 282.506 220.222 282.576L193.081 282.914C190.595 282.944 188.138 283.6 185.97 284.823L162.3 298.1C160.052 299.363 157.526 300 155 300ZM155 12.004C152.812 12.004 150.624 12.551 148.675 13.645L125.004 26.9219C122.548 28.3043 119.763 29.0502 116.939 29.0801L89.7975 29.4182C85.322 29.4779 81.125 31.8946 78.8376 35.7434L64.9736 59.085C63.5315 61.5117 61.4927 63.5505 59.0759 64.9826L35.7339 78.8463C31.885 81.1338 29.4683 85.3307 29.4086 89.8061L29.0704 116.947C29.0406 119.761 28.2848 122.556 26.9123 125.012L13.6351 148.682C11.4471 152.581 11.4471 157.434 13.6351 161.333L26.9123 185.003C28.2947 187.459 29.0406 190.254 29.0704 193.068L29.4086 220.209C29.4683 224.684 31.885 228.881 35.7339 231.169L59.0759 245.032C61.5026 246.474 63.5414 248.513 64.9736 250.93L78.8376 274.272C81.125 278.12 85.322 280.537 89.7975 280.597L116.939 280.935C119.753 280.965 122.538 281.721 125.004 283.093L148.675 296.37C152.573 298.558 157.427 298.558 161.325 296.37L184.996 283.093C187.452 281.711 190.247 280.965 193.061 280.935L220.202 280.597C224.678 280.537 228.875 278.12 231.162 274.272L245.026 250.93C246.469 248.503 248.507 246.464 250.924 245.032L274.266 231.169C278.115 228.881 280.532 224.684 280.591 220.209L280.93 193.068C280.969 190.254 281.715 187.459 283.088 185.003L296.365 161.333C298.553 157.434 298.553 152.581 296.365 148.682L283.088 125.012C281.705 122.556 280.959 119.771 280.93 116.947L280.591 89.8061C280.532 85.3307 278.115 81.1338 274.266 78.8463L250.924 64.9826C248.497 63.5405 246.459 61.5017 245.026 59.085L231.162 35.7434C228.875 31.8946 224.678 29.4779 220.202 29.4182L193.061 29.0801C190.247 29.0403 187.462 28.2944 184.996 26.9219L161.325 13.645C159.376 12.551 157.188 12.004 155 12.004Z" fill="white" style="fill:white;fill-opacity:1;"/>
<path d="M177.276 99.6776L191.134 96.5392H191.144C194.638 95.7497 197.776 98.6512 196.829 101.8L192.21 117.146C191.588 119.209 189.762 120.808 187.423 121.064C175.5 122.357 164.179 118.834 155 112.014C145.821 118.834 134.5 122.357 122.577 121.064C120.238 120.808 118.412 119.199 117.79 117.146L113.171 101.8C112.224 98.6512 115.362 95.7497 118.856 96.5392L132.714 99.6776C134.855 100.161 137.116 99.5888 138.675 98.1775L151.664 86.4034C153.51 84.7355 156.49 84.7355 158.326 86.4034L171.315 98.1775C172.874 99.5987 175.135 100.161 177.276 99.6776Z" fill="white" style="fill:white;fill-opacity:1;"/>
<path d="M156.441 124.39C161.426 127.144 170.644 131.536 183.82 131.2C186.051 131.141 187.828 133.016 187.245 134.96L182.064 150.959C180.929 154.739 176.378 156.367 172.815 154.146L157.655 144.702C156.056 143.705 153.934 143.705 152.325 144.702L137.55 154.146C133.987 156.367 129.072 154.739 127.937 150.959L122.745 134.96C122.163 133.016 123.939 131.141 126.17 131.2C139.346 131.536 148.555 127.144 153.549 124.39C154.487 123.867 155.523 123.877 156.441 124.39Z" fill="white" style="fill:white;fill-opacity:1;"/>
<path d="M148.91 59.5801L146.42 59.76L146.02 54.2301L138.9 43.52L141.67 43.3201L147.07 51.3501L151.23 42.63L154.09 42.42L148.51 54.01L148.92 59.5901L148.91 59.5801Z" fill="white" style="fill:white;fill-opacity:1;"/>
<path d="M133.22 61.6001L135.55 60.9401L135.56 60.9301L130.98 44.8201L128.89 45.41L126.21 59.3501L116.62 48.9L114.51 49.5001L119.09 65.6101L121.42 64.9501L118.39 54.3L126.76 63.4401L127.9 63.1101L130.19 50.9501L133.22 61.6001Z" fill="white" style="fill:white;fill-opacity:1;"/>
<path d="M104.12 72.98L94.5503 70.66L93.8198 71.12L97.5601 77.09L95.4502 78.42L86.5601 64.23L88.6699 62.9L92.52 69.04L93.0898 68.6801L95.0303 58.91L97.6602 57.26L95.5103 68.53L106.99 71.1801L104.13 72.98H104.12Z" fill="white" style="fill:white;fill-opacity:1;"/>
<path d="M88.8799 83.53L90.4497 82.1101L79.1997 69.7001L77.3296 71.3901L85.5396 80.4501L70.3496 77.7201L68.7798 79.1401L80.0298 91.55L81.8799 89.8701L73.8096 80.9601L88.8799 83.53Z" fill="white" style="fill:white;fill-opacity:1;"/>
<path fill-rule="evenodd" clip-rule="evenodd" d="M75.2202 96.9601L71.2002 95.77L66.52 101.76L68.6499 105.37L66.9902 107.5L58.02 91.77L59.4502 89.9301L76.8799 94.8201L75.2202 96.9501V96.9601ZM61.3198 92.88L65.2002 99.49L68.6699 95.04L61.3198 92.88Z" fill="white" style="fill:white;fill-opacity:1;"/>
<path fill-rule="evenodd" clip-rule="evenodd" d="M63.6499 113.11L55.1201 114.78L54.0298 116.76L59.8799 119.97L58.6802 122.16L44 114.09L47.54 107.65C49.0898 104.83 51.8999 103.93 54.5498 105.38C57.0698 106.76 57.8398 109.42 56.5601 112.1L65.1499 110.38L63.6602 113.1L63.6499 113.11ZM54.2402 111.35C55.0698 109.84 54.7002 108.33 53.3398 107.58C51.96 106.82 50.4902 107.32 49.6602 108.83L47.3198 113.08L51.8999 115.6L54.2402 111.35Z" fill="white" style="fill:white;fill-opacity:1;"/>
<path fill-rule="evenodd" clip-rule="evenodd" d="M184.08 54.64C185.04 49.86 182.48 45.78 177.27 44.73V44.74L171.92 43.66L168.62 60.0801L173.97 61.15C179.18 62.2001 183.12 59.42 184.08 54.64ZM181.6 54.15C180.92 57.5601 178.17 59.53 174.44 58.78L174.43 58.77L171.53 58.1901L173.88 46.53L176.78 47.11C180.51 47.86 182.29 50.74 181.6 54.15Z" fill="white" style="fill:white;fill-opacity:1;"/>
<path d="M198.43 68.88L187.63 64.5701L193.84 49.01L204.62 53.3101L203.72 55.5601L195.25 52.1801L193.5 56.5701L201.32 59.6901L200.43 61.92L192.61 58.8L190.84 63.24L199.33 66.63L198.43 68.88Z" fill="white" style="fill:white;fill-opacity:1;"/>
<path d="M213.7 77.7301L215.5 78.8501L224.37 64.65L222.23 63.3201L215.75 73.6801L214.24 58.3201L212.44 57.2001L203.57 71.4L205.69 72.7201L212.06 62.53L213.7 77.7301Z" fill="white" style="fill:white;fill-opacity:1;"/>
<path d="M234.95 76.51L225.4 87.1899L223.52 85.51L233.07 74.83L228.99 71.1799L230.61 69.37L240.67 78.37L239.05 80.1799L234.95 76.51Z" fill="white" style="fill:white;fill-opacity:1;"/>
<path d="M245.45 83.64L232.91 94.74L234.56 96.61L247.1 85.51L245.45 83.64Z" fill="white" style="fill:white;fill-opacity:1;"/>
<path d="M255.47 103.84L253.59 102.11C254.88 100.86 255.03 99.03 253.96 97.5C252.9 95.99 251.33 95.61 250.12 96.46C249.16 97.13 249.01 98.01 249.54 99.29L250.84 102.5C251.73 104.73 251.54 106.9 249.39 108.41C246.81 110.22 243.82 109.38 241.76 106.44C239.86 103.73 239.7 100.48 242.13 98.3L244.15 100.13C242.6 101.67 242.64 103.55 243.84 105.27C245.04 106.99 246.6 107.35 247.85 106.47C248.89 105.74 249.03 104.88 248.42 103.4L247.08 100.18C246.36 98.3199 246.11 96.0499 248.55 94.34C250.97 92.65 253.9 93.36 255.89 96.2C257.71 98.7999 257.5 101.73 255.47 103.84Z" fill="white" style="fill:white;fill-opacity:1;"/>
<path d="M251.16 121.66L263.94 115.19L266.43 120.09L268.59 118.99L262.49 106.95L260.33 108.05L262.8 112.94L250.02 119.41L251.16 121.66Z" fill="white" style="fill:white;fill-opacity:1;"/>
<path d="M134.922 272.19V271.254C135.194 271.038 135.51 270.798 135.87 270.534C136.23 270.27 136.594 269.982 136.962 269.67C137.338 269.358 137.686 269.026 138.006 268.674C138.326 268.322 138.582 267.954 138.774 267.57C138.974 267.178 139.074 266.778 139.074 266.37C139.074 265.93 138.954 265.574 138.714 265.302C138.474 265.022 138.114 264.882 137.634 264.882C137.274 264.882 136.974 264.966 136.734 265.134C136.502 265.302 136.33 265.53 136.218 265.818C136.106 266.106 136.046 266.426 136.038 266.778L134.886 266.694C134.886 266.302 134.946 265.93 135.066 265.578C135.186 265.226 135.362 264.914 135.594 264.642C135.834 264.362 136.126 264.142 136.47 263.982C136.822 263.822 137.222 263.742 137.67 263.742C138.182 263.742 138.626 263.85 139.002 264.066C139.386 264.282 139.686 264.582 139.902 264.966C140.118 265.35 140.226 265.802 140.226 266.322C140.226 266.762 140.146 267.186 139.986 267.594C139.834 268.002 139.618 268.394 139.338 268.77C139.058 269.138 138.734 269.486 138.366 269.814C137.998 270.142 137.602 270.454 137.178 270.75C136.754 271.038 136.314 271.302 135.858 271.542L136.17 271.098H140.562V272.19H134.922Z" fill="white" style="fill:white;fill-opacity:1;"/>
<path d="M149.269 272.286C148.781 272.286 148.369 272.198 148.033 272.022C147.705 271.846 147.433 271.61 147.217 271.314C147.009 271.01 146.849 270.674 146.737 270.306C146.633 269.93 146.561 269.542 146.521 269.142C146.481 268.734 146.461 268.346 146.461 267.978C146.461 267.61 146.477 267.23 146.509 266.838C146.549 266.438 146.621 266.054 146.725 265.686C146.837 265.31 146.997 264.974 147.205 264.678C147.413 264.382 147.681 264.146 148.009 263.97C148.345 263.794 148.753 263.706 149.233 263.706C149.705 263.706 150.105 263.794 150.433 263.97C150.761 264.138 151.029 264.366 151.237 264.654C151.453 264.942 151.617 265.27 151.729 265.638C151.841 266.006 151.917 266.394 151.957 266.802C152.005 267.202 152.029 267.594 152.029 267.978C152.029 268.378 152.005 268.782 151.957 269.19C151.917 269.598 151.837 269.986 151.717 270.354C151.605 270.722 151.445 271.054 151.237 271.35C151.029 271.638 150.765 271.866 150.445 272.034C150.125 272.202 149.733 272.286 149.269 272.286ZM149.269 271.158C149.669 271.158 149.981 271.018 150.205 270.738C150.437 270.458 150.601 270.082 150.697 269.61C150.793 269.138 150.841 268.61 150.841 268.026C150.841 267.41 150.789 266.866 150.685 266.394C150.589 265.914 150.425 265.534 150.193 265.254C149.961 264.974 149.641 264.834 149.233 264.834C148.913 264.834 148.649 264.918 148.441 265.086C148.241 265.254 148.085 265.486 147.973 265.782C147.861 266.078 147.781 266.418 147.733 266.802C147.685 267.178 147.661 267.582 147.661 268.014C147.661 268.43 147.685 268.826 147.733 269.202C147.781 269.578 147.861 269.914 147.973 270.21C148.093 270.498 148.257 270.73 148.465 270.906C148.673 271.074 148.941 271.158 149.269 271.158Z" fill="white" style="fill:white;fill-opacity:1;"/>
<path d="M157.952 272.19V271.254C158.224 271.038 158.54 270.798 158.9 270.534C159.26 270.27 159.624 269.982 159.992 269.67C160.368 269.358 160.716 269.026 161.036 268.674C161.356 268.322 161.612 267.954 161.804 267.57C162.004 267.178 162.104 266.778 162.104 266.37C162.104 265.93 161.984 265.574 161.744 265.302C161.504 265.022 161.144 264.882 160.664 264.882C160.304 264.882 160.004 264.966 159.764 265.134C159.532 265.302 159.36 265.53 159.248 265.818C159.136 266.106 159.076 266.426 159.068 266.778L157.916 266.694C157.916 266.302 157.976 265.93 158.096 265.578C158.216 265.226 158.392 264.914 158.624 264.642C158.864 264.362 159.156 264.142 159.5 263.982C159.852 263.822 160.252 263.742 160.7 263.742C161.212 263.742 161.656 263.85 162.032 264.066C162.416 264.282 162.716 264.582 162.932 264.966C163.148 265.35 163.256 265.802 163.256 266.322C163.256 266.762 163.176 267.186 163.016 267.594C162.864 268.002 162.648 268.394 162.368 268.77C162.088 269.138 161.764 269.486 161.396 269.814C161.028 270.142 160.632 270.454 160.208 270.75C159.784 271.038 159.344 271.302 158.888 271.542L159.2 271.098H163.592V272.19H157.952Z" fill="white" style="fill:white;fill-opacity:1;"/>
<path d="M172.251 272.298C171.747 272.298 171.283 272.19 170.859 271.974C170.443 271.758 170.099 271.466 169.827 271.098C169.555 270.722 169.379 270.298 169.299 269.826L170.451 269.622C170.499 269.894 170.595 270.15 170.739 270.39C170.891 270.63 171.091 270.822 171.339 270.966C171.595 271.102 171.891 271.17 172.227 271.17C172.611 271.17 172.931 271.082 173.187 270.906C173.451 270.722 173.651 270.49 173.787 270.21C173.923 269.922 173.991 269.618 173.991 269.298C173.991 268.994 173.927 268.714 173.799 268.458C173.671 268.202 173.479 267.998 173.223 267.846C172.975 267.686 172.663 267.606 172.287 267.606C171.943 267.606 171.635 267.686 171.363 267.846C171.099 267.998 170.875 268.21 170.691 268.482L169.551 268.182L170.343 263.826H174.855V264.918H170.775L171.399 264.426L170.835 267.522L170.487 267.438C170.799 267.078 171.123 266.834 171.459 266.706C171.803 266.57 172.135 266.502 172.455 266.502C172.999 266.502 173.479 266.63 173.895 266.886C174.319 267.142 174.647 267.482 174.879 267.906C175.111 268.33 175.227 268.794 175.227 269.298C175.227 269.698 175.155 270.078 175.011 270.438C174.867 270.798 174.659 271.118 174.387 271.398C174.123 271.678 173.807 271.898 173.439 272.058C173.079 272.218 172.683 272.298 172.251 272.298Z" fill="white" style="fill:white;fill-opacity:1;"/>
<path d="M41 147.61L42.8887 152.721L48 154.61L42.8887 156.499L41 161.61L39.1113 156.499L34 154.61L39.1113 152.721L41 147.61Z" fill="white" style="fill:white;fill-opacity:1;"/>
<path d="M269 147.61L270.889 152.721L276 154.61L270.889 156.499L269 161.61L267.111 156.499L262 154.61L267.111 152.721L269 147.61Z" fill="white" style="fill:white;fill-opacity:1;"/>
<path fill-rule="evenodd" clip-rule="evenodd" d="M265 178H45V177H265V178Z" fill="white" style="fill:white;fill-opacity:1;"/>
<path d="M59.8406 215.325C58.0072 215.325 56.5072 214.85 55.3406 213.9C54.1906 212.95 53.4822 211.683 53.2156 210.1L56.0406 209.4C56.2239 210.5 56.6572 211.333 57.3406 211.9C58.0406 212.467 58.8989 212.75 59.9156 212.75C60.4822 212.75 60.9906 212.65 61.4406 212.45C61.8906 212.233 62.2406 211.933 62.4906 211.55C62.7572 211.167 62.8906 210.733 62.8906 210.25C62.8906 209.733 62.7489 209.308 62.4656 208.975C62.1822 208.625 61.7739 208.317 61.2406 208.05C60.7072 207.767 60.0572 207.475 59.2906 207.175C58.2406 206.775 57.3489 206.342 56.6156 205.875C55.8822 205.408 55.3239 204.858 54.9406 204.225C54.5572 203.575 54.3656 202.808 54.3656 201.925C54.3656 201.008 54.5906 200.2 55.0406 199.5C55.4906 198.783 56.1239 198.225 56.9406 197.825C57.7572 197.425 58.6989 197.225 59.7656 197.225C60.9156 197.225 61.9322 197.483 62.8156 198C63.6989 198.517 64.4072 199.3 64.9406 200.35L62.6406 201.75C62.2906 201.117 61.8656 200.633 61.3656 200.3C60.8656 199.95 60.2989 199.775 59.6656 199.775C59.2156 199.775 58.8072 199.867 58.4406 200.05C58.0739 200.217 57.7822 200.458 57.5656 200.775C57.3656 201.092 57.2656 201.458 57.2656 201.875C57.2656 202.308 57.3906 202.692 57.6406 203.025C57.8906 203.342 58.2739 203.633 58.7906 203.9C59.3239 204.167 59.9989 204.458 60.8156 204.775C61.8656 205.175 62.7572 205.608 63.4906 206.075C64.2239 206.542 64.7822 207.1 65.1656 207.75C65.5656 208.383 65.7656 209.158 65.7656 210.075C65.7656 211.092 65.5156 211.992 65.0156 212.775C64.5156 213.558 63.8156 214.183 62.9156 214.65C62.0322 215.1 61.0072 215.325 59.8406 215.325ZM73.5222 215.225C72.4889 215.225 71.5889 215.058 70.8222 214.725C70.0722 214.392 69.4555 213.925 68.9722 213.325C68.4889 212.725 68.1305 212.05 67.8972 211.3C67.6639 210.533 67.5472 209.742 67.5472 208.925C67.5472 208.108 67.6555 207.317 67.8722 206.55C68.1055 205.767 68.4555 205.067 68.9222 204.45C69.3889 203.833 69.9889 203.35 70.7222 203C71.4555 202.633 72.3222 202.45 73.3222 202.45C74.2722 202.45 75.0972 202.617 75.7972 202.95C76.5139 203.267 77.1055 203.717 77.5722 204.3C78.0389 204.867 78.3805 205.517 78.5972 206.25C78.8305 206.983 78.9472 207.767 78.9472 208.6C78.9472 208.717 78.9389 208.883 78.9222 209.1C78.9222 209.317 78.9055 209.533 78.8722 209.75H70.3222C70.3889 210.733 70.7222 211.483 71.3222 212C71.9222 212.517 72.6889 212.775 73.6222 212.775C74.3055 212.775 74.9305 212.667 75.4972 212.45C76.0639 212.233 76.5805 211.892 77.0472 211.425L78.5722 213.275C78.0555 213.742 77.5389 214.117 77.0222 214.4C76.5055 214.683 75.9639 214.892 75.3972 215.025C74.8472 215.158 74.2222 215.225 73.5222 215.225ZM76.2222 208.35C76.2555 208.217 76.2722 208.083 76.2722 207.95C76.2889 207.817 76.2972 207.683 76.2972 207.55C76.2972 207.183 76.2305 206.833 76.0972 206.5C75.9805 206.167 75.7972 205.875 75.5472 205.625C75.2972 205.358 74.9889 205.15 74.6222 205C74.2555 204.833 73.8389 204.75 73.3722 204.75C72.7222 204.75 72.1722 204.892 71.7222 205.175C71.2889 205.458 70.9472 205.825 70.6972 206.275C70.4639 206.708 70.3222 207.183 70.2722 207.7H77.1222L76.2222 208.35ZM86.1976 215.225C85.0976 215.225 84.1393 214.95 83.3226 214.4C82.5226 213.833 81.9059 213.067 81.4726 212.1C81.0393 211.133 80.8226 210.042 80.8226 208.825C80.8226 207.492 81.0559 206.35 81.5226 205.4C82.0059 204.45 82.6559 203.725 83.4726 203.225C84.2893 202.708 85.1976 202.45 86.1976 202.45C86.8976 202.45 87.5393 202.592 88.1226 202.875C88.7226 203.158 89.2226 203.575 89.6226 204.125C90.0393 204.658 90.3309 205.317 90.4976 206.1L89.8476 206.125V197.575H92.6226V215H89.8476V211.575L90.5976 211.4C90.3809 212.3 90.0476 213.033 89.5976 213.6C89.1643 214.15 88.6559 214.558 88.0726 214.825C87.4893 215.092 86.8643 215.225 86.1976 215.225ZM86.8726 212.675C87.5226 212.675 88.0893 212.517 88.5726 212.2C89.0559 211.883 89.4309 211.433 89.6976 210.85C89.9643 210.267 90.0976 209.592 90.0976 208.825C90.0976 208.058 89.9643 207.392 89.6976 206.825C89.4309 206.242 89.0559 205.792 88.5726 205.475C88.0893 205.142 87.5226 204.975 86.8726 204.975C86.2226 204.975 85.6476 205.133 85.1476 205.45C84.6643 205.767 84.2809 206.217 83.9976 206.8C83.7309 207.383 83.5976 208.058 83.5976 208.825C83.5976 209.592 83.7309 210.267 83.9976 210.85C84.2809 211.433 84.6643 211.883 85.1476 212.2C85.6476 212.517 86.2226 212.675 86.8726 212.675ZM103.575 215L103.375 212.925V207.225C103.375 206.425 103.133 205.825 102.65 205.425C102.167 205.008 101.492 204.8 100.625 204.8C99.9585 204.8 99.3001 204.933 98.6501 205.2C98.0168 205.45 97.4335 205.842 96.9001 206.375L95.3501 204.55C96.1501 203.8 97.0001 203.267 97.9001 202.95C98.8001 202.617 99.7835 202.45 100.85 202.45C102.517 202.45 103.808 202.875 104.725 203.725C105.658 204.558 106.125 205.725 106.125 207.225V215H103.575ZM99.7501 215.225C98.8335 215.225 98.0168 215.058 97.3001 214.725C96.6001 214.392 96.0501 213.925 95.6501 213.325C95.2668 212.725 95.0751 212.025 95.0751 211.225C95.0751 210.542 95.2168 209.95 95.5001 209.45C95.8001 208.95 96.1835 208.558 96.6501 208.275C97.0501 208.025 97.5168 207.85 98.0501 207.75C98.5835 207.633 99.1418 207.575 99.7251 207.575H103.6V209.65H100.125C99.8251 209.65 99.5251 209.683 99.2251 209.75C98.9251 209.8 98.6585 209.9 98.4251 210.05C98.2585 210.183 98.1168 210.35 98.0001 210.55C97.9001 210.75 97.8501 210.983 97.8501 211.25C97.8501 211.783 98.0501 212.208 98.4501 212.525C98.8668 212.825 99.4168 212.975 100.1 212.975C100.7 212.975 101.242 212.842 101.725 212.575C102.225 212.308 102.625 211.942 102.925 211.475C103.225 211.008 103.375 210.483 103.375 209.9L104.225 211.275C104.025 212.142 103.708 212.875 103.275 213.475C102.842 214.058 102.325 214.5 101.725 214.8C101.125 215.083 100.467 215.225 99.7501 215.225ZM113.449 215.225C112.832 215.225 112.249 215.108 111.699 214.875C111.165 214.625 110.74 214.233 110.424 213.7C110.107 213.15 109.949 212.433 109.949 211.55V199.675L112.749 198.125V210.775C112.749 211.475 112.849 212.017 113.049 212.4C113.265 212.767 113.649 212.95 114.199 212.95C114.365 212.95 114.557 212.933 114.774 212.9C115.007 212.85 115.249 212.792 115.499 212.725V214.875C115.165 214.992 114.824 215.075 114.474 215.125C114.14 215.192 113.799 215.225 113.449 215.225ZM107.599 204.825V202.675H115.499V204.825H107.599ZM117.708 215V202.675H120.483V215H117.708ZM117.583 200.65V197.575H120.608V200.65H117.583ZM129.014 215.225C127.847 215.225 126.797 214.95 125.864 214.4C124.931 213.85 124.197 213.092 123.664 212.125C123.147 211.158 122.889 210.058 122.889 208.825C122.889 207.592 123.147 206.492 123.664 205.525C124.197 204.558 124.922 203.808 125.839 203.275C126.772 202.725 127.831 202.45 129.014 202.45C130.214 202.45 131.264 202.725 132.164 203.275C133.081 203.808 133.806 204.558 134.339 205.525C134.872 206.492 135.139 207.592 135.139 208.825C135.139 210.058 134.872 211.158 134.339 212.125C133.822 213.092 133.097 213.85 132.164 214.4C131.247 214.95 130.197 215.225 129.014 215.225ZM129.039 212.775C129.722 212.775 130.314 212.617 130.814 212.3C131.314 211.983 131.697 211.525 131.964 210.925C132.231 210.325 132.364 209.625 132.364 208.825C132.364 208.008 132.231 207.308 131.964 206.725C131.697 206.125 131.314 205.667 130.814 205.35C130.314 205.033 129.722 204.875 129.039 204.875C128.322 204.875 127.714 205.042 127.214 205.375C126.714 205.692 126.331 206.142 126.064 206.725C125.797 207.308 125.664 208.008 125.664 208.825C125.664 209.625 125.797 210.325 126.064 210.925C126.331 211.525 126.714 211.983 127.214 212.3C127.714 212.617 128.322 212.775 129.039 212.775ZM137.569 215V202.675H140.344V205.4L139.844 205.525C140.061 204.808 140.378 204.225 140.794 203.775C141.211 203.325 141.694 202.992 142.244 202.775C142.811 202.558 143.403 202.45 144.019 202.45C145.403 202.45 146.478 202.85 147.244 203.65C148.028 204.433 148.419 205.558 148.419 207.025V215H145.644V208.05C145.644 206.95 145.444 206.142 145.044 205.625C144.644 205.108 144.028 204.85 143.194 204.85C142.578 204.85 142.053 205 141.619 205.3C141.203 205.583 140.886 206.033 140.669 206.65C140.453 207.267 140.344 208.05 140.344 209V215H137.569ZM157.678 215V197.575H162.678C165.545 197.575 167.77 198.35 169.353 199.9C170.937 201.433 171.728 203.608 171.728 206.425C171.728 209.192 170.945 211.317 169.378 212.8C167.828 214.267 165.587 215 162.653 215H157.678ZM160.578 212.35H162.378C163.728 212.35 164.887 212.167 165.853 211.8C166.82 211.417 167.553 210.783 168.053 209.9C168.553 209.017 168.803 207.825 168.803 206.325C168.803 204.825 168.553 203.633 168.053 202.75C167.57 201.85 166.862 201.208 165.928 200.825C165.012 200.425 163.912 200.225 162.628 200.225H160.578V212.35ZM179.573 215.225C178.54 215.225 177.64 215.058 176.873 214.725C176.123 214.392 175.506 213.925 175.023 213.325C174.54 212.725 174.181 212.05 173.948 211.3C173.715 210.533 173.598 209.742 173.598 208.925C173.598 208.108 173.706 207.317 173.923 206.55C174.156 205.767 174.506 205.067 174.973 204.45C175.44 203.833 176.04 203.35 176.773 203C177.506 202.633 178.373 202.45 179.373 202.45C180.323 202.45 181.148 202.617 181.848 202.95C182.565 203.267 183.156 203.717 183.623 204.3C184.09 204.867 184.431 205.517 184.648 206.25C184.881 206.983 184.998 207.767 184.998 208.6C184.998 208.717 184.99 208.883 184.973 209.1C184.973 209.317 184.956 209.533 184.923 209.75H176.373C176.44 210.733 176.773 211.483 177.373 212C177.973 212.517 178.74 212.775 179.673 212.775C180.356 212.775 180.981 212.667 181.548 212.45C182.115 212.233 182.631 211.892 183.098 211.425L184.623 213.275C184.106 213.742 183.59 214.117 183.073 214.4C182.556 214.683 182.015 214.892 181.448 215.025C180.898 215.158 180.273 215.225 179.573 215.225ZM182.273 208.35C182.306 208.217 182.323 208.083 182.323 207.95C182.34 207.817 182.348 207.683 182.348 207.55C182.348 207.183 182.281 206.833 182.148 206.5C182.031 206.167 181.848 205.875 181.598 205.625C181.348 205.358 181.04 205.15 180.673 205C180.306 204.833 179.89 204.75 179.423 204.75C178.773 204.75 178.223 204.892 177.773 205.175C177.34 205.458 176.998 205.825 176.748 206.275C176.515 206.708 176.373 207.183 176.323 207.7H183.173L182.273 208.35ZM187.448 215V202.675H190.223V205.4L189.723 205.525C189.94 204.808 190.257 204.225 190.673 203.775C191.09 203.325 191.573 202.992 192.123 202.775C192.69 202.558 193.282 202.45 193.898 202.45C195.282 202.45 196.357 202.85 197.123 203.65C197.907 204.433 198.298 205.558 198.298 207.025V215H195.523V208.05C195.523 206.95 195.323 206.142 194.923 205.625C194.523 205.108 193.907 204.85 193.073 204.85C192.457 204.85 191.932 205 191.498 205.3C191.082 205.583 190.765 206.033 190.548 206.65C190.332 207.267 190.223 208.05 190.223 209V215H187.448ZM205.638 215.225C205.022 215.225 204.438 215.108 203.888 214.875C203.355 214.625 202.93 214.233 202.613 213.7C202.297 213.15 202.138 212.433 202.138 211.55V199.675L204.938 198.125V210.775C204.938 211.475 205.038 212.017 205.238 212.4C205.455 212.767 205.838 212.95 206.388 212.95C206.555 212.95 206.747 212.933 206.963 212.9C207.197 212.85 207.438 212.792 207.688 212.725V214.875C207.355 214.992 207.013 215.075 206.663 215.125C206.33 215.192 205.988 215.225 205.638 215.225ZM199.788 204.825V202.675H207.688V204.825H199.788ZM209.897 215V202.675H212.672V215H209.897ZM209.772 200.65V197.575H212.797V200.65H209.772ZM219.853 215.225C218.97 215.225 218.187 215.1 217.503 214.85C216.82 214.583 216.245 214.25 215.778 213.85C215.312 213.45 214.928 213.05 214.628 212.65L216.528 211C216.845 211.517 217.278 211.975 217.828 212.375C218.395 212.775 219.078 212.975 219.878 212.975C220.545 212.975 221.07 212.833 221.453 212.55C221.853 212.267 222.053 211.917 222.053 211.5C222.053 211.133 221.928 210.85 221.678 210.65C221.428 210.433 221.103 210.25 220.703 210.1C220.303 209.95 219.862 209.817 219.378 209.7C218.912 209.583 218.437 209.442 217.953 209.275C217.47 209.092 217.02 208.867 216.603 208.6C216.203 208.333 215.878 207.992 215.628 207.575C215.378 207.158 215.253 206.642 215.253 206.025C215.253 204.942 215.67 204.075 216.503 203.425C217.337 202.775 218.428 202.45 219.778 202.45C220.745 202.45 221.628 202.642 222.428 203.025C223.228 203.408 223.853 203.983 224.303 204.75L222.578 206.075C222.245 205.575 221.828 205.2 221.328 204.95C220.828 204.7 220.287 204.575 219.703 204.575C219.17 204.575 218.72 204.683 218.353 204.9C218.003 205.117 217.828 205.4 217.828 205.75C217.828 206.017 217.912 206.233 218.078 206.4C218.245 206.567 218.503 206.717 218.853 206.85C219.203 206.983 219.645 207.117 220.178 207.25C220.678 207.367 221.195 207.508 221.728 207.675C222.262 207.842 222.753 208.067 223.203 208.35C223.67 208.617 224.045 208.983 224.328 209.45C224.628 209.9 224.778 210.483 224.778 211.2C224.778 212 224.57 212.708 224.153 213.325C223.753 213.925 223.178 214.392 222.428 214.725C221.695 215.058 220.837 215.225 219.853 215.225ZM231.646 215.225C231.029 215.225 230.446 215.108 229.896 214.875C229.363 214.625 228.938 214.233 228.621 213.7C228.304 213.15 228.146 212.433 228.146 211.55V199.675L230.946 198.125V210.775C230.946 211.475 231.046 212.017 231.246 212.4C231.463 212.767 231.846 212.95 232.396 212.95C232.563 212.95 232.754 212.933 232.971 212.9C233.204 212.85 233.446 212.792 233.696 212.725V214.875C233.363 214.992 233.021 215.075 232.671 215.125C232.338 215.192 231.996 215.225 231.646 215.225ZM225.796 204.825V202.675H233.696V204.825H225.796ZM235.93 215V202.675H238.73V206L238.205 206.075C238.288 205.358 238.53 204.733 238.93 204.2C239.33 203.65 239.813 203.225 240.38 202.925C240.963 202.608 241.538 202.45 242.105 202.45C242.505 202.45 242.888 202.5 243.255 202.6C243.621 202.7 244.005 202.867 244.405 203.1L243.055 205.6C242.871 205.483 242.63 205.392 242.33 205.325C242.046 205.242 241.771 205.2 241.505 205.2C241.155 205.2 240.805 205.267 240.455 205.4C240.121 205.533 239.821 205.742 239.555 206.025C239.288 206.292 239.088 206.642 238.955 207.075C238.871 207.308 238.805 207.617 238.755 208C238.721 208.367 238.705 208.883 238.705 209.55V215H235.93ZM247.253 220.075L249.703 214.175L245.003 202.675H248.053L251.178 211.4L254.353 202.675H257.353L250.253 220.075H247.253ZM119.777 245L126.677 227.575H128.877L135.752 245H132.602L127.777 231.8L122.952 245H119.777ZM124.077 241.35L124.977 238.775H130.552L131.502 241.35H124.077ZM138.859 245L135.109 232.675H138.059L140.259 240.75L142.759 232.675H145.134L147.634 240.7L149.859 232.675H152.809L149.034 245H146.534L143.959 236.6L141.384 245H138.859ZM162.683 245L162.483 242.925V237.225C162.483 236.425 162.241 235.825 161.758 235.425C161.275 235.008 160.6 234.8 159.733 234.8C159.066 234.8 158.408 234.933 157.758 235.2C157.125 235.45 156.541 235.842 156.008 236.375L154.458 234.55C155.258 233.8 156.108 233.267 157.008 232.95C157.908 232.617 158.891 232.45 159.958 232.45C161.625 232.45 162.916 232.875 163.833 233.725C164.766 234.558 165.233 235.725 165.233 237.225V245H162.683ZM158.858 245.225C157.941 245.225 157.125 245.058 156.408 244.725C155.708 244.392 155.158 243.925 154.758 243.325C154.375 242.725 154.183 242.025 154.183 241.225C154.183 240.542 154.325 239.95 154.608 239.45C154.908 238.95 155.291 238.558 155.758 238.275C156.158 238.025 156.625 237.85 157.158 237.75C157.691 237.633 158.25 237.575 158.833 237.575H162.708V239.65H159.233C158.933 239.65 158.633 239.683 158.333 239.75C158.033 239.8 157.766 239.9 157.533 240.05C157.366 240.183 157.225 240.35 157.108 240.55C157.008 240.75 156.958 240.983 156.958 241.25C156.958 241.783 157.158 242.208 157.558 242.525C157.975 242.825 158.525 242.975 159.208 242.975C159.808 242.975 160.35 242.842 160.833 242.575C161.333 242.308 161.733 241.942 162.033 241.475C162.333 241.008 162.483 240.483 162.483 239.9L163.333 241.275C163.133 242.142 162.816 242.875 162.383 243.475C161.95 244.058 161.433 244.5 160.833 244.8C160.233 245.083 159.575 245.225 158.858 245.225ZM168.082 245V232.675H170.882V236L170.357 236.075C170.44 235.358 170.682 234.733 171.082 234.2C171.482 233.65 171.965 233.225 172.532 232.925C173.115 232.608 173.69 232.45 174.257 232.45C174.657 232.45 175.04 232.5 175.407 232.6C175.773 232.7 176.157 232.867 176.557 233.1L175.207 235.6C175.023 235.483 174.782 235.392 174.482 235.325C174.198 235.242 173.923 235.2 173.657 235.2C173.307 235.2 172.957 235.267 172.607 235.4C172.273 235.533 171.973 235.742 171.707 236.025C171.44 236.292 171.24 236.642 171.107 237.075C171.023 237.308 170.957 237.617 170.907 238C170.873 238.367 170.857 238.883 170.857 239.55V245H168.082ZM182.446 245.225C181.346 245.225 180.388 244.95 179.571 244.4C178.771 243.833 178.154 243.067 177.721 242.1C177.288 241.133 177.071 240.042 177.071 238.825C177.071 237.492 177.304 236.35 177.771 235.4C178.254 234.45 178.904 233.725 179.721 233.225C180.538 232.708 181.446 232.45 182.446 232.45C183.146 232.45 183.788 232.592 184.371 232.875C184.971 233.158 185.471 233.575 185.871 234.125C186.288 234.658 186.579 235.317 186.746 236.1L186.096 236.125V227.575H188.871V245H186.096V241.575L186.846 241.4C186.629 242.3 186.296 243.033 185.846 243.6C185.413 244.15 184.904 244.558 184.321 244.825C183.738 245.092 183.113 245.225 182.446 245.225ZM183.121 242.675C183.771 242.675 184.338 242.517 184.821 242.2C185.304 241.883 185.679 241.433 185.946 240.85C186.213 240.267 186.346 239.592 186.346 238.825C186.346 238.058 186.213 237.392 185.946 236.825C185.679 236.242 185.304 235.792 184.821 235.475C184.338 235.142 183.771 234.975 183.121 234.975C182.471 234.975 181.896 235.133 181.396 235.45C180.913 235.767 180.529 236.217 180.246 236.8C179.979 237.383 179.846 238.058 179.846 238.825C179.846 239.592 179.979 240.267 180.246 240.85C180.529 241.433 180.913 241.883 181.396 242.2C181.896 242.517 182.471 242.675 183.121 242.675Z" fill="white" style="fill:white;fill-opacity:1;"/>
</svg>
