<svg width="310" height="310" viewBox="0 0 310 310" fill="none" xmlns="http://www.w3.org/2000/svg">
<path d="M147.651 1.92236C152.217 -0.640785 157.783 -0.640785 162.349 1.92236L188.281 16.4702C190.473 17.7017 192.937 18.3625 195.44 18.3925L225.166 18.763C230.402 18.8231 235.218 21.6065 237.892 26.112L253.08 51.6733C254.362 53.836 256.164 55.6382 258.327 56.9198L283.888 72.1084C288.384 74.7817 291.167 79.5976 291.237 84.834L291.607 114.56C291.638 117.074 292.298 119.537 293.53 121.719L308.078 147.651C310.641 152.217 310.641 157.783 308.078 162.349L293.53 188.281C292.298 190.473 291.638 192.936 291.607 195.44L291.237 225.166C291.167 230.402 288.384 235.218 283.888 237.892L258.327 253.08C256.174 254.362 254.362 256.164 253.08 258.327L237.892 283.888C235.218 288.383 230.392 291.167 225.166 291.237L195.44 291.607C192.927 291.637 190.463 292.298 188.281 293.53L162.349 308.078C157.783 310.641 152.217 310.641 147.651 308.078L121.719 293.53C119.527 292.298 117.064 291.637 114.56 291.607L84.834 291.237C79.5976 291.167 74.7817 288.383 72.1084 283.888L56.9198 258.327C55.6382 256.174 53.836 254.362 51.6733 253.08L26.112 237.892C21.6165 235.218 18.8331 230.392 18.763 225.166L18.3925 195.44C18.3625 192.926 17.7017 190.463 16.4702 188.281L1.92236 162.349C-0.640786 157.783 -0.640786 152.217 1.92236 147.651L16.4702 121.719C17.7017 119.527 18.3625 117.063 18.3925 114.56L18.763 84.834C18.8231 79.5976 21.6065 74.7817 26.112 72.1084L51.6733 56.9198C53.836 55.6382 55.6382 53.836 56.9198 51.6733L72.1084 26.112C74.7817 21.6165 79.5976 18.8331 84.834 18.763L114.56 18.3925C117.074 18.3625 119.537 17.7017 121.719 16.4702L147.651 1.92236Z" fill="#227DF5" style="fill:#227DF5;fill:color(display-p3 0.1333 0.4919 0.9608);fill-opacity:1;"/>
<path d="M155 300C152.474 300 149.958 299.373 147.7 298.1L124.03 284.823C121.862 283.61 119.405 282.944 116.919 282.914L89.7776 282.576C84.6159 282.516 79.7725 279.712 77.1369 275.276L63.2729 251.934C61.9999 249.796 60.1998 247.996 58.0615 246.723L34.7195 232.859C30.2838 230.224 27.4891 225.38 27.4195 220.219L27.0813 193.078C27.0515 190.592 26.3951 188.135 25.1718 185.967L11.8946 162.297C9.36846 157.792 9.36846 152.203 11.8946 147.698L25.1718 124.028C26.3852 121.86 27.0515 119.403 27.0813 116.917L27.4195 89.7762C27.4792 84.6146 30.2838 79.7713 34.7195 77.1357L58.0615 63.272C60.1998 61.999 61.9999 60.1989 63.2729 58.0607L77.1369 34.719C79.7725 30.2834 84.6159 27.4888 89.7776 27.4192L116.919 27.0811C119.405 27.0512 121.862 26.3948 124.03 25.1716L147.7 11.8946C152.205 9.36847 157.795 9.36847 162.3 11.8946L185.97 25.1716C188.138 26.3849 190.595 27.0512 193.081 27.0811L220.222 27.4192C225.384 27.4789 230.228 30.2834 232.863 34.719L246.727 58.0607C248 60.1989 249.8 61.999 251.939 63.272L275.281 77.1357C279.716 79.7713 282.511 84.6146 282.58 89.7762L282.919 116.917C282.949 119.403 283.605 121.86 284.828 124.028L298.105 147.698C300.632 152.203 300.632 157.792 298.105 162.297L284.828 185.967C283.615 188.135 282.958 190.592 282.919 193.078L282.58 220.219C282.521 225.38 279.716 230.224 275.281 232.859L251.939 246.723C249.8 247.996 248 249.796 246.727 251.934L232.863 275.276C230.228 279.712 225.384 282.506 220.222 282.576L193.081 282.914C190.595 282.944 188.138 283.6 185.97 284.823L162.3 298.1C160.052 299.363 157.526 300 155 300ZM155 12.004C152.812 12.004 150.624 12.551 148.675 13.645L125.004 26.9219C122.548 28.3043 119.763 29.0502 116.939 29.0801L89.7975 29.4182C85.322 29.4779 81.125 31.8946 78.8376 35.7434L64.9736 59.085C63.5315 61.5117 61.4927 63.5505 59.0759 64.9826L35.7339 78.8463C31.885 81.1338 29.4683 85.3307 29.4086 89.8061L29.0704 116.947C29.0406 119.761 28.2848 122.556 26.9123 125.012L13.6351 148.682C11.4471 152.581 11.4471 157.434 13.6351 161.333L26.9123 185.003C28.2947 187.459 29.0406 190.254 29.0704 193.068L29.4086 220.209C29.4683 224.684 31.885 228.881 35.7339 231.169L59.0759 245.032C61.5026 246.474 63.5414 248.513 64.9736 250.93L78.8376 274.272C81.125 278.12 85.322 280.537 89.7975 280.597L116.939 280.935C119.753 280.965 122.538 281.721 125.004 283.093L148.675 296.37C152.573 298.558 157.427 298.558 161.325 296.37L184.996 283.093C187.452 281.711 190.247 280.965 193.061 280.935L220.202 280.597C224.678 280.537 228.875 278.12 231.162 274.272L245.026 250.93C246.469 248.503 248.507 246.464 250.924 245.032L274.266 231.169C278.115 228.881 280.532 224.684 280.591 220.209L280.93 193.068C280.969 190.254 281.715 187.459 283.088 185.003L296.365 161.333C298.553 157.434 298.553 152.581 296.365 148.682L283.088 125.012C281.705 122.556 280.959 119.771 280.93 116.947L280.591 89.8061C280.532 85.3307 278.115 81.1338 274.266 78.8463L250.924 64.9826C248.497 63.5405 246.459 61.5017 245.026 59.085L231.162 35.7434C228.875 31.8946 224.678 29.4779 220.202 29.4182L193.061 29.0801C190.247 29.0403 187.462 28.2944 184.996 26.9219L161.325 13.645C159.376 12.551 157.188 12.004 155 12.004Z" fill="white" style="fill:white;fill-opacity:1;"/>
<path d="M177.276 99.6776L191.134 96.5392H191.144C194.638 95.7497 197.776 98.6512 196.829 101.8L192.21 117.146C191.588 119.209 189.762 120.808 187.423 121.064C175.5 122.357 164.179 118.834 155 112.014C145.821 118.834 134.5 122.357 122.577 121.064C120.238 120.808 118.412 119.199 117.79 117.146L113.171 101.8C112.224 98.6512 115.362 95.7497 118.856 96.5392L132.714 99.6776C134.855 100.161 137.116 99.5888 138.675 98.1775L151.664 86.4034C153.51 84.7355 156.49 84.7355 158.326 86.4034L171.315 98.1775C172.874 99.5987 175.135 100.161 177.276 99.6776Z" fill="white" style="fill:white;fill-opacity:1;"/>
<path d="M156.441 124.39C161.426 127.144 170.644 131.536 183.82 131.2C186.051 131.141 187.828 133.016 187.245 134.96L182.064 150.959C180.929 154.739 176.378 156.367 172.815 154.146L157.655 144.702C156.056 143.705 153.934 143.705 152.325 144.702L137.55 154.146C133.987 156.367 129.072 154.739 127.937 150.959L122.745 134.96C122.163 133.016 123.939 131.141 126.17 131.2C139.346 131.536 148.555 127.144 153.549 124.39C154.487 123.867 155.523 123.877 156.441 124.39Z" fill="white" style="fill:white;fill-opacity:1;"/>
<path d="M148.91 59.5801L146.42 59.76L146.02 54.2301L138.9 43.52L141.67 43.3201L147.07 51.3501L151.23 42.63L154.09 42.42L148.51 54.01L148.92 59.5901L148.91 59.5801Z" fill="white" style="fill:white;fill-opacity:1;"/>
<path d="M133.22 61.6001L135.55 60.9401L135.56 60.9301L130.98 44.8201L128.89 45.41L126.21 59.3501L116.62 48.9L114.51 49.5001L119.09 65.6101L121.42 64.9501L118.39 54.3L126.76 63.4401L127.9 63.1101L130.19 50.9501L133.22 61.6001Z" fill="white" style="fill:white;fill-opacity:1;"/>
<path d="M104.12 72.98L94.5503 70.66L93.8198 71.12L97.5601 77.09L95.4502 78.42L86.5601 64.23L88.6699 62.9L92.52 69.04L93.0898 68.6801L95.0303 58.91L97.6602 57.26L95.5103 68.53L106.99 71.1801L104.13 72.98H104.12Z" fill="white" style="fill:white;fill-opacity:1;"/>
<path d="M88.8799 83.53L90.4497 82.1101L79.1997 69.7001L77.3296 71.3901L85.5396 80.4501L70.3496 77.7201L68.7798 79.1401L80.0298 91.55L81.8799 89.8701L73.8096 80.9601L88.8799 83.53Z" fill="white" style="fill:white;fill-opacity:1;"/>
<path fill-rule="evenodd" clip-rule="evenodd" d="M75.2202 96.9601L71.2002 95.77L66.52 101.76L68.6499 105.37L66.9902 107.5L58.02 91.77L59.4502 89.9301L76.8799 94.8201L75.2202 96.9501V96.9601ZM61.3198 92.88L65.2002 99.49L68.6699 95.04L61.3198 92.88Z" fill="white" style="fill:white;fill-opacity:1;"/>
<path fill-rule="evenodd" clip-rule="evenodd" d="M63.6499 113.11L55.1201 114.78L54.0298 116.76L59.8799 119.97L58.6802 122.16L44 114.09L47.54 107.65C49.0898 104.83 51.8999 103.93 54.5498 105.38C57.0698 106.76 57.8398 109.42 56.5601 112.1L65.1499 110.38L63.6602 113.1L63.6499 113.11ZM54.2402 111.35C55.0698 109.84 54.7002 108.33 53.3398 107.58C51.96 106.82 50.4902 107.32 49.6602 108.83L47.3198 113.08L51.8999 115.6L54.2402 111.35Z" fill="white" style="fill:white;fill-opacity:1;"/>
<path fill-rule="evenodd" clip-rule="evenodd" d="M184.08 54.64C185.04 49.86 182.48 45.78 177.27 44.73V44.74L171.92 43.66L168.62 60.0801L173.97 61.15C179.18 62.2001 183.12 59.42 184.08 54.64ZM181.6 54.15C180.92 57.5601 178.17 59.53 174.44 58.78L174.43 58.77L171.53 58.1901L173.88 46.53L176.78 47.11C180.51 47.86 182.29 50.74 181.6 54.15Z" fill="white" style="fill:white;fill-opacity:1;"/>
<path d="M198.43 68.88L187.63 64.5701L193.84 49.01L204.62 53.3101L203.72 55.5601L195.25 52.1801L193.5 56.5701L201.32 59.6901L200.43 61.92L192.61 58.8L190.84 63.24L199.33 66.63L198.43 68.88Z" fill="white" style="fill:white;fill-opacity:1;"/>
<path d="M213.7 77.7301L215.5 78.8501L224.37 64.65L222.23 63.3201L215.75 73.6801L214.24 58.3201L212.44 57.2001L203.57 71.4L205.69 72.7201L212.06 62.53L213.7 77.7301Z" fill="white" style="fill:white;fill-opacity:1;"/>
<path d="M234.95 76.51L225.4 87.1899L223.52 85.51L233.07 74.83L228.99 71.1799L230.61 69.37L240.67 78.37L239.05 80.1799L234.95 76.51Z" fill="white" style="fill:white;fill-opacity:1;"/>
<path d="M245.45 83.64L232.91 94.74L234.56 96.61L247.1 85.51L245.45 83.64Z" fill="white" style="fill:white;fill-opacity:1;"/>
<path d="M255.47 103.84L253.59 102.11C254.88 100.86 255.03 99.03 253.96 97.5C252.9 95.99 251.33 95.61 250.12 96.46C249.16 97.13 249.01 98.01 249.54 99.29L250.84 102.5C251.73 104.73 251.54 106.9 249.39 108.41C246.81 110.22 243.82 109.38 241.76 106.44C239.86 103.73 239.7 100.48 242.13 98.3L244.15 100.13C242.6 101.67 242.64 103.55 243.84 105.27C245.04 106.99 246.6 107.35 247.85 106.47C248.89 105.74 249.03 104.88 248.42 103.4L247.08 100.18C246.36 98.3199 246.11 96.0499 248.55 94.34C250.97 92.65 253.9 93.36 255.89 96.2C257.71 98.7999 257.5 101.73 255.47 103.84Z" fill="white" style="fill:white;fill-opacity:1;"/>
<path d="M251.16 121.66L263.94 115.19L266.43 120.09L268.59 118.99L262.49 106.95L260.33 108.05L262.8 112.94L250.02 119.41L251.16 121.66Z" fill="white" style="fill:white;fill-opacity:1;"/>
<path d="M134.922 272.19V271.254C135.194 271.038 135.51 270.798 135.87 270.534C136.23 270.27 136.594 269.982 136.962 269.67C137.338 269.358 137.686 269.026 138.006 268.674C138.326 268.322 138.582 267.954 138.774 267.57C138.974 267.178 139.074 266.778 139.074 266.37C139.074 265.93 138.954 265.574 138.714 265.302C138.474 265.022 138.114 264.882 137.634 264.882C137.274 264.882 136.974 264.966 136.734 265.134C136.502 265.302 136.33 265.53 136.218 265.818C136.106 266.106 136.046 266.426 136.038 266.778L134.886 266.694C134.886 266.302 134.946 265.93 135.066 265.578C135.186 265.226 135.362 264.914 135.594 264.642C135.834 264.362 136.126 264.142 136.47 263.982C136.822 263.822 137.222 263.742 137.67 263.742C138.182 263.742 138.626 263.85 139.002 264.066C139.386 264.282 139.686 264.582 139.902 264.966C140.118 265.35 140.226 265.802 140.226 266.322C140.226 266.762 140.146 267.186 139.986 267.594C139.834 268.002 139.618 268.394 139.338 268.77C139.058 269.138 138.734 269.486 138.366 269.814C137.998 270.142 137.602 270.454 137.178 270.75C136.754 271.038 136.314 271.302 135.858 271.542L136.17 271.098H140.562V272.19H134.922Z" fill="white" style="fill:white;fill-opacity:1;"/>
<path d="M149.269 272.286C148.781 272.286 148.369 272.198 148.033 272.022C147.705 271.846 147.433 271.61 147.217 271.314C147.009 271.01 146.849 270.674 146.737 270.306C146.633 269.93 146.561 269.542 146.521 269.142C146.481 268.734 146.461 268.346 146.461 267.978C146.461 267.61 146.477 267.23 146.509 266.838C146.549 266.438 146.621 266.054 146.725 265.686C146.837 265.31 146.997 264.974 147.205 264.678C147.413 264.382 147.681 264.146 148.009 263.97C148.345 263.794 148.753 263.706 149.233 263.706C149.705 263.706 150.105 263.794 150.433 263.97C150.761 264.138 151.029 264.366 151.237 264.654C151.453 264.942 151.617 265.27 151.729 265.638C151.841 266.006 151.917 266.394 151.957 266.802C152.005 267.202 152.029 267.594 152.029 267.978C152.029 268.378 152.005 268.782 151.957 269.19C151.917 269.598 151.837 269.986 151.717 270.354C151.605 270.722 151.445 271.054 151.237 271.35C151.029 271.638 150.765 271.866 150.445 272.034C150.125 272.202 149.733 272.286 149.269 272.286ZM149.269 271.158C149.669 271.158 149.981 271.018 150.205 270.738C150.437 270.458 150.601 270.082 150.697 269.61C150.793 269.138 150.841 268.61 150.841 268.026C150.841 267.41 150.789 266.866 150.685 266.394C150.589 265.914 150.425 265.534 150.193 265.254C149.961 264.974 149.641 264.834 149.233 264.834C148.913 264.834 148.649 264.918 148.441 265.086C148.241 265.254 148.085 265.486 147.973 265.782C147.861 266.078 147.781 266.418 147.733 266.802C147.685 267.178 147.661 267.582 147.661 268.014C147.661 268.43 147.685 268.826 147.733 269.202C147.781 269.578 147.861 269.914 147.973 270.21C148.093 270.498 148.257 270.73 148.465 270.906C148.673 271.074 148.941 271.158 149.269 271.158Z" fill="white" style="fill:white;fill-opacity:1;"/>
<path d="M157.952 272.19V271.254C158.224 271.038 158.54 270.798 158.9 270.534C159.26 270.27 159.624 269.982 159.992 269.67C160.368 269.358 160.716 269.026 161.036 268.674C161.356 268.322 161.612 267.954 161.804 267.57C162.004 267.178 162.104 266.778 162.104 266.37C162.104 265.93 161.984 265.574 161.744 265.302C161.504 265.022 161.144 264.882 160.664 264.882C160.304 264.882 160.004 264.966 159.764 265.134C159.532 265.302 159.36 265.53 159.248 265.818C159.136 266.106 159.076 266.426 159.068 266.778L157.916 266.694C157.916 266.302 157.976 265.93 158.096 265.578C158.216 265.226 158.392 264.914 158.624 264.642C158.864 264.362 159.156 264.142 159.5 263.982C159.852 263.822 160.252 263.742 160.7 263.742C161.212 263.742 161.656 263.85 162.032 264.066C162.416 264.282 162.716 264.582 162.932 264.966C163.148 265.35 163.256 265.802 163.256 266.322C163.256 266.762 163.176 267.186 163.016 267.594C162.864 268.002 162.648 268.394 162.368 268.77C162.088 269.138 161.764 269.486 161.396 269.814C161.028 270.142 160.632 270.454 160.208 270.75C159.784 271.038 159.344 271.302 158.888 271.542L159.2 271.098H163.592V272.19H157.952Z" fill="white" style="fill:white;fill-opacity:1;"/>
<path d="M172.251 272.298C171.747 272.298 171.283 272.19 170.859 271.974C170.443 271.758 170.099 271.466 169.827 271.098C169.555 270.722 169.379 270.298 169.299 269.826L170.451 269.622C170.499 269.894 170.595 270.15 170.739 270.39C170.891 270.63 171.091 270.822 171.339 270.966C171.595 271.102 171.891 271.17 172.227 271.17C172.611 271.17 172.931 271.082 173.187 270.906C173.451 270.722 173.651 270.49 173.787 270.21C173.923 269.922 173.991 269.618 173.991 269.298C173.991 268.994 173.927 268.714 173.799 268.458C173.671 268.202 173.479 267.998 173.223 267.846C172.975 267.686 172.663 267.606 172.287 267.606C171.943 267.606 171.635 267.686 171.363 267.846C171.099 267.998 170.875 268.21 170.691 268.482L169.551 268.182L170.343 263.826H174.855V264.918H170.775L171.399 264.426L170.835 267.522L170.487 267.438C170.799 267.078 171.123 266.834 171.459 266.706C171.803 266.57 172.135 266.502 172.455 266.502C172.999 266.502 173.479 266.63 173.895 266.886C174.319 267.142 174.647 267.482 174.879 267.906C175.111 268.33 175.227 268.794 175.227 269.298C175.227 269.698 175.155 270.078 175.011 270.438C174.867 270.798 174.659 271.118 174.387 271.398C174.123 271.678 173.807 271.898 173.439 272.058C173.079 272.218 172.683 272.298 172.251 272.298Z" fill="white" style="fill:white;fill-opacity:1;"/>
<path d="M41 147.61L42.8887 152.721L48 154.61L42.8887 156.499L41 161.61L39.1113 156.499L34 154.61L39.1113 152.721L41 147.61Z" fill="white" style="fill:white;fill-opacity:1;"/>
<path d="M269 147.61L270.889 152.721L276 154.61L270.889 156.499L269 161.61L267.111 156.499L262 154.61L267.111 152.721L269 147.61Z" fill="white" style="fill:white;fill-opacity:1;"/>
<path fill-rule="evenodd" clip-rule="evenodd" d="M265 178H45V177H265V178Z" fill="white" style="fill:white;fill-opacity:1;"/>
<path d="M74.4924 215.325C72.6591 215.325 71.1591 214.85 69.9924 213.9C68.8424 212.95 68.1341 211.683 67.8674 210.1L70.6924 209.4C70.8757 210.5 71.3091 211.333 71.9924 211.9C72.6924 212.467 73.5507 212.75 74.5674 212.75C75.1341 212.75 75.6424 212.65 76.0924 212.45C76.5424 212.233 76.8924 211.933 77.1424 211.55C77.4091 211.167 77.5424 210.733 77.5424 210.25C77.5424 209.733 77.4007 209.308 77.1174 208.975C76.8341 208.625 76.4257 208.317 75.8924 208.05C75.3591 207.767 74.7091 207.475 73.9424 207.175C72.8924 206.775 72.0007 206.342 71.2674 205.875C70.5341 205.408 69.9757 204.858 69.5924 204.225C69.2091 203.575 69.0174 202.808 69.0174 201.925C69.0174 201.008 69.2424 200.2 69.6924 199.5C70.1424 198.783 70.7757 198.225 71.5924 197.825C72.4091 197.425 73.3507 197.225 74.4174 197.225C75.5674 197.225 76.5841 197.483 77.4674 198C78.3507 198.517 79.0591 199.3 79.5924 200.35L77.2924 201.75C76.9424 201.117 76.5174 200.633 76.0174 200.3C75.5174 199.95 74.9507 199.775 74.3174 199.775C73.8674 199.775 73.4591 199.867 73.0924 200.05C72.7257 200.217 72.4341 200.458 72.2174 200.775C72.0174 201.092 71.9174 201.458 71.9174 201.875C71.9174 202.308 72.0424 202.692 72.2924 203.025C72.5424 203.342 72.9257 203.633 73.4424 203.9C73.9757 204.167 74.6507 204.458 75.4674 204.775C76.5174 205.175 77.4091 205.608 78.1424 206.075C78.8757 206.542 79.4341 207.1 79.8174 207.75C80.2174 208.383 80.4174 209.158 80.4174 210.075C80.4174 211.092 80.1674 211.992 79.6674 212.775C79.1674 213.558 78.4674 214.183 77.5674 214.65C76.6841 215.1 75.6591 215.325 74.4924 215.325ZM85.4991 215.225C84.6991 215.225 84.0324 214.983 83.4991 214.5C82.9657 214 82.6991 213.208 82.6991 212.125V197.575H85.4741V211.575C85.4741 211.958 85.5574 212.242 85.7241 212.425C85.9074 212.592 86.1407 212.675 86.4241 212.675C86.5741 212.675 86.7241 212.658 86.8741 212.625C87.0407 212.592 87.2074 212.55 87.3741 212.5V214.85C87.0574 214.983 86.7324 215.075 86.3991 215.125C86.0657 215.192 85.7657 215.225 85.4991 215.225ZM94.76 215.225C93.7267 215.225 92.8267 215.058 92.06 214.725C91.31 214.392 90.6933 213.925 90.21 213.325C89.7267 212.725 89.3683 212.05 89.135 211.3C88.9017 210.533 88.785 209.742 88.785 208.925C88.785 208.108 88.8933 207.317 89.11 206.55C89.3433 205.767 89.6933 205.067 90.16 204.45C90.6267 203.833 91.2267 203.35 91.96 203C92.6933 202.633 93.56 202.45 94.56 202.45C95.51 202.45 96.335 202.617 97.035 202.95C97.7517 203.267 98.3433 203.717 98.81 204.3C99.2767 204.867 99.6183 205.517 99.835 206.25C100.068 206.983 100.185 207.767 100.185 208.6C100.185 208.717 100.177 208.883 100.16 209.1C100.16 209.317 100.143 209.533 100.11 209.75H91.56C91.6267 210.733 91.96 211.483 92.56 212C93.16 212.517 93.9267 212.775 94.86 212.775C95.5433 212.775 96.1683 212.667 96.735 212.45C97.3017 212.233 97.8183 211.892 98.285 211.425L99.81 213.275C99.2933 213.742 98.7767 214.117 98.26 214.4C97.7433 214.683 97.2017 214.892 96.635 215.025C96.085 215.158 95.46 215.225 94.76 215.225ZM97.46 208.35C97.4933 208.217 97.51 208.083 97.51 207.95C97.5267 207.817 97.535 207.683 97.535 207.55C97.535 207.183 97.4683 206.833 97.335 206.5C97.2183 206.167 97.035 205.875 96.785 205.625C96.535 205.358 96.2267 205.15 95.86 205C95.4933 204.833 95.0767 204.75 94.61 204.75C93.96 204.75 93.41 204.892 92.96 205.175C92.5267 205.458 92.185 205.825 91.935 206.275C91.7017 206.708 91.56 207.183 91.51 207.7H98.36L97.46 208.35ZM108.035 215.225C107.002 215.225 106.102 215.058 105.335 214.725C104.585 214.392 103.969 213.925 103.485 213.325C103.002 212.725 102.644 212.05 102.41 211.3C102.177 210.533 102.06 209.742 102.06 208.925C102.06 208.108 102.169 207.317 102.385 206.55C102.619 205.767 102.969 205.067 103.435 204.45C103.902 203.833 104.502 203.35 105.235 203C105.969 202.633 106.835 202.45 107.835 202.45C108.785 202.45 109.61 202.617 110.31 202.95C111.027 203.267 111.619 203.717 112.085 204.3C112.552 204.867 112.894 205.517 113.11 206.25C113.344 206.983 113.46 207.767 113.46 208.6C113.46 208.717 113.452 208.883 113.435 209.1C113.435 209.317 113.419 209.533 113.385 209.75H104.835C104.902 210.733 105.235 211.483 105.835 212C106.435 212.517 107.202 212.775 108.135 212.775C108.819 212.775 109.444 212.667 110.01 212.45C110.577 212.233 111.094 211.892 111.56 211.425L113.085 213.275C112.569 213.742 112.052 214.117 111.535 214.4C111.019 214.683 110.477 214.892 109.91 215.025C109.36 215.158 108.735 215.225 108.035 215.225ZM110.735 208.35C110.769 208.217 110.785 208.083 110.785 207.95C110.802 207.817 110.81 207.683 110.81 207.55C110.81 207.183 110.744 206.833 110.61 206.5C110.494 206.167 110.31 205.875 110.06 205.625C109.81 205.358 109.502 205.15 109.135 205C108.769 204.833 108.352 204.75 107.885 204.75C107.235 204.75 106.685 204.892 106.235 205.175C105.802 205.458 105.46 205.825 105.21 206.275C104.977 206.708 104.835 207.183 104.785 207.7H111.635L110.735 208.35ZM115.911 220.1V202.675H118.661V206.1L117.961 206.125C118.177 205.225 118.494 204.508 118.911 203.975C119.344 203.442 119.852 203.058 120.436 202.825C121.036 202.575 121.669 202.45 122.336 202.45C123.436 202.45 124.386 202.733 125.186 203.3C125.986 203.85 126.602 204.608 127.036 205.575C127.486 206.542 127.711 207.633 127.711 208.85C127.711 210.167 127.469 211.308 126.986 212.275C126.502 213.225 125.852 213.958 125.036 214.475C124.236 214.975 123.336 215.225 122.336 215.225C121.636 215.225 120.986 215.092 120.386 214.825C119.802 214.558 119.302 214.158 118.886 213.625C118.486 213.092 118.202 212.442 118.036 211.675L118.661 211.55V220.1H115.911ZM121.661 212.7C122.311 212.7 122.877 212.542 123.361 212.225C123.861 211.908 124.244 211.458 124.511 210.875C124.777 210.292 124.911 209.617 124.911 208.85C124.911 208.083 124.777 207.408 124.511 206.825C124.244 206.242 123.861 205.792 123.361 205.475C122.877 205.158 122.311 205 121.661 205C121.011 205 120.436 205.158 119.936 205.475C119.452 205.792 119.077 206.242 118.811 206.825C118.544 207.408 118.411 208.083 118.411 208.85C118.411 209.617 118.544 210.292 118.811 210.875C119.077 211.442 119.452 211.892 119.936 212.225C120.436 212.542 121.011 212.7 121.661 212.7ZM136.532 215V197.575H141.532C144.399 197.575 146.624 198.35 148.207 199.9C149.791 201.433 150.582 203.608 150.582 206.425C150.582 209.192 149.799 211.317 148.232 212.8C146.682 214.267 144.441 215 141.507 215H136.532ZM139.432 212.35H141.232C142.582 212.35 143.741 212.167 144.707 211.8C145.674 211.417 146.407 210.783 146.907 209.9C147.407 209.017 147.657 207.825 147.657 206.325C147.657 204.825 147.407 203.633 146.907 202.75C146.424 201.85 145.716 201.208 144.782 200.825C143.866 200.425 142.766 200.225 141.482 200.225H139.432V212.35ZM158.427 215.225C157.394 215.225 156.494 215.058 155.727 214.725C154.977 214.392 154.36 213.925 153.877 213.325C153.394 212.725 153.035 212.05 152.802 211.3C152.569 210.533 152.452 209.742 152.452 208.925C152.452 208.108 152.56 207.317 152.777 206.55C153.01 205.767 153.36 205.067 153.827 204.45C154.294 203.833 154.894 203.35 155.627 203C156.36 202.633 157.227 202.45 158.227 202.45C159.177 202.45 160.002 202.617 160.702 202.95C161.419 203.267 162.01 203.717 162.477 204.3C162.944 204.867 163.285 205.517 163.502 206.25C163.735 206.983 163.852 207.767 163.852 208.6C163.852 208.717 163.844 208.883 163.827 209.1C163.827 209.317 163.81 209.533 163.777 209.75H155.227C155.294 210.733 155.627 211.483 156.227 212C156.827 212.517 157.594 212.775 158.527 212.775C159.21 212.775 159.835 212.667 160.402 212.45C160.969 212.233 161.485 211.892 161.952 211.425L163.477 213.275C162.96 213.742 162.444 214.117 161.927 214.4C161.41 214.683 160.869 214.892 160.302 215.025C159.752 215.158 159.127 215.225 158.427 215.225ZM161.127 208.35C161.16 208.217 161.177 208.083 161.177 207.95C161.194 207.817 161.202 207.683 161.202 207.55C161.202 207.183 161.135 206.833 161.002 206.5C160.885 206.167 160.702 205.875 160.452 205.625C160.202 205.358 159.894 205.15 159.527 205C159.16 204.833 158.744 204.75 158.277 204.75C157.627 204.75 157.077 204.892 156.627 205.175C156.194 205.458 155.852 205.825 155.602 206.275C155.369 206.708 155.227 207.183 155.177 207.7H162.027L161.127 208.35ZM166.302 215V202.675H169.077V205.4L168.577 205.525C168.794 204.808 169.111 204.225 169.527 203.775C169.944 203.325 170.427 202.992 170.977 202.775C171.544 202.558 172.136 202.45 172.752 202.45C174.136 202.45 175.211 202.85 175.977 203.65C176.761 204.433 177.152 205.558 177.152 207.025V215H174.377V208.05C174.377 206.95 174.177 206.142 173.777 205.625C173.377 205.108 172.761 204.85 171.927 204.85C171.311 204.85 170.786 205 170.352 205.3C169.936 205.583 169.619 206.033 169.402 206.65C169.186 207.267 169.077 208.05 169.077 209V215H166.302ZM184.492 215.225C183.876 215.225 183.292 215.108 182.742 214.875C182.209 214.625 181.784 214.233 181.467 213.7C181.151 213.15 180.992 212.433 180.992 211.55V199.675L183.792 198.125V210.775C183.792 211.475 183.892 212.017 184.092 212.4C184.309 212.767 184.692 212.95 185.242 212.95C185.409 212.95 185.601 212.933 185.817 212.9C186.051 212.85 186.292 212.792 186.542 212.725V214.875C186.209 214.992 185.867 215.075 185.517 215.125C185.184 215.192 184.842 215.225 184.492 215.225ZM178.642 204.825V202.675H186.542V204.825H178.642ZM188.751 215V202.675H191.526V215H188.751ZM188.626 200.65V197.575H191.651V200.65H188.626ZM198.707 215.225C197.824 215.225 197.041 215.1 196.357 214.85C195.674 214.583 195.099 214.25 194.632 213.85C194.166 213.45 193.782 213.05 193.482 212.65L195.382 211C195.699 211.517 196.132 211.975 196.682 212.375C197.249 212.775 197.932 212.975 198.732 212.975C199.399 212.975 199.924 212.833 200.307 212.55C200.707 212.267 200.907 211.917 200.907 211.5C200.907 211.133 200.782 210.85 200.532 210.65C200.282 210.433 199.957 210.25 199.557 210.1C199.157 209.95 198.716 209.817 198.232 209.7C197.766 209.583 197.291 209.442 196.807 209.275C196.324 209.092 195.874 208.867 195.457 208.6C195.057 208.333 194.732 207.992 194.482 207.575C194.232 207.158 194.107 206.642 194.107 206.025C194.107 204.942 194.524 204.075 195.357 203.425C196.191 202.775 197.282 202.45 198.632 202.45C199.599 202.45 200.482 202.642 201.282 203.025C202.082 203.408 202.707 203.983 203.157 204.75L201.432 206.075C201.099 205.575 200.682 205.2 200.182 204.95C199.682 204.7 199.141 204.575 198.557 204.575C198.024 204.575 197.574 204.683 197.207 204.9C196.857 205.117 196.682 205.4 196.682 205.75C196.682 206.017 196.766 206.233 196.932 206.4C197.099 206.567 197.357 206.717 197.707 206.85C198.057 206.983 198.499 207.117 199.032 207.25C199.532 207.367 200.049 207.508 200.582 207.675C201.116 207.842 201.607 208.067 202.057 208.35C202.524 208.617 202.899 208.983 203.182 209.45C203.482 209.9 203.632 210.483 203.632 211.2C203.632 212 203.424 212.708 203.007 213.325C202.607 213.925 202.032 214.392 201.282 214.725C200.549 215.058 199.691 215.225 198.707 215.225ZM210.5 215.225C209.883 215.225 209.3 215.108 208.75 214.875C208.217 214.625 207.792 214.233 207.475 213.7C207.158 213.15 207 212.433 207 211.55V199.675L209.8 198.125V210.775C209.8 211.475 209.9 212.017 210.1 212.4C210.317 212.767 210.7 212.95 211.25 212.95C211.417 212.95 211.608 212.933 211.825 212.9C212.058 212.85 212.3 212.792 212.55 212.725V214.875C212.217 214.992 211.875 215.075 211.525 215.125C211.192 215.192 210.85 215.225 210.5 215.225ZM204.65 204.825V202.675H212.55V204.825H204.65ZM214.784 215V202.675H217.584V206L217.059 206.075C217.142 205.358 217.384 204.733 217.784 204.2C218.184 203.65 218.667 203.225 219.234 202.925C219.817 202.608 220.392 202.45 220.959 202.45C221.359 202.45 221.742 202.5 222.109 202.6C222.475 202.7 222.859 202.867 223.259 203.1L221.909 205.6C221.725 205.483 221.484 205.392 221.184 205.325C220.9 205.242 220.625 205.2 220.359 205.2C220.009 205.2 219.659 205.267 219.309 205.4C218.975 205.533 218.675 205.742 218.409 206.025C218.142 206.292 217.942 206.642 217.809 207.075C217.725 207.308 217.659 207.617 217.609 208C217.575 208.367 217.559 208.883 217.559 209.55V215H214.784ZM226.107 220.075L228.557 214.175L223.857 202.675H226.907L230.032 211.4L233.207 202.675H236.207L229.107 220.075H226.107ZM119.777 245L126.677 227.575H128.877L135.752 245H132.602L127.777 231.8L122.952 245H119.777ZM124.077 241.35L124.977 238.775H130.552L131.502 241.35H124.077ZM138.859 245L135.109 232.675H138.059L140.259 240.75L142.759 232.675H145.134L147.634 240.7L149.859 232.675H152.809L149.034 245H146.534L143.959 236.6L141.384 245H138.859ZM162.683 245L162.483 242.925V237.225C162.483 236.425 162.241 235.825 161.758 235.425C161.275 235.008 160.6 234.8 159.733 234.8C159.066 234.8 158.408 234.933 157.758 235.2C157.125 235.45 156.541 235.842 156.008 236.375L154.458 234.55C155.258 233.8 156.108 233.267 157.008 232.95C157.908 232.617 158.891 232.45 159.958 232.45C161.625 232.45 162.916 232.875 163.833 233.725C164.766 234.558 165.233 235.725 165.233 237.225V245H162.683ZM158.858 245.225C157.941 245.225 157.125 245.058 156.408 244.725C155.708 244.392 155.158 243.925 154.758 243.325C154.375 242.725 154.183 242.025 154.183 241.225C154.183 240.542 154.325 239.95 154.608 239.45C154.908 238.95 155.291 238.558 155.758 238.275C156.158 238.025 156.625 237.85 157.158 237.75C157.691 237.633 158.25 237.575 158.833 237.575H162.708V239.65H159.233C158.933 239.65 158.633 239.683 158.333 239.75C158.033 239.8 157.766 239.9 157.533 240.05C157.366 240.183 157.225 240.35 157.108 240.55C157.008 240.75 156.958 240.983 156.958 241.25C156.958 241.783 157.158 242.208 157.558 242.525C157.975 242.825 158.525 242.975 159.208 242.975C159.808 242.975 160.35 242.842 160.833 242.575C161.333 242.308 161.733 241.942 162.033 241.475C162.333 241.008 162.483 240.483 162.483 239.9L163.333 241.275C163.133 242.142 162.816 242.875 162.383 243.475C161.95 244.058 161.433 244.5 160.833 244.8C160.233 245.083 159.575 245.225 158.858 245.225ZM168.082 245V232.675H170.882V236L170.357 236.075C170.44 235.358 170.682 234.733 171.082 234.2C171.482 233.65 171.965 233.225 172.532 232.925C173.115 232.608 173.69 232.45 174.257 232.45C174.657 232.45 175.04 232.5 175.407 232.6C175.773 232.7 176.157 232.867 176.557 233.1L175.207 235.6C175.023 235.483 174.782 235.392 174.482 235.325C174.198 235.242 173.923 235.2 173.657 235.2C173.307 235.2 172.957 235.267 172.607 235.4C172.273 235.533 171.973 235.742 171.707 236.025C171.44 236.292 171.24 236.642 171.107 237.075C171.023 237.308 170.957 237.617 170.907 238C170.873 238.367 170.857 238.883 170.857 239.55V245H168.082ZM182.446 245.225C181.346 245.225 180.388 244.95 179.571 244.4C178.771 243.833 178.154 243.067 177.721 242.1C177.288 241.133 177.071 240.042 177.071 238.825C177.071 237.492 177.304 236.35 177.771 235.4C178.254 234.45 178.904 233.725 179.721 233.225C180.538 232.708 181.446 232.45 182.446 232.45C183.146 232.45 183.788 232.592 184.371 232.875C184.971 233.158 185.471 233.575 185.871 234.125C186.288 234.658 186.579 235.317 186.746 236.1L186.096 236.125V227.575H188.871V245H186.096V241.575L186.846 241.4C186.629 242.3 186.296 243.033 185.846 243.6C185.413 244.15 184.904 244.558 184.321 244.825C183.738 245.092 183.113 245.225 182.446 245.225ZM183.121 242.675C183.771 242.675 184.338 242.517 184.821 242.2C185.304 241.883 185.679 241.433 185.946 240.85C186.213 240.267 186.346 239.592 186.346 238.825C186.346 238.058 186.213 237.392 185.946 236.825C185.679 236.242 185.304 235.792 184.821 235.475C184.338 235.142 183.771 234.975 183.121 234.975C182.471 234.975 181.896 235.133 181.396 235.45C180.913 235.767 180.529 236.217 180.246 236.8C179.979 237.383 179.846 238.058 179.846 238.825C179.846 239.592 179.979 240.267 180.246 240.85C180.529 241.433 180.913 241.883 181.396 242.2C181.896 242.517 182.471 242.675 183.121 242.675Z" fill="white" style="fill:white;fill-opacity:1;"/>
</svg>
