<svg width="310" height="310" viewBox="0 0 310 310" fill="none" xmlns="http://www.w3.org/2000/svg">
<path d="M147.651 1.92236C152.217 -0.640785 157.783 -0.640785 162.349 1.92236L188.281 16.4702C190.473 17.7017 192.937 18.3625 195.44 18.3925L225.166 18.763C230.402 18.8231 235.218 21.6065 237.892 26.112L253.08 51.6733C254.362 53.836 256.164 55.6382 258.327 56.9198L283.888 72.1084C288.384 74.7817 291.167 79.5976 291.237 84.834L291.607 114.56C291.638 117.074 292.298 119.537 293.53 121.719L308.078 147.651C310.641 152.217 310.641 157.783 308.078 162.349L293.53 188.281C292.298 190.473 291.638 192.936 291.607 195.44L291.237 225.166C291.167 230.402 288.384 235.218 283.888 237.892L258.327 253.08C256.174 254.362 254.362 256.164 253.08 258.327L237.892 283.888C235.218 288.383 230.392 291.167 225.166 291.237L195.44 291.607C192.927 291.637 190.463 292.298 188.281 293.53L162.349 308.078C157.783 310.641 152.217 310.641 147.651 308.078L121.719 293.53C119.527 292.298 117.064 291.637 114.56 291.607L84.834 291.237C79.5976 291.167 74.7817 288.383 72.1084 283.888L56.9198 258.327C55.6382 256.174 53.836 254.362 51.6733 253.08L26.112 237.892C21.6165 235.218 18.8331 230.392 18.763 225.166L18.3925 195.44C18.3625 192.926 17.7017 190.463 16.4702 188.281L1.92236 162.349C-0.640786 157.783 -0.640786 152.217 1.92236 147.651L16.4702 121.719C17.7017 119.527 18.3625 117.063 18.3925 114.56L18.763 84.834C18.8231 79.5976 21.6065 74.7817 26.112 72.1084L51.6733 56.9198C53.836 55.6382 55.6382 53.836 56.9198 51.6733L72.1084 26.112C74.7817 21.6165 79.5976 18.8331 84.834 18.763L114.56 18.3925C117.074 18.3625 119.537 17.7017 121.719 16.4702L147.651 1.92236Z" fill="#227DF5" style="fill:#227DF5;fill:color(display-p3 0.1333 0.4919 0.9608);fill-opacity:1;"/>
<path d="M155 300C152.474 300 149.958 299.373 147.7 298.1L124.03 284.823C121.862 283.61 119.405 282.944 116.919 282.914L89.7776 282.576C84.6159 282.516 79.7725 279.712 77.1369 275.276L63.2729 251.934C61.9999 249.796 60.1998 247.996 58.0615 246.723L34.7195 232.859C30.2838 230.224 27.4891 225.38 27.4195 220.219L27.0813 193.078C27.0515 190.592 26.3951 188.135 25.1718 185.967L11.8946 162.297C9.36846 157.792 9.36846 152.203 11.8946 147.698L25.1718 124.028C26.3852 121.86 27.0515 119.403 27.0813 116.917L27.4195 89.7762C27.4792 84.6146 30.2838 79.7713 34.7195 77.1357L58.0615 63.272C60.1998 61.999 61.9999 60.1989 63.2729 58.0607L77.1369 34.719C79.7725 30.2834 84.6159 27.4888 89.7776 27.4192L116.919 27.0811C119.405 27.0512 121.862 26.3948 124.03 25.1716L147.7 11.8946C152.205 9.36847 157.795 9.36847 162.3 11.8946L185.97 25.1716C188.138 26.3849 190.595 27.0512 193.081 27.0811L220.222 27.4192C225.384 27.4789 230.228 30.2834 232.863 34.719L246.727 58.0607C248 60.1989 249.8 61.999 251.939 63.272L275.281 77.1357C279.716 79.7713 282.511 84.6146 282.58 89.7762L282.919 116.917C282.949 119.403 283.605 121.86 284.828 124.028L298.105 147.698C300.632 152.203 300.632 157.792 298.105 162.297L284.828 185.967C283.615 188.135 282.958 190.592 282.919 193.078L282.58 220.219C282.521 225.38 279.716 230.224 275.281 232.859L251.939 246.723C249.8 247.996 248 249.796 246.727 251.934L232.863 275.276C230.228 279.712 225.384 282.506 220.222 282.576L193.081 282.914C190.595 282.944 188.138 283.6 185.97 284.823L162.3 298.1C160.052 299.363 157.526 300 155 300ZM155 12.004C152.812 12.004 150.624 12.551 148.675 13.645L125.004 26.9219C122.548 28.3043 119.763 29.0502 116.939 29.0801L89.7975 29.4182C85.322 29.4779 81.125 31.8946 78.8376 35.7434L64.9736 59.085C63.5315 61.5117 61.4927 63.5505 59.0759 64.9826L35.7339 78.8463C31.885 81.1338 29.4683 85.3307 29.4086 89.8061L29.0704 116.947C29.0406 119.761 28.2848 122.556 26.9123 125.012L13.6351 148.682C11.4471 152.581 11.4471 157.434 13.6351 161.333L26.9123 185.003C28.2947 187.459 29.0406 190.254 29.0704 193.068L29.4086 220.209C29.4683 224.684 31.885 228.881 35.7339 231.169L59.0759 245.032C61.5026 246.474 63.5414 248.513 64.9736 250.93L78.8376 274.272C81.125 278.12 85.322 280.537 89.7975 280.597L116.939 280.935C119.753 280.965 122.538 281.721 125.004 283.093L148.675 296.37C152.573 298.558 157.427 298.558 161.325 296.37L184.996 283.093C187.452 281.711 190.247 280.965 193.061 280.935L220.202 280.597C224.678 280.537 228.875 278.12 231.162 274.272L245.026 250.93C246.469 248.503 248.507 246.464 250.924 245.032L274.266 231.169C278.115 228.881 280.532 224.684 280.591 220.209L280.93 193.068C280.969 190.254 281.715 187.459 283.088 185.003L296.365 161.333C298.553 157.434 298.553 152.581 296.365 148.682L283.088 125.012C281.705 122.556 280.959 119.771 280.93 116.947L280.591 89.8061C280.532 85.3307 278.115 81.1338 274.266 78.8463L250.924 64.9826C248.497 63.5405 246.459 61.5017 245.026 59.085L231.162 35.7434C228.875 31.8946 224.678 29.4779 220.202 29.4182L193.061 29.0801C190.247 29.0403 187.462 28.2944 184.996 26.9219L161.325 13.645C159.376 12.551 157.188 12.004 155 12.004Z" fill="white" style="fill:white;fill-opacity:1;"/>
<path d="M177.276 99.6776L191.134 96.5392H191.144C194.638 95.7497 197.776 98.6512 196.829 101.8L192.21 117.146C191.588 119.209 189.762 120.808 187.423 121.064C175.5 122.357 164.179 118.834 155 112.014C145.821 118.834 134.5 122.357 122.577 121.064C120.238 120.808 118.412 119.199 117.79 117.146L113.171 101.8C112.224 98.6512 115.362 95.7497 118.856 96.5392L132.714 99.6776C134.855 100.161 137.116 99.5888 138.675 98.1775L151.664 86.4034C153.51 84.7355 156.49 84.7355 158.326 86.4034L171.315 98.1775C172.874 99.5987 175.135 100.161 177.276 99.6776Z" fill="white" style="fill:white;fill-opacity:1;"/>
<path d="M156.441 124.39C161.426 127.144 170.644 131.536 183.82 131.2C186.051 131.141 187.828 133.016 187.245 134.96L182.064 150.959C180.929 154.739 176.378 156.367 172.815 154.146L157.655 144.702C156.056 143.705 153.934 143.705 152.325 144.702L137.55 154.146C133.987 156.367 129.072 154.739 127.937 150.959L122.745 134.96C122.163 133.016 123.939 131.141 126.17 131.2C139.346 131.536 148.555 127.144 153.549 124.39C154.487 123.867 155.523 123.877 156.441 124.39Z" fill="white" style="fill:white;fill-opacity:1;"/>
<path d="M148.91 59.5801L146.42 59.76L146.02 54.2301L138.9 43.52L141.67 43.3201L147.07 51.3501L151.23 42.63L154.09 42.42L148.51 54.01L148.92 59.5901L148.91 59.5801Z" fill="white" style="fill:white;fill-opacity:1;"/>
<path d="M133.22 61.6001L135.55 60.9401L135.56 60.9301L130.98 44.8201L128.89 45.41L126.21 59.3501L116.62 48.9L114.51 49.5001L119.09 65.6101L121.42 64.9501L118.39 54.3L126.76 63.4401L127.9 63.1101L130.19 50.9501L133.22 61.6001Z" fill="white" style="fill:white;fill-opacity:1;"/>
<path d="M104.12 72.98L94.5503 70.66L93.8198 71.12L97.5601 77.09L95.4502 78.42L86.5601 64.23L88.6699 62.9L92.52 69.04L93.0898 68.6801L95.0303 58.91L97.6602 57.26L95.5103 68.53L106.99 71.1801L104.13 72.98H104.12Z" fill="white" style="fill:white;fill-opacity:1;"/>
<path d="M88.8799 83.53L90.4497 82.1101L79.1997 69.7001L77.3296 71.3901L85.5396 80.4501L70.3496 77.7201L68.7798 79.1401L80.0298 91.55L81.8799 89.8701L73.8096 80.9601L88.8799 83.53Z" fill="white" style="fill:white;fill-opacity:1;"/>
<path fill-rule="evenodd" clip-rule="evenodd" d="M75.2202 96.9601L71.2002 95.77L66.52 101.76L68.6499 105.37L66.9902 107.5L58.02 91.77L59.4502 89.9301L76.8799 94.8201L75.2202 96.9501V96.9601ZM61.3198 92.88L65.2002 99.49L68.6699 95.04L61.3198 92.88Z" fill="white" style="fill:white;fill-opacity:1;"/>
<path fill-rule="evenodd" clip-rule="evenodd" d="M63.6499 113.11L55.1201 114.78L54.0298 116.76L59.8799 119.97L58.6802 122.16L44 114.09L47.54 107.65C49.0898 104.83 51.8999 103.93 54.5498 105.38C57.0698 106.76 57.8398 109.42 56.5601 112.1L65.1499 110.38L63.6602 113.1L63.6499 113.11ZM54.2402 111.35C55.0698 109.84 54.7002 108.33 53.3398 107.58C51.96 106.82 50.4902 107.32 49.6602 108.83L47.3198 113.08L51.8999 115.6L54.2402 111.35Z" fill="white" style="fill:white;fill-opacity:1;"/>
<path fill-rule="evenodd" clip-rule="evenodd" d="M184.08 54.64C185.04 49.86 182.48 45.78 177.27 44.73V44.74L171.92 43.66L168.62 60.0801L173.97 61.15C179.18 62.2001 183.12 59.42 184.08 54.64ZM181.6 54.15C180.92 57.5601 178.17 59.53 174.44 58.78L174.43 58.77L171.53 58.1901L173.88 46.53L176.78 47.11C180.51 47.86 182.29 50.74 181.6 54.15Z" fill="white" style="fill:white;fill-opacity:1;"/>
<path d="M198.43 68.88L187.63 64.5701L193.84 49.01L204.62 53.3101L203.72 55.5601L195.25 52.1801L193.5 56.5701L201.32 59.6901L200.43 61.92L192.61 58.8L190.84 63.24L199.33 66.63L198.43 68.88Z" fill="white" style="fill:white;fill-opacity:1;"/>
<path d="M213.7 77.7301L215.5 78.8501L224.37 64.65L222.23 63.3201L215.75 73.6801L214.24 58.3201L212.44 57.2001L203.57 71.4L205.69 72.7201L212.06 62.53L213.7 77.7301Z" fill="white" style="fill:white;fill-opacity:1;"/>
<path d="M234.95 76.51L225.4 87.1899L223.52 85.51L233.07 74.83L228.99 71.1799L230.61 69.37L240.67 78.37L239.05 80.1799L234.95 76.51Z" fill="white" style="fill:white;fill-opacity:1;"/>
<path d="M245.45 83.64L232.91 94.74L234.56 96.61L247.1 85.51L245.45 83.64Z" fill="white" style="fill:white;fill-opacity:1;"/>
<path d="M255.47 103.84L253.59 102.11C254.88 100.86 255.03 99.03 253.96 97.5C252.9 95.99 251.33 95.61 250.12 96.46C249.16 97.13 249.01 98.01 249.54 99.29L250.84 102.5C251.73 104.73 251.54 106.9 249.39 108.41C246.81 110.22 243.82 109.38 241.76 106.44C239.86 103.73 239.7 100.48 242.13 98.3L244.15 100.13C242.6 101.67 242.64 103.55 243.84 105.27C245.04 106.99 246.6 107.35 247.85 106.47C248.89 105.74 249.03 104.88 248.42 103.4L247.08 100.18C246.36 98.3199 246.11 96.0499 248.55 94.34C250.97 92.65 253.9 93.36 255.89 96.2C257.71 98.7999 257.5 101.73 255.47 103.84Z" fill="white" style="fill:white;fill-opacity:1;"/>
<path d="M251.16 121.66L263.94 115.19L266.43 120.09L268.59 118.99L262.49 106.95L260.33 108.05L262.8 112.94L250.02 119.41L251.16 121.66Z" fill="white" style="fill:white;fill-opacity:1;"/>
<path d="M134.922 272.19V271.254C135.194 271.038 135.51 270.798 135.87 270.534C136.23 270.27 136.594 269.982 136.962 269.67C137.338 269.358 137.686 269.026 138.006 268.674C138.326 268.322 138.582 267.954 138.774 267.57C138.974 267.178 139.074 266.778 139.074 266.37C139.074 265.93 138.954 265.574 138.714 265.302C138.474 265.022 138.114 264.882 137.634 264.882C137.274 264.882 136.974 264.966 136.734 265.134C136.502 265.302 136.33 265.53 136.218 265.818C136.106 266.106 136.046 266.426 136.038 266.778L134.886 266.694C134.886 266.302 134.946 265.93 135.066 265.578C135.186 265.226 135.362 264.914 135.594 264.642C135.834 264.362 136.126 264.142 136.47 263.982C136.822 263.822 137.222 263.742 137.67 263.742C138.182 263.742 138.626 263.85 139.002 264.066C139.386 264.282 139.686 264.582 139.902 264.966C140.118 265.35 140.226 265.802 140.226 266.322C140.226 266.762 140.146 267.186 139.986 267.594C139.834 268.002 139.618 268.394 139.338 268.77C139.058 269.138 138.734 269.486 138.366 269.814C137.998 270.142 137.602 270.454 137.178 270.75C136.754 271.038 136.314 271.302 135.858 271.542L136.17 271.098H140.562V272.19H134.922Z" fill="white" style="fill:white;fill-opacity:1;"/>
<path d="M149.269 272.286C148.781 272.286 148.369 272.198 148.033 272.022C147.705 271.846 147.433 271.61 147.217 271.314C147.009 271.01 146.849 270.674 146.737 270.306C146.633 269.93 146.561 269.542 146.521 269.142C146.481 268.734 146.461 268.346 146.461 267.978C146.461 267.61 146.477 267.23 146.509 266.838C146.549 266.438 146.621 266.054 146.725 265.686C146.837 265.31 146.997 264.974 147.205 264.678C147.413 264.382 147.681 264.146 148.009 263.97C148.345 263.794 148.753 263.706 149.233 263.706C149.705 263.706 150.105 263.794 150.433 263.97C150.761 264.138 151.029 264.366 151.237 264.654C151.453 264.942 151.617 265.27 151.729 265.638C151.841 266.006 151.917 266.394 151.957 266.802C152.005 267.202 152.029 267.594 152.029 267.978C152.029 268.378 152.005 268.782 151.957 269.19C151.917 269.598 151.837 269.986 151.717 270.354C151.605 270.722 151.445 271.054 151.237 271.35C151.029 271.638 150.765 271.866 150.445 272.034C150.125 272.202 149.733 272.286 149.269 272.286ZM149.269 271.158C149.669 271.158 149.981 271.018 150.205 270.738C150.437 270.458 150.601 270.082 150.697 269.61C150.793 269.138 150.841 268.61 150.841 268.026C150.841 267.41 150.789 266.866 150.685 266.394C150.589 265.914 150.425 265.534 150.193 265.254C149.961 264.974 149.641 264.834 149.233 264.834C148.913 264.834 148.649 264.918 148.441 265.086C148.241 265.254 148.085 265.486 147.973 265.782C147.861 266.078 147.781 266.418 147.733 266.802C147.685 267.178 147.661 267.582 147.661 268.014C147.661 268.43 147.685 268.826 147.733 269.202C147.781 269.578 147.861 269.914 147.973 270.21C148.093 270.498 148.257 270.73 148.465 270.906C148.673 271.074 148.941 271.158 149.269 271.158Z" fill="white" style="fill:white;fill-opacity:1;"/>
<path d="M157.952 272.19V271.254C158.224 271.038 158.54 270.798 158.9 270.534C159.26 270.27 159.624 269.982 159.992 269.67C160.368 269.358 160.716 269.026 161.036 268.674C161.356 268.322 161.612 267.954 161.804 267.57C162.004 267.178 162.104 266.778 162.104 266.37C162.104 265.93 161.984 265.574 161.744 265.302C161.504 265.022 161.144 264.882 160.664 264.882C160.304 264.882 160.004 264.966 159.764 265.134C159.532 265.302 159.36 265.53 159.248 265.818C159.136 266.106 159.076 266.426 159.068 266.778L157.916 266.694C157.916 266.302 157.976 265.93 158.096 265.578C158.216 265.226 158.392 264.914 158.624 264.642C158.864 264.362 159.156 264.142 159.5 263.982C159.852 263.822 160.252 263.742 160.7 263.742C161.212 263.742 161.656 263.85 162.032 264.066C162.416 264.282 162.716 264.582 162.932 264.966C163.148 265.35 163.256 265.802 163.256 266.322C163.256 266.762 163.176 267.186 163.016 267.594C162.864 268.002 162.648 268.394 162.368 268.77C162.088 269.138 161.764 269.486 161.396 269.814C161.028 270.142 160.632 270.454 160.208 270.75C159.784 271.038 159.344 271.302 158.888 271.542L159.2 271.098H163.592V272.19H157.952Z" fill="white" style="fill:white;fill-opacity:1;"/>
<path d="M172.251 272.298C171.747 272.298 171.283 272.19 170.859 271.974C170.443 271.758 170.099 271.466 169.827 271.098C169.555 270.722 169.379 270.298 169.299 269.826L170.451 269.622C170.499 269.894 170.595 270.15 170.739 270.39C170.891 270.63 171.091 270.822 171.339 270.966C171.595 271.102 171.891 271.17 172.227 271.17C172.611 271.17 172.931 271.082 173.187 270.906C173.451 270.722 173.651 270.49 173.787 270.21C173.923 269.922 173.991 269.618 173.991 269.298C173.991 268.994 173.927 268.714 173.799 268.458C173.671 268.202 173.479 267.998 173.223 267.846C172.975 267.686 172.663 267.606 172.287 267.606C171.943 267.606 171.635 267.686 171.363 267.846C171.099 267.998 170.875 268.21 170.691 268.482L169.551 268.182L170.343 263.826H174.855V264.918H170.775L171.399 264.426L170.835 267.522L170.487 267.438C170.799 267.078 171.123 266.834 171.459 266.706C171.803 266.57 172.135 266.502 172.455 266.502C172.999 266.502 173.479 266.63 173.895 266.886C174.319 267.142 174.647 267.482 174.879 267.906C175.111 268.33 175.227 268.794 175.227 269.298C175.227 269.698 175.155 270.078 175.011 270.438C174.867 270.798 174.659 271.118 174.387 271.398C174.123 271.678 173.807 271.898 173.439 272.058C173.079 272.218 172.683 272.298 172.251 272.298Z" fill="white" style="fill:white;fill-opacity:1;"/>
<path d="M41 147.61L42.8887 152.721L48 154.61L42.8887 156.499L41 161.61L39.1113 156.499L34 154.61L39.1113 152.721L41 147.61Z" fill="white" style="fill:white;fill-opacity:1;"/>
<path d="M269 147.61L270.889 152.721L276 154.61L270.889 156.499L269 161.61L267.111 156.499L262 154.61L267.111 152.721L269 147.61Z" fill="white" style="fill:white;fill-opacity:1;"/>
<path fill-rule="evenodd" clip-rule="evenodd" d="M265 178H45V177H265V178Z" fill="white" style="fill:white;fill-opacity:1;"/>
<path d="M71.9929 215.325C70.1596 215.325 68.6596 214.85 67.4929 213.9C66.3429 212.95 65.6346 211.683 65.3679 210.1L68.1929 209.4C68.3762 210.5 68.8096 211.333 69.4929 211.9C70.1929 212.467 71.0512 212.75 72.0679 212.75C72.6346 212.75 73.1429 212.65 73.5929 212.45C74.0429 212.233 74.3929 211.933 74.6429 211.55C74.9096 211.167 75.0429 210.733 75.0429 210.25C75.0429 209.733 74.9012 209.308 74.6179 208.975C74.3346 208.625 73.9262 208.317 73.3929 208.05C72.8596 207.767 72.2096 207.475 71.4429 207.175C70.3929 206.775 69.5012 206.342 68.7679 205.875C68.0346 205.408 67.4762 204.858 67.0929 204.225C66.7096 203.575 66.5179 202.808 66.5179 201.925C66.5179 201.008 66.7429 200.2 67.1929 199.5C67.6429 198.783 68.2762 198.225 69.0929 197.825C69.9096 197.425 70.8512 197.225 71.9179 197.225C73.0679 197.225 74.0846 197.483 74.9679 198C75.8512 198.517 76.5596 199.3 77.0929 200.35L74.7929 201.75C74.4429 201.117 74.0179 200.633 73.5179 200.3C73.0179 199.95 72.4512 199.775 71.8179 199.775C71.3679 199.775 70.9596 199.867 70.5929 200.05C70.2262 200.217 69.9346 200.458 69.7179 200.775C69.5179 201.092 69.4179 201.458 69.4179 201.875C69.4179 202.308 69.5429 202.692 69.7929 203.025C70.0429 203.342 70.4262 203.633 70.9429 203.9C71.4762 204.167 72.1512 204.458 72.9679 204.775C74.0179 205.175 74.9096 205.608 75.6429 206.075C76.3762 206.542 76.9346 207.1 77.3179 207.75C77.7179 208.383 77.9179 209.158 77.9179 210.075C77.9179 211.092 77.6679 211.992 77.1679 212.775C76.6679 213.558 75.9679 214.183 75.0679 214.65C74.1846 215.1 73.1596 215.325 71.9929 215.325ZM80.2745 220.1V202.675H83.0245V206.1L82.3245 206.125C82.5412 205.225 82.8579 204.508 83.2745 203.975C83.7079 203.442 84.2162 203.058 84.7995 202.825C85.3995 202.575 86.0329 202.45 86.6995 202.45C87.7995 202.45 88.7495 202.733 89.5495 203.3C90.3495 203.85 90.9662 204.608 91.3995 205.575C91.8495 206.542 92.0745 207.633 92.0745 208.85C92.0745 210.167 91.8329 211.308 91.3495 212.275C90.8662 213.225 90.2162 213.958 89.3995 214.475C88.5995 214.975 87.6995 215.225 86.6995 215.225C85.9995 215.225 85.3495 215.092 84.7495 214.825C84.1662 214.558 83.6662 214.158 83.2495 213.625C82.8495 213.092 82.5662 212.442 82.3995 211.675L83.0245 211.55V220.1H80.2745ZM86.0245 212.7C86.6745 212.7 87.2412 212.542 87.7245 212.225C88.2245 211.908 88.6079 211.458 88.8745 210.875C89.1412 210.292 89.2745 209.617 89.2745 208.85C89.2745 208.083 89.1412 207.408 88.8745 206.825C88.6079 206.242 88.2245 205.792 87.7245 205.475C87.2412 205.158 86.6745 205 86.0245 205C85.3745 205 84.7995 205.158 84.2995 205.475C83.8162 205.792 83.4412 206.242 83.1745 206.825C82.9079 207.408 82.7745 208.083 82.7745 208.85C82.7745 209.617 82.9079 210.292 83.1745 210.875C83.4412 211.442 83.8162 211.892 84.2995 212.225C84.7995 212.542 85.3745 212.7 86.0245 212.7ZM100.052 215.225C98.8854 215.225 97.8354 214.95 96.9021 214.4C95.9687 213.85 95.2354 213.092 94.7021 212.125C94.1854 211.158 93.9271 210.058 93.9271 208.825C93.9271 207.592 94.1854 206.492 94.7021 205.525C95.2354 204.558 95.9604 203.808 96.8771 203.275C97.8104 202.725 98.8687 202.45 100.052 202.45C101.252 202.45 102.302 202.725 103.202 203.275C104.119 203.808 104.844 204.558 105.377 205.525C105.91 206.492 106.177 207.592 106.177 208.825C106.177 210.058 105.91 211.158 105.377 212.125C104.86 213.092 104.135 213.85 103.202 214.4C102.285 214.95 101.235 215.225 100.052 215.225ZM100.077 212.775C100.76 212.775 101.352 212.617 101.852 212.3C102.352 211.983 102.735 211.525 103.002 210.925C103.269 210.325 103.402 209.625 103.402 208.825C103.402 208.008 103.269 207.308 103.002 206.725C102.735 206.125 102.352 205.667 101.852 205.35C101.352 205.033 100.76 204.875 100.077 204.875C99.3604 204.875 98.7521 205.042 98.2521 205.375C97.7521 205.692 97.3687 206.142 97.1021 206.725C96.8354 207.308 96.7021 208.008 96.7021 208.825C96.7021 209.625 96.8354 210.325 97.1021 210.925C97.3687 211.525 97.7521 211.983 98.2521 212.3C98.7521 212.617 99.3604 212.775 100.077 212.775ZM108.608 215V202.675H111.408V206L110.883 206.075C110.966 205.358 111.208 204.733 111.608 204.2C112.008 203.65 112.491 203.225 113.058 202.925C113.641 202.608 114.216 202.45 114.783 202.45C115.183 202.45 115.566 202.5 115.933 202.6C116.299 202.7 116.683 202.867 117.083 203.1L115.733 205.6C115.549 205.483 115.308 205.392 115.008 205.325C114.724 205.242 114.449 205.2 114.183 205.2C113.833 205.2 113.483 205.267 113.133 205.4C112.799 205.533 112.499 205.742 112.233 206.025C111.966 206.292 111.766 206.642 111.633 207.075C111.549 207.308 111.483 207.617 111.433 208C111.399 208.367 111.383 208.883 111.383 209.55V215H108.608ZM123.331 215.225C122.714 215.225 122.131 215.108 121.581 214.875C121.047 214.625 120.622 214.233 120.306 213.7C119.989 213.15 119.831 212.433 119.831 211.55V199.675L122.631 198.125V210.775C122.631 211.475 122.731 212.017 122.931 212.4C123.147 212.767 123.531 212.95 124.081 212.95C124.247 212.95 124.439 212.933 124.656 212.9C124.889 212.85 125.131 212.792 125.381 212.725V214.875C125.047 214.992 124.706 215.075 124.356 215.125C124.022 215.192 123.681 215.225 123.331 215.225ZM117.481 204.825V202.675H125.381V204.825H117.481ZM131.814 215.225C130.931 215.225 130.148 215.1 129.464 214.85C128.781 214.583 128.206 214.25 127.739 213.85C127.273 213.45 126.889 213.05 126.589 212.65L128.489 211C128.806 211.517 129.239 211.975 129.789 212.375C130.356 212.775 131.039 212.975 131.839 212.975C132.506 212.975 133.031 212.833 133.414 212.55C133.814 212.267 134.014 211.917 134.014 211.5C134.014 211.133 133.889 210.85 133.639 210.65C133.389 210.433 133.064 210.25 132.664 210.1C132.264 209.95 131.823 209.817 131.339 209.7C130.873 209.583 130.398 209.442 129.914 209.275C129.431 209.092 128.981 208.867 128.564 208.6C128.164 208.333 127.839 207.992 127.589 207.575C127.339 207.158 127.214 206.642 127.214 206.025C127.214 204.942 127.631 204.075 128.464 203.425C129.298 202.775 130.389 202.45 131.739 202.45C132.706 202.45 133.589 202.642 134.389 203.025C135.189 203.408 135.814 203.983 136.264 204.75L134.539 206.075C134.206 205.575 133.789 205.2 133.289 204.95C132.789 204.7 132.248 204.575 131.664 204.575C131.131 204.575 130.681 204.683 130.314 204.9C129.964 205.117 129.789 205.4 129.789 205.75C129.789 206.017 129.873 206.233 130.039 206.4C130.206 206.567 130.464 206.717 130.814 206.85C131.164 206.983 131.606 207.117 132.139 207.25C132.639 207.367 133.156 207.508 133.689 207.675C134.223 207.842 134.714 208.067 135.164 208.35C135.631 208.617 136.006 208.983 136.289 209.45C136.589 209.9 136.739 210.483 136.739 211.2C136.739 212 136.531 212.708 136.114 213.325C135.714 213.925 135.139 214.392 134.389 214.725C133.656 215.058 132.798 215.225 131.814 215.225ZM145.526 215V197.575H150.526C153.393 197.575 155.618 198.35 157.201 199.9C158.784 201.433 159.576 203.608 159.576 206.425C159.576 209.192 158.793 211.317 157.226 212.8C155.676 214.267 153.434 215 150.501 215H145.526ZM148.426 212.35H150.226C151.576 212.35 152.734 212.167 153.701 211.8C154.668 211.417 155.401 210.783 155.901 209.9C156.401 209.017 156.651 207.825 156.651 206.325C156.651 204.825 156.401 203.633 155.901 202.75C155.418 201.85 154.709 201.208 153.776 200.825C152.859 200.425 151.759 200.225 150.476 200.225H148.426V212.35ZM167.421 215.225C166.387 215.225 165.487 215.058 164.721 214.725C163.971 214.392 163.354 213.925 162.871 213.325C162.387 212.725 162.029 212.05 161.796 211.3C161.562 210.533 161.446 209.742 161.446 208.925C161.446 208.108 161.554 207.317 161.771 206.55C162.004 205.767 162.354 205.067 162.821 204.45C163.287 203.833 163.887 203.35 164.621 203C165.354 202.633 166.221 202.45 167.221 202.45C168.171 202.45 168.996 202.617 169.696 202.95C170.412 203.267 171.004 203.717 171.471 204.3C171.937 204.867 172.279 205.517 172.496 206.25C172.729 206.983 172.846 207.767 172.846 208.6C172.846 208.717 172.837 208.883 172.821 209.1C172.821 209.317 172.804 209.533 172.771 209.75H164.221C164.287 210.733 164.621 211.483 165.221 212C165.821 212.517 166.587 212.775 167.521 212.775C168.204 212.775 168.829 212.667 169.396 212.45C169.962 212.233 170.479 211.892 170.946 211.425L172.471 213.275C171.954 213.742 171.437 214.117 170.921 214.4C170.404 214.683 169.862 214.892 169.296 215.025C168.746 215.158 168.121 215.225 167.421 215.225ZM170.121 208.35C170.154 208.217 170.171 208.083 170.171 207.95C170.187 207.817 170.196 207.683 170.196 207.55C170.196 207.183 170.129 206.833 169.996 206.5C169.879 206.167 169.696 205.875 169.446 205.625C169.196 205.358 168.887 205.15 168.521 205C168.154 204.833 167.737 204.75 167.271 204.75C166.621 204.75 166.071 204.892 165.621 205.175C165.187 205.458 164.846 205.825 164.596 206.275C164.362 206.708 164.221 207.183 164.171 207.7H171.021L170.121 208.35ZM175.296 215V202.675H178.071V205.4L177.571 205.525C177.788 204.808 178.104 204.225 178.521 203.775C178.938 203.325 179.421 202.992 179.971 202.775C180.538 202.558 181.129 202.45 181.746 202.45C183.129 202.45 184.204 202.85 184.971 203.65C185.754 204.433 186.146 205.558 186.146 207.025V215H183.371V208.05C183.371 206.95 183.171 206.142 182.771 205.625C182.371 205.108 181.754 204.85 180.921 204.85C180.304 204.85 179.779 205 179.346 205.3C178.929 205.583 178.613 206.033 178.396 206.65C178.179 207.267 178.071 208.05 178.071 209V215H175.296ZM193.486 215.225C192.869 215.225 192.286 215.108 191.736 214.875C191.203 214.625 190.778 214.233 190.461 213.7C190.144 213.15 189.986 212.433 189.986 211.55V199.675L192.786 198.125V210.775C192.786 211.475 192.886 212.017 193.086 212.4C193.303 212.767 193.686 212.95 194.236 212.95C194.403 212.95 194.594 212.933 194.811 212.9C195.044 212.85 195.286 212.792 195.536 212.725V214.875C195.203 214.992 194.861 215.075 194.511 215.125C194.178 215.192 193.836 215.225 193.486 215.225ZM187.636 204.825V202.675H195.536V204.825H187.636ZM197.745 215V202.675H200.52V215H197.745ZM197.62 200.65V197.575H200.645V200.65H197.62ZM207.701 215.225C206.818 215.225 206.034 215.1 205.351 214.85C204.668 214.583 204.093 214.25 203.626 213.85C203.159 213.45 202.776 213.05 202.476 212.65L204.376 211C204.693 211.517 205.126 211.975 205.676 212.375C206.243 212.775 206.926 212.975 207.726 212.975C208.393 212.975 208.918 212.833 209.301 212.55C209.701 212.267 209.901 211.917 209.901 211.5C209.901 211.133 209.776 210.85 209.526 210.65C209.276 210.433 208.951 210.25 208.551 210.1C208.151 209.95 207.709 209.817 207.226 209.7C206.759 209.583 206.284 209.442 205.801 209.275C205.318 209.092 204.868 208.867 204.451 208.6C204.051 208.333 203.726 207.992 203.476 207.575C203.226 207.158 203.101 206.642 203.101 206.025C203.101 204.942 203.518 204.075 204.351 203.425C205.184 202.775 206.276 202.45 207.626 202.45C208.593 202.45 209.476 202.642 210.276 203.025C211.076 203.408 211.701 203.983 212.151 204.75L210.426 206.075C210.093 205.575 209.676 205.2 209.176 204.95C208.676 204.7 208.134 204.575 207.551 204.575C207.018 204.575 206.568 204.683 206.201 204.9C205.851 205.117 205.676 205.4 205.676 205.75C205.676 206.017 205.759 206.233 205.926 206.4C206.093 206.567 206.351 206.717 206.701 206.85C207.051 206.983 207.493 207.117 208.026 207.25C208.526 207.367 209.043 207.508 209.576 207.675C210.109 207.842 210.601 208.067 211.051 208.35C211.518 208.617 211.893 208.983 212.176 209.45C212.476 209.9 212.626 210.483 212.626 211.2C212.626 212 212.418 212.708 212.001 213.325C211.601 213.925 211.026 214.392 210.276 214.725C209.543 215.058 208.684 215.225 207.701 215.225ZM219.494 215.225C218.877 215.225 218.294 215.108 217.744 214.875C217.21 214.625 216.785 214.233 216.469 213.7C216.152 213.15 215.994 212.433 215.994 211.55V199.675L218.794 198.125V210.775C218.794 211.475 218.894 212.017 219.094 212.4C219.31 212.767 219.694 212.95 220.244 212.95C220.41 212.95 220.602 212.933 220.819 212.9C221.052 212.85 221.294 212.792 221.544 212.725V214.875C221.21 214.992 220.869 215.075 220.519 215.125C220.185 215.192 219.844 215.225 219.494 215.225ZM213.644 204.825V202.675H221.544V204.825H213.644ZM223.777 215V202.675H226.577V206L226.052 206.075C226.136 205.358 226.377 204.733 226.777 204.2C227.177 203.65 227.661 203.225 228.227 202.925C228.811 202.608 229.386 202.45 229.952 202.45C230.352 202.45 230.736 202.5 231.102 202.6C231.469 202.7 231.852 202.867 232.252 203.1L230.902 205.6C230.719 205.483 230.477 205.392 230.177 205.325C229.894 205.242 229.619 205.2 229.352 205.2C229.002 205.2 228.652 205.267 228.302 205.4C227.969 205.533 227.669 205.742 227.402 206.025C227.136 206.292 226.936 206.642 226.802 207.075C226.719 207.308 226.652 207.617 226.602 208C226.569 208.367 226.552 208.883 226.552 209.55V215H223.777ZM235.101 220.075L237.551 214.175L232.851 202.675H235.901L239.026 211.4L242.201 202.675H245.201L238.101 220.075H235.101ZM119.777 245L126.677 227.575H128.877L135.752 245H132.602L127.777 231.8L122.952 245H119.777ZM124.077 241.35L124.977 238.775H130.552L131.502 241.35H124.077ZM138.859 245L135.109 232.675H138.059L140.259 240.75L142.759 232.675H145.134L147.634 240.7L149.859 232.675H152.809L149.034 245H146.534L143.959 236.6L141.384 245H138.859ZM162.683 245L162.483 242.925V237.225C162.483 236.425 162.241 235.825 161.758 235.425C161.275 235.008 160.6 234.8 159.733 234.8C159.066 234.8 158.408 234.933 157.758 235.2C157.125 235.45 156.541 235.842 156.008 236.375L154.458 234.55C155.258 233.8 156.108 233.267 157.008 232.95C157.908 232.617 158.891 232.45 159.958 232.45C161.625 232.45 162.916 232.875 163.833 233.725C164.766 234.558 165.233 235.725 165.233 237.225V245H162.683ZM158.858 245.225C157.941 245.225 157.125 245.058 156.408 244.725C155.708 244.392 155.158 243.925 154.758 243.325C154.375 242.725 154.183 242.025 154.183 241.225C154.183 240.542 154.325 239.95 154.608 239.45C154.908 238.95 155.291 238.558 155.758 238.275C156.158 238.025 156.625 237.85 157.158 237.75C157.691 237.633 158.25 237.575 158.833 237.575H162.708V239.65H159.233C158.933 239.65 158.633 239.683 158.333 239.75C158.033 239.8 157.766 239.9 157.533 240.05C157.366 240.183 157.225 240.35 157.108 240.55C157.008 240.75 156.958 240.983 156.958 241.25C156.958 241.783 157.158 242.208 157.558 242.525C157.975 242.825 158.525 242.975 159.208 242.975C159.808 242.975 160.35 242.842 160.833 242.575C161.333 242.308 161.733 241.942 162.033 241.475C162.333 241.008 162.483 240.483 162.483 239.9L163.333 241.275C163.133 242.142 162.816 242.875 162.383 243.475C161.95 244.058 161.433 244.5 160.833 244.8C160.233 245.083 159.575 245.225 158.858 245.225ZM168.082 245V232.675H170.882V236L170.357 236.075C170.44 235.358 170.682 234.733 171.082 234.2C171.482 233.65 171.965 233.225 172.532 232.925C173.115 232.608 173.69 232.45 174.257 232.45C174.657 232.45 175.04 232.5 175.407 232.6C175.773 232.7 176.157 232.867 176.557 233.1L175.207 235.6C175.023 235.483 174.782 235.392 174.482 235.325C174.198 235.242 173.923 235.2 173.657 235.2C173.307 235.2 172.957 235.267 172.607 235.4C172.273 235.533 171.973 235.742 171.707 236.025C171.44 236.292 171.24 236.642 171.107 237.075C171.023 237.308 170.957 237.617 170.907 238C170.873 238.367 170.857 238.883 170.857 239.55V245H168.082ZM182.446 245.225C181.346 245.225 180.388 244.95 179.571 244.4C178.771 243.833 178.154 243.067 177.721 242.1C177.288 241.133 177.071 240.042 177.071 238.825C177.071 237.492 177.304 236.35 177.771 235.4C178.254 234.45 178.904 233.725 179.721 233.225C180.538 232.708 181.446 232.45 182.446 232.45C183.146 232.45 183.788 232.592 184.371 232.875C184.971 233.158 185.471 233.575 185.871 234.125C186.288 234.658 186.579 235.317 186.746 236.1L186.096 236.125V227.575H188.871V245H186.096V241.575L186.846 241.4C186.629 242.3 186.296 243.033 185.846 243.6C185.413 244.15 184.904 244.558 184.321 244.825C183.738 245.092 183.113 245.225 182.446 245.225ZM183.121 242.675C183.771 242.675 184.338 242.517 184.821 242.2C185.304 241.883 185.679 241.433 185.946 240.85C186.213 240.267 186.346 239.592 186.346 238.825C186.346 238.058 186.213 237.392 185.946 236.825C185.679 236.242 185.304 235.792 184.821 235.475C184.338 235.142 183.771 234.975 183.121 234.975C182.471 234.975 181.896 235.133 181.396 235.45C180.913 235.767 180.529 236.217 180.246 236.8C179.979 237.383 179.846 238.058 179.846 238.825C179.846 239.592 179.979 240.267 180.246 240.85C180.529 241.433 180.913 241.883 181.396 242.2C181.896 242.517 182.471 242.675 183.121 242.675Z" fill="white" style="fill:white;fill-opacity:1;"/>
</svg>
