<svg width="310" height="310" viewBox="0 0 310 310" fill="none" xmlns="http://www.w3.org/2000/svg">
<path d="M147.651 1.92236C152.217 -0.640785 157.783 -0.640785 162.349 1.92236L188.281 16.4702C190.473 17.7017 192.937 18.3625 195.44 18.3925L225.166 18.763C230.402 18.8231 235.218 21.6065 237.892 26.112L253.08 51.6733C254.362 53.836 256.164 55.6382 258.327 56.9198L283.888 72.1084C288.384 74.7817 291.167 79.5976 291.237 84.834L291.607 114.56C291.638 117.074 292.298 119.537 293.53 121.719L308.078 147.651C310.641 152.217 310.641 157.783 308.078 162.349L293.53 188.281C292.298 190.473 291.638 192.936 291.607 195.44L291.237 225.166C291.167 230.402 288.384 235.218 283.888 237.892L258.327 253.08C256.174 254.362 254.362 256.164 253.08 258.327L237.892 283.888C235.218 288.383 230.392 291.167 225.166 291.237L195.44 291.607C192.927 291.637 190.463 292.298 188.281 293.53L162.349 308.078C157.783 310.641 152.217 310.641 147.651 308.078L121.719 293.53C119.527 292.298 117.064 291.637 114.56 291.607L84.834 291.237C79.5976 291.167 74.7817 288.383 72.1084 283.888L56.9198 258.327C55.6382 256.174 53.836 254.362 51.6733 253.08L26.112 237.892C21.6165 235.218 18.8331 230.392 18.763 225.166L18.3925 195.44C18.3625 192.926 17.7017 190.463 16.4702 188.281L1.92236 162.349C-0.640786 157.783 -0.640786 152.217 1.92236 147.651L16.4702 121.719C17.7017 119.527 18.3625 117.063 18.3925 114.56L18.763 84.834C18.8231 79.5976 21.6065 74.7817 26.112 72.1084L51.6733 56.9198C53.836 55.6382 55.6382 53.836 56.9198 51.6733L72.1084 26.112C74.7817 21.6165 79.5976 18.8331 84.834 18.763L114.56 18.3925C117.074 18.3625 119.537 17.7017 121.719 16.4702L147.651 1.92236Z" fill="#227DF5" style="fill:#227DF5;fill:color(display-p3 0.1333 0.4919 0.9608);fill-opacity:1;"/>
<path d="M155 300C152.474 300 149.958 299.373 147.7 298.1L124.03 284.823C121.862 283.61 119.405 282.944 116.919 282.914L89.7776 282.576C84.6159 282.516 79.7725 279.712 77.1369 275.276L63.2729 251.934C61.9999 249.796 60.1998 247.996 58.0615 246.723L34.7195 232.859C30.2838 230.224 27.4891 225.38 27.4195 220.219L27.0813 193.078C27.0515 190.592 26.3951 188.135 25.1718 185.967L11.8946 162.297C9.36846 157.792 9.36846 152.203 11.8946 147.698L25.1718 124.028C26.3852 121.86 27.0515 119.403 27.0813 116.917L27.4195 89.7762C27.4792 84.6146 30.2838 79.7713 34.7195 77.1357L58.0615 63.272C60.1998 61.999 61.9999 60.1989 63.2729 58.0607L77.1369 34.719C79.7725 30.2834 84.6159 27.4888 89.7776 27.4192L116.919 27.0811C119.405 27.0512 121.862 26.3948 124.03 25.1716L147.7 11.8946C152.205 9.36847 157.795 9.36847 162.3 11.8946L185.97 25.1716C188.138 26.3849 190.595 27.0512 193.081 27.0811L220.222 27.4192C225.384 27.4789 230.228 30.2834 232.863 34.719L246.727 58.0607C248 60.1989 249.8 61.999 251.939 63.272L275.281 77.1357C279.716 79.7713 282.511 84.6146 282.58 89.7762L282.919 116.917C282.949 119.403 283.605 121.86 284.828 124.028L298.105 147.698C300.632 152.203 300.632 157.792 298.105 162.297L284.828 185.967C283.615 188.135 282.958 190.592 282.919 193.078L282.58 220.219C282.521 225.38 279.716 230.224 275.281 232.859L251.939 246.723C249.8 247.996 248 249.796 246.727 251.934L232.863 275.276C230.228 279.712 225.384 282.506 220.222 282.576L193.081 282.914C190.595 282.944 188.138 283.6 185.97 284.823L162.3 298.1C160.052 299.363 157.526 300 155 300ZM155 12.004C152.812 12.004 150.624 12.551 148.675 13.645L125.004 26.9219C122.548 28.3043 119.763 29.0502 116.939 29.0801L89.7975 29.4182C85.322 29.4779 81.125 31.8946 78.8376 35.7434L64.9736 59.085C63.5315 61.5117 61.4927 63.5505 59.0759 64.9826L35.7339 78.8463C31.885 81.1338 29.4683 85.3307 29.4086 89.8061L29.0704 116.947C29.0406 119.761 28.2848 122.556 26.9123 125.012L13.6351 148.682C11.4471 152.581 11.4471 157.434 13.6351 161.333L26.9123 185.003C28.2947 187.459 29.0406 190.254 29.0704 193.068L29.4086 220.209C29.4683 224.684 31.885 228.881 35.7339 231.169L59.0759 245.032C61.5026 246.474 63.5414 248.513 64.9736 250.93L78.8376 274.272C81.125 278.12 85.322 280.537 89.7975 280.597L116.939 280.935C119.753 280.965 122.538 281.721 125.004 283.093L148.675 296.37C152.573 298.558 157.427 298.558 161.325 296.37L184.996 283.093C187.452 281.711 190.247 280.965 193.061 280.935L220.202 280.597C224.678 280.537 228.875 278.12 231.162 274.272L245.026 250.93C246.469 248.503 248.507 246.464 250.924 245.032L274.266 231.169C278.115 228.881 280.532 224.684 280.591 220.209L280.93 193.068C280.969 190.254 281.715 187.459 283.088 185.003L296.365 161.333C298.553 157.434 298.553 152.581 296.365 148.682L283.088 125.012C281.705 122.556 280.959 119.771 280.93 116.947L280.591 89.8061C280.532 85.3307 278.115 81.1338 274.266 78.8463L250.924 64.9826C248.497 63.5405 246.459 61.5017 245.026 59.085L231.162 35.7434C228.875 31.8946 224.678 29.4779 220.202 29.4182L193.061 29.0801C190.247 29.0403 187.462 28.2944 184.996 26.9219L161.325 13.645C159.376 12.551 157.188 12.004 155 12.004Z" fill="white" style="fill:white;fill-opacity:1;"/>
<path d="M177.276 99.6776L191.134 96.5392H191.144C194.638 95.7497 197.776 98.6512 196.829 101.8L192.21 117.146C191.588 119.209 189.762 120.808 187.423 121.064C175.5 122.357 164.179 118.834 155 112.014C145.821 118.834 134.5 122.357 122.577 121.064C120.238 120.808 118.412 119.199 117.79 117.146L113.171 101.8C112.224 98.6512 115.362 95.7497 118.856 96.5392L132.714 99.6776C134.855 100.161 137.116 99.5888 138.675 98.1775L151.664 86.4034C153.51 84.7355 156.49 84.7355 158.326 86.4034L171.315 98.1775C172.874 99.5987 175.135 100.161 177.276 99.6776Z" fill="white" style="fill:white;fill-opacity:1;"/>
<path d="M156.441 124.39C161.426 127.144 170.644 131.536 183.82 131.2C186.051 131.141 187.828 133.016 187.245 134.96L182.064 150.959C180.929 154.739 176.378 156.367 172.815 154.146L157.655 144.702C156.056 143.705 153.934 143.705 152.325 144.702L137.55 154.146C133.987 156.367 129.072 154.739 127.937 150.959L122.745 134.96C122.163 133.016 123.939 131.141 126.17 131.2C139.346 131.536 148.555 127.144 153.549 124.39C154.487 123.867 155.523 123.877 156.441 124.39Z" fill="white" style="fill:white;fill-opacity:1;"/>
<path d="M148.91 59.5801L146.42 59.76L146.02 54.2301L138.9 43.52L141.67 43.3201L147.07 51.3501L151.23 42.63L154.09 42.42L148.51 54.01L148.92 59.5901L148.91 59.5801Z" fill="white" style="fill:white;fill-opacity:1;"/>
<path d="M133.22 61.6001L135.55 60.9401L135.56 60.9301L130.98 44.8201L128.89 45.41L126.21 59.3501L116.62 48.9L114.51 49.5001L119.09 65.6101L121.42 64.9501L118.39 54.3L126.76 63.4401L127.9 63.1101L130.19 50.9501L133.22 61.6001Z" fill="white" style="fill:white;fill-opacity:1;"/>
<path d="M104.12 72.98L94.5503 70.66L93.8198 71.12L97.5601 77.09L95.4502 78.42L86.5601 64.23L88.6699 62.9L92.52 69.04L93.0898 68.6801L95.0303 58.91L97.6602 57.26L95.5103 68.53L106.99 71.1801L104.13 72.98H104.12Z" fill="white" style="fill:white;fill-opacity:1;"/>
<path d="M88.8799 83.53L90.4497 82.1101L79.1997 69.7001L77.3296 71.3901L85.5396 80.4501L70.3496 77.7201L68.7798 79.1401L80.0298 91.55L81.8799 89.8701L73.8096 80.9601L88.8799 83.53Z" fill="white" style="fill:white;fill-opacity:1;"/>
<path fill-rule="evenodd" clip-rule="evenodd" d="M75.2202 96.9601L71.2002 95.77L66.52 101.76L68.6499 105.37L66.9902 107.5L58.02 91.77L59.4502 89.9301L76.8799 94.8201L75.2202 96.9501V96.9601ZM61.3198 92.88L65.2002 99.49L68.6699 95.04L61.3198 92.88Z" fill="white" style="fill:white;fill-opacity:1;"/>
<path fill-rule="evenodd" clip-rule="evenodd" d="M63.6499 113.11L55.1201 114.78L54.0298 116.76L59.8799 119.97L58.6802 122.16L44 114.09L47.54 107.65C49.0898 104.83 51.8999 103.93 54.5498 105.38C57.0698 106.76 57.8398 109.42 56.5601 112.1L65.1499 110.38L63.6602 113.1L63.6499 113.11ZM54.2402 111.35C55.0698 109.84 54.7002 108.33 53.3398 107.58C51.96 106.82 50.4902 107.32 49.6602 108.83L47.3198 113.08L51.8999 115.6L54.2402 111.35Z" fill="white" style="fill:white;fill-opacity:1;"/>
<path fill-rule="evenodd" clip-rule="evenodd" d="M184.08 54.64C185.04 49.86 182.48 45.78 177.27 44.73V44.74L171.92 43.66L168.62 60.0801L173.97 61.15C179.18 62.2001 183.12 59.42 184.08 54.64ZM181.6 54.15C180.92 57.5601 178.17 59.53 174.44 58.78L174.43 58.77L171.53 58.1901L173.88 46.53L176.78 47.11C180.51 47.86 182.29 50.74 181.6 54.15Z" fill="white" style="fill:white;fill-opacity:1;"/>
<path d="M198.43 68.88L187.63 64.5701L193.84 49.01L204.62 53.3101L203.72 55.5601L195.25 52.1801L193.5 56.5701L201.32 59.6901L200.43 61.92L192.61 58.8L190.84 63.24L199.33 66.63L198.43 68.88Z" fill="white" style="fill:white;fill-opacity:1;"/>
<path d="M213.7 77.7301L215.5 78.8501L224.37 64.65L222.23 63.3201L215.75 73.6801L214.24 58.3201L212.44 57.2001L203.57 71.4L205.69 72.7201L212.06 62.53L213.7 77.7301Z" fill="white" style="fill:white;fill-opacity:1;"/>
<path d="M234.95 76.51L225.4 87.1899L223.52 85.51L233.07 74.83L228.99 71.1799L230.61 69.37L240.67 78.37L239.05 80.1799L234.95 76.51Z" fill="white" style="fill:white;fill-opacity:1;"/>
<path d="M245.45 83.64L232.91 94.74L234.56 96.61L247.1 85.51L245.45 83.64Z" fill="white" style="fill:white;fill-opacity:1;"/>
<path d="M255.47 103.84L253.59 102.11C254.88 100.86 255.03 99.03 253.96 97.5C252.9 95.99 251.33 95.61 250.12 96.46C249.16 97.13 249.01 98.01 249.54 99.29L250.84 102.5C251.73 104.73 251.54 106.9 249.39 108.41C246.81 110.22 243.82 109.38 241.76 106.44C239.86 103.73 239.7 100.48 242.13 98.3L244.15 100.13C242.6 101.67 242.64 103.55 243.84 105.27C245.04 106.99 246.6 107.35 247.85 106.47C248.89 105.74 249.03 104.88 248.42 103.4L247.08 100.18C246.36 98.3199 246.11 96.0499 248.55 94.34C250.97 92.65 253.9 93.36 255.89 96.2C257.71 98.7999 257.5 101.73 255.47 103.84Z" fill="white" style="fill:white;fill-opacity:1;"/>
<path d="M251.16 121.66L263.94 115.19L266.43 120.09L268.59 118.99L262.49 106.95L260.33 108.05L262.8 112.94L250.02 119.41L251.16 121.66Z" fill="white" style="fill:white;fill-opacity:1;"/>
<path d="M134.922 272.19V271.254C135.194 271.038 135.51 270.798 135.87 270.534C136.23 270.27 136.594 269.982 136.962 269.67C137.338 269.358 137.686 269.026 138.006 268.674C138.326 268.322 138.582 267.954 138.774 267.57C138.974 267.178 139.074 266.778 139.074 266.37C139.074 265.93 138.954 265.574 138.714 265.302C138.474 265.022 138.114 264.882 137.634 264.882C137.274 264.882 136.974 264.966 136.734 265.134C136.502 265.302 136.33 265.53 136.218 265.818C136.106 266.106 136.046 266.426 136.038 266.778L134.886 266.694C134.886 266.302 134.946 265.93 135.066 265.578C135.186 265.226 135.362 264.914 135.594 264.642C135.834 264.362 136.126 264.142 136.47 263.982C136.822 263.822 137.222 263.742 137.67 263.742C138.182 263.742 138.626 263.85 139.002 264.066C139.386 264.282 139.686 264.582 139.902 264.966C140.118 265.35 140.226 265.802 140.226 266.322C140.226 266.762 140.146 267.186 139.986 267.594C139.834 268.002 139.618 268.394 139.338 268.77C139.058 269.138 138.734 269.486 138.366 269.814C137.998 270.142 137.602 270.454 137.178 270.75C136.754 271.038 136.314 271.302 135.858 271.542L136.17 271.098H140.562V272.19H134.922Z" fill="white" style="fill:white;fill-opacity:1;"/>
<path d="M149.269 272.286C148.781 272.286 148.369 272.198 148.033 272.022C147.705 271.846 147.433 271.61 147.217 271.314C147.009 271.01 146.849 270.674 146.737 270.306C146.633 269.93 146.561 269.542 146.521 269.142C146.481 268.734 146.461 268.346 146.461 267.978C146.461 267.61 146.477 267.23 146.509 266.838C146.549 266.438 146.621 266.054 146.725 265.686C146.837 265.31 146.997 264.974 147.205 264.678C147.413 264.382 147.681 264.146 148.009 263.97C148.345 263.794 148.753 263.706 149.233 263.706C149.705 263.706 150.105 263.794 150.433 263.97C150.761 264.138 151.029 264.366 151.237 264.654C151.453 264.942 151.617 265.27 151.729 265.638C151.841 266.006 151.917 266.394 151.957 266.802C152.005 267.202 152.029 267.594 152.029 267.978C152.029 268.378 152.005 268.782 151.957 269.19C151.917 269.598 151.837 269.986 151.717 270.354C151.605 270.722 151.445 271.054 151.237 271.35C151.029 271.638 150.765 271.866 150.445 272.034C150.125 272.202 149.733 272.286 149.269 272.286ZM149.269 271.158C149.669 271.158 149.981 271.018 150.205 270.738C150.437 270.458 150.601 270.082 150.697 269.61C150.793 269.138 150.841 268.61 150.841 268.026C150.841 267.41 150.789 266.866 150.685 266.394C150.589 265.914 150.425 265.534 150.193 265.254C149.961 264.974 149.641 264.834 149.233 264.834C148.913 264.834 148.649 264.918 148.441 265.086C148.241 265.254 148.085 265.486 147.973 265.782C147.861 266.078 147.781 266.418 147.733 266.802C147.685 267.178 147.661 267.582 147.661 268.014C147.661 268.43 147.685 268.826 147.733 269.202C147.781 269.578 147.861 269.914 147.973 270.21C148.093 270.498 148.257 270.73 148.465 270.906C148.673 271.074 148.941 271.158 149.269 271.158Z" fill="white" style="fill:white;fill-opacity:1;"/>
<path d="M157.952 272.19V271.254C158.224 271.038 158.54 270.798 158.9 270.534C159.26 270.27 159.624 269.982 159.992 269.67C160.368 269.358 160.716 269.026 161.036 268.674C161.356 268.322 161.612 267.954 161.804 267.57C162.004 267.178 162.104 266.778 162.104 266.37C162.104 265.93 161.984 265.574 161.744 265.302C161.504 265.022 161.144 264.882 160.664 264.882C160.304 264.882 160.004 264.966 159.764 265.134C159.532 265.302 159.36 265.53 159.248 265.818C159.136 266.106 159.076 266.426 159.068 266.778L157.916 266.694C157.916 266.302 157.976 265.93 158.096 265.578C158.216 265.226 158.392 264.914 158.624 264.642C158.864 264.362 159.156 264.142 159.5 263.982C159.852 263.822 160.252 263.742 160.7 263.742C161.212 263.742 161.656 263.85 162.032 264.066C162.416 264.282 162.716 264.582 162.932 264.966C163.148 265.35 163.256 265.802 163.256 266.322C163.256 266.762 163.176 267.186 163.016 267.594C162.864 268.002 162.648 268.394 162.368 268.77C162.088 269.138 161.764 269.486 161.396 269.814C161.028 270.142 160.632 270.454 160.208 270.75C159.784 271.038 159.344 271.302 158.888 271.542L159.2 271.098H163.592V272.19H157.952Z" fill="white" style="fill:white;fill-opacity:1;"/>
<path d="M172.251 272.298C171.747 272.298 171.283 272.19 170.859 271.974C170.443 271.758 170.099 271.466 169.827 271.098C169.555 270.722 169.379 270.298 169.299 269.826L170.451 269.622C170.499 269.894 170.595 270.15 170.739 270.39C170.891 270.63 171.091 270.822 171.339 270.966C171.595 271.102 171.891 271.17 172.227 271.17C172.611 271.17 172.931 271.082 173.187 270.906C173.451 270.722 173.651 270.49 173.787 270.21C173.923 269.922 173.991 269.618 173.991 269.298C173.991 268.994 173.927 268.714 173.799 268.458C173.671 268.202 173.479 267.998 173.223 267.846C172.975 267.686 172.663 267.606 172.287 267.606C171.943 267.606 171.635 267.686 171.363 267.846C171.099 267.998 170.875 268.21 170.691 268.482L169.551 268.182L170.343 263.826H174.855V264.918H170.775L171.399 264.426L170.835 267.522L170.487 267.438C170.799 267.078 171.123 266.834 171.459 266.706C171.803 266.57 172.135 266.502 172.455 266.502C172.999 266.502 173.479 266.63 173.895 266.886C174.319 267.142 174.647 267.482 174.879 267.906C175.111 268.33 175.227 268.794 175.227 269.298C175.227 269.698 175.155 270.078 175.011 270.438C174.867 270.798 174.659 271.118 174.387 271.398C174.123 271.678 173.807 271.898 173.439 272.058C173.079 272.218 172.683 272.298 172.251 272.298Z" fill="white" style="fill:white;fill-opacity:1;"/>
<path d="M41 147.61L42.8887 152.721L48 154.61L42.8887 156.499L41 161.61L39.1113 156.499L34 154.61L39.1113 152.721L41 147.61Z" fill="white" style="fill:white;fill-opacity:1;"/>
<path d="M269 147.61L270.889 152.721L276 154.61L270.889 156.499L269 161.61L267.111 156.499L262 154.61L267.111 152.721L269 147.61Z" fill="white" style="fill:white;fill-opacity:1;"/>
<path fill-rule="evenodd" clip-rule="evenodd" d="M265 178H45V177H265V178Z" fill="white" style="fill:white;fill-opacity:1;"/>
<path d="M69.9057 215V200.15H64.3557V197.575H78.3557V200.15H72.8307V215H69.9057ZM83.233 215.225C82.1997 215.225 81.2997 215.058 80.533 214.725C79.783 214.392 79.1663 213.925 78.683 213.325C78.1997 212.725 77.8413 212.05 77.608 211.3C77.3747 210.533 77.258 209.742 77.258 208.925C77.258 208.108 77.3663 207.317 77.583 206.55C77.8163 205.767 78.1663 205.067 78.633 204.45C79.0997 203.833 79.6997 203.35 80.433 203C81.1663 202.633 82.033 202.45 83.033 202.45C83.983 202.45 84.808 202.617 85.508 202.95C86.2247 203.267 86.8163 203.717 87.283 204.3C87.7497 204.867 88.0913 205.517 88.308 206.25C88.5413 206.983 88.658 207.767 88.658 208.6C88.658 208.717 88.6497 208.883 88.633 209.1C88.633 209.317 88.6163 209.533 88.583 209.75H80.033C80.0997 210.733 80.433 211.483 81.033 212C81.633 212.517 82.3997 212.775 83.333 212.775C84.0163 212.775 84.6413 212.667 85.208 212.45C85.7747 212.233 86.2913 211.892 86.758 211.425L88.283 213.275C87.7663 213.742 87.2497 214.117 86.733 214.4C86.2163 214.683 85.6747 214.892 85.108 215.025C84.558 215.158 83.933 215.225 83.233 215.225ZM85.933 208.35C85.9663 208.217 85.983 208.083 85.983 207.95C85.9997 207.817 86.008 207.683 86.008 207.55C86.008 207.183 85.9413 206.833 85.808 206.5C85.6913 206.167 85.508 205.875 85.258 205.625C85.008 205.358 84.6997 205.15 84.333 205C83.9663 204.833 83.5497 204.75 83.083 204.75C82.433 204.75 81.883 204.892 81.433 205.175C80.9997 205.458 80.658 205.825 80.408 206.275C80.1747 206.708 80.033 207.183 79.983 207.7H86.833L85.933 208.35ZM96.5084 215.225C95.4751 215.225 94.5751 215.058 93.8084 214.725C93.0584 214.392 92.4417 213.925 91.9584 213.325C91.4751 212.725 91.1167 212.05 90.8834 211.3C90.6501 210.533 90.5334 209.742 90.5334 208.925C90.5334 208.108 90.6417 207.317 90.8584 206.55C91.0917 205.767 91.4417 205.067 91.9084 204.45C92.3751 203.833 92.9751 203.35 93.7084 203C94.4417 202.633 95.3084 202.45 96.3084 202.45C97.2584 202.45 98.0834 202.617 98.7834 202.95C99.5001 203.267 100.092 203.717 100.558 204.3C101.025 204.867 101.367 205.517 101.583 206.25C101.817 206.983 101.933 207.767 101.933 208.6C101.933 208.717 101.925 208.883 101.908 209.1C101.908 209.317 101.892 209.533 101.858 209.75H93.3084C93.3751 210.733 93.7084 211.483 94.3084 212C94.9084 212.517 95.6751 212.775 96.6084 212.775C97.2917 212.775 97.9167 212.667 98.4834 212.45C99.0501 212.233 99.5667 211.892 100.033 211.425L101.558 213.275C101.042 213.742 100.525 214.117 100.008 214.4C99.4917 214.683 98.9501 214.892 98.3834 215.025C97.8334 215.158 97.2084 215.225 96.5084 215.225ZM99.2084 208.35C99.2417 208.217 99.2584 208.083 99.2584 207.95C99.2751 207.817 99.2834 207.683 99.2834 207.55C99.2834 207.183 99.2167 206.833 99.0834 206.5C98.9667 206.167 98.7834 205.875 98.5334 205.625C98.2834 205.358 97.9751 205.15 97.6084 205C97.2417 204.833 96.8251 204.75 96.3584 204.75C95.7084 204.75 95.1584 204.892 94.7084 205.175C94.2751 205.458 93.9334 205.825 93.6834 206.275C93.4501 206.708 93.3084 207.183 93.2584 207.7H100.108L99.2084 208.35ZM108.786 215.225C108.169 215.225 107.586 215.108 107.036 214.875C106.502 214.625 106.077 214.233 105.761 213.7C105.444 213.15 105.286 212.433 105.286 211.55V199.675L108.086 198.125V210.775C108.086 211.475 108.186 212.017 108.386 212.4C108.602 212.767 108.986 212.95 109.536 212.95C109.702 212.95 109.894 212.933 110.111 212.9C110.344 212.85 110.586 212.792 110.836 212.725V214.875C110.502 214.992 110.161 215.075 109.811 215.125C109.477 215.192 109.136 215.225 108.786 215.225ZM102.936 204.825V202.675H110.836V204.825H102.936ZM113.069 215V197.575H115.844V205.4L115.344 205.525C115.561 204.808 115.878 204.225 116.294 203.775C116.728 203.325 117.219 202.992 117.769 202.775C118.319 202.558 118.903 202.45 119.519 202.45C120.903 202.45 121.978 202.85 122.744 203.65C123.528 204.433 123.919 205.558 123.919 207.025V215H121.144V208.05C121.144 206.95 120.944 206.142 120.544 205.625C120.144 205.108 119.528 204.85 118.694 204.85C117.761 204.85 117.053 205.183 116.569 205.85C116.086 206.517 115.844 207.567 115.844 209V215H113.069ZM133.178 215V197.575H144.753V200.15H136.078V204.775H144.078V207.375H136.078V212.425H144.753V215H133.178ZM146.205 215L150.48 208.8L146.205 202.675H149.53L152.33 206.95L155.18 202.675H158.455L154.155 208.8L158.455 215H155.13L152.33 210.65L149.48 215H146.205ZM164.86 215.225C164.243 215.225 163.66 215.108 163.11 214.875C162.576 214.625 162.151 214.233 161.835 213.7C161.518 213.15 161.36 212.433 161.36 211.55V199.675L164.16 198.125V210.775C164.16 211.475 164.26 212.017 164.46 212.4C164.676 212.767 165.06 212.95 165.61 212.95C165.776 212.95 165.968 212.933 166.185 212.9C166.418 212.85 166.66 212.792 166.91 212.725V214.875C166.576 214.992 166.235 215.075 165.885 215.125C165.551 215.192 165.21 215.225 164.86 215.225ZM159.01 204.825V202.675H166.91V204.825H159.01ZM169.144 215V202.675H171.944V206L171.419 206.075C171.502 205.358 171.744 204.733 172.144 204.2C172.544 203.65 173.027 203.225 173.594 202.925C174.177 202.608 174.752 202.45 175.319 202.45C175.719 202.45 176.102 202.5 176.469 202.6C176.835 202.7 177.219 202.867 177.619 203.1L176.269 205.6C176.085 205.483 175.844 205.392 175.544 205.325C175.26 205.242 174.985 205.2 174.719 205.2C174.369 205.2 174.019 205.267 173.669 205.4C173.335 205.533 173.035 205.742 172.769 206.025C172.502 206.292 172.302 206.642 172.169 207.075C172.085 207.308 172.019 207.617 171.969 208C171.935 208.367 171.919 208.883 171.919 209.55V215H169.144ZM187.073 215L186.873 212.925V207.225C186.873 206.425 186.631 205.825 186.148 205.425C185.665 205.008 184.99 204.8 184.123 204.8C183.456 204.8 182.798 204.933 182.148 205.2C181.515 205.45 180.931 205.842 180.398 206.375L178.848 204.55C179.648 203.8 180.498 203.267 181.398 202.95C182.298 202.617 183.281 202.45 184.348 202.45C186.015 202.45 187.306 202.875 188.223 203.725C189.156 204.558 189.623 205.725 189.623 207.225V215H187.073ZM183.248 215.225C182.331 215.225 181.515 215.058 180.798 214.725C180.098 214.392 179.548 213.925 179.148 213.325C178.765 212.725 178.573 212.025 178.573 211.225C178.573 210.542 178.715 209.95 178.998 209.45C179.298 208.95 179.681 208.558 180.148 208.275C180.548 208.025 181.015 207.85 181.548 207.75C182.081 207.633 182.64 207.575 183.223 207.575H187.098V209.65H183.623C183.323 209.65 183.023 209.683 182.723 209.75C182.423 209.8 182.156 209.9 181.923 210.05C181.756 210.183 181.615 210.35 181.498 210.55C181.398 210.75 181.348 210.983 181.348 211.25C181.348 211.783 181.548 212.208 181.948 212.525C182.365 212.825 182.915 212.975 183.598 212.975C184.198 212.975 184.74 212.842 185.223 212.575C185.723 212.308 186.123 211.942 186.423 211.475C186.723 211.008 186.873 210.483 186.873 209.9L187.723 211.275C187.523 212.142 187.206 212.875 186.773 213.475C186.34 214.058 185.823 214.5 185.223 214.8C184.623 215.083 183.965 215.225 183.248 215.225ZM197.797 215.225C196.83 215.225 195.972 215.058 195.222 214.725C194.488 214.375 193.872 213.9 193.372 213.3C192.888 212.683 192.522 211.992 192.272 211.225C192.022 210.458 191.897 209.658 191.897 208.825C191.897 207.992 192.022 207.192 192.272 206.425C192.522 205.658 192.888 204.975 193.372 204.375C193.872 203.775 194.488 203.308 195.222 202.975C195.972 202.625 196.83 202.45 197.797 202.45C199.013 202.45 200.072 202.742 200.972 203.325C201.888 203.908 202.563 204.808 202.997 206.025L200.547 206.975C200.347 206.342 200.022 205.833 199.572 205.45C199.122 205.05 198.53 204.85 197.797 204.85C197.063 204.85 196.463 205.042 195.997 205.425C195.547 205.808 195.213 206.3 194.997 206.9C194.78 207.5 194.672 208.142 194.672 208.825C194.672 209.508 194.78 210.158 194.997 210.775C195.213 211.375 195.547 211.867 195.997 212.25C196.463 212.617 197.063 212.8 197.797 212.8C198.53 212.8 199.122 212.608 199.572 212.225C200.022 211.842 200.347 211.333 200.547 210.7L202.997 211.65C202.563 212.85 201.888 213.75 200.972 214.35C200.072 214.933 199.013 215.225 197.797 215.225ZM209.734 215.225C209.117 215.225 208.534 215.108 207.984 214.875C207.45 214.625 207.025 214.233 206.709 213.7C206.392 213.15 206.234 212.433 206.234 211.55V199.675L209.034 198.125V210.775C209.034 211.475 209.134 212.017 209.334 212.4C209.55 212.767 209.934 212.95 210.484 212.95C210.65 212.95 210.842 212.933 211.059 212.9C211.292 212.85 211.534 212.792 211.784 212.725V214.875C211.45 214.992 211.109 215.075 210.759 215.125C210.425 215.192 210.084 215.225 209.734 215.225ZM203.884 204.825V202.675H211.784V204.825H203.884ZM213.993 215V202.675H216.768V215H213.993ZM213.868 200.65V197.575H216.893V200.65H213.868ZM225.299 215.225C224.132 215.225 223.082 214.95 222.149 214.4C221.216 213.85 220.482 213.092 219.949 212.125C219.432 211.158 219.174 210.058 219.174 208.825C219.174 207.592 219.432 206.492 219.949 205.525C220.482 204.558 221.207 203.808 222.124 203.275C223.057 202.725 224.116 202.45 225.299 202.45C226.499 202.45 227.549 202.725 228.449 203.275C229.366 203.808 230.091 204.558 230.624 205.525C231.157 206.492 231.424 207.592 231.424 208.825C231.424 210.058 231.157 211.158 230.624 212.125C230.107 213.092 229.382 213.85 228.449 214.4C227.532 214.95 226.482 215.225 225.299 215.225ZM225.324 212.775C226.007 212.775 226.599 212.617 227.099 212.3C227.599 211.983 227.982 211.525 228.249 210.925C228.516 210.325 228.649 209.625 228.649 208.825C228.649 208.008 228.516 207.308 228.249 206.725C227.982 206.125 227.599 205.667 227.099 205.35C226.599 205.033 226.007 204.875 225.324 204.875C224.607 204.875 223.999 205.042 223.499 205.375C222.999 205.692 222.616 206.142 222.349 206.725C222.082 207.308 221.949 208.008 221.949 208.825C221.949 209.625 222.082 210.325 222.349 210.925C222.616 211.525 222.999 211.983 223.499 212.3C223.999 212.617 224.607 212.775 225.324 212.775ZM233.854 215V202.675H236.629V205.4L236.129 205.525C236.346 204.808 236.663 204.225 237.079 203.775C237.496 203.325 237.979 202.992 238.529 202.775C239.096 202.558 239.688 202.45 240.304 202.45C241.688 202.45 242.763 202.85 243.529 203.65C244.313 204.433 244.704 205.558 244.704 207.025V215H241.929V208.05C241.929 206.95 241.729 206.142 241.329 205.625C240.929 205.108 240.313 204.85 239.479 204.85C238.863 204.85 238.338 205 237.904 205.3C237.488 205.583 237.171 206.033 236.954 206.65C236.738 207.267 236.629 208.05 236.629 209V215H233.854ZM119.776 245L126.676 227.575H128.876L135.751 245H132.601L127.776 231.8L122.951 245H119.776ZM124.076 241.35L124.976 238.775H130.551L131.501 241.35H124.076ZM138.859 245L135.109 232.675H138.059L140.259 240.75L142.759 232.675H145.134L147.634 240.7L149.859 232.675H152.809L149.034 245H146.534L143.959 236.6L141.384 245H138.859ZM162.683 245L162.483 242.925V237.225C162.483 236.425 162.241 235.825 161.758 235.425C161.275 235.008 160.6 234.8 159.733 234.8C159.066 234.8 158.408 234.933 157.758 235.2C157.125 235.45 156.541 235.842 156.008 236.375L154.458 234.55C155.258 233.8 156.108 233.267 157.008 232.95C157.908 232.617 158.891 232.45 159.958 232.45C161.625 232.45 162.916 232.875 163.833 233.725C164.766 234.558 165.233 235.725 165.233 237.225V245H162.683ZM158.858 245.225C157.941 245.225 157.125 245.058 156.408 244.725C155.708 244.392 155.158 243.925 154.758 243.325C154.375 242.725 154.183 242.025 154.183 241.225C154.183 240.542 154.325 239.95 154.608 239.45C154.908 238.95 155.291 238.558 155.758 238.275C156.158 238.025 156.625 237.85 157.158 237.75C157.691 237.633 158.25 237.575 158.833 237.575H162.708V239.65H159.233C158.933 239.65 158.633 239.683 158.333 239.75C158.033 239.8 157.766 239.9 157.533 240.05C157.366 240.183 157.225 240.35 157.108 240.55C157.008 240.75 156.958 240.983 156.958 241.25C156.958 241.783 157.158 242.208 157.558 242.525C157.975 242.825 158.525 242.975 159.208 242.975C159.808 242.975 160.35 242.842 160.833 242.575C161.333 242.308 161.733 241.942 162.033 241.475C162.333 241.008 162.483 240.483 162.483 239.9L163.333 241.275C163.133 242.142 162.816 242.875 162.383 243.475C161.95 244.058 161.433 244.5 160.833 244.8C160.233 245.083 159.575 245.225 158.858 245.225ZM168.082 245V232.675H170.882V236L170.357 236.075C170.44 235.358 170.682 234.733 171.082 234.2C171.482 233.65 171.965 233.225 172.532 232.925C173.115 232.608 173.69 232.45 174.257 232.45C174.657 232.45 175.04 232.5 175.407 232.6C175.773 232.7 176.157 232.867 176.557 233.1L175.207 235.6C175.023 235.483 174.782 235.392 174.482 235.325C174.198 235.242 173.923 235.2 173.657 235.2C173.307 235.2 172.957 235.267 172.607 235.4C172.273 235.533 171.973 235.742 171.707 236.025C171.44 236.292 171.24 236.642 171.107 237.075C171.023 237.308 170.957 237.617 170.907 238C170.873 238.367 170.857 238.883 170.857 239.55V245H168.082ZM182.446 245.225C181.346 245.225 180.388 244.95 179.571 244.4C178.771 243.833 178.154 243.067 177.721 242.1C177.288 241.133 177.071 240.042 177.071 238.825C177.071 237.492 177.304 236.35 177.771 235.4C178.254 234.45 178.904 233.725 179.721 233.225C180.538 232.708 181.446 232.45 182.446 232.45C183.146 232.45 183.788 232.592 184.371 232.875C184.971 233.158 185.471 233.575 185.871 234.125C186.288 234.658 186.579 235.317 186.746 236.1L186.096 236.125V227.575H188.871V245H186.096V241.575L186.846 241.4C186.629 242.3 186.296 243.033 185.846 243.6C185.413 244.15 184.904 244.558 184.321 244.825C183.738 245.092 183.113 245.225 182.446 245.225ZM183.121 242.675C183.771 242.675 184.338 242.517 184.821 242.2C185.304 241.883 185.679 241.433 185.946 240.85C186.213 240.267 186.346 239.592 186.346 238.825C186.346 238.058 186.213 237.392 185.946 236.825C185.679 236.242 185.304 235.792 184.821 235.475C184.338 235.142 183.771 234.975 183.121 234.975C182.471 234.975 181.896 235.133 181.396 235.45C180.913 235.767 180.529 236.217 180.246 236.8C179.979 237.383 179.846 238.058 179.846 238.825C179.846 239.592 179.979 240.267 180.246 240.85C180.529 241.433 180.913 241.883 181.396 242.2C181.896 242.517 182.471 242.675 183.121 242.675Z" fill="white" style="fill:white;fill-opacity:1;"/>
</svg>
