<svg width="310" height="310" viewBox="0 0 310 310" fill="none" xmlns="http://www.w3.org/2000/svg">
<path d="M147.651 1.92236C152.217 -0.640785 157.783 -0.640785 162.349 1.92236L188.281 16.4702C190.473 17.7017 192.937 18.3625 195.44 18.3925L225.166 18.763C230.402 18.8231 235.218 21.6065 237.892 26.112L253.08 51.6733C254.362 53.836 256.164 55.6382 258.327 56.9198L283.888 72.1084C288.384 74.7817 291.167 79.5976 291.237 84.834L291.607 114.56C291.638 117.074 292.298 119.537 293.53 121.719L308.078 147.651C310.641 152.217 310.641 157.783 308.078 162.349L293.53 188.281C292.298 190.473 291.638 192.936 291.607 195.44L291.237 225.166C291.167 230.402 288.384 235.218 283.888 237.892L258.327 253.08C256.174 254.362 254.362 256.164 253.08 258.327L237.892 283.888C235.218 288.383 230.392 291.167 225.166 291.237L195.44 291.607C192.927 291.637 190.463 292.298 188.281 293.53L162.349 308.078C157.783 310.641 152.217 310.641 147.651 308.078L121.719 293.53C119.527 292.298 117.064 291.637 114.56 291.607L84.834 291.237C79.5976 291.167 74.7817 288.383 72.1084 283.888L56.9198 258.327C55.6382 256.174 53.836 254.362 51.6733 253.08L26.112 237.892C21.6165 235.218 18.8331 230.392 18.763 225.166L18.3925 195.44C18.3625 192.926 17.7017 190.463 16.4702 188.281L1.92236 162.349C-0.640786 157.783 -0.640786 152.217 1.92236 147.651L16.4702 121.719C17.7017 119.527 18.3625 117.063 18.3925 114.56L18.763 84.834C18.8231 79.5976 21.6065 74.7817 26.112 72.1084L51.6733 56.9198C53.836 55.6382 55.6382 53.836 56.9198 51.6733L72.1084 26.112C74.7817 21.6165 79.5976 18.8331 84.834 18.763L114.56 18.3925C117.074 18.3625 119.537 17.7017 121.719 16.4702L147.651 1.92236Z" fill="#227DF5" style="fill:#227DF5;fill:color(display-p3 0.1333 0.4919 0.9608);fill-opacity:1;"/>
<path d="M155 300C152.474 300 149.958 299.373 147.7 298.1L124.03 284.823C121.862 283.61 119.405 282.944 116.919 282.914L89.7776 282.576C84.6159 282.516 79.7725 279.712 77.1369 275.276L63.2729 251.934C61.9999 249.796 60.1998 247.996 58.0615 246.723L34.7195 232.859C30.2838 230.224 27.4891 225.38 27.4195 220.219L27.0813 193.078C27.0515 190.592 26.3951 188.135 25.1718 185.967L11.8946 162.297C9.36846 157.792 9.36846 152.203 11.8946 147.698L25.1718 124.028C26.3852 121.86 27.0515 119.403 27.0813 116.917L27.4195 89.7762C27.4792 84.6146 30.2838 79.7713 34.7195 77.1357L58.0615 63.272C60.1998 61.999 61.9999 60.1989 63.2729 58.0607L77.1369 34.719C79.7725 30.2834 84.6159 27.4888 89.7776 27.4192L116.919 27.0811C119.405 27.0512 121.862 26.3948 124.03 25.1716L147.7 11.8946C152.205 9.36847 157.795 9.36847 162.3 11.8946L185.97 25.1716C188.138 26.3849 190.595 27.0512 193.081 27.0811L220.222 27.4192C225.384 27.4789 230.228 30.2834 232.863 34.719L246.727 58.0607C248 60.1989 249.8 61.999 251.939 63.272L275.281 77.1357C279.716 79.7713 282.511 84.6146 282.58 89.7762L282.919 116.917C282.949 119.403 283.605 121.86 284.828 124.028L298.105 147.698C300.632 152.203 300.632 157.792 298.105 162.297L284.828 185.967C283.615 188.135 282.958 190.592 282.919 193.078L282.58 220.219C282.521 225.38 279.716 230.224 275.281 232.859L251.939 246.723C249.8 247.996 248 249.796 246.727 251.934L232.863 275.276C230.228 279.712 225.384 282.506 220.222 282.576L193.081 282.914C190.595 282.944 188.138 283.6 185.97 284.823L162.3 298.1C160.052 299.363 157.526 300 155 300ZM155 12.004C152.812 12.004 150.624 12.551 148.675 13.645L125.004 26.9219C122.548 28.3043 119.763 29.0502 116.939 29.0801L89.7975 29.4182C85.322 29.4779 81.125 31.8946 78.8376 35.7434L64.9736 59.085C63.5315 61.5117 61.4927 63.5505 59.0759 64.9826L35.7339 78.8463C31.885 81.1338 29.4683 85.3307 29.4086 89.8061L29.0704 116.947C29.0406 119.761 28.2848 122.556 26.9123 125.012L13.6351 148.682C11.4471 152.581 11.4471 157.434 13.6351 161.333L26.9123 185.003C28.2947 187.459 29.0406 190.254 29.0704 193.068L29.4086 220.209C29.4683 224.684 31.885 228.881 35.7339 231.169L59.0759 245.032C61.5026 246.474 63.5414 248.513 64.9736 250.93L78.8376 274.272C81.125 278.12 85.322 280.537 89.7975 280.597L116.939 280.935C119.753 280.965 122.538 281.721 125.004 283.093L148.675 296.37C152.573 298.558 157.427 298.558 161.325 296.37L184.996 283.093C187.452 281.711 190.247 280.965 193.061 280.935L220.202 280.597C224.678 280.537 228.875 278.12 231.162 274.272L245.026 250.93C246.469 248.503 248.507 246.464 250.924 245.032L274.266 231.169C278.115 228.881 280.532 224.684 280.591 220.209L280.93 193.068C280.969 190.254 281.715 187.459 283.088 185.003L296.365 161.333C298.553 157.434 298.553 152.581 296.365 148.682L283.088 125.012C281.705 122.556 280.959 119.771 280.93 116.947L280.591 89.8061C280.532 85.3307 278.115 81.1338 274.266 78.8463L250.924 64.9826C248.497 63.5405 246.459 61.5017 245.026 59.085L231.162 35.7434C228.875 31.8946 224.678 29.4779 220.202 29.4182L193.061 29.0801C190.247 29.0403 187.462 28.2944 184.996 26.9219L161.325 13.645C159.376 12.551 157.188 12.004 155 12.004Z" fill="white" style="fill:white;fill-opacity:1;"/>
<path d="M177.276 99.6776L191.134 96.5392H191.144C194.638 95.7497 197.776 98.6512 196.829 101.8L192.21 117.146C191.588 119.209 189.762 120.808 187.423 121.064C175.5 122.357 164.179 118.834 155 112.014C145.821 118.834 134.5 122.357 122.577 121.064C120.238 120.808 118.412 119.199 117.79 117.146L113.171 101.8C112.224 98.6512 115.362 95.7497 118.856 96.5392L132.714 99.6776C134.855 100.161 137.116 99.5888 138.675 98.1775L151.664 86.4034C153.51 84.7355 156.49 84.7355 158.326 86.4034L171.315 98.1775C172.874 99.5987 175.135 100.161 177.276 99.6776Z" fill="white" style="fill:white;fill-opacity:1;"/>
<path d="M156.441 124.39C161.426 127.144 170.644 131.536 183.82 131.2C186.051 131.141 187.828 133.016 187.245 134.96L182.064 150.959C180.929 154.739 176.378 156.367 172.815 154.146L157.655 144.702C156.056 143.705 153.934 143.705 152.325 144.702L137.55 154.146C133.987 156.367 129.072 154.739 127.937 150.959L122.745 134.96C122.163 133.016 123.939 131.141 126.17 131.2C139.346 131.536 148.555 127.144 153.549 124.39C154.487 123.867 155.523 123.877 156.441 124.39Z" fill="white" style="fill:white;fill-opacity:1;"/>
<path d="M148.91 59.5801L146.42 59.76L146.02 54.2301L138.9 43.52L141.67 43.3201L147.07 51.3501L151.23 42.63L154.09 42.42L148.51 54.01L148.92 59.5901L148.91 59.5801Z" fill="white" style="fill:white;fill-opacity:1;"/>
<path d="M133.22 61.6001L135.55 60.9401L135.56 60.9301L130.98 44.8201L128.89 45.41L126.21 59.3501L116.62 48.9L114.51 49.5001L119.09 65.6101L121.42 64.9501L118.39 54.3L126.76 63.4401L127.9 63.1101L130.19 50.9501L133.22 61.6001Z" fill="white" style="fill:white;fill-opacity:1;"/>
<path d="M104.12 72.98L94.5503 70.66L93.8198 71.12L97.5601 77.09L95.4502 78.42L86.5601 64.23L88.6699 62.9L92.52 69.04L93.0898 68.6801L95.0303 58.91L97.6602 57.26L95.5103 68.53L106.99 71.1801L104.13 72.98H104.12Z" fill="white" style="fill:white;fill-opacity:1;"/>
<path d="M88.8799 83.53L90.4497 82.1101L79.1997 69.7001L77.3296 71.3901L85.5396 80.4501L70.3496 77.7201L68.7798 79.1401L80.0298 91.55L81.8799 89.8701L73.8096 80.9601L88.8799 83.53Z" fill="white" style="fill:white;fill-opacity:1;"/>
<path fill-rule="evenodd" clip-rule="evenodd" d="M75.2202 96.9601L71.2002 95.77L66.52 101.76L68.6499 105.37L66.9902 107.5L58.02 91.77L59.4502 89.9301L76.8799 94.8201L75.2202 96.9501V96.9601ZM61.3198 92.88L65.2002 99.49L68.6699 95.04L61.3198 92.88Z" fill="white" style="fill:white;fill-opacity:1;"/>
<path fill-rule="evenodd" clip-rule="evenodd" d="M63.6499 113.11L55.1201 114.78L54.0298 116.76L59.8799 119.97L58.6802 122.16L44 114.09L47.54 107.65C49.0898 104.83 51.8999 103.93 54.5498 105.38C57.0698 106.76 57.8398 109.42 56.5601 112.1L65.1499 110.38L63.6602 113.1L63.6499 113.11ZM54.2402 111.35C55.0698 109.84 54.7002 108.33 53.3398 107.58C51.96 106.82 50.4902 107.32 49.6602 108.83L47.3198 113.08L51.8999 115.6L54.2402 111.35Z" fill="white" style="fill:white;fill-opacity:1;"/>
<path fill-rule="evenodd" clip-rule="evenodd" d="M184.08 54.64C185.04 49.86 182.48 45.78 177.27 44.73V44.74L171.92 43.66L168.62 60.0801L173.97 61.15C179.18 62.2001 183.12 59.42 184.08 54.64ZM181.6 54.15C180.92 57.5601 178.17 59.53 174.44 58.78L174.43 58.77L171.53 58.1901L173.88 46.53L176.78 47.11C180.51 47.86 182.29 50.74 181.6 54.15Z" fill="white" style="fill:white;fill-opacity:1;"/>
<path d="M198.43 68.88L187.63 64.5701L193.84 49.01L204.62 53.3101L203.72 55.5601L195.25 52.1801L193.5 56.5701L201.32 59.6901L200.43 61.92L192.61 58.8L190.84 63.24L199.33 66.63L198.43 68.88Z" fill="white" style="fill:white;fill-opacity:1;"/>
<path d="M213.7 77.7301L215.5 78.8501L224.37 64.65L222.23 63.3201L215.75 73.6801L214.24 58.3201L212.44 57.2001L203.57 71.4L205.69 72.7201L212.06 62.53L213.7 77.7301Z" fill="white" style="fill:white;fill-opacity:1;"/>
<path d="M234.95 76.51L225.4 87.1899L223.52 85.51L233.07 74.83L228.99 71.1799L230.61 69.37L240.67 78.37L239.05 80.1799L234.95 76.51Z" fill="white" style="fill:white;fill-opacity:1;"/>
<path d="M245.45 83.64L232.91 94.74L234.56 96.61L247.1 85.51L245.45 83.64Z" fill="white" style="fill:white;fill-opacity:1;"/>
<path d="M255.47 103.84L253.59 102.11C254.88 100.86 255.03 99.03 253.96 97.5C252.9 95.99 251.33 95.61 250.12 96.46C249.16 97.13 249.01 98.01 249.54 99.29L250.84 102.5C251.73 104.73 251.54 106.9 249.39 108.41C246.81 110.22 243.82 109.38 241.76 106.44C239.86 103.73 239.7 100.48 242.13 98.3L244.15 100.13C242.6 101.67 242.64 103.55 243.84 105.27C245.04 106.99 246.6 107.35 247.85 106.47C248.89 105.74 249.03 104.88 248.42 103.4L247.08 100.18C246.36 98.3199 246.11 96.0499 248.55 94.34C250.97 92.65 253.9 93.36 255.89 96.2C257.71 98.7999 257.5 101.73 255.47 103.84Z" fill="white" style="fill:white;fill-opacity:1;"/>
<path d="M251.16 121.66L263.94 115.19L266.43 120.09L268.59 118.99L262.49 106.95L260.33 108.05L262.8 112.94L250.02 119.41L251.16 121.66Z" fill="white" style="fill:white;fill-opacity:1;"/>
<path d="M134.922 272.19V271.254C135.194 271.038 135.51 270.798 135.87 270.534C136.23 270.27 136.594 269.982 136.962 269.67C137.338 269.358 137.686 269.026 138.006 268.674C138.326 268.322 138.582 267.954 138.774 267.57C138.974 267.178 139.074 266.778 139.074 266.37C139.074 265.93 138.954 265.574 138.714 265.302C138.474 265.022 138.114 264.882 137.634 264.882C137.274 264.882 136.974 264.966 136.734 265.134C136.502 265.302 136.33 265.53 136.218 265.818C136.106 266.106 136.046 266.426 136.038 266.778L134.886 266.694C134.886 266.302 134.946 265.93 135.066 265.578C135.186 265.226 135.362 264.914 135.594 264.642C135.834 264.362 136.126 264.142 136.47 263.982C136.822 263.822 137.222 263.742 137.67 263.742C138.182 263.742 138.626 263.85 139.002 264.066C139.386 264.282 139.686 264.582 139.902 264.966C140.118 265.35 140.226 265.802 140.226 266.322C140.226 266.762 140.146 267.186 139.986 267.594C139.834 268.002 139.618 268.394 139.338 268.77C139.058 269.138 138.734 269.486 138.366 269.814C137.998 270.142 137.602 270.454 137.178 270.75C136.754 271.038 136.314 271.302 135.858 271.542L136.17 271.098H140.562V272.19H134.922Z" fill="white" style="fill:white;fill-opacity:1;"/>
<path d="M149.269 272.286C148.781 272.286 148.369 272.198 148.033 272.022C147.705 271.846 147.433 271.61 147.217 271.314C147.009 271.01 146.849 270.674 146.737 270.306C146.633 269.93 146.561 269.542 146.521 269.142C146.481 268.734 146.461 268.346 146.461 267.978C146.461 267.61 146.477 267.23 146.509 266.838C146.549 266.438 146.621 266.054 146.725 265.686C146.837 265.31 146.997 264.974 147.205 264.678C147.413 264.382 147.681 264.146 148.009 263.97C148.345 263.794 148.753 263.706 149.233 263.706C149.705 263.706 150.105 263.794 150.433 263.97C150.761 264.138 151.029 264.366 151.237 264.654C151.453 264.942 151.617 265.27 151.729 265.638C151.841 266.006 151.917 266.394 151.957 266.802C152.005 267.202 152.029 267.594 152.029 267.978C152.029 268.378 152.005 268.782 151.957 269.19C151.917 269.598 151.837 269.986 151.717 270.354C151.605 270.722 151.445 271.054 151.237 271.35C151.029 271.638 150.765 271.866 150.445 272.034C150.125 272.202 149.733 272.286 149.269 272.286ZM149.269 271.158C149.669 271.158 149.981 271.018 150.205 270.738C150.437 270.458 150.601 270.082 150.697 269.61C150.793 269.138 150.841 268.61 150.841 268.026C150.841 267.41 150.789 266.866 150.685 266.394C150.589 265.914 150.425 265.534 150.193 265.254C149.961 264.974 149.641 264.834 149.233 264.834C148.913 264.834 148.649 264.918 148.441 265.086C148.241 265.254 148.085 265.486 147.973 265.782C147.861 266.078 147.781 266.418 147.733 266.802C147.685 267.178 147.661 267.582 147.661 268.014C147.661 268.43 147.685 268.826 147.733 269.202C147.781 269.578 147.861 269.914 147.973 270.21C148.093 270.498 148.257 270.73 148.465 270.906C148.673 271.074 148.941 271.158 149.269 271.158Z" fill="white" style="fill:white;fill-opacity:1;"/>
<path d="M157.952 272.19V271.254C158.224 271.038 158.54 270.798 158.9 270.534C159.26 270.27 159.624 269.982 159.992 269.67C160.368 269.358 160.716 269.026 161.036 268.674C161.356 268.322 161.612 267.954 161.804 267.57C162.004 267.178 162.104 266.778 162.104 266.37C162.104 265.93 161.984 265.574 161.744 265.302C161.504 265.022 161.144 264.882 160.664 264.882C160.304 264.882 160.004 264.966 159.764 265.134C159.532 265.302 159.36 265.53 159.248 265.818C159.136 266.106 159.076 266.426 159.068 266.778L157.916 266.694C157.916 266.302 157.976 265.93 158.096 265.578C158.216 265.226 158.392 264.914 158.624 264.642C158.864 264.362 159.156 264.142 159.5 263.982C159.852 263.822 160.252 263.742 160.7 263.742C161.212 263.742 161.656 263.85 162.032 264.066C162.416 264.282 162.716 264.582 162.932 264.966C163.148 265.35 163.256 265.802 163.256 266.322C163.256 266.762 163.176 267.186 163.016 267.594C162.864 268.002 162.648 268.394 162.368 268.77C162.088 269.138 161.764 269.486 161.396 269.814C161.028 270.142 160.632 270.454 160.208 270.75C159.784 271.038 159.344 271.302 158.888 271.542L159.2 271.098H163.592V272.19H157.952Z" fill="white" style="fill:white;fill-opacity:1;"/>
<path d="M172.251 272.298C171.747 272.298 171.283 272.19 170.859 271.974C170.443 271.758 170.099 271.466 169.827 271.098C169.555 270.722 169.379 270.298 169.299 269.826L170.451 269.622C170.499 269.894 170.595 270.15 170.739 270.39C170.891 270.63 171.091 270.822 171.339 270.966C171.595 271.102 171.891 271.17 172.227 271.17C172.611 271.17 172.931 271.082 173.187 270.906C173.451 270.722 173.651 270.49 173.787 270.21C173.923 269.922 173.991 269.618 173.991 269.298C173.991 268.994 173.927 268.714 173.799 268.458C173.671 268.202 173.479 267.998 173.223 267.846C172.975 267.686 172.663 267.606 172.287 267.606C171.943 267.606 171.635 267.686 171.363 267.846C171.099 267.998 170.875 268.21 170.691 268.482L169.551 268.182L170.343 263.826H174.855V264.918H170.775L171.399 264.426L170.835 267.522L170.487 267.438C170.799 267.078 171.123 266.834 171.459 266.706C171.803 266.57 172.135 266.502 172.455 266.502C172.999 266.502 173.479 266.63 173.895 266.886C174.319 267.142 174.647 267.482 174.879 267.906C175.111 268.33 175.227 268.794 175.227 269.298C175.227 269.698 175.155 270.078 175.011 270.438C174.867 270.798 174.659 271.118 174.387 271.398C174.123 271.678 173.807 271.898 173.439 272.058C173.079 272.218 172.683 272.298 172.251 272.298Z" fill="white" style="fill:white;fill-opacity:1;"/>
<path d="M41 147.61L42.8887 152.721L48 154.61L42.8887 156.499L41 161.61L39.1113 156.499L34 154.61L39.1113 152.721L41 147.61Z" fill="white" style="fill:white;fill-opacity:1;"/>
<path d="M269 147.61L270.889 152.721L276 154.61L270.889 156.499L269 161.61L267.111 156.499L262 154.61L267.111 152.721L269 147.61Z" fill="white" style="fill:white;fill-opacity:1;"/>
<path fill-rule="evenodd" clip-rule="evenodd" d="M265 178H45V177H265V178Z" fill="white" style="fill:white;fill-opacity:1;"/>
<path d="M54.1422 215V197.575H59.7172C61.6506 197.575 63.1172 197.992 64.1172 198.825C65.1172 199.658 65.6172 200.908 65.6172 202.575C65.6172 204.242 65.1089 205.517 64.0922 206.4C63.0922 207.267 61.6339 207.7 59.7172 207.7H57.0172V215H54.1422ZM57.0172 205.125H59.4172C60.4506 205.125 61.2589 204.933 61.8422 204.55C62.4256 204.167 62.7172 203.525 62.7172 202.625C62.7172 201.742 62.4339 201.108 61.8672 200.725C61.3172 200.342 60.5006 200.15 59.4172 200.15H57.0172V205.125ZM72.3991 215.225C71.3657 215.225 70.4657 215.058 69.6991 214.725C68.9491 214.392 68.3324 213.925 67.8491 213.325C67.3657 212.725 67.0074 212.05 66.7741 211.3C66.5407 210.533 66.4241 209.742 66.4241 208.925C66.4241 208.108 66.5324 207.317 66.7491 206.55C66.9824 205.767 67.3324 205.067 67.7991 204.45C68.2657 203.833 68.8657 203.35 69.5991 203C70.3324 202.633 71.1991 202.45 72.1991 202.45C73.1491 202.45 73.9741 202.617 74.6741 202.95C75.3907 203.267 75.9824 203.717 76.4491 204.3C76.9157 204.867 77.2574 205.517 77.4741 206.25C77.7074 206.983 77.8241 207.767 77.8241 208.6C77.8241 208.717 77.8157 208.883 77.7991 209.1C77.7991 209.317 77.7824 209.533 77.7491 209.75H69.1991C69.2657 210.733 69.5991 211.483 70.1991 212C70.7991 212.517 71.5657 212.775 72.4991 212.775C73.1824 212.775 73.8074 212.667 74.3741 212.45C74.9407 212.233 75.4574 211.892 75.9241 211.425L77.4491 213.275C76.9324 213.742 76.4157 214.117 75.8991 214.4C75.3824 214.683 74.8407 214.892 74.2741 215.025C73.7241 215.158 73.0991 215.225 72.3991 215.225ZM75.0991 208.35C75.1324 208.217 75.1491 208.083 75.1491 207.95C75.1657 207.817 75.1741 207.683 75.1741 207.55C75.1741 207.183 75.1074 206.833 74.9741 206.5C74.8574 206.167 74.6741 205.875 74.4241 205.625C74.1741 205.358 73.8657 205.15 73.4991 205C73.1324 204.833 72.7157 204.75 72.2491 204.75C71.5991 204.75 71.0491 204.892 70.5991 205.175C70.1657 205.458 69.8241 205.825 69.5741 206.275C69.3407 206.708 69.1991 207.183 69.1491 207.7H75.9991L75.0991 208.35ZM85.0744 215.225C83.9744 215.225 83.0161 214.95 82.1994 214.4C81.3994 213.833 80.7828 213.067 80.3494 212.1C79.9161 211.133 79.6994 210.042 79.6994 208.825C79.6994 207.492 79.9328 206.35 80.3994 205.4C80.8828 204.45 81.5328 203.725 82.3494 203.225C83.1661 202.708 84.0744 202.45 85.0744 202.45C85.7744 202.45 86.4161 202.592 86.9994 202.875C87.5994 203.158 88.0994 203.575 88.4994 204.125C88.9161 204.658 89.2078 205.317 89.3744 206.1L88.7244 206.125V197.575H91.4994V215H88.7244V211.575L89.4744 211.4C89.2578 212.3 88.9244 213.033 88.4744 213.6C88.0411 214.15 87.5328 214.558 86.9494 214.825C86.3661 215.092 85.7411 215.225 85.0744 215.225ZM85.7494 212.675C86.3994 212.675 86.9661 212.517 87.4494 212.2C87.9328 211.883 88.3078 211.433 88.5744 210.85C88.8411 210.267 88.9744 209.592 88.9744 208.825C88.9744 208.058 88.8411 207.392 88.5744 206.825C88.3078 206.242 87.9328 205.792 87.4494 205.475C86.9661 205.142 86.3994 204.975 85.7494 204.975C85.0994 204.975 84.5244 205.133 84.0244 205.45C83.5411 205.767 83.1578 206.217 82.8744 206.8C82.6078 207.383 82.4744 208.058 82.4744 208.825C82.4744 209.592 82.6078 210.267 82.8744 210.85C83.1578 211.433 83.5411 211.883 84.0244 212.2C84.5244 212.517 85.0994 212.675 85.7494 212.675ZM94.477 215V202.675H97.252V215H94.477ZM94.352 200.65V197.575H97.377V200.65H94.352ZM108.183 215L107.983 212.925V207.225C107.983 206.425 107.742 205.825 107.258 205.425C106.775 205.008 106.1 204.8 105.233 204.8C104.567 204.8 103.908 204.933 103.258 205.2C102.625 205.45 102.042 205.842 101.508 206.375L99.9584 204.55C100.758 203.8 101.608 203.267 102.508 202.95C103.408 202.617 104.392 202.45 105.458 202.45C107.125 202.45 108.417 202.875 109.333 203.725C110.267 204.558 110.733 205.725 110.733 207.225V215H108.183ZM104.358 215.225C103.442 215.225 102.625 215.058 101.908 214.725C101.208 214.392 100.658 213.925 100.258 213.325C99.8751 212.725 99.6834 212.025 99.6834 211.225C99.6834 210.542 99.8251 209.95 100.108 209.45C100.408 208.95 100.792 208.558 101.258 208.275C101.658 208.025 102.125 207.85 102.658 207.75C103.192 207.633 103.75 207.575 104.333 207.575H108.208V209.65H104.733C104.433 209.65 104.133 209.683 103.833 209.75C103.533 209.8 103.267 209.9 103.033 210.05C102.867 210.183 102.725 210.35 102.608 210.55C102.508 210.75 102.458 210.983 102.458 211.25C102.458 211.783 102.658 212.208 103.058 212.525C103.475 212.825 104.025 212.975 104.708 212.975C105.308 212.975 105.85 212.842 106.333 212.575C106.833 212.308 107.233 211.942 107.533 211.475C107.833 211.008 107.983 210.483 107.983 209.9L108.833 211.275C108.633 212.142 108.317 212.875 107.883 213.475C107.45 214.058 106.933 214.5 106.333 214.8C105.733 215.083 105.075 215.225 104.358 215.225ZM118.057 215.225C117.44 215.225 116.857 215.108 116.307 214.875C115.774 214.625 115.349 214.233 115.032 213.7C114.715 213.15 114.557 212.433 114.557 211.55V199.675L117.357 198.125V210.775C117.357 211.475 117.457 212.017 117.657 212.4C117.874 212.767 118.257 212.95 118.807 212.95C118.974 212.95 119.165 212.933 119.382 212.9C119.615 212.85 119.857 212.792 120.107 212.725V214.875C119.774 214.992 119.432 215.075 119.082 215.125C118.749 215.192 118.407 215.225 118.057 215.225ZM112.207 204.825V202.675H120.107V204.825H112.207ZM122.341 215V202.675H125.141V206L124.616 206.075C124.699 205.358 124.941 204.733 125.341 204.2C125.741 203.65 126.224 203.225 126.791 202.925C127.374 202.608 127.949 202.45 128.516 202.45C128.916 202.45 129.299 202.5 129.666 202.6C130.033 202.7 130.416 202.867 130.816 203.1L129.466 205.6C129.283 205.483 129.041 205.392 128.741 205.325C128.458 205.242 128.183 205.2 127.916 205.2C127.566 205.2 127.216 205.267 126.866 205.4C126.533 205.533 126.233 205.742 125.966 206.025C125.699 206.292 125.499 206.642 125.366 207.075C125.283 207.308 125.216 207.617 125.166 208C125.133 208.367 125.116 208.883 125.116 209.55V215H122.341ZM132.564 215V202.675H135.339V215H132.564ZM132.439 200.65V197.575H135.464V200.65H132.439ZM143.645 215.225C142.679 215.225 141.82 215.058 141.07 214.725C140.337 214.375 139.72 213.9 139.22 213.3C138.737 212.683 138.37 211.992 138.12 211.225C137.87 210.458 137.745 209.658 137.745 208.825C137.745 207.992 137.87 207.192 138.12 206.425C138.37 205.658 138.737 204.975 139.22 204.375C139.72 203.775 140.337 203.308 141.07 202.975C141.82 202.625 142.679 202.45 143.645 202.45C144.862 202.45 145.92 202.742 146.82 203.325C147.737 203.908 148.412 204.808 148.845 206.025L146.395 206.975C146.195 206.342 145.87 205.833 145.42 205.45C144.97 205.05 144.379 204.85 143.645 204.85C142.912 204.85 142.312 205.042 141.845 205.425C141.395 205.808 141.062 206.3 140.845 206.9C140.629 207.5 140.52 208.142 140.52 208.825C140.52 209.508 140.629 210.158 140.845 210.775C141.062 211.375 141.395 211.867 141.845 212.25C142.312 212.617 142.912 212.8 143.645 212.8C144.379 212.8 144.97 212.608 145.42 212.225C145.87 211.842 146.195 211.333 146.395 210.7L148.845 211.65C148.412 212.85 147.737 213.75 146.82 214.35C145.92 214.933 144.862 215.225 143.645 215.225ZM157.502 215V197.575H162.502C165.368 197.575 167.593 198.35 169.177 199.9C170.76 201.433 171.552 203.608 171.552 206.425C171.552 209.192 170.768 211.317 169.202 212.8C167.652 214.267 165.41 215 162.477 215H157.502ZM160.402 212.35H162.202C163.552 212.35 164.71 212.167 165.677 211.8C166.643 211.417 167.377 210.783 167.877 209.9C168.377 209.017 168.627 207.825 168.627 206.325C168.627 204.825 168.377 203.633 167.877 202.75C167.393 201.85 166.685 201.208 165.752 200.825C164.835 200.425 163.735 200.225 162.452 200.225H160.402V212.35ZM179.396 215.225C178.363 215.225 177.463 215.058 176.696 214.725C175.946 214.392 175.329 213.925 174.846 213.325C174.363 212.725 174.004 212.05 173.771 211.3C173.538 210.533 173.421 209.742 173.421 208.925C173.421 208.108 173.529 207.317 173.746 206.55C173.979 205.767 174.329 205.067 174.796 204.45C175.263 203.833 175.863 203.35 176.596 203C177.329 202.633 178.196 202.45 179.196 202.45C180.146 202.45 180.971 202.617 181.671 202.95C182.388 203.267 182.979 203.717 183.446 204.3C183.913 204.867 184.254 205.517 184.471 206.25C184.704 206.983 184.821 207.767 184.821 208.6C184.821 208.717 184.813 208.883 184.796 209.1C184.796 209.317 184.779 209.533 184.746 209.75H176.196C176.263 210.733 176.596 211.483 177.196 212C177.796 212.517 178.563 212.775 179.496 212.775C180.179 212.775 180.804 212.667 181.371 212.45C181.938 212.233 182.454 211.892 182.921 211.425L184.446 213.275C183.929 213.742 183.413 214.117 182.896 214.4C182.379 214.683 181.838 214.892 181.271 215.025C180.721 215.158 180.096 215.225 179.396 215.225ZM182.096 208.35C182.129 208.217 182.146 208.083 182.146 207.95C182.163 207.817 182.171 207.683 182.171 207.55C182.171 207.183 182.104 206.833 181.971 206.5C181.854 206.167 181.671 205.875 181.421 205.625C181.171 205.358 180.863 205.15 180.496 205C180.129 204.833 179.713 204.75 179.246 204.75C178.596 204.75 178.046 204.892 177.596 205.175C177.163 205.458 176.821 205.825 176.571 206.275C176.338 206.708 176.196 207.183 176.146 207.7H182.996L182.096 208.35ZM187.272 215V202.675H190.047V205.4L189.547 205.525C189.763 204.808 190.08 204.225 190.497 203.775C190.913 203.325 191.397 202.992 191.947 202.775C192.513 202.558 193.105 202.45 193.722 202.45C195.105 202.45 196.18 202.85 196.947 203.65C197.73 204.433 198.122 205.558 198.122 207.025V215H195.347V208.05C195.347 206.95 195.147 206.142 194.747 205.625C194.347 205.108 193.73 204.85 192.897 204.85C192.28 204.85 191.755 205 191.322 205.3C190.905 205.583 190.588 206.033 190.372 206.65C190.155 207.267 190.047 208.05 190.047 209V215H187.272ZM205.461 215.225C204.845 215.225 204.261 215.108 203.711 214.875C203.178 214.625 202.753 214.233 202.436 213.7C202.12 213.15 201.961 212.433 201.961 211.55V199.675L204.761 198.125V210.775C204.761 211.475 204.861 212.017 205.061 212.4C205.278 212.767 205.661 212.95 206.211 212.95C206.378 212.95 206.57 212.933 206.786 212.9C207.02 212.85 207.261 212.792 207.511 212.725V214.875C207.178 214.992 206.836 215.075 206.486 215.125C206.153 215.192 205.811 215.225 205.461 215.225ZM199.611 204.825V202.675H207.511V204.825H199.611ZM209.72 215V202.675H212.495V215H209.72ZM209.595 200.65V197.575H212.62V200.65H209.595ZM219.677 215.225C218.793 215.225 218.01 215.1 217.327 214.85C216.643 214.583 216.068 214.25 215.602 213.85C215.135 213.45 214.752 213.05 214.452 212.65L216.352 211C216.668 211.517 217.102 211.975 217.652 212.375C218.218 212.775 218.902 212.975 219.702 212.975C220.368 212.975 220.893 212.833 221.277 212.55C221.677 212.267 221.877 211.917 221.877 211.5C221.877 211.133 221.752 210.85 221.502 210.65C221.252 210.433 220.927 210.25 220.527 210.1C220.127 209.95 219.685 209.817 219.202 209.7C218.735 209.583 218.26 209.442 217.777 209.275C217.293 209.092 216.843 208.867 216.427 208.6C216.027 208.333 215.702 207.992 215.452 207.575C215.202 207.158 215.077 206.642 215.077 206.025C215.077 204.942 215.493 204.075 216.327 203.425C217.16 202.775 218.252 202.45 219.602 202.45C220.568 202.45 221.452 202.642 222.252 203.025C223.052 203.408 223.677 203.983 224.127 204.75L222.402 206.075C222.068 205.575 221.652 205.2 221.152 204.95C220.652 204.7 220.11 204.575 219.527 204.575C218.993 204.575 218.543 204.683 218.177 204.9C217.827 205.117 217.652 205.4 217.652 205.75C217.652 206.017 217.735 206.233 217.902 206.4C218.068 206.567 218.327 206.717 218.677 206.85C219.027 206.983 219.468 207.117 220.002 207.25C220.502 207.367 221.018 207.508 221.552 207.675C222.085 207.842 222.577 208.067 223.027 208.35C223.493 208.617 223.868 208.983 224.152 209.45C224.452 209.9 224.602 210.483 224.602 211.2C224.602 212 224.393 212.708 223.977 213.325C223.577 213.925 223.002 214.392 222.252 214.725C221.518 215.058 220.66 215.225 219.677 215.225ZM231.469 215.225C230.853 215.225 230.269 215.108 229.719 214.875C229.186 214.625 228.761 214.233 228.444 213.7C228.128 213.15 227.969 212.433 227.969 211.55V199.675L230.769 198.125V210.775C230.769 211.475 230.869 212.017 231.069 212.4C231.286 212.767 231.669 212.95 232.219 212.95C232.386 212.95 232.578 212.933 232.794 212.9C233.028 212.85 233.269 212.792 233.519 212.725V214.875C233.186 214.992 232.844 215.075 232.494 215.125C232.161 215.192 231.819 215.225 231.469 215.225ZM225.619 204.825V202.675H233.519V204.825H225.619ZM235.753 215V202.675H238.553V206L238.028 206.075C238.111 205.358 238.353 204.733 238.753 204.2C239.153 203.65 239.636 203.225 240.203 202.925C240.786 202.608 241.361 202.45 241.928 202.45C242.328 202.45 242.711 202.5 243.078 202.6C243.445 202.7 243.828 202.867 244.228 203.1L242.878 205.6C242.695 205.483 242.453 205.392 242.153 205.325C241.87 205.242 241.595 205.2 241.328 205.2C240.978 205.2 240.628 205.267 240.278 205.4C239.945 205.533 239.645 205.742 239.378 206.025C239.111 206.292 238.911 206.642 238.778 207.075C238.695 207.308 238.628 207.617 238.578 208C238.545 208.367 238.528 208.883 238.528 209.55V215H235.753ZM247.076 220.075L249.526 214.175L244.826 202.675H247.876L251.001 211.4L254.176 202.675H257.176L250.076 220.075H247.076ZM119.776 245L126.676 227.575H128.876L135.751 245H132.601L127.776 231.8L122.951 245H119.776ZM124.076 241.35L124.976 238.775H130.551L131.501 241.35H124.076ZM138.859 245L135.109 232.675H138.059L140.259 240.75L142.759 232.675H145.134L147.634 240.7L149.859 232.675H152.809L149.034 245H146.534L143.959 236.6L141.384 245H138.859ZM162.683 245L162.483 242.925V237.225C162.483 236.425 162.241 235.825 161.758 235.425C161.275 235.008 160.6 234.8 159.733 234.8C159.066 234.8 158.408 234.933 157.758 235.2C157.125 235.45 156.541 235.842 156.008 236.375L154.458 234.55C155.258 233.8 156.108 233.267 157.008 232.95C157.908 232.617 158.891 232.45 159.958 232.45C161.625 232.45 162.916 232.875 163.833 233.725C164.766 234.558 165.233 235.725 165.233 237.225V245H162.683ZM158.858 245.225C157.941 245.225 157.125 245.058 156.408 244.725C155.708 244.392 155.158 243.925 154.758 243.325C154.375 242.725 154.183 242.025 154.183 241.225C154.183 240.542 154.325 239.95 154.608 239.45C154.908 238.95 155.291 238.558 155.758 238.275C156.158 238.025 156.625 237.85 157.158 237.75C157.691 237.633 158.25 237.575 158.833 237.575H162.708V239.65H159.233C158.933 239.65 158.633 239.683 158.333 239.75C158.033 239.8 157.766 239.9 157.533 240.05C157.366 240.183 157.225 240.35 157.108 240.55C157.008 240.75 156.958 240.983 156.958 241.25C156.958 241.783 157.158 242.208 157.558 242.525C157.975 242.825 158.525 242.975 159.208 242.975C159.808 242.975 160.35 242.842 160.833 242.575C161.333 242.308 161.733 241.942 162.033 241.475C162.333 241.008 162.483 240.483 162.483 239.9L163.333 241.275C163.133 242.142 162.816 242.875 162.383 243.475C161.95 244.058 161.433 244.5 160.833 244.8C160.233 245.083 159.575 245.225 158.858 245.225ZM168.082 245V232.675H170.882V236L170.357 236.075C170.44 235.358 170.682 234.733 171.082 234.2C171.482 233.65 171.965 233.225 172.532 232.925C173.115 232.608 173.69 232.45 174.257 232.45C174.657 232.45 175.04 232.5 175.407 232.6C175.773 232.7 176.157 232.867 176.557 233.1L175.207 235.6C175.023 235.483 174.782 235.392 174.482 235.325C174.198 235.242 173.923 235.2 173.657 235.2C173.307 235.2 172.957 235.267 172.607 235.4C172.273 235.533 171.973 235.742 171.707 236.025C171.44 236.292 171.24 236.642 171.107 237.075C171.023 237.308 170.957 237.617 170.907 238C170.873 238.367 170.857 238.883 170.857 239.55V245H168.082ZM182.446 245.225C181.346 245.225 180.388 244.95 179.571 244.4C178.771 243.833 178.154 243.067 177.721 242.1C177.288 241.133 177.071 240.042 177.071 238.825C177.071 237.492 177.304 236.35 177.771 235.4C178.254 234.45 178.904 233.725 179.721 233.225C180.538 232.708 181.446 232.45 182.446 232.45C183.146 232.45 183.788 232.592 184.371 232.875C184.971 233.158 185.471 233.575 185.871 234.125C186.288 234.658 186.579 235.317 186.746 236.1L186.096 236.125V227.575H188.871V245H186.096V241.575L186.846 241.4C186.629 242.3 186.296 243.033 185.846 243.6C185.413 244.15 184.904 244.558 184.321 244.825C183.738 245.092 183.113 245.225 182.446 245.225ZM183.121 242.675C183.771 242.675 184.338 242.517 184.821 242.2C185.304 241.883 185.679 241.433 185.946 240.85C186.213 240.267 186.346 239.592 186.346 238.825C186.346 238.058 186.213 237.392 185.946 236.825C185.679 236.242 185.304 235.792 184.821 235.475C184.338 235.142 183.771 234.975 183.121 234.975C182.471 234.975 181.896 235.133 181.396 235.45C180.913 235.767 180.529 236.217 180.246 236.8C179.979 237.383 179.846 238.058 179.846 238.825C179.846 239.592 179.979 240.267 180.246 240.85C180.529 241.433 180.913 241.883 181.396 242.2C181.896 242.517 182.471 242.675 183.121 242.675Z" fill="white" style="fill:white;fill-opacity:1;"/>
</svg>
